<svg xmlns="http://www.w3.org/2000/svg" xmlns:rdkit="http://www.rdkit.org/xml" xmlns:xlink="http://www.w3.org/1999/xlink" version="1.1" baseProfile="full" xml:space="preserve" width="2000px" height="1200px" viewBox="0 0 2000 1200">
<!-- END OF HEADER -->
<rect style="opacity:1.0;fill:#FFFFFF;stroke:none" width="2000.0" height="1200.0" x="0.0" y="0.0"> </rect>
<path class="bond-0 atom-0 atom-1" d="M 105.3,236.1 L 176.7,194.9" style="fill:none;fill-rule:evenodd;stroke:#000000;stroke-width:2.0px;stroke-linecap:butt;stroke-linejoin:miter;stroke-opacity:1"/>
<path class="bond-1 atom-1 atom-2" d="M 176.7,194.9 L 206.7,212.1" style="fill:none;fill-rule:evenodd;stroke:#000000;stroke-width:2.0px;stroke-linecap:butt;stroke-linejoin:miter;stroke-opacity:1"/>
<path class="bond-1 atom-1 atom-2" d="M 206.7,212.1 L 236.6,229.4" style="fill:none;fill-rule:evenodd;stroke:#0000FF;stroke-width:2.0px;stroke-linecap:butt;stroke-linejoin:miter;stroke-opacity:1"/>
<path class="bond-2 atom-1 atom-3" d="M 182.9,198.4 L 182.9,162.8" style="fill:none;fill-rule:evenodd;stroke:#000000;stroke-width:2.0px;stroke-linecap:butt;stroke-linejoin:miter;stroke-opacity:1"/>
<path class="bond-2 atom-1 atom-3" d="M 182.9,162.8 L 182.9,127.2" style="fill:none;fill-rule:evenodd;stroke:#FF0000;stroke-width:2.0px;stroke-linecap:butt;stroke-linejoin:miter;stroke-opacity:1"/>
<path class="bond-2 atom-1 atom-3" d="M 170.5,198.4 L 170.5,162.8" style="fill:none;fill-rule:evenodd;stroke:#000000;stroke-width:2.0px;stroke-linecap:butt;stroke-linejoin:miter;stroke-opacity:1"/>
<path class="bond-2 atom-1 atom-3" d="M 170.5,162.8 L 170.5,127.2" style="fill:none;fill-rule:evenodd;stroke:#FF0000;stroke-width:2.0px;stroke-linecap:butt;stroke-linejoin:miter;stroke-opacity:1"/>
<path d="M 173.2,196.9 L 176.7,194.9 L 178.2,195.7" style="fill:none;stroke:#000000;stroke-width:2.0px;stroke-linecap:butt;stroke-linejoin:miter;stroke-opacity:1;"/>
<path class="atom-2" d="M 243.0 224.4 L 250.7 236.8 Q 251.5 238.0, 252.7 240.2 Q 253.9 242.5, 254.0 242.6 L 254.0 224.4 L 257.1 224.4 L 257.1 247.8 L 253.9 247.8 L 245.6 234.3 Q 244.7 232.7, 243.7 230.9 Q 242.7 229.1, 242.4 228.5 L 242.4 247.8 L 239.3 247.8 L 239.3 224.4 L 243.0 224.4 " fill="#0000FF"/>
<path class="atom-2" d="M 261.5 224.4 L 264.7 224.4 L 264.7 234.4 L 276.6 234.4 L 276.6 224.4 L 279.8 224.4 L 279.8 247.8 L 276.6 247.8 L 276.6 237.0 L 264.7 237.0 L 264.7 247.8 L 261.5 247.8 L 261.5 224.4 " fill="#0000FF"/>
<path class="atom-2" d="M 284.4 247.0 Q 285.0 245.5, 286.3 244.7 Q 287.7 243.9, 289.5 243.9 Q 291.9 243.9, 293.2 245.2 Q 294.5 246.4, 294.5 248.7 Q 294.5 250.9, 292.8 253.1 Q 291.1 255.2, 287.6 257.7 L 294.7 257.7 L 294.7 259.5 L 284.3 259.5 L 284.3 258.0 Q 287.2 256.0, 288.9 254.5 Q 290.6 252.9, 291.5 251.6 Q 292.3 250.2, 292.3 248.8 Q 292.3 247.3, 291.6 246.5 Q 290.8 245.6, 289.5 245.6 Q 288.3 245.6, 287.5 246.1 Q 286.6 246.6, 286.0 247.7 L 284.4 247.0 " fill="#0000FF"/>
<path class="atom-3" d="M 166.0 112.4 Q 166.0 106.8, 168.8 103.6 Q 171.5 100.5, 176.7 100.5 Q 181.9 100.5, 184.7 103.6 Q 187.5 106.8, 187.5 112.4 Q 187.5 118.1, 184.7 121.3 Q 181.8 124.5, 176.7 124.5 Q 171.6 124.5, 168.8 121.3 Q 166.0 118.1, 166.0 112.4 M 176.7 121.9 Q 180.3 121.9, 182.2 119.5 Q 184.2 117.1, 184.2 112.4 Q 184.2 107.8, 182.2 105.5 Q 180.3 103.2, 176.7 103.2 Q 173.2 103.2, 171.2 105.5 Q 169.3 107.8, 169.3 112.4 Q 169.3 117.1, 171.2 119.5 Q 173.2 121.9, 176.7 121.9 " fill="#FF0000"/>
<path class="legend" d="M 187.4 381.5 Q 188.7 381.5, 189.4 382.2 Q 190.1 383.0, 190.1 384.4 L 190.1 389.8 L 188.6 389.8 L 188.6 384.5 Q 188.6 383.5, 188.2 383.1 Q 187.8 382.7, 187.0 382.7 Q 186.2 382.7, 185.6 383.0 Q 185.0 383.3, 184.6 384.0 L 184.6 389.8 L 183.1 389.8 L 183.1 381.6 L 184.3 381.6 L 184.5 382.8 Q 185.6 381.5, 187.4 381.5 " fill="#000000"/>
<path class="legend" d="M 199.0 381.6 L 199.0 389.8 L 197.8 389.8 L 197.6 388.7 Q 196.5 390.0, 194.8 390.0 Q 193.4 390.0, 192.7 389.2 Q 192.0 388.5, 192.0 387.1 L 192.0 381.6 L 193.5 381.6 L 193.5 386.9 Q 193.5 387.9, 193.9 388.4 Q 194.3 388.8, 195.1 388.8 Q 195.9 388.8, 196.5 388.5 Q 197.1 388.1, 197.5 387.5 L 197.5 381.6 L 199.0 381.6 " fill="#000000"/>
<path class="legend" d="M 201.0 385.7 Q 201.0 383.7, 202.0 382.6 Q 203.0 381.5, 205.0 381.5 Q 206.8 381.5, 207.8 382.8 L 206.8 383.6 Q 206.4 383.1, 206.0 382.9 Q 205.6 382.7, 205.0 382.7 Q 203.8 382.7, 203.2 383.4 Q 202.6 384.2, 202.6 385.7 Q 202.6 387.2, 203.2 388.0 Q 203.9 388.8, 205.1 388.8 Q 205.7 388.8, 206.2 388.6 Q 206.7 388.5, 207.2 388.2 L 207.7 389.2 Q 206.5 389.9, 205.0 389.9 Q 203.0 389.9, 202.0 388.8 Q 201.0 387.7, 201.0 385.7 " fill="#000000"/>
<path class="legend" d="M 214.7 383.8 Q 215.7 384.3, 216.3 385.0 Q 216.9 385.6, 216.9 386.7 Q 216.9 387.7, 216.4 388.4 Q 215.9 389.2, 215.0 389.6 Q 214.2 390.0, 213.0 390.0 Q 211.1 390.0, 210.0 389.1 Q 208.9 388.3, 208.9 386.7 Q 208.9 385.8, 209.4 385.1 Q 209.9 384.4, 210.9 383.9 Q 210.1 383.5, 209.7 382.9 Q 209.3 382.2, 209.3 381.3 Q 209.3 380.0, 210.3 379.2 Q 211.3 378.4, 212.9 378.4 Q 214.6 378.4, 215.5 379.2 Q 216.5 380.0, 216.5 381.3 Q 216.5 382.1, 216.0 382.7 Q 215.6 383.3, 214.7 383.8 M 212.9 379.6 Q 212.0 379.6, 211.5 380.0 Q 210.9 380.5, 210.9 381.3 Q 210.9 381.9, 211.3 382.3 Q 211.6 382.7, 212.1 382.9 Q 212.7 383.1, 213.6 383.4 Q 214.3 383.0, 214.6 382.4 Q 214.9 381.9, 214.9 381.3 Q 214.9 380.5, 214.4 380.0 Q 213.9 379.6, 212.9 379.6 M 213.0 388.8 Q 214.0 388.8, 214.7 388.2 Q 215.3 387.7, 215.3 386.7 Q 215.3 386.1, 215.0 385.7 Q 214.7 385.3, 214.1 385.1 Q 213.6 384.9, 212.8 384.6 L 212.0 384.4 Q 211.2 384.8, 210.9 385.4 Q 210.5 386.0, 210.5 386.7 Q 210.5 387.7, 211.2 388.2 Q 211.9 388.8, 213.0 388.8 " fill="#000000"/>
<path class="bond-0 atom-0 atom-1" d="M 528.5,247.7 L 600.0,206.5" style="fill:none;fill-rule:evenodd;stroke:#000000;stroke-width:2.0px;stroke-linecap:butt;stroke-linejoin:miter;stroke-opacity:1"/>
<path class="bond-1 atom-1 atom-2" d="M 600.0,206.5 L 671.5,247.7" style="fill:none;fill-rule:evenodd;stroke:#000000;stroke-width:2.0px;stroke-linecap:butt;stroke-linejoin:miter;stroke-opacity:1"/>
<path class="bond-2 atom-1 atom-3" d="M 600.0,206.5 L 600.0,172.4" style="fill:none;fill-rule:evenodd;stroke:#000000;stroke-width:2.0px;stroke-linecap:butt;stroke-linejoin:miter;stroke-opacity:1"/>
<path class="bond-2 atom-1 atom-3" d="M 600.0,172.4 L 600.0,138.4" style="fill:none;fill-rule:evenodd;stroke:#0000FF;stroke-width:2.0px;stroke-linecap:butt;stroke-linejoin:miter;stroke-opacity:1"/>
<path class="atom-3" d="M 594.8 112.3 L 602.5 124.6 Q 603.3 125.9, 604.5 128.1 Q 605.7 130.3, 605.8 130.4 L 605.8 112.3 L 608.9 112.3 L 608.9 135.6 L 605.7 135.6 L 597.4 122.1 Q 596.5 120.5, 595.5 118.7 Q 594.5 116.9, 594.2 116.3 L 594.2 135.6 L 591.1 135.6 L 591.1 112.3 L 594.8 112.3 " fill="#0000FF"/>
<path class="atom-3" d="M 613.3 112.3 L 616.5 112.3 L 616.5 122.2 L 628.4 122.2 L 628.4 112.3 L 631.6 112.3 L 631.6 135.6 L 628.4 135.6 L 628.4 124.8 L 616.5 124.8 L 616.5 135.6 L 613.3 135.6 L 613.3 112.3 " fill="#0000FF"/>
<path class="atom-3" d="M 636.2 134.8 Q 636.8 133.4, 638.1 132.5 Q 639.5 131.7, 641.3 131.7 Q 643.7 131.7, 645.0 133.0 Q 646.3 134.2, 646.3 136.5 Q 646.3 138.8, 644.6 140.9 Q 642.9 143.0, 639.4 145.6 L 646.5 145.6 L 646.5 147.3 L 636.1 147.3 L 636.1 145.9 Q 639.0 143.8, 640.7 142.3 Q 642.4 140.8, 643.3 139.4 Q 644.1 138.0, 644.1 136.6 Q 644.1 135.1, 643.4 134.3 Q 642.6 133.5, 641.3 133.5 Q 640.1 133.5, 639.3 134.0 Q 638.4 134.5, 637.8 135.6 L 636.2 134.8 " fill="#0000FF"/>
<path class="legend" d="M 582.4 381.5 Q 583.7 381.5, 584.4 382.2 Q 585.1 383.0, 585.1 384.4 L 585.1 389.9 L 583.6 389.9 L 583.6 384.5 Q 583.6 383.6, 583.2 383.1 Q 582.8 382.7, 582.0 382.7 Q 581.2 382.7, 580.6 383.0 Q 580.0 383.4, 579.6 384.0 L 579.6 389.9 L 578.1 389.9 L 578.1 381.6 L 579.3 381.6 L 579.5 382.8 Q 580.6 381.5, 582.4 381.5 " fill="#000000"/>
<path class="legend" d="M 594.0 381.6 L 594.0 389.9 L 592.8 389.9 L 592.6 388.7 Q 591.6 390.0, 589.8 390.0 Q 588.5 390.0, 587.8 389.3 Q 587.0 388.5, 587.0 387.1 L 587.0 381.6 L 588.6 381.6 L 588.6 387.0 Q 588.6 387.9, 588.9 388.4 Q 589.3 388.8, 590.1 388.8 Q 590.9 388.8, 591.5 388.5 Q 592.1 388.1, 592.5 387.5 L 592.5 381.6 L 594.0 381.6 " fill="#000000"/>
<path class="legend" d="M 596.1 385.7 Q 596.1 383.7, 597.1 382.6 Q 598.1 381.5, 600.0 381.5 Q 601.9 381.5, 602.9 382.8 L 601.9 383.6 Q 601.5 383.1, 601.0 382.9 Q 600.6 382.7, 600.0 382.7 Q 598.9 382.7, 598.3 383.5 Q 597.6 384.2, 597.6 385.7 Q 597.6 387.2, 598.3 388.0 Q 598.9 388.8, 600.1 388.8 Q 600.8 388.8, 601.3 388.7 Q 601.7 388.5, 602.3 388.2 L 602.7 389.3 Q 601.5 390.0, 600.0 390.0 Q 598.1 390.0, 597.1 388.8 Q 596.1 387.7, 596.1 385.7 " fill="#000000"/>
<path class="legend" d="M 611.4 386.0 L 612.7 386.0 L 612.7 387.2 L 611.4 387.2 L 611.4 389.9 L 609.9 389.9 L 609.9 387.2 L 604.0 387.2 L 604.0 386.2 L 609.0 378.5 L 611.4 378.5 L 611.4 386.0 M 605.9 386.0 L 609.9 386.0 L 609.9 379.6 L 605.9 386.0 " fill="#000000"/>
<path class="legend" d="M 618.4 382.8 Q 619.4 382.8, 620.2 383.2 Q 621.0 383.6, 621.5 384.4 Q 621.9 385.2, 621.9 386.3 Q 621.9 387.4, 621.3 388.3 Q 620.8 389.1, 619.9 389.6 Q 618.9 390.0, 617.9 390.0 Q 616.8 390.0, 615.9 389.6 Q 614.9 389.2, 614.3 388.5 L 615.2 387.5 Q 615.7 388.1, 616.5 388.4 Q 617.2 388.7, 617.9 388.7 Q 618.9 388.7, 619.6 388.1 Q 620.3 387.4, 620.3 386.3 Q 620.3 385.1, 619.6 384.5 Q 618.9 384.0, 617.8 384.0 Q 616.8 384.0, 615.7 384.4 L 614.8 384.0 L 615.4 378.5 L 621.2 378.5 L 621.1 379.8 L 616.7 379.8 L 616.4 383.2 Q 617.4 382.8, 618.4 382.8 " fill="#000000"/>
<path class="bond-0 atom-0 atom-1" d="M 1042.1,180.0 L 1006.7,180.0" style="fill:none;fill-rule:evenodd;stroke:#0000FF;stroke-width:2.0px;stroke-linecap:butt;stroke-linejoin:miter;stroke-opacity:1"/>
<path class="bond-0 atom-0 atom-1" d="M 1006.7,180.0 L 971.2,180.0" style="fill:none;fill-rule:evenodd;stroke:#000000;stroke-width:2.0px;stroke-linecap:butt;stroke-linejoin:miter;stroke-opacity:1"/>
<path class="bond-1 atom-1 atom-2" d="M 971.2,180.0 L 899.7,138.7" style="fill:none;fill-rule:evenodd;stroke:#000000;stroke-width:2.0px;stroke-linecap:butt;stroke-linejoin:miter;stroke-opacity:1"/>
<path class="bond-2 atom-2 atom-3" d="M 899.7,138.7 L 899.7,221.3" style="fill:none;fill-rule:evenodd;stroke:#000000;stroke-width:2.0px;stroke-linecap:butt;stroke-linejoin:miter;stroke-opacity:1"/>
<path class="bond-3 atom-3 atom-1" d="M 899.7,221.3 L 971.2,180.0" style="fill:none;fill-rule:evenodd;stroke:#000000;stroke-width:2.0px;stroke-linecap:butt;stroke-linejoin:miter;stroke-opacity:1"/>
<path d="M 903.3,140.8 L 899.7,138.7 L 899.7,142.9" style="fill:none;stroke:#000000;stroke-width:2.0px;stroke-linecap:butt;stroke-linejoin:miter;stroke-opacity:1;"/>
<path d="M 899.7,217.1 L 899.7,221.3 L 903.3,219.2" style="fill:none;stroke:#000000;stroke-width:2.0px;stroke-linecap:butt;stroke-linejoin:miter;stroke-opacity:1;"/>
<path class="atom-0" d="M 1048.6 168.3 L 1056.2 180.7 Q 1057.0 181.9, 1058.2 184.1 Q 1059.4 186.3, 1059.5 186.5 L 1059.5 168.3 L 1062.6 168.3 L 1062.6 191.7 L 1059.4 191.7 L 1051.2 178.2 Q 1050.2 176.6, 1049.2 174.8 Q 1048.2 172.9, 1047.9 172.4 L 1047.9 191.7 L 1044.9 191.7 L 1044.9 168.3 L 1048.6 168.3 " fill="#0000FF"/>
<path class="atom-0" d="M 1067.1 168.3 L 1070.2 168.3 L 1070.2 178.3 L 1082.2 178.3 L 1082.2 168.3 L 1085.3 168.3 L 1085.3 191.7 L 1082.2 191.7 L 1082.2 180.9 L 1070.2 180.9 L 1070.2 191.7 L 1067.1 191.7 L 1067.1 168.3 " fill="#0000FF"/>
<path class="atom-0" d="M 1089.9 190.9 Q 1090.5 189.4, 1091.8 188.6 Q 1093.2 187.8, 1095.1 187.8 Q 1097.4 187.8, 1098.7 189.0 Q 1100.0 190.3, 1100.0 192.5 Q 1100.0 194.8, 1098.3 197.0 Q 1096.6 199.1, 1093.1 201.6 L 1100.3 201.6 L 1100.3 203.4 L 1089.9 203.4 L 1089.9 201.9 Q 1092.8 199.9, 1094.4 198.3 Q 1096.2 196.8, 1097.0 195.4 Q 1097.8 194.1, 1097.8 192.7 Q 1097.8 191.2, 1097.1 190.3 Q 1096.3 189.5, 1095.1 189.5 Q 1093.8 189.5, 1093.0 190.0 Q 1092.2 190.5, 1091.6 191.6 L 1089.9 190.9 " fill="#0000FF"/>
<path class="legend" d="M 983.4 381.5 Q 984.7 381.5, 985.4 382.2 Q 986.1 383.0, 986.1 384.4 L 986.1 389.9 L 984.6 389.9 L 984.6 384.5 Q 984.6 383.6, 984.2 383.1 Q 983.8 382.7, 983.0 382.7 Q 982.3 382.7, 981.6 383.0 Q 981.0 383.4, 980.6 384.0 L 980.6 389.9 L 979.1 389.9 L 979.1 381.6 L 980.3 381.6 L 980.5 382.8 Q 981.6 381.5, 983.4 381.5 " fill="#000000"/>
<path class="legend" d="M 995.0 381.6 L 995.0 389.9 L 993.8 389.9 L 993.6 388.7 Q 992.6 390.0, 990.8 390.0 Q 989.4 390.0, 988.7 389.3 Q 988.0 388.5, 988.0 387.1 L 988.0 381.6 L 989.5 381.6 L 989.5 387.0 Q 989.5 387.9, 989.9 388.4 Q 990.3 388.8, 991.1 388.8 Q 991.9 388.8, 992.5 388.5 Q 993.1 388.1, 993.5 387.5 L 993.5 381.6 L 995.0 381.6 " fill="#000000"/>
<path class="legend" d="M 997.0 385.7 Q 997.0 383.7, 998.0 382.6 Q 999.0 381.5, 1001.0 381.5 Q 1002.9 381.5, 1003.8 382.8 L 1002.8 383.6 Q 1002.4 383.1, 1002.0 382.9 Q 1001.6 382.7, 1001.0 382.7 Q 999.8 382.7, 999.2 383.5 Q 998.6 384.2, 998.6 385.7 Q 998.6 387.2, 999.2 388.0 Q 999.9 388.8, 1001.1 388.8 Q 1001.8 388.8, 1002.2 388.7 Q 1002.7 388.5, 1003.3 388.2 L 1003.7 389.3 Q 1002.5 390.0, 1001.0 390.0 Q 999.0 390.0, 998.0 388.8 Q 997.0 387.7, 997.0 385.7 " fill="#000000"/>
<path class="legend" d="M 1009.0 382.8 Q 1010.0 382.8, 1010.8 383.2 Q 1011.7 383.6, 1012.1 384.4 Q 1012.6 385.2, 1012.6 386.3 Q 1012.6 387.4, 1012.0 388.3 Q 1011.4 389.1, 1010.5 389.6 Q 1009.6 390.0, 1008.5 390.0 Q 1007.5 390.0, 1006.5 389.6 Q 1005.6 389.2, 1004.9 388.5 L 1005.9 387.5 Q 1006.4 388.1, 1007.1 388.4 Q 1007.8 388.7, 1008.6 388.7 Q 1009.6 388.7, 1010.3 388.1 Q 1011.0 387.4, 1011.0 386.3 Q 1011.0 385.1, 1010.3 384.5 Q 1009.6 384.0, 1008.5 384.0 Q 1007.5 384.0, 1006.4 384.4 L 1005.5 384.0 L 1006.1 378.5 L 1011.9 378.5 L 1011.7 379.8 L 1007.4 379.8 L 1007.0 383.2 Q 1008.0 382.8, 1009.0 382.8 " fill="#000000"/>
<path class="legend" d="M 1014.7 388.6 L 1017.2 388.6 L 1017.2 380.1 L 1014.4 381.0 L 1014.1 380.0 L 1017.5 378.5 L 1018.7 378.7 L 1018.7 388.6 L 1020.9 388.6 L 1020.9 389.9 L 1014.7 389.9 L 1014.7 388.6 " fill="#000000"/>
<path class="bond-0 atom-0 atom-1" d="M 1335.5,174.2 L 1370.9,174.2" style="fill:none;fill-rule:evenodd;stroke:#000000;stroke-width:2.0px;stroke-linecap:butt;stroke-linejoin:miter;stroke-opacity:1"/>
<path class="bond-0 atom-0 atom-1" d="M 1370.9,174.2 L 1406.4,174.2" style="fill:none;fill-rule:evenodd;stroke:#0000FF;stroke-width:2.0px;stroke-linecap:butt;stroke-linejoin:miter;stroke-opacity:1"/>
<path class="atom-1" d="M 1412.8 162.5 L 1420.5 174.9 Q 1421.2 176.1, 1422.5 178.3 Q 1423.7 180.5, 1423.8 180.6 L 1423.8 162.5 L 1426.9 162.5 L 1426.9 185.8 L 1423.7 185.8 L 1415.4 172.3 Q 1414.5 170.7, 1413.5 168.9 Q 1412.5 167.1, 1412.2 166.5 L 1412.2 185.8 L 1409.1 185.8 L 1409.1 162.5 L 1412.8 162.5 " fill="#0000FF"/>
<path class="atom-1" d="M 1431.3 162.5 L 1434.5 162.5 L 1434.5 172.4 L 1446.4 172.4 L 1446.4 162.5 L 1449.6 162.5 L 1449.6 185.8 L 1446.4 185.8 L 1446.4 175.0 L 1434.5 175.0 L 1434.5 185.8 L 1431.3 185.8 L 1431.3 162.5 " fill="#0000FF"/>
<path class="atom-1" d="M 1454.2 185.0 Q 1454.8 183.6, 1456.1 182.8 Q 1457.5 181.9, 1459.3 181.9 Q 1461.7 181.9, 1463.0 183.2 Q 1464.3 184.5, 1464.3 186.7 Q 1464.3 189.0, 1462.6 191.1 Q 1460.9 193.3, 1457.4 195.8 L 1464.5 195.8 L 1464.5 197.5 L 1454.1 197.5 L 1454.1 196.1 Q 1457.0 194.0, 1458.7 192.5 Q 1460.4 191.0, 1461.3 189.6 Q 1462.1 188.2, 1462.1 186.8 Q 1462.1 185.3, 1461.4 184.5 Q 1460.6 183.7, 1459.3 183.7 Q 1458.1 183.7, 1457.3 184.2 Q 1456.4 184.7, 1455.8 185.8 L 1454.2 185.0 " fill="#0000FF"/>
<path class="legend" d="M 1382.7 381.5 Q 1384.0 381.5, 1384.7 382.2 Q 1385.4 383.0, 1385.4 384.4 L 1385.4 389.9 L 1383.9 389.9 L 1383.9 384.5 Q 1383.9 383.6, 1383.5 383.1 Q 1383.1 382.7, 1382.3 382.7 Q 1381.5 382.7, 1380.9 383.0 Q 1380.3 383.4, 1379.9 384.0 L 1379.9 389.9 L 1378.4 389.9 L 1378.4 381.6 L 1379.6 381.6 L 1379.8 382.8 Q 1380.9 381.5, 1382.7 381.5 " fill="#000000"/>
<path class="legend" d="M 1394.3 381.6 L 1394.3 389.9 L 1393.1 389.9 L 1392.9 388.7 Q 1391.9 390.0, 1390.1 390.0 Q 1388.8 390.0, 1388.1 389.3 Q 1387.3 388.5, 1387.3 387.1 L 1387.3 381.6 L 1388.9 381.6 L 1388.9 387.0 Q 1388.9 387.9, 1389.2 388.4 Q 1389.6 388.8, 1390.4 388.8 Q 1391.2 388.8, 1391.8 388.5 Q 1392.4 388.1, 1392.8 387.5 L 1392.8 381.6 L 1394.3 381.6 " fill="#000000"/>
<path class="legend" d="M 1396.4 385.7 Q 1396.4 383.7, 1397.4 382.6 Q 1398.4 381.5, 1400.3 381.5 Q 1402.2 381.5, 1403.2 382.8 L 1402.2 383.6 Q 1401.8 383.1, 1401.3 382.9 Q 1400.9 382.7, 1400.3 382.7 Q 1399.2 382.7, 1398.5 383.5 Q 1397.9 384.2, 1397.9 385.7 Q 1397.9 387.2, 1398.6 388.0 Q 1399.2 388.8, 1400.4 388.8 Q 1401.1 388.8, 1401.5 388.7 Q 1402.0 388.5, 1402.6 388.2 L 1403.0 389.3 Q 1401.8 390.0, 1400.3 390.0 Q 1398.4 390.0, 1397.4 388.8 Q 1396.4 387.7, 1396.4 385.7 " fill="#000000"/>
<path class="legend" d="M 1408.1 378.4 Q 1410.1 378.4, 1411.1 379.8 Q 1412.1 381.1, 1412.1 383.9 Q 1412.1 386.9, 1410.9 388.4 Q 1409.6 390.0, 1407.2 390.0 Q 1406.5 390.0, 1405.9 389.8 Q 1405.3 389.7, 1404.7 389.3 L 1405.3 388.3 Q 1406.2 388.7, 1407.2 388.7 Q 1408.8 388.7, 1409.6 387.7 Q 1410.4 386.6, 1410.5 384.5 Q 1409.9 385.0, 1409.2 385.3 Q 1408.5 385.6, 1407.7 385.6 Q 1406.7 385.6, 1405.9 385.2 Q 1405.1 384.7, 1404.7 384.0 Q 1404.3 383.2, 1404.3 382.2 Q 1404.3 381.1, 1404.7 380.2 Q 1405.2 379.4, 1406.1 378.9 Q 1407.0 378.4, 1408.1 378.4 M 1405.9 382.2 Q 1405.9 383.2, 1406.4 383.7 Q 1407.0 384.3, 1408.0 384.3 Q 1408.7 384.3, 1409.3 384.0 Q 1410.0 383.8, 1410.5 383.3 Q 1410.4 381.4, 1409.9 380.6 Q 1409.3 379.7, 1408.1 379.7 Q 1407.5 379.7, 1406.9 380.0 Q 1406.4 380.4, 1406.2 380.9 Q 1405.9 381.5, 1405.9 382.2 " fill="#000000"/>
<path class="legend" d="M 1418.1 382.8 Q 1419.0 382.8, 1419.9 383.2 Q 1420.7 383.6, 1421.1 384.4 Q 1421.6 385.2, 1421.6 386.3 Q 1421.6 387.4, 1421.0 388.3 Q 1420.5 389.1, 1419.5 389.6 Q 1418.6 390.0, 1417.6 390.0 Q 1416.5 390.0, 1415.6 389.6 Q 1414.6 389.2, 1413.9 388.5 L 1414.9 387.5 Q 1415.4 388.1, 1416.1 388.4 Q 1416.9 388.7, 1417.6 388.7 Q 1418.6 388.7, 1419.3 388.1 Q 1420.0 387.4, 1420.0 386.3 Q 1420.0 385.1, 1419.3 384.5 Q 1418.6 384.0, 1417.5 384.0 Q 1416.5 384.0, 1415.4 384.4 L 1414.5 384.0 L 1415.1 378.5 L 1420.9 378.5 L 1420.7 379.8 L 1416.4 379.8 L 1416.1 383.2 Q 1417.1 382.8, 1418.1 382.8 " fill="#000000"/>
<path class="bond-0 atom-0 atom-1" d="M 1723.5,207.3 L 1753.4,224.6" style="fill:none;fill-rule:evenodd;stroke:#0000FF;stroke-width:2.0px;stroke-linecap:butt;stroke-linejoin:miter;stroke-opacity:1"/>
<path class="bond-0 atom-0 atom-1" d="M 1753.4,224.6 L 1783.3,241.9" style="fill:none;fill-rule:evenodd;stroke:#000000;stroke-width:2.0px;stroke-linecap:butt;stroke-linejoin:miter;stroke-opacity:1"/>
<path class="bond-1 atom-1 atom-2" d="M 1783.3,241.9 L 1854.8,200.6" style="fill:none;fill-rule:evenodd;stroke:#000000;stroke-width:2.0px;stroke-linecap:butt;stroke-linejoin:miter;stroke-opacity:1"/>
<path class="bond-2 atom-2 atom-3" d="M 1854.8,200.6 L 1885.7,218.5" style="fill:none;fill-rule:evenodd;stroke:#000000;stroke-width:2.0px;stroke-linecap:butt;stroke-linejoin:miter;stroke-opacity:1"/>
<path class="bond-2 atom-2 atom-3" d="M 1885.7,218.5 L 1916.6,236.3" style="fill:none;fill-rule:evenodd;stroke:#33CCCC;stroke-width:2.0px;stroke-linecap:butt;stroke-linejoin:miter;stroke-opacity:1"/>
<path class="bond-3 atom-2 atom-4" d="M 1854.8,200.6 L 1854.8,166.6" style="fill:none;fill-rule:evenodd;stroke:#000000;stroke-width:2.0px;stroke-linecap:butt;stroke-linejoin:miter;stroke-opacity:1"/>
<path class="bond-3 atom-2 atom-4" d="M 1854.8,166.6 L 1854.8,132.5" style="fill:none;fill-rule:evenodd;stroke:#33CCCC;stroke-width:2.0px;stroke-linecap:butt;stroke-linejoin:miter;stroke-opacity:1"/>
<path d="M 1781.8,241.0 L 1783.3,241.9 L 1786.9,239.8" style="fill:none;stroke:#000000;stroke-width:2.0px;stroke-linecap:butt;stroke-linejoin:miter;stroke-opacity:1;"/>
<path class="atom-0" d="M 1666.8 188.9 L 1669.9 188.9 L 1669.9 198.9 L 1681.9 198.9 L 1681.9 188.9 L 1685.1 188.9 L 1685.1 212.3 L 1681.9 212.3 L 1681.9 201.5 L 1669.9 201.5 L 1669.9 212.3 L 1666.8 212.3 L 1666.8 188.9 " fill="#0000FF"/>
<path class="atom-0" d="M 1689.6 211.5 Q 1690.2 210.0, 1691.5 209.2 Q 1692.9 208.4, 1694.8 208.4 Q 1697.1 208.4, 1698.4 209.7 Q 1699.7 210.9, 1699.7 213.2 Q 1699.7 215.5, 1698.0 217.6 Q 1696.3 219.7, 1692.9 222.3 L 1700.0 222.3 L 1700.0 224.0 L 1689.6 224.0 L 1689.6 222.5 Q 1692.5 220.5, 1694.2 219.0 Q 1695.9 217.4, 1696.7 216.1 Q 1697.5 214.7, 1697.5 213.3 Q 1697.5 211.8, 1696.8 211.0 Q 1696.1 210.1, 1694.8 210.1 Q 1693.5 210.1, 1692.7 210.6 Q 1691.9 211.1, 1691.3 212.3 L 1689.6 211.5 " fill="#0000FF"/>
<path class="atom-0" d="M 1706.7 188.9 L 1714.4 201.3 Q 1715.1 202.5, 1716.3 204.8 Q 1717.6 207.0, 1717.6 207.1 L 1717.6 188.9 L 1720.7 188.9 L 1720.7 212.3 L 1717.5 212.3 L 1709.3 198.8 Q 1708.4 197.2, 1707.3 195.4 Q 1706.3 193.6, 1706.0 193.0 L 1706.0 212.3 L 1703.0 212.3 L 1703.0 188.9 L 1706.7 188.9 " fill="#0000FF"/>
<path class="atom-3" d="M 1919.3 230.2 L 1933.2 230.2 L 1933.2 232.9 L 1922.5 232.9 L 1922.5 240.0 L 1932.0 240.0 L 1932.0 242.7 L 1922.5 242.7 L 1922.5 253.6 L 1919.3 253.6 L 1919.3 230.2 " fill="#33CCCC"/>
<path class="atom-4" d="M 1847.9 106.4 L 1861.8 106.4 L 1861.8 109.1 L 1851.0 109.1 L 1851.0 116.2 L 1860.6 116.2 L 1860.6 118.9 L 1851.0 118.9 L 1851.0 129.8 L 1847.9 129.8 L 1847.9 106.4 " fill="#33CCCC"/>
<path class="legend" d="M 1779.2 381.5 Q 1780.6 381.5, 1781.2 382.2 Q 1782.0 383.0, 1782.0 384.4 L 1782.0 389.9 L 1780.4 389.9 L 1780.4 384.5 Q 1780.4 383.6, 1780.1 383.1 Q 1779.7 382.7, 1778.9 382.7 Q 1778.1 382.7, 1777.5 383.0 Q 1776.9 383.4, 1776.5 384.0 L 1776.5 389.9 L 1775.0 389.9 L 1775.0 381.6 L 1776.2 381.6 L 1776.4 382.8 Q 1777.5 381.5, 1779.2 381.5 " fill="#000000"/>
<path class="legend" d="M 1790.9 381.6 L 1790.9 389.9 L 1789.6 389.9 L 1789.5 388.7 Q 1788.4 390.0, 1786.7 390.0 Q 1785.3 390.0, 1784.6 389.3 Q 1783.9 388.5, 1783.9 387.1 L 1783.9 381.6 L 1785.4 381.6 L 1785.4 387.0 Q 1785.4 387.9, 1785.8 388.4 Q 1786.1 388.8, 1787.0 388.8 Q 1787.7 388.8, 1788.4 388.5 Q 1789.0 388.1, 1789.4 387.5 L 1789.4 381.6 L 1790.9 381.6 " fill="#000000"/>
<path class="legend" d="M 1792.9 385.7 Q 1792.9 383.7, 1793.9 382.6 Q 1794.9 381.5, 1796.8 381.5 Q 1798.7 381.5, 1799.7 382.8 L 1798.7 383.6 Q 1798.3 383.1, 1797.8 382.9 Q 1797.4 382.7, 1796.8 382.7 Q 1795.7 382.7, 1795.1 383.5 Q 1794.4 384.2, 1794.4 385.7 Q 1794.4 387.2, 1795.1 388.0 Q 1795.7 388.8, 1796.9 388.8 Q 1797.6 388.8, 1798.1 388.7 Q 1798.5 388.5, 1799.1 388.2 L 1799.5 389.3 Q 1798.3 390.0, 1796.8 390.0 Q 1794.9 390.0, 1793.9 388.8 Q 1792.9 387.7, 1792.9 385.7 " fill="#000000"/>
<path class="legend" d="M 1801.4 388.6 L 1803.9 388.6 L 1803.9 380.1 L 1801.1 381.0 L 1800.8 380.0 L 1804.2 378.5 L 1805.4 378.7 L 1805.4 388.6 L 1807.6 388.6 L 1807.6 389.9 L 1801.4 389.9 L 1801.4 388.6 " fill="#000000"/>
<path class="legend" d="M 1809.6 388.6 L 1812.1 388.6 L 1812.1 380.1 L 1809.3 381.0 L 1809.0 380.0 L 1812.4 378.5 L 1813.6 378.7 L 1813.6 388.6 L 1815.8 388.6 L 1815.8 389.9 L 1809.6 389.9 L 1809.6 388.6 " fill="#000000"/>
<path class="legend" d="M 1821.6 382.8 Q 1822.6 382.8, 1823.4 383.2 Q 1824.2 383.6, 1824.6 384.4 Q 1825.0 385.2, 1825.0 386.2 Q 1825.0 387.3, 1824.5 388.2 Q 1824.1 389.0, 1823.2 389.5 Q 1822.3 390.0, 1821.2 390.0 Q 1819.2 390.0, 1818.2 388.6 Q 1817.2 387.2, 1817.2 384.5 Q 1817.2 381.5, 1818.4 380.0 Q 1819.7 378.4, 1822.1 378.4 Q 1822.8 378.4, 1823.4 378.6 Q 1824.0 378.7, 1824.6 379.1 L 1824.0 380.1 Q 1823.1 379.7, 1822.1 379.7 Q 1820.5 379.7, 1819.7 380.7 Q 1818.9 381.7, 1818.8 383.9 Q 1819.4 383.3, 1820.1 383.1 Q 1820.8 382.8, 1821.6 382.8 M 1821.2 388.7 Q 1821.9 388.7, 1822.4 388.4 Q 1822.9 388.0, 1823.2 387.5 Q 1823.4 386.9, 1823.4 386.2 Q 1823.4 385.2, 1822.9 384.6 Q 1822.3 384.1, 1821.3 384.1 Q 1820.6 384.1, 1820.0 384.4 Q 1819.3 384.6, 1818.8 385.1 Q 1818.9 387.0, 1819.5 387.8 Q 1820.0 388.7, 1821.2 388.7 " fill="#000000"/>
<path class="bond-0 atom-0 atom-1" d="M 123.5,586.7 L 153.4,604.0" style="fill:none;fill-rule:evenodd;stroke:#0000FF;stroke-width:2.0px;stroke-linecap:butt;stroke-linejoin:miter;stroke-opacity:1"/>
<path class="bond-0 atom-0 atom-1" d="M 153.4,604.0 L 183.3,621.3" style="fill:none;fill-rule:evenodd;stroke:#000000;stroke-width:2.0px;stroke-linecap:butt;stroke-linejoin:miter;stroke-opacity:1"/>
<path class="bond-1 atom-1 atom-2" d="M 183.3,621.3 L 254.8,580.0" style="fill:none;fill-rule:evenodd;stroke:#000000;stroke-width:2.0px;stroke-linecap:butt;stroke-linejoin:miter;stroke-opacity:1"/>
<path class="bond-2 atom-2 atom-3" d="M 254.8,580.0 L 285.7,562.2" style="fill:none;fill-rule:evenodd;stroke:#000000;stroke-width:2.0px;stroke-linecap:butt;stroke-linejoin:miter;stroke-opacity:1"/>
<path class="bond-2 atom-2 atom-3" d="M 285.7,562.2 L 316.6,544.3" style="fill:none;fill-rule:evenodd;stroke:#33CCCC;stroke-width:2.0px;stroke-linecap:butt;stroke-linejoin:miter;stroke-opacity:1"/>
<path class="bond-3 atom-2 atom-4" d="M 254.8,580.0 L 271.3,608.5" style="fill:none;fill-rule:evenodd;stroke:#000000;stroke-width:2.0px;stroke-linecap:butt;stroke-linejoin:miter;stroke-opacity:1"/>
<path class="bond-3 atom-2 atom-4" d="M 271.3,608.5 L 287.8,637.1" style="fill:none;fill-rule:evenodd;stroke:#33CCCC;stroke-width:2.0px;stroke-linecap:butt;stroke-linejoin:miter;stroke-opacity:1"/>
<path class="bond-4 atom-2 atom-5" d="M 254.8,580.0 L 238.3,551.5" style="fill:none;fill-rule:evenodd;stroke:#000000;stroke-width:2.0px;stroke-linecap:butt;stroke-linejoin:miter;stroke-opacity:1"/>
<path class="bond-4 atom-2 atom-5" d="M 238.3,551.5 L 221.9,522.9" style="fill:none;fill-rule:evenodd;stroke:#33CCCC;stroke-width:2.0px;stroke-linecap:butt;stroke-linejoin:miter;stroke-opacity:1"/>
<path d="M 181.8,620.4 L 183.3,621.3 L 186.9,619.2" style="fill:none;stroke:#000000;stroke-width:2.0px;stroke-linecap:butt;stroke-linejoin:miter;stroke-opacity:1;"/>
<path class="atom-0" d="M 66.8 568.3 L 69.9 568.3 L 69.9 578.3 L 81.9 578.3 L 81.9 568.3 L 85.1 568.3 L 85.1 591.7 L 81.9 591.7 L 81.9 580.9 L 69.9 580.9 L 69.9 591.7 L 66.8 591.7 L 66.8 568.3 " fill="#0000FF"/>
<path class="atom-0" d="M 89.6 590.9 Q 90.2 589.4, 91.5 588.6 Q 92.9 587.8, 94.8 587.8 Q 97.1 587.8, 98.4 589.0 Q 99.7 590.3, 99.7 592.5 Q 99.7 594.8, 98.0 597.0 Q 96.3 599.1, 92.9 601.6 L 100.0 601.6 L 100.0 603.4 L 89.6 603.4 L 89.6 601.9 Q 92.5 599.9, 94.2 598.3 Q 95.9 596.8, 96.7 595.4 Q 97.5 594.1, 97.5 592.7 Q 97.5 591.2, 96.8 590.3 Q 96.1 589.5, 94.8 589.5 Q 93.5 589.5, 92.7 590.0 Q 91.9 590.5, 91.3 591.6 L 89.6 590.9 " fill="#0000FF"/>
<path class="atom-0" d="M 106.7 568.3 L 114.4 580.7 Q 115.1 581.9, 116.3 584.1 Q 117.6 586.3, 117.6 586.5 L 117.6 568.3 L 120.7 568.3 L 120.7 591.7 L 117.5 591.7 L 109.3 578.2 Q 108.4 576.6, 107.3 574.8 Q 106.3 572.9, 106.0 572.4 L 106.0 591.7 L 103.0 591.7 L 103.0 568.3 L 106.7 568.3 " fill="#0000FF"/>
<path class="atom-3" d="M 319.3 527.1 L 333.2 527.1 L 333.2 529.7 L 322.5 529.7 L 322.5 536.8 L 332.0 536.8 L 332.0 539.5 L 322.5 539.5 L 322.5 550.4 L 319.3 550.4 L 319.3 527.1 " fill="#33CCCC"/>
<path class="atom-4" d="M 289.1 639.8 L 303.0 639.8 L 303.0 642.5 L 292.3 642.5 L 292.3 649.6 L 301.8 649.6 L 301.8 652.3 L 292.3 652.3 L 292.3 663.2 L 289.1 663.2 L 289.1 639.8 " fill="#33CCCC"/>
<path class="atom-5" d="M 206.6 496.8 L 220.5 496.8 L 220.5 499.5 L 209.7 499.5 L 209.7 506.6 L 219.3 506.6 L 219.3 509.3 L 209.7 509.3 L 209.7 520.2 L 206.6 520.2 L 206.6 496.8 " fill="#33CCCC"/>
<path class="legend" d="M 178.8 781.5 Q 180.1 781.5, 180.8 782.2 Q 181.5 783.0, 181.5 784.4 L 181.5 789.8 L 180.0 789.8 L 180.0 784.5 Q 180.0 783.5, 179.6 783.1 Q 179.2 782.7, 178.4 782.7 Q 177.7 782.7, 177.0 783.0 Q 176.4 783.3, 176.0 784.0 L 176.0 789.8 L 174.5 789.8 L 174.5 781.6 L 175.7 781.6 L 175.9 782.8 Q 177.0 781.5, 178.8 781.5 " fill="#000000"/>
<path class="legend" d="M 190.4 781.6 L 190.4 789.8 L 189.2 789.8 L 189.0 788.7 Q 188.0 790.0, 186.2 790.0 Q 184.8 790.0, 184.1 789.2 Q 183.4 788.5, 183.4 787.1 L 183.4 781.6 L 184.9 781.6 L 184.9 786.9 Q 184.9 787.9, 185.3 788.4 Q 185.7 788.8, 186.5 788.8 Q 187.3 788.8, 187.9 788.5 Q 188.5 788.1, 188.9 787.5 L 188.9 781.6 L 190.4 781.6 " fill="#000000"/>
<path class="legend" d="M 192.5 785.7 Q 192.5 783.7, 193.5 782.6 Q 194.4 781.5, 196.4 781.5 Q 198.3 781.5, 199.2 782.8 L 198.2 783.6 Q 197.9 783.1, 197.4 782.9 Q 197.0 782.7, 196.4 782.7 Q 195.3 782.7, 194.6 783.4 Q 194.0 784.2, 194.0 785.7 Q 194.0 787.2, 194.6 788.0 Q 195.3 788.8, 196.5 788.8 Q 197.2 788.8, 197.6 788.6 Q 198.1 788.5, 198.7 788.2 L 199.1 789.2 Q 197.9 789.9, 196.4 789.9 Q 194.4 789.9, 193.5 788.8 Q 192.5 787.7, 192.5 785.7 " fill="#000000"/>
<path class="legend" d="M 201.0 788.6 L 203.4 788.6 L 203.4 780.1 L 200.7 780.9 L 200.3 780.0 L 203.8 778.4 L 204.9 778.6 L 204.9 788.6 L 207.2 788.6 L 207.2 789.8 L 201.0 789.8 L 201.0 788.6 " fill="#000000"/>
<path class="legend" d="M 214.0 783.9 Q 215.1 784.2, 215.6 784.9 Q 216.2 785.6, 216.2 786.7 Q 216.2 787.7, 215.7 788.4 Q 215.2 789.2, 214.3 789.6 Q 213.5 790.0, 212.3 790.0 Q 211.1 790.0, 210.2 789.6 Q 209.3 789.2, 208.6 788.3 L 209.5 787.4 Q 210.2 788.1, 210.8 788.4 Q 211.4 788.7, 212.3 788.7 Q 213.3 788.7, 214.0 788.2 Q 214.6 787.6, 214.6 786.7 Q 214.6 785.6, 213.9 785.1 Q 213.3 784.5, 211.9 784.5 L 211.1 784.5 L 211.1 783.4 L 211.8 783.4 Q 213.0 783.4, 213.7 782.8 Q 214.3 782.3, 214.3 781.3 Q 214.3 780.5, 213.8 780.1 Q 213.2 779.7, 212.3 779.7 Q 211.4 779.7, 210.8 780.0 Q 210.2 780.3, 209.8 781.2 L 208.7 780.6 Q 209.1 779.6, 210.0 779.0 Q 211.0 778.4, 212.3 778.4 Q 214.0 778.4, 215.0 779.2 Q 215.9 780.0, 215.9 781.3 Q 215.9 782.2, 215.4 782.8 Q 214.9 783.5, 214.0 783.9 " fill="#000000"/>
<path class="legend" d="M 221.9 782.8 Q 222.9 782.8, 223.8 783.2 Q 224.6 783.6, 225.0 784.4 Q 225.5 785.2, 225.5 786.3 Q 225.5 787.4, 224.9 788.3 Q 224.4 789.1, 223.4 789.5 Q 222.5 790.0, 221.5 790.0 Q 220.4 790.0, 219.5 789.6 Q 218.5 789.2, 217.8 788.5 L 218.8 787.5 Q 219.3 788.0, 220.0 788.4 Q 220.8 788.7, 221.5 788.7 Q 222.5 788.7, 223.2 788.0 Q 223.9 787.4, 223.9 786.3 Q 223.9 785.1, 223.2 784.5 Q 222.5 784.0, 221.4 784.0 Q 220.4 784.0, 219.3 784.4 L 218.4 784.0 L 219.0 778.5 L 224.8 778.5 L 224.6 779.8 L 220.3 779.8 L 219.9 783.2 Q 221.0 782.8, 221.9 782.8 " fill="#000000"/>
<path class="bond-0 atom-0 atom-1" d="M 505.3,588.9 L 576.7,547.7" style="fill:none;fill-rule:evenodd;stroke:#000000;stroke-width:2.0px;stroke-linecap:butt;stroke-linejoin:miter;stroke-opacity:1"/>
<path class="bond-1 atom-1 atom-2" d="M 576.7,547.7 L 606.7,565.0" style="fill:none;fill-rule:evenodd;stroke:#000000;stroke-width:2.0px;stroke-linecap:butt;stroke-linejoin:miter;stroke-opacity:1"/>
<path class="bond-1 atom-1 atom-2" d="M 606.7,565.0 L 636.6,582.3" style="fill:none;fill-rule:evenodd;stroke:#0000FF;stroke-width:2.0px;stroke-linecap:butt;stroke-linejoin:miter;stroke-opacity:1"/>
<path d="M 573.2,549.7 L 576.7,547.7 L 578.2,548.5" style="fill:none;stroke:#000000;stroke-width:2.0px;stroke-linecap:butt;stroke-linejoin:miter;stroke-opacity:1;"/>
<path class="atom-2" d="M 643.0 577.3 L 650.7 589.6 Q 651.5 590.9, 652.7 593.1 Q 653.9 595.3, 654.0 595.4 L 654.0 577.3 L 657.1 577.3 L 657.1 600.6 L 653.9 600.6 L 645.6 587.1 Q 644.7 585.5, 643.7 583.7 Q 642.7 581.9, 642.4 581.3 L 642.4 600.6 L 639.3 600.6 L 639.3 577.3 L 643.0 577.3 " fill="#0000FF"/>
<path class="atom-2" d="M 661.5 577.3 L 664.7 577.3 L 664.7 587.2 L 676.6 587.2 L 676.6 577.3 L 679.8 577.3 L 679.8 600.6 L 676.6 600.6 L 676.6 589.8 L 664.7 589.8 L 664.7 600.6 L 661.5 600.6 L 661.5 577.3 " fill="#0000FF"/>
<path class="atom-2" d="M 684.4 599.8 Q 685.0 598.4, 686.3 597.5 Q 687.7 596.7, 689.5 596.7 Q 691.9 596.7, 693.2 598.0 Q 694.5 599.2, 694.5 601.5 Q 694.5 603.8, 692.8 605.9 Q 691.1 608.0, 687.6 610.6 L 694.7 610.6 L 694.7 612.3 L 684.3 612.3 L 684.3 610.9 Q 687.2 608.8, 688.9 607.3 Q 690.6 605.8, 691.5 604.4 Q 692.3 603.0, 692.3 601.6 Q 692.3 600.1, 691.6 599.3 Q 690.8 598.5, 689.5 598.5 Q 688.3 598.5, 687.5 599.0 Q 686.6 599.5, 686.0 600.6 L 684.4 599.8 " fill="#0000FF"/>
<path class="legend" d="M 578.2 781.5 Q 579.5 781.5, 580.2 782.2 Q 580.9 783.0, 580.9 784.4 L 580.9 789.9 L 579.4 789.9 L 579.4 784.5 Q 579.4 783.6, 579.0 783.1 Q 578.6 782.7, 577.8 782.7 Q 577.0 782.7, 576.4 783.0 Q 575.8 783.4, 575.4 784.0 L 575.4 789.9 L 573.9 789.9 L 573.9 781.6 L 575.1 781.6 L 575.3 782.8 Q 576.4 781.5, 578.2 781.5 " fill="#000000"/>
<path class="legend" d="M 589.8 781.6 L 589.8 789.9 L 588.6 789.9 L 588.4 788.7 Q 587.4 790.0, 585.6 790.0 Q 584.2 790.0, 583.5 789.3 Q 582.8 788.5, 582.8 787.1 L 582.8 781.6 L 584.3 781.6 L 584.3 787.0 Q 584.3 787.9, 584.7 788.4 Q 585.1 788.8, 585.9 788.8 Q 586.7 788.8, 587.3 788.5 Q 587.9 788.1, 588.3 787.5 L 588.3 781.6 L 589.8 781.6 " fill="#000000"/>
<path class="legend" d="M 591.9 785.7 Q 591.9 783.7, 592.9 782.6 Q 593.9 781.5, 595.8 781.5 Q 597.7 781.5, 598.7 782.8 L 597.6 783.6 Q 597.3 783.1, 596.8 782.9 Q 596.4 782.7, 595.8 782.7 Q 594.7 782.7, 594.0 783.5 Q 593.4 784.2, 593.4 785.7 Q 593.4 787.2, 594.0 788.0 Q 594.7 788.8, 595.9 788.8 Q 596.6 788.8, 597.0 788.7 Q 597.5 788.5, 598.1 788.2 L 598.5 789.3 Q 597.3 790.0, 595.8 790.0 Q 593.9 790.0, 592.9 788.8 Q 591.9 787.7, 591.9 785.7 " fill="#000000"/>
<path class="legend" d="M 599.8 780.7 Q 600.2 779.6, 601.2 779.0 Q 602.2 778.4, 603.6 778.4 Q 605.3 778.4, 606.3 779.3 Q 607.2 780.3, 607.2 781.9 Q 607.2 783.6, 606.0 785.2 Q 604.7 786.7, 602.2 788.6 L 607.4 788.6 L 607.4 789.9 L 599.8 789.9 L 599.8 788.8 Q 601.9 787.3, 603.1 786.2 Q 604.4 785.0, 605.0 784.0 Q 605.6 783.0, 605.6 782.0 Q 605.6 780.9, 605.1 780.3 Q 604.5 779.7, 603.6 779.7 Q 602.7 779.7, 602.1 780.0 Q 601.5 780.4, 601.0 781.2 L 599.8 780.7 " fill="#000000"/>
<path class="legend" d="M 613.2 782.8 Q 614.2 782.8, 615.0 783.2 Q 615.8 783.6, 616.3 784.4 Q 616.8 785.2, 616.8 786.3 Q 616.8 787.4, 616.2 788.3 Q 615.6 789.1, 614.7 789.6 Q 613.8 790.0, 612.7 790.0 Q 611.7 790.0, 610.7 789.6 Q 609.8 789.2, 609.1 788.5 L 610.1 787.5 Q 610.6 788.1, 611.3 788.4 Q 612.0 788.7, 612.8 788.7 Q 613.8 788.7, 614.5 788.1 Q 615.2 787.4, 615.2 786.3 Q 615.2 785.1, 614.5 784.5 Q 613.8 784.0, 612.7 784.0 Q 611.7 784.0, 610.6 784.4 L 609.7 784.0 L 610.2 778.5 L 616.1 778.5 L 615.9 779.8 L 611.5 779.8 L 611.2 783.2 Q 612.2 782.8, 613.2 782.8 " fill="#000000"/>
<path class="legend" d="M 622.7 782.8 Q 623.7 782.8, 624.5 783.2 Q 625.3 783.6, 625.7 784.4 Q 626.1 785.2, 626.1 786.2 Q 626.1 787.3, 625.6 788.2 Q 625.1 789.0, 624.3 789.5 Q 623.4 790.0, 622.3 790.0 Q 620.3 790.0, 619.3 788.6 Q 618.3 787.2, 618.3 784.5 Q 618.3 781.5, 619.5 780.0 Q 620.8 778.4, 623.2 778.4 Q 623.9 778.4, 624.5 778.6 Q 625.1 778.7, 625.7 779.1 L 625.0 780.1 Q 624.2 779.7, 623.2 779.7 Q 621.6 779.7, 620.8 780.7 Q 620.0 781.7, 619.9 783.9 Q 620.5 783.3, 621.2 783.1 Q 621.9 782.8, 622.7 782.8 M 622.3 788.7 Q 622.9 788.7, 623.4 788.4 Q 623.9 788.0, 624.2 787.5 Q 624.5 786.9, 624.5 786.2 Q 624.5 785.2, 624.0 784.6 Q 623.4 784.1, 622.4 784.1 Q 621.7 784.1, 621.0 784.4 Q 620.4 784.6, 619.9 785.1 Q 619.9 787.0, 620.5 787.8 Q 621.1 788.7, 622.3 788.7 " fill="#000000"/>
<path class="bond-0 atom-0 atom-1" d="M 1129.9,585.1 L 1050.5,562.3" style="fill:none;fill-rule:evenodd;stroke:#000000;stroke-width:2.0px;stroke-linecap:butt;stroke-linejoin:miter;stroke-opacity:1"/>
<path class="bond-0 atom-0 atom-1" d="M 1126.5,597.0 L 1047.1,574.2" style="fill:none;fill-rule:evenodd;stroke:#000000;stroke-width:2.0px;stroke-linecap:butt;stroke-linejoin:miter;stroke-opacity:1"/>
<path class="bond-0 atom-0 atom-1" d="M 1133.3,573.2 L 1053.9,550.4" style="fill:none;fill-rule:evenodd;stroke:#000000;stroke-width:2.0px;stroke-linecap:butt;stroke-linejoin:miter;stroke-opacity:1"/>
<path class="bond-1 atom-1 atom-2" d="M 1050.5,562.3 L 971.2,539.6" style="fill:none;fill-rule:evenodd;stroke:#000000;stroke-width:2.0px;stroke-linecap:butt;stroke-linejoin:miter;stroke-opacity:1"/>
<path class="bond-2 atom-2 atom-3" d="M 971.2,539.6 L 947.3,562.7" style="fill:none;fill-rule:evenodd;stroke:#000000;stroke-width:2.0px;stroke-linecap:butt;stroke-linejoin:miter;stroke-opacity:1"/>
<path class="bond-2 atom-2 atom-3" d="M 947.3,562.7 L 923.4,585.8" style="fill:none;fill-rule:evenodd;stroke:#0000FF;stroke-width:2.0px;stroke-linecap:butt;stroke-linejoin:miter;stroke-opacity:1"/>
<path d="M 1054.5,563.5 L 1050.5,562.3 L 1046.6,561.2" style="fill:none;stroke:#000000;stroke-width:2.0px;stroke-linecap:butt;stroke-linejoin:miter;stroke-opacity:1;"/>
<path d="M 975.1,540.8 L 971.2,539.6 L 970.0,540.8" style="fill:none;stroke:#000000;stroke-width:2.0px;stroke-linecap:butt;stroke-linejoin:miter;stroke-opacity:1;"/>
<path class="atom-3" d="M 866.7 585.3 L 869.9 585.3 L 869.9 595.2 L 881.9 595.2 L 881.9 585.3 L 885.0 585.3 L 885.0 608.7 L 881.9 608.7 L 881.9 597.9 L 869.9 597.9 L 869.9 608.7 L 866.7 608.7 L 866.7 585.3 " fill="#0000FF"/>
<path class="atom-3" d="M 889.6 607.9 Q 890.2 606.4, 891.5 605.6 Q 892.9 604.8, 894.7 604.8 Q 897.1 604.8, 898.4 606.0 Q 899.7 607.3, 899.7 609.5 Q 899.7 611.8, 898.0 614.0 Q 896.3 616.1, 892.8 618.6 L 899.9 618.6 L 899.9 620.4 L 889.6 620.4 L 889.6 618.9 Q 892.4 616.9, 894.1 615.3 Q 895.9 613.8, 896.7 612.4 Q 897.5 611.1, 897.5 609.6 Q 897.5 608.2, 896.8 607.3 Q 896.0 606.5, 894.7 606.5 Q 893.5 606.5, 892.7 607.0 Q 891.8 607.5, 891.3 608.6 L 889.6 607.9 " fill="#0000FF"/>
<path class="atom-3" d="M 906.7 585.3 L 914.3 597.7 Q 915.1 598.9, 916.3 601.1 Q 917.5 603.3, 917.6 603.5 L 917.6 585.3 L 920.7 585.3 L 920.7 608.7 L 917.5 608.7 L 909.3 595.1 Q 908.3 593.6, 907.3 591.7 Q 906.3 589.9, 906.0 589.4 L 906.0 608.7 L 903.0 608.7 L 903.0 585.3 L 906.7 585.3 " fill="#0000FF"/>
<path class="legend" d="M 979.5 781.5 Q 980.8 781.5, 981.5 782.2 Q 982.2 783.0, 982.2 784.4 L 982.2 789.9 L 980.7 789.9 L 980.7 784.5 Q 980.7 783.6, 980.3 783.1 Q 980.0 782.7, 979.1 782.7 Q 978.4 782.7, 977.8 783.0 Q 977.1 783.4, 976.7 784.0 L 976.7 789.9 L 975.2 789.9 L 975.2 781.6 L 976.5 781.6 L 976.7 782.8 Q 977.8 781.5, 979.5 781.5 " fill="#000000"/>
<path class="legend" d="M 991.2 781.6 L 991.2 789.9 L 989.9 789.9 L 989.8 788.7 Q 988.7 790.0, 987.0 790.0 Q 985.6 790.0, 984.9 789.3 Q 984.2 788.5, 984.2 787.1 L 984.2 781.6 L 985.7 781.6 L 985.7 787.0 Q 985.7 787.9, 986.0 788.4 Q 986.4 788.8, 987.3 788.8 Q 988.0 788.8, 988.6 788.5 Q 989.3 788.1, 989.7 787.5 L 989.7 781.6 L 991.2 781.6 " fill="#000000"/>
<path class="legend" d="M 993.2 785.7 Q 993.2 783.7, 994.2 782.6 Q 995.2 781.5, 997.1 781.5 Q 999.0 781.5, 1000.0 782.8 L 998.9 783.6 Q 998.6 783.1, 998.1 782.9 Q 997.7 782.7, 997.1 782.7 Q 996.0 782.7, 995.3 783.5 Q 994.7 784.2, 994.7 785.7 Q 994.7 787.2, 995.3 788.0 Q 996.0 788.8, 997.2 788.8 Q 997.9 788.8, 998.3 788.7 Q 998.8 788.5, 999.4 788.2 L 999.8 789.3 Q 998.6 790.0, 997.1 790.0 Q 995.2 790.0, 994.2 788.8 Q 993.2 787.7, 993.2 785.7 " fill="#000000"/>
<path class="legend" d="M 1007.0 779.8 L 1001.0 779.8 L 1001.0 778.5 L 1008.6 778.5 L 1008.6 779.7 L 1004.0 789.9 L 1002.4 789.9 L 1007.0 779.8 " fill="#000000"/>
<path class="legend" d="M 1010.3 788.6 L 1012.8 788.6 L 1012.8 780.1 L 1010.1 781.0 L 1009.7 780.0 L 1013.2 778.5 L 1014.3 778.7 L 1014.3 788.6 L 1016.6 788.6 L 1016.6 789.9 L 1010.3 789.9 L 1010.3 788.6 " fill="#000000"/>
<path class="legend" d="M 1018.5 788.6 L 1021.0 788.6 L 1021.0 780.1 L 1018.3 781.0 L 1017.9 780.0 L 1021.4 778.5 L 1022.5 778.7 L 1022.5 788.6 L 1024.8 788.6 L 1024.8 789.9 L 1018.5 789.9 L 1018.5 788.6 " fill="#000000"/>
<path class="bond-0 atom-0 atom-1" d="M 1491.0,579.5 L 1458.8,565.8" style="fill:none;fill-rule:evenodd;stroke:#0000FF;stroke-width:2.0px;stroke-linecap:butt;stroke-linejoin:miter;stroke-opacity:1"/>
<path class="bond-0 atom-0 atom-1" d="M 1458.8,565.8 L 1426.6,552.2" style="fill:none;fill-rule:evenodd;stroke:#000000;stroke-width:2.0px;stroke-linecap:butt;stroke-linejoin:miter;stroke-opacity:1"/>
<path class="bond-1 atom-1 atom-2" d="M 1426.6,552.2 L 1360.7,601.8" style="fill:none;fill-rule:evenodd;stroke:#000000;stroke-width:2.0px;stroke-linecap:butt;stroke-linejoin:miter;stroke-opacity:1"/>
<path class="bond-2 atom-2 atom-3" d="M 1360.7,601.8 L 1329.4,588.5" style="fill:none;fill-rule:evenodd;stroke:#000000;stroke-width:2.0px;stroke-linecap:butt;stroke-linejoin:miter;stroke-opacity:1"/>
<path class="bond-2 atom-2 atom-3" d="M 1329.4,588.5 L 1298.2,575.2" style="fill:none;fill-rule:evenodd;stroke:#FF0000;stroke-width:2.0px;stroke-linecap:butt;stroke-linejoin:miter;stroke-opacity:1"/>
<path d="M 1428.2,552.8 L 1426.6,552.2 L 1423.3,554.6" style="fill:none;stroke:#000000;stroke-width:2.0px;stroke-linecap:butt;stroke-linejoin:miter;stroke-opacity:1;"/>
<path d="M 1364.0,599.3 L 1360.7,601.8 L 1359.1,601.1" style="fill:none;stroke:#000000;stroke-width:2.0px;stroke-linecap:butt;stroke-linejoin:miter;stroke-opacity:1;"/>
<path class="atom-0" d="M 1497.4 572.8 L 1505.0 585.2 Q 1505.8 586.4, 1507.0 588.6 Q 1508.2 590.8, 1508.3 590.9 L 1508.3 572.8 L 1511.4 572.8 L 1511.4 596.2 L 1508.2 596.2 L 1500.0 582.6 Q 1499.0 581.0, 1498.0 579.2 Q 1497.0 577.4, 1496.7 576.8 L 1496.7 596.2 L 1493.7 596.2 L 1493.7 572.8 L 1497.4 572.8 " fill="#0000FF"/>
<path class="atom-0" d="M 1515.9 572.8 L 1519.0 572.8 L 1519.0 582.7 L 1531.0 582.7 L 1531.0 572.8 L 1534.2 572.8 L 1534.2 596.2 L 1531.0 596.2 L 1531.0 585.4 L 1519.0 585.4 L 1519.0 596.2 L 1515.9 596.2 L 1515.9 572.8 " fill="#0000FF"/>
<path class="atom-0" d="M 1538.7 595.3 Q 1539.3 593.9, 1540.7 593.1 Q 1542.0 592.2, 1543.9 592.2 Q 1546.2 592.2, 1547.5 593.5 Q 1548.8 594.8, 1548.8 597.0 Q 1548.8 599.3, 1547.1 601.4 Q 1545.4 603.6, 1542.0 606.1 L 1549.1 606.1 L 1549.1 607.8 L 1538.7 607.8 L 1538.7 606.4 Q 1541.6 604.3, 1543.3 602.8 Q 1545.0 601.3, 1545.8 599.9 Q 1546.6 598.5, 1546.6 597.1 Q 1546.6 595.6, 1545.9 594.8 Q 1545.2 594.0, 1543.9 594.0 Q 1542.6 594.0, 1541.8 594.5 Q 1541.0 595.0, 1540.4 596.1 L 1538.7 595.3 " fill="#0000FF"/>
<path class="atom-3" d="M 1250.9 557.9 L 1254.1 557.9 L 1254.1 567.8 L 1266.0 567.8 L 1266.0 557.9 L 1269.2 557.9 L 1269.2 581.3 L 1266.0 581.3 L 1266.0 570.5 L 1254.1 570.5 L 1254.1 581.3 L 1250.9 581.3 L 1250.9 557.9 " fill="#FF0000"/>
<path class="atom-3" d="M 1274.0 569.5 Q 1274.0 563.9, 1276.8 560.8 Q 1279.5 557.6, 1284.7 557.6 Q 1289.9 557.6, 1292.7 560.8 Q 1295.5 563.9, 1295.5 569.5 Q 1295.5 575.2, 1292.6 578.4 Q 1289.8 581.6, 1284.7 581.6 Q 1279.6 581.6, 1276.8 578.4 Q 1274.0 575.2, 1274.0 569.5 M 1284.7 579.0 Q 1288.3 579.0, 1290.2 576.6 Q 1292.1 574.2, 1292.1 569.5 Q 1292.1 564.9, 1290.2 562.6 Q 1288.3 560.3, 1284.7 560.3 Q 1281.2 560.3, 1279.2 562.6 Q 1277.3 564.9, 1277.3 569.5 Q 1277.3 574.2, 1279.2 576.6 Q 1281.2 579.0, 1284.7 579.0 " fill="#FF0000"/>
<path class="legend" d="M 1378.3 781.5 Q 1379.6 781.5, 1380.3 782.2 Q 1381.0 783.0, 1381.0 784.4 L 1381.0 789.8 L 1379.5 789.8 L 1379.5 784.5 Q 1379.5 783.5, 1379.1 783.1 Q 1378.7 782.7, 1377.9 782.7 Q 1377.2 782.7, 1376.5 783.0 Q 1375.9 783.3, 1375.5 784.0 L 1375.5 789.8 L 1374.0 789.8 L 1374.0 781.6 L 1375.2 781.6 L 1375.4 782.8 Q 1376.5 781.5, 1378.3 781.5 " fill="#000000"/>
<path class="legend" d="M 1390.0 781.6 L 1390.0 789.8 L 1388.7 789.8 L 1388.5 788.7 Q 1387.5 790.0, 1385.8 790.0 Q 1384.4 790.0, 1383.7 789.2 Q 1383.0 788.5, 1383.0 787.1 L 1383.0 781.6 L 1384.5 781.6 L 1384.5 786.9 Q 1384.5 787.9, 1384.8 788.4 Q 1385.2 788.8, 1386.1 788.8 Q 1386.8 788.8, 1387.4 788.5 Q 1388.1 788.1, 1388.5 787.5 L 1388.5 781.6 L 1390.0 781.6 " fill="#000000"/>
<path class="legend" d="M 1392.0 785.7 Q 1392.0 783.7, 1393.0 782.6 Q 1394.0 781.5, 1395.9 781.5 Q 1397.8 781.5, 1398.8 782.8 L 1397.8 783.6 Q 1397.4 783.1, 1396.9 782.9 Q 1396.5 782.7, 1395.9 782.7 Q 1394.8 782.7, 1394.2 783.4 Q 1393.5 784.2, 1393.5 785.7 Q 1393.5 787.2, 1394.2 788.0 Q 1394.8 788.8, 1396.0 788.8 Q 1396.7 788.8, 1397.2 788.6 Q 1397.6 788.5, 1398.2 788.2 L 1398.6 789.2 Q 1397.4 789.9, 1395.9 789.9 Q 1394.0 789.9, 1393.0 788.8 Q 1392.0 787.7, 1392.0 785.7 " fill="#000000"/>
<path class="legend" d="M 1405.7 783.8 Q 1406.7 784.3, 1407.3 785.0 Q 1407.9 785.6, 1407.9 786.7 Q 1407.9 787.7, 1407.4 788.4 Q 1406.9 789.2, 1406.0 789.6 Q 1405.1 790.0, 1404.0 790.0 Q 1402.1 790.0, 1401.0 789.1 Q 1399.9 788.3, 1399.9 786.7 Q 1399.9 785.8, 1400.4 785.1 Q 1400.9 784.4, 1401.9 783.9 Q 1401.1 783.5, 1400.7 782.9 Q 1400.3 782.2, 1400.3 781.3 Q 1400.3 780.0, 1401.3 779.2 Q 1402.3 778.4, 1403.9 778.4 Q 1405.6 778.4, 1406.5 779.2 Q 1407.5 780.0, 1407.5 781.3 Q 1407.5 782.1, 1407.0 782.7 Q 1406.6 783.3, 1405.7 783.8 M 1403.9 779.6 Q 1403.0 779.6, 1402.4 780.0 Q 1401.9 780.5, 1401.9 781.3 Q 1401.9 781.9, 1402.3 782.3 Q 1402.6 782.7, 1403.1 782.9 Q 1403.6 783.1, 1404.6 783.4 Q 1405.3 783.0, 1405.6 782.4 Q 1405.9 781.9, 1405.9 781.3 Q 1405.9 780.5, 1405.4 780.0 Q 1404.8 779.6, 1403.9 779.6 M 1404.0 788.8 Q 1405.0 788.8, 1405.7 788.2 Q 1406.3 787.7, 1406.3 786.7 Q 1406.3 786.1, 1406.0 785.7 Q 1405.6 785.3, 1405.1 785.1 Q 1404.6 784.9, 1403.7 784.6 L 1403.0 784.4 Q 1402.2 784.8, 1401.9 785.4 Q 1401.5 786.0, 1401.5 786.7 Q 1401.5 787.7, 1402.2 788.2 Q 1402.8 788.8, 1404.0 788.8 " fill="#000000"/>
<path class="legend" d="M 1415.6 779.8 L 1409.6 779.8 L 1409.6 778.5 L 1417.2 778.5 L 1417.2 779.6 L 1412.6 789.8 L 1411.0 789.8 L 1415.6 779.8 " fill="#000000"/>
<path class="legend" d="M 1418.4 780.7 Q 1418.8 779.6, 1419.8 779.0 Q 1420.8 778.4, 1422.2 778.4 Q 1423.9 778.4, 1424.8 779.3 Q 1425.8 780.2, 1425.8 781.9 Q 1425.8 783.6, 1424.5 785.1 Q 1423.3 786.7, 1420.8 788.6 L 1426.0 788.6 L 1426.0 789.8 L 1418.4 789.8 L 1418.4 788.8 Q 1420.5 787.3, 1421.7 786.1 Q 1423.0 785.0, 1423.6 784.0 Q 1424.2 783.0, 1424.2 782.0 Q 1424.2 780.9, 1423.7 780.3 Q 1423.1 779.7, 1422.2 779.7 Q 1421.3 779.7, 1420.6 780.0 Q 1420.0 780.4, 1419.6 781.2 L 1418.4 780.7 " fill="#000000"/>
<path class="bond-0 atom-0 atom-1" d="M 1840.4,574.6 L 1810.5,591.9" style="fill:none;fill-rule:evenodd;stroke:#0000FF;stroke-width:2.0px;stroke-linecap:butt;stroke-linejoin:miter;stroke-opacity:1"/>
<path class="bond-0 atom-0 atom-1" d="M 1810.5,591.9 L 1780.5,609.2" style="fill:none;fill-rule:evenodd;stroke:#000000;stroke-width:2.0px;stroke-linecap:butt;stroke-linejoin:miter;stroke-opacity:1"/>
<path class="bond-1 atom-1 atom-2" d="M 1780.5,609.2 L 1751.5,592.5" style="fill:none;fill-rule:evenodd;stroke:#000000;stroke-width:2.0px;stroke-linecap:butt;stroke-linejoin:miter;stroke-opacity:1"/>
<path class="bond-1 atom-1 atom-2" d="M 1751.5,592.5 L 1722.5,575.7" style="fill:none;fill-rule:evenodd;stroke:#FF0000;stroke-width:2.0px;stroke-linecap:butt;stroke-linejoin:miter;stroke-opacity:1"/>
<path class="bond-1 atom-1 atom-2" d="M 1780.5,594.9 L 1757.7,581.8" style="fill:none;fill-rule:evenodd;stroke:#000000;stroke-width:2.0px;stroke-linecap:butt;stroke-linejoin:miter;stroke-opacity:1"/>
<path class="bond-1 atom-1 atom-2" d="M 1757.7,581.8 L 1728.7,565.0" style="fill:none;fill-rule:evenodd;stroke:#FF0000;stroke-width:2.0px;stroke-linecap:butt;stroke-linejoin:miter;stroke-opacity:1"/>
<path d="M 1782.0,608.4 L 1780.5,609.2 L 1779.1,608.4" style="fill:none;stroke:#000000;stroke-width:2.0px;stroke-linecap:butt;stroke-linejoin:miter;stroke-opacity:1;"/>
<path class="atom-0" d="M 1846.8 556.3 L 1854.5 568.7 Q 1855.3 569.9, 1856.5 572.1 Q 1857.7 574.3, 1857.8 574.4 L 1857.8 556.3 L 1860.9 556.3 L 1860.9 579.6 L 1857.7 579.6 L 1849.5 566.1 Q 1848.5 564.5, 1847.5 562.7 Q 1846.5 560.9, 1846.2 560.3 L 1846.2 579.6 L 1843.2 579.6 L 1843.2 556.3 L 1846.8 556.3 " fill="#0000FF"/>
<path class="atom-0" d="M 1865.3 556.3 L 1868.5 556.3 L 1868.5 566.2 L 1880.5 566.2 L 1880.5 556.3 L 1883.6 556.3 L 1883.6 579.6 L 1880.5 579.6 L 1880.5 568.8 L 1868.5 568.8 L 1868.5 579.6 L 1865.3 579.6 L 1865.3 556.3 " fill="#0000FF"/>
<path class="atom-0" d="M 1888.2 578.8 Q 1888.8 577.4, 1890.1 576.6 Q 1891.5 575.7, 1893.3 575.7 Q 1895.7 575.7, 1897.0 577.0 Q 1898.3 578.3, 1898.3 580.5 Q 1898.3 582.8, 1896.6 584.9 Q 1894.9 587.1, 1891.4 589.6 L 1898.6 589.6 L 1898.6 591.3 L 1888.2 591.3 L 1888.2 589.9 Q 1891.0 587.8, 1892.7 586.3 Q 1894.5 584.8, 1895.3 583.4 Q 1896.1 582.0, 1896.1 580.6 Q 1896.1 579.1, 1895.4 578.3 Q 1894.6 577.5, 1893.3 577.5 Q 1892.1 577.5, 1891.3 578.0 Q 1890.5 578.5, 1889.9 579.6 L 1888.2 578.8 " fill="#0000FF"/>
<path class="atom-2" d="M 1701.4 562.7 Q 1701.4 557.1, 1704.2 553.9 Q 1707.0 550.8, 1712.2 550.8 Q 1717.4 550.8, 1720.1 553.9 Q 1722.9 557.1, 1722.9 562.7 Q 1722.9 568.3, 1720.1 571.6 Q 1717.3 574.8, 1712.2 574.8 Q 1707.0 574.8, 1704.2 571.6 Q 1701.4 568.4, 1701.4 562.7 M 1712.2 572.1 Q 1715.7 572.1, 1717.7 569.8 Q 1719.6 567.4, 1719.6 562.7 Q 1719.6 558.1, 1717.7 555.8 Q 1715.7 553.4, 1712.2 553.4 Q 1708.6 553.4, 1706.7 555.7 Q 1704.7 558.0, 1704.7 562.7 Q 1704.7 567.4, 1706.7 569.8 Q 1708.6 572.1, 1712.2 572.1 " fill="#FF0000"/>
<path class="legend" d="M 1773.6 781.5 Q 1775.0 781.5, 1775.6 782.2 Q 1776.4 783.0, 1776.4 784.4 L 1776.4 789.8 L 1774.8 789.8 L 1774.8 784.5 Q 1774.8 783.5, 1774.5 783.1 Q 1774.1 782.7, 1773.3 782.7 Q 1772.5 782.7, 1771.9 783.0 Q 1771.3 783.3, 1770.9 784.0 L 1770.9 789.8 L 1769.4 789.8 L 1769.4 781.6 L 1770.6 781.6 L 1770.8 782.8 Q 1771.9 781.5, 1773.6 781.5 " fill="#000000"/>
<path class="legend" d="M 1785.3 781.6 L 1785.3 789.8 L 1784.1 789.8 L 1783.9 788.7 Q 1782.8 790.0, 1781.1 790.0 Q 1779.7 790.0, 1779.0 789.2 Q 1778.3 788.5, 1778.3 787.1 L 1778.3 781.6 L 1779.8 781.6 L 1779.8 786.9 Q 1779.8 787.9, 1780.2 788.4 Q 1780.6 788.8, 1781.4 788.8 Q 1782.2 788.8, 1782.8 788.5 Q 1783.4 788.1, 1783.8 787.5 L 1783.8 781.6 L 1785.3 781.6 " fill="#000000"/>
<path class="legend" d="M 1787.4 785.7 Q 1787.4 783.7, 1788.3 782.6 Q 1789.3 781.5, 1791.3 781.5 Q 1793.2 781.5, 1794.1 782.8 L 1793.1 783.6 Q 1792.7 783.1, 1792.3 782.9 Q 1791.9 782.7, 1791.3 782.7 Q 1790.2 782.7, 1789.5 783.4 Q 1788.9 784.2, 1788.9 785.7 Q 1788.9 787.2, 1789.5 788.0 Q 1790.2 788.8, 1791.4 788.8 Q 1792.1 788.8, 1792.5 788.6 Q 1793.0 788.5, 1793.6 788.2 L 1794.0 789.2 Q 1792.8 789.9, 1791.3 789.9 Q 1789.3 789.9, 1788.3 788.8 Q 1787.4 787.7, 1787.4 785.7 " fill="#000000"/>
<path class="legend" d="M 1795.9 788.6 L 1798.4 788.6 L 1798.4 780.1 L 1795.6 780.9 L 1795.3 780.0 L 1798.7 778.4 L 1799.9 778.6 L 1799.9 788.6 L 1802.1 788.6 L 1802.1 789.8 L 1795.9 789.8 L 1795.9 788.6 " fill="#000000"/>
<path class="legend" d="M 1807.6 790.0 Q 1805.6 790.0, 1804.5 788.4 Q 1803.5 786.9, 1803.5 784.2 Q 1803.5 781.4, 1804.5 779.9 Q 1805.5 778.4, 1807.6 778.4 Q 1809.7 778.4, 1810.8 779.9 Q 1811.8 781.4, 1811.8 784.2 Q 1811.8 786.9, 1810.7 788.4 Q 1809.7 790.0, 1807.6 790.0 M 1807.6 788.7 Q 1808.9 788.7, 1809.5 787.6 Q 1810.2 786.4, 1810.2 784.2 Q 1810.2 781.9, 1809.5 780.8 Q 1808.9 779.7, 1807.6 779.7 Q 1806.4 779.7, 1805.7 780.8 Q 1805.1 781.9, 1805.1 784.2 Q 1805.1 786.4, 1805.7 787.6 Q 1806.4 788.7, 1807.6 788.7 " fill="#000000"/>
<path class="legend" d="M 1818.0 782.8 Q 1819.0 782.8, 1819.8 783.2 Q 1820.5 783.6, 1821.0 784.4 Q 1821.4 785.2, 1821.4 786.2 Q 1821.4 787.3, 1820.9 788.2 Q 1820.4 789.0, 1819.6 789.5 Q 1818.7 790.0, 1817.6 790.0 Q 1815.6 790.0, 1814.6 788.6 Q 1813.6 787.2, 1813.6 784.5 Q 1813.6 781.5, 1814.8 780.0 Q 1816.1 778.4, 1818.5 778.4 Q 1819.2 778.4, 1819.8 778.5 Q 1820.4 778.7, 1821.0 779.0 L 1820.3 780.1 Q 1819.5 779.7, 1818.5 779.7 Q 1816.9 779.7, 1816.1 780.7 Q 1815.3 781.7, 1815.2 783.9 Q 1815.7 783.3, 1816.5 783.1 Q 1817.2 782.8, 1818.0 782.8 M 1817.6 788.7 Q 1818.2 788.7, 1818.7 788.3 Q 1819.2 788.0, 1819.5 787.5 Q 1819.8 786.9, 1819.8 786.2 Q 1819.8 785.2, 1819.3 784.6 Q 1818.7 784.0, 1817.7 784.0 Q 1817.0 784.0, 1816.3 784.3 Q 1815.7 784.6, 1815.2 785.1 Q 1815.2 787.0, 1815.8 787.8 Q 1816.4 788.7, 1817.6 788.7 " fill="#000000"/>
<path class="legend" d="M 1828.5 783.9 Q 1829.6 784.2, 1830.1 784.9 Q 1830.6 785.6, 1830.6 786.7 Q 1830.6 787.7, 1830.2 788.4 Q 1829.7 789.2, 1828.8 789.6 Q 1827.9 790.0, 1826.8 790.0 Q 1825.6 790.0, 1824.6 789.6 Q 1823.7 789.2, 1823.0 788.3 L 1823.9 787.4 Q 1824.6 788.1, 1825.2 788.4 Q 1825.8 788.7, 1826.8 788.7 Q 1827.8 788.7, 1828.4 788.2 Q 1829.0 787.6, 1829.0 786.7 Q 1829.0 785.6, 1828.4 785.1 Q 1827.7 784.5, 1826.4 784.5 L 1825.5 784.5 L 1825.5 783.4 L 1826.3 783.4 Q 1827.5 783.4, 1828.1 782.8 Q 1828.8 782.3, 1828.8 781.3 Q 1828.8 780.5, 1828.3 780.1 Q 1827.7 779.7, 1826.8 779.7 Q 1825.8 779.7, 1825.2 780.0 Q 1824.7 780.3, 1824.2 781.2 L 1823.1 780.6 Q 1823.5 779.6, 1824.5 779.0 Q 1825.4 778.4, 1826.8 778.4 Q 1828.4 778.4, 1829.4 779.2 Q 1830.4 780.0, 1830.4 781.3 Q 1830.4 782.2, 1829.9 782.8 Q 1829.4 783.5, 1828.5 783.9 " fill="#000000"/>
<path class="bond-0 atom-0 atom-1" d="M 74.9,972.0 L 104.8,989.3" style="fill:none;fill-rule:evenodd;stroke:#0000FF;stroke-width:2.0px;stroke-linecap:butt;stroke-linejoin:miter;stroke-opacity:1"/>
<path class="bond-0 atom-0 atom-1" d="M 104.8,989.3 L 134.8,1006.5" style="fill:none;fill-rule:evenodd;stroke:#000000;stroke-width:2.0px;stroke-linecap:butt;stroke-linejoin:miter;stroke-opacity:1"/>
<path class="bond-1 atom-1 atom-2" d="M 134.8,1006.5 L 206.2,965.3" style="fill:none;fill-rule:evenodd;stroke:#000000;stroke-width:2.0px;stroke-linecap:butt;stroke-linejoin:miter;stroke-opacity:1"/>
<path class="bond-2 atom-2 atom-3" d="M 206.2,965.3 L 277.7,1006.5" style="fill:none;fill-rule:evenodd;stroke:#000000;stroke-width:2.0px;stroke-linecap:butt;stroke-linejoin:miter;stroke-opacity:1"/>
<path class="bond-3 atom-3 atom-4" d="M 277.7,1006.5 L 306.7,989.8" style="fill:none;fill-rule:evenodd;stroke:#000000;stroke-width:2.0px;stroke-linecap:butt;stroke-linejoin:miter;stroke-opacity:1"/>
<path class="bond-3 atom-3 atom-4" d="M 306.7,989.8 L 335.7,973.0" style="fill:none;fill-rule:evenodd;stroke:#FF0000;stroke-width:2.0px;stroke-linecap:butt;stroke-linejoin:miter;stroke-opacity:1"/>
<path d="M 133.3,1005.7 L 134.8,1006.5 L 138.3,1004.5" style="fill:none;stroke:#000000;stroke-width:2.0px;stroke-linecap:butt;stroke-linejoin:miter;stroke-opacity:1;"/>
<path d="M 202.7,967.3 L 206.2,965.3 L 209.8,967.3" style="fill:none;stroke:#000000;stroke-width:2.0px;stroke-linecap:butt;stroke-linejoin:miter;stroke-opacity:1;"/>
<path d="M 274.1,1004.5 L 277.7,1006.5 L 279.1,1005.7" style="fill:none;stroke:#000000;stroke-width:2.0px;stroke-linecap:butt;stroke-linejoin:miter;stroke-opacity:1;"/>
<path class="atom-0" d="M 18.2 953.6 L 21.4 953.6 L 21.4 963.5 L 33.3 963.5 L 33.3 953.6 L 36.5 953.6 L 36.5 977.0 L 33.3 977.0 L 33.3 966.2 L 21.4 966.2 L 21.4 977.0 L 18.2 977.0 L 18.2 953.6 " fill="#0000FF"/>
<path class="atom-0" d="M 41.0 976.1 Q 41.6 974.7, 43.0 973.9 Q 44.3 973.0, 46.2 973.0 Q 48.5 973.0, 49.8 974.3 Q 51.1 975.6, 51.1 977.8 Q 51.1 980.1, 49.4 982.2 Q 47.8 984.4, 44.3 986.9 L 51.4 986.9 L 51.4 988.6 L 41.0 988.6 L 41.0 987.2 Q 43.9 985.1, 45.6 983.6 Q 47.3 982.1, 48.1 980.7 Q 49.0 979.3, 49.0 977.9 Q 49.0 976.4, 48.2 975.6 Q 47.5 974.8, 46.2 974.8 Q 44.9 974.8, 44.1 975.3 Q 43.3 975.8, 42.7 976.9 L 41.0 976.1 " fill="#0000FF"/>
<path class="atom-0" d="M 58.1 953.6 L 65.8 966.0 Q 66.5 967.2, 67.8 969.4 Q 69.0 971.6, 69.0 971.7 L 69.0 953.6 L 72.2 953.6 L 72.2 977.0 L 68.9 977.0 L 60.7 963.4 Q 59.8 961.8, 58.7 960.0 Q 57.8 958.2, 57.5 957.7 L 57.5 977.0 L 54.4 977.0 L 54.4 953.6 L 58.1 953.6 " fill="#0000FF"/>
<path class="atom-4" d="M 338.4 965.3 Q 338.4 959.7, 341.2 956.6 Q 344.0 953.5, 349.2 953.5 Q 354.3 953.5, 357.1 956.6 Q 359.9 959.7, 359.9 965.3 Q 359.9 971.0, 357.1 974.3 Q 354.3 977.5, 349.2 977.5 Q 344.0 977.5, 341.2 974.3 Q 338.4 971.1, 338.4 965.3 M 349.2 974.8 Q 352.7 974.8, 354.6 972.4 Q 356.6 970.0, 356.6 965.3 Q 356.6 960.8, 354.6 958.4 Q 352.7 956.1, 349.2 956.1 Q 345.6 956.1, 343.7 958.4 Q 341.7 960.7, 341.7 965.3 Q 341.7 970.1, 343.7 972.4 Q 345.6 974.8, 349.2 974.8 " fill="#FF0000"/>
<path class="atom-4" d="M 363.5 953.7 L 366.7 953.7 L 366.7 963.7 L 378.6 963.7 L 378.6 953.7 L 381.8 953.7 L 381.8 977.1 L 378.6 977.1 L 378.6 966.3 L 366.7 966.3 L 366.7 977.1 L 363.5 977.1 L 363.5 953.7 " fill="#FF0000"/>
<path class="legend" d="M 173.6 1181.5 Q 174.9 1181.5, 175.6 1182.2 Q 176.3 1183.0, 176.3 1184.4 L 176.3 1189.9 L 174.8 1189.9 L 174.8 1184.5 Q 174.8 1183.6, 174.4 1183.1 Q 174.0 1182.7, 173.2 1182.7 Q 172.5 1182.7, 171.8 1183.0 Q 171.2 1183.4, 170.8 1184.0 L 170.8 1189.9 L 169.3 1189.9 L 169.3 1181.6 L 170.5 1181.6 L 170.7 1182.8 Q 171.8 1181.5, 173.6 1181.5 " fill="#000000"/>
<path class="legend" d="M 185.3 1181.6 L 185.3 1189.9 L 184.0 1189.9 L 183.9 1188.7 Q 182.8 1190.0, 181.1 1190.0 Q 179.7 1190.0, 179.0 1189.3 Q 178.3 1188.5, 178.3 1187.1 L 178.3 1181.6 L 179.8 1181.6 L 179.8 1187.0 Q 179.8 1187.9, 180.1 1188.4 Q 180.5 1188.8, 181.4 1188.8 Q 182.1 1188.8, 182.7 1188.5 Q 183.4 1188.1, 183.8 1187.5 L 183.8 1181.6 L 185.3 1181.6 " fill="#000000"/>
<path class="legend" d="M 187.3 1185.7 Q 187.3 1183.7, 188.3 1182.6 Q 189.3 1181.5, 191.3 1181.5 Q 193.1 1181.5, 194.1 1182.8 L 193.1 1183.6 Q 192.7 1183.1, 192.3 1182.9 Q 191.8 1182.7, 191.3 1182.7 Q 190.1 1182.7, 189.5 1183.5 Q 188.9 1184.2, 188.9 1185.7 Q 188.9 1187.2, 189.5 1188.0 Q 190.2 1188.8, 191.4 1188.8 Q 192.0 1188.8, 192.5 1188.7 Q 193.0 1188.5, 193.5 1188.2 L 193.9 1189.3 Q 192.8 1190.0, 191.2 1190.0 Q 189.3 1190.0, 188.3 1188.8 Q 187.3 1187.7, 187.3 1185.7 " fill="#000000"/>
<path class="legend" d="M 195.9 1188.6 L 198.3 1188.6 L 198.3 1180.1 L 195.6 1181.0 L 195.2 1180.0 L 198.7 1178.5 L 199.8 1178.7 L 199.8 1188.6 L 202.1 1188.6 L 202.1 1189.9 L 195.9 1189.9 L 195.9 1188.6 " fill="#000000"/>
<path class="legend" d="M 204.1 1188.6 L 206.6 1188.6 L 206.6 1180.1 L 203.8 1181.0 L 203.5 1180.0 L 206.9 1178.5 L 208.1 1178.7 L 208.1 1188.6 L 210.3 1188.6 L 210.3 1189.9 L 204.1 1189.9 L 204.1 1188.6 " fill="#000000"/>
<path class="legend" d="M 219.1 1186.0 L 220.4 1186.0 L 220.4 1187.2 L 219.1 1187.2 L 219.1 1189.9 L 217.6 1189.9 L 217.6 1187.2 L 211.7 1187.2 L 211.7 1186.2 L 216.7 1178.5 L 219.1 1178.5 L 219.1 1186.0 M 213.6 1186.0 L 217.6 1186.0 L 217.6 1179.6 L 213.6 1186.0 " fill="#000000"/>
<path class="legend" d="M 229.3 1186.0 L 230.7 1186.0 L 230.7 1187.2 L 229.3 1187.2 L 229.3 1189.9 L 227.8 1189.9 L 227.8 1187.2 L 222.0 1187.2 L 222.0 1186.2 L 226.9 1178.5 L 229.3 1178.5 L 229.3 1186.0 M 223.8 1186.0 L 227.8 1186.0 L 227.8 1179.6 L 223.8 1186.0 " fill="#000000"/>
<path class="bond-0 atom-0 atom-1" d="M 469.5,1029.1 L 541.0,987.8" style="fill:none;fill-rule:evenodd;stroke:#000000;stroke-width:2.0px;stroke-linecap:butt;stroke-linejoin:miter;stroke-opacity:1"/>
<path class="bond-1 atom-1 atom-2" d="M 547.2,991.4 L 547.2,955.8" style="fill:none;fill-rule:evenodd;stroke:#000000;stroke-width:2.0px;stroke-linecap:butt;stroke-linejoin:miter;stroke-opacity:1"/>
<path class="bond-1 atom-1 atom-2" d="M 547.2,955.8 L 547.2,920.2" style="fill:none;fill-rule:evenodd;stroke:#FF0000;stroke-width:2.0px;stroke-linecap:butt;stroke-linejoin:miter;stroke-opacity:1"/>
<path class="bond-1 atom-1 atom-2" d="M 534.8,991.4 L 534.8,955.8" style="fill:none;fill-rule:evenodd;stroke:#000000;stroke-width:2.0px;stroke-linecap:butt;stroke-linejoin:miter;stroke-opacity:1"/>
<path class="bond-1 atom-1 atom-2" d="M 534.8,955.8 L 534.8,920.2" style="fill:none;fill-rule:evenodd;stroke:#FF0000;stroke-width:2.0px;stroke-linecap:butt;stroke-linejoin:miter;stroke-opacity:1"/>
<path class="bond-2 atom-1 atom-3" d="M 541.0,987.8 L 570.9,1005.1" style="fill:none;fill-rule:evenodd;stroke:#000000;stroke-width:2.0px;stroke-linecap:butt;stroke-linejoin:miter;stroke-opacity:1"/>
<path class="bond-2 atom-1 atom-3" d="M 570.9,1005.1 L 600.9,1022.4" style="fill:none;fill-rule:evenodd;stroke:#0000FF;stroke-width:2.0px;stroke-linecap:butt;stroke-linejoin:miter;stroke-opacity:1"/>
<path class="bond-3 atom-3 atom-4" d="M 624.1,1022.4 L 672.3,994.5" style="fill:none;fill-rule:evenodd;stroke:#0000FF;stroke-width:2.0px;stroke-linecap:butt;stroke-linejoin:miter;stroke-opacity:1"/>
<path d="M 537.4,989.9 L 541.0,987.8 L 542.5,988.7" style="fill:none;stroke:#000000;stroke-width:2.0px;stroke-linecap:butt;stroke-linejoin:miter;stroke-opacity:1;"/>
<path class="atom-2" d="M 530.3 905.4 Q 530.3 899.8, 533.0 896.6 Q 535.8 893.5, 541.0 893.5 Q 546.2 893.5, 549.0 896.6 Q 551.7 899.8, 551.7 905.4 Q 551.7 911.1, 548.9 914.3 Q 546.1 917.5, 541.0 917.5 Q 535.8 917.5, 533.0 914.3 Q 530.3 911.1, 530.3 905.4 M 541.0 914.9 Q 544.6 914.9, 546.5 912.5 Q 548.4 910.1, 548.4 905.4 Q 548.4 900.8, 546.5 898.5 Q 544.6 896.1, 541.0 896.1 Q 537.4 896.1, 535.5 898.5 Q 533.6 900.8, 533.6 905.4 Q 533.6 910.1, 535.5 912.5 Q 537.4 914.9, 541.0 914.9 " fill="#FF0000"/>
<path class="atom-3" d="M 607.3 1017.4 L 615.0 1029.8 Q 615.7 1031.0, 616.9 1033.2 Q 618.2 1035.4, 618.2 1035.6 L 618.2 1017.4 L 621.3 1017.4 L 621.3 1040.8 L 618.1 1040.8 L 609.9 1027.3 Q 608.9 1025.7, 607.9 1023.9 Q 606.9 1022.0, 606.6 1021.5 L 606.6 1040.8 L 603.6 1040.8 L 603.6 1017.4 L 607.3 1017.4 " fill="#0000FF"/>
<path class="atom-3" d="M 603.3 1043.1 L 606.5 1043.1 L 606.5 1053.1 L 618.4 1053.1 L 618.4 1043.1 L 621.6 1043.1 L 621.6 1066.5 L 618.4 1066.5 L 618.4 1055.7 L 606.5 1055.7 L 606.5 1066.5 L 603.3 1066.5 L 603.3 1043.1 " fill="#0000FF"/>
<path class="atom-4" d="M 678.8 976.2 L 686.4 988.5 Q 687.2 989.8, 688.4 992.0 Q 689.6 994.2, 689.7 994.3 L 689.7 976.2 L 692.8 976.2 L 692.8 999.5 L 689.6 999.5 L 681.4 986.0 Q 680.4 984.4, 679.4 982.6 Q 678.4 980.8, 678.1 980.2 L 678.1 999.5 L 675.1 999.5 L 675.1 976.2 L 678.8 976.2 " fill="#0000FF"/>
<path class="atom-4" d="M 697.3 976.2 L 700.4 976.2 L 700.4 986.1 L 712.4 986.1 L 712.4 976.2 L 715.5 976.2 L 715.5 999.5 L 712.4 999.5 L 712.4 988.7 L 700.4 988.7 L 700.4 999.5 L 697.3 999.5 L 697.3 976.2 " fill="#0000FF"/>
<path class="atom-4" d="M 720.1 998.7 Q 720.7 997.2, 722.0 996.4 Q 723.4 995.6, 725.3 995.6 Q 727.6 995.6, 728.9 996.9 Q 730.2 998.1, 730.2 1000.4 Q 730.2 1002.7, 728.5 1004.8 Q 726.8 1006.9, 723.3 1009.5 L 730.5 1009.5 L 730.5 1011.2 L 720.1 1011.2 L 720.1 1009.8 Q 723.0 1007.7, 724.7 1006.2 Q 726.4 1004.7, 727.2 1003.3 Q 728.0 1001.9, 728.0 1000.5 Q 728.0 999.0, 727.3 998.2 Q 726.6 997.4, 725.3 997.4 Q 724.0 997.4, 723.2 997.9 Q 722.4 998.4, 721.8 999.5 L 720.1 998.7 " fill="#0000FF"/>
<path class="legend" d="M 573.8 1181.5 Q 575.1 1181.5, 575.8 1182.2 Q 576.5 1183.0, 576.5 1184.4 L 576.5 1189.8 L 575.0 1189.8 L 575.0 1184.5 Q 575.0 1183.5, 574.6 1183.1 Q 574.2 1182.7, 573.4 1182.7 Q 572.6 1182.7, 572.0 1183.0 Q 571.4 1183.3, 571.0 1184.0 L 571.0 1189.8 L 569.5 1189.8 L 569.5 1181.6 L 570.7 1181.6 L 570.9 1182.8 Q 572.0 1181.5, 573.8 1181.5 " fill="#000000"/>
<path class="legend" d="M 585.4 1181.6 L 585.4 1189.8 L 584.2 1189.8 L 584.0 1188.7 Q 583.0 1190.0, 581.2 1190.0 Q 579.8 1190.0, 579.1 1189.2 Q 578.4 1188.5, 578.4 1187.1 L 578.4 1181.6 L 579.9 1181.6 L 579.9 1186.9 Q 579.9 1187.9, 580.3 1188.4 Q 580.7 1188.8, 581.5 1188.8 Q 582.3 1188.8, 582.9 1188.5 Q 583.5 1188.1, 583.9 1187.5 L 583.9 1181.6 L 585.4 1181.6 " fill="#000000"/>
<path class="legend" d="M 587.5 1185.7 Q 587.5 1183.7, 588.5 1182.6 Q 589.5 1181.5, 591.4 1181.5 Q 593.3 1181.5, 594.3 1182.8 L 593.3 1183.6 Q 592.9 1183.1, 592.4 1182.9 Q 592.0 1182.7, 591.4 1182.7 Q 590.3 1182.7, 589.6 1183.4 Q 589.0 1184.2, 589.0 1185.7 Q 589.0 1187.2, 589.7 1188.0 Q 590.3 1188.8, 591.5 1188.8 Q 592.2 1188.8, 592.6 1188.6 Q 593.1 1188.5, 593.7 1188.2 L 594.1 1189.2 Q 592.9 1189.9, 591.4 1189.9 Q 589.5 1189.9, 588.5 1188.8 Q 587.5 1187.7, 587.5 1185.7 " fill="#000000"/>
<path class="legend" d="M 596.0 1188.6 L 598.5 1188.6 L 598.5 1180.1 L 595.7 1180.9 L 595.4 1180.0 L 598.8 1178.4 L 600.0 1178.6 L 600.0 1188.6 L 602.2 1188.6 L 602.2 1189.8 L 596.0 1189.8 L 596.0 1188.6 " fill="#000000"/>
<path class="legend" d="M 607.7 1182.8 Q 608.7 1182.8, 609.5 1183.2 Q 610.3 1183.6, 610.8 1184.4 Q 611.3 1185.2, 611.3 1186.3 Q 611.3 1187.4, 610.7 1188.3 Q 610.1 1189.1, 609.2 1189.5 Q 608.3 1190.0, 607.2 1190.0 Q 606.2 1190.0, 605.2 1189.6 Q 604.3 1189.2, 603.6 1188.5 L 604.6 1187.5 Q 605.1 1188.0, 605.8 1188.4 Q 606.5 1188.7, 607.3 1188.7 Q 608.3 1188.7, 609.0 1188.0 Q 609.7 1187.4, 609.7 1186.3 Q 609.7 1185.1, 609.0 1184.5 Q 608.3 1184.0, 607.2 1184.0 Q 606.2 1184.0, 605.1 1184.4 L 604.2 1184.0 L 604.7 1178.5 L 610.6 1178.5 L 610.4 1179.8 L 606.1 1179.8 L 605.7 1183.2 Q 606.7 1182.8, 607.7 1182.8 " fill="#000000"/>
<path class="legend" d="M 618.6 1183.8 Q 619.6 1184.3, 620.2 1185.0 Q 620.8 1185.6, 620.8 1186.7 Q 620.8 1187.7, 620.3 1188.4 Q 619.8 1189.2, 618.9 1189.6 Q 618.0 1190.0, 616.8 1190.0 Q 615.0 1190.0, 613.9 1189.1 Q 612.8 1188.3, 612.8 1186.7 Q 612.8 1185.8, 613.3 1185.1 Q 613.7 1184.4, 614.7 1183.9 Q 614.0 1183.5, 613.6 1182.9 Q 613.2 1182.2, 613.2 1181.3 Q 613.2 1180.0, 614.2 1179.2 Q 615.1 1178.4, 616.8 1178.4 Q 618.4 1178.4, 619.4 1179.2 Q 620.4 1180.0, 620.4 1181.3 Q 620.4 1182.1, 619.9 1182.7 Q 619.4 1183.3, 618.6 1183.8 M 616.8 1179.6 Q 615.8 1179.6, 615.3 1180.0 Q 614.8 1180.5, 614.8 1181.3 Q 614.8 1181.9, 615.1 1182.3 Q 615.5 1182.7, 616.0 1182.9 Q 616.5 1183.1, 617.5 1183.4 Q 618.2 1183.0, 618.5 1182.4 Q 618.8 1181.9, 618.8 1181.3 Q 618.8 1180.5, 618.2 1180.0 Q 617.7 1179.6, 616.8 1179.6 M 616.8 1188.8 Q 617.9 1188.8, 618.5 1188.2 Q 619.2 1187.7, 619.2 1186.7 Q 619.2 1186.1, 618.8 1185.7 Q 618.5 1185.3, 618.0 1185.1 Q 617.5 1184.9, 616.6 1184.6 L 615.9 1184.4 Q 615.1 1184.8, 614.7 1185.4 Q 614.4 1186.0, 614.4 1186.7 Q 614.4 1187.7, 615.0 1188.2 Q 615.7 1188.8, 616.8 1188.8 " fill="#000000"/>
<path class="legend" d="M 628.3 1183.8 Q 629.3 1184.3, 629.9 1185.0 Q 630.5 1185.6, 630.5 1186.7 Q 630.5 1187.7, 630.0 1188.4 Q 629.5 1189.2, 628.6 1189.6 Q 627.7 1190.0, 626.6 1190.0 Q 624.7 1190.0, 623.6 1189.1 Q 622.5 1188.3, 622.5 1186.7 Q 622.5 1185.8, 623.0 1185.1 Q 623.5 1184.4, 624.5 1183.9 Q 623.7 1183.5, 623.3 1182.9 Q 622.9 1182.2, 622.9 1181.3 Q 622.9 1180.0, 623.9 1179.2 Q 624.9 1178.4, 626.5 1178.4 Q 628.2 1178.4, 629.1 1179.2 Q 630.1 1180.0, 630.1 1181.3 Q 630.1 1182.1, 629.6 1182.7 Q 629.2 1183.3, 628.3 1183.8 M 626.5 1179.6 Q 625.6 1179.6, 625.0 1180.0 Q 624.5 1180.5, 624.5 1181.3 Q 624.5 1181.9, 624.9 1182.3 Q 625.2 1182.7, 625.7 1182.9 Q 626.2 1183.1, 627.2 1183.4 Q 627.9 1183.0, 628.2 1182.4 Q 628.5 1181.9, 628.5 1181.3 Q 628.5 1180.5, 628.0 1180.0 Q 627.5 1179.6, 626.5 1179.6 M 626.6 1188.8 Q 627.6 1188.8, 628.3 1188.2 Q 628.9 1187.7, 628.9 1186.7 Q 628.9 1186.1, 628.6 1185.7 Q 628.2 1185.3, 627.7 1185.1 Q 627.2 1184.9, 626.3 1184.6 L 625.6 1184.4 Q 624.8 1184.8, 624.5 1185.4 Q 624.1 1186.0, 624.1 1186.7 Q 624.1 1187.7, 624.8 1188.2 Q 625.5 1188.8, 626.6 1188.8 " fill="#000000"/>
</svg>