<svg xmlns="http://www.w3.org/2000/svg" xmlns:rdkit="http://www.rdkit.org/xml" xmlns:xlink="http://www.w3.org/1999/xlink" version="1.1" baseProfile="full" xml:space="preserve" width="2000px" height="1200px" viewBox="0 0 2000 1200">
<!-- END OF HEADER -->
<rect style="opacity:1.0;fill:#FFFFFF;stroke:none" width="2000.0" height="1200.0" x="0.0" y="0.0"> </rect>
<path class="bond-0 atom-0 atom-1" d="M 258.1,180.0 L 226.3,180.0" style="fill:none;fill-rule:evenodd;stroke:#0000FF;stroke-width:2.0px;stroke-linecap:butt;stroke-linejoin:miter;stroke-opacity:1"/>
<path class="bond-0 atom-0 atom-1" d="M 226.3,180.0 L 194.5,180.0" style="fill:none;fill-rule:evenodd;stroke:#000000;stroke-width:2.0px;stroke-linecap:butt;stroke-linejoin:miter;stroke-opacity:1"/>
<path class="bond-1 atom-1 atom-2" d="M 194.5,180.0 L 142.1,232.3" style="fill:none;fill-rule:evenodd;stroke:#000000;stroke-width:2.0px;stroke-linecap:butt;stroke-linejoin:miter;stroke-opacity:1"/>
<path class="bond-2 atom-2 atom-3" d="M 142.1,232.3 L 89.8,180.0" style="fill:none;fill-rule:evenodd;stroke:#000000;stroke-width:2.0px;stroke-linecap:butt;stroke-linejoin:miter;stroke-opacity:1"/>
<path class="bond-3 atom-3 atom-4" d="M 89.8,180.0 L 142.1,127.7" style="fill:none;fill-rule:evenodd;stroke:#000000;stroke-width:2.0px;stroke-linecap:butt;stroke-linejoin:miter;stroke-opacity:1"/>
<path class="bond-4 atom-4 atom-1" d="M 142.1,127.7 L 194.5,180.0" style="fill:none;fill-rule:evenodd;stroke:#000000;stroke-width:2.0px;stroke-linecap:butt;stroke-linejoin:miter;stroke-opacity:1"/>
<path d="M 144.7,229.7 L 142.1,232.3 L 139.5,229.7" style="fill:none;stroke:#000000;stroke-width:2.0px;stroke-linecap:butt;stroke-linejoin:miter;stroke-opacity:1;"/>
<path d="M 92.4,182.6 L 89.8,180.0 L 92.4,177.4" style="fill:none;stroke:#000000;stroke-width:2.0px;stroke-linecap:butt;stroke-linejoin:miter;stroke-opacity:1;"/>
<path d="M 139.5,130.3 L 142.1,127.7 L 144.7,130.3" style="fill:none;stroke:#000000;stroke-width:2.0px;stroke-linecap:butt;stroke-linejoin:miter;stroke-opacity:1;"/>
<path class="atom-0" d="M 263.8 169.5 L 270.7 180.6 Q 271.4 181.7, 272.5 183.7 Q 273.6 185.7, 273.6 185.8 L 273.6 169.5 L 276.4 169.5 L 276.4 190.5 L 273.5 190.5 L 266.2 178.3 Q 265.3 176.9, 264.4 175.3 Q 263.5 173.7, 263.2 173.2 L 263.2 190.5 L 260.5 190.5 L 260.5 169.5 L 263.8 169.5 " fill="#0000FF"/>
<path class="atom-0" d="M 280.4 169.5 L 283.3 169.5 L 283.3 178.4 L 294.0 178.4 L 294.0 169.5 L 296.8 169.5 L 296.8 190.5 L 294.0 190.5 L 294.0 180.8 L 283.3 180.8 L 283.3 190.5 L 280.4 190.5 L 280.4 169.5 " fill="#0000FF"/>
<path class="atom-0" d="M 300.9 189.7 Q 301.4 188.4, 302.6 187.7 Q 303.8 187.0, 305.5 187.0 Q 307.6 187.0, 308.8 188.1 Q 310.0 189.2, 310.0 191.2 Q 310.0 193.3, 308.4 195.2 Q 306.9 197.1, 303.8 199.4 L 310.2 199.4 L 310.2 201.0 L 300.9 201.0 L 300.9 199.6 Q 303.5 197.8, 305.0 196.4 Q 306.5 195.1, 307.3 193.8 Q 308.0 192.6, 308.0 191.3 Q 308.0 190.0, 307.3 189.3 Q 306.7 188.5, 305.5 188.5 Q 304.4 188.5, 303.7 189.0 Q 302.9 189.4, 302.4 190.4 L 300.9 189.7 " fill="#0000FF"/>
<path class="legend" d="M 183.6 381.5 Q 184.9 381.5, 185.6 382.2 Q 186.3 383.0, 186.3 384.4 L 186.3 389.9 L 184.8 389.9 L 184.8 384.5 Q 184.8 383.6, 184.4 383.1 Q 184.1 382.7, 183.2 382.7 Q 182.5 382.7, 181.9 383.0 Q 181.2 383.4, 180.8 384.0 L 180.8 389.9 L 179.3 389.9 L 179.3 381.6 L 180.6 381.6 L 180.7 382.8 Q 181.9 381.5, 183.6 381.5 " fill="#000000"/>
<path class="legend" d="M 195.3 381.6 L 195.3 389.9 L 194.0 389.9 L 193.8 388.7 Q 192.8 390.0, 191.1 390.0 Q 189.7 390.0, 189.0 389.3 Q 188.3 388.5, 188.3 387.1 L 188.3 381.6 L 189.8 381.6 L 189.8 387.0 Q 189.8 387.9, 190.1 388.4 Q 190.5 388.8, 191.4 388.8 Q 192.1 388.8, 192.7 388.5 Q 193.4 388.1, 193.8 387.5 L 193.8 381.6 L 195.3 381.6 " fill="#000000"/>
<path class="legend" d="M 197.3 385.7 Q 197.3 383.7, 198.3 382.6 Q 199.3 381.5, 201.2 381.5 Q 203.1 381.5, 204.1 382.8 L 203.0 383.6 Q 202.7 383.1, 202.2 382.9 Q 201.8 382.7, 201.2 382.7 Q 200.1 382.7, 199.4 383.5 Q 198.8 384.2, 198.8 385.7 Q 198.8 387.2, 199.4 388.0 Q 200.1 388.8, 201.3 388.8 Q 202.0 388.8, 202.4 388.7 Q 202.9 388.5, 203.5 388.2 L 203.9 389.3 Q 202.7 390.0, 201.2 390.0 Q 199.3 390.0, 198.3 388.8 Q 197.3 387.7, 197.3 385.7 " fill="#000000"/>
<path class="legend" d="M 211.1 379.8 L 205.1 379.8 L 205.1 378.5 L 212.7 378.5 L 212.7 379.7 L 208.1 389.9 L 206.6 389.9 L 211.1 379.8 " fill="#000000"/>
<path class="legend" d="M 214.5 388.6 L 216.9 388.6 L 216.9 380.1 L 214.2 381.0 L 213.8 380.0 L 217.3 378.5 L 218.4 378.7 L 218.4 388.6 L 220.7 388.6 L 220.7 389.9 L 214.5 389.9 L 214.5 388.6 " fill="#000000"/>
<path class="bond-0 atom-0 atom-1" d="M 451.0,188.0 L 515.0,151.0" style="fill:none;fill-rule:evenodd;stroke:#000000;stroke-width:2.0px;stroke-linecap:butt;stroke-linejoin:miter;stroke-opacity:1"/>
<path class="bond-1 atom-1 atom-2" d="M 515.0,151.0 L 579.1,188.0" style="fill:none;fill-rule:evenodd;stroke:#000000;stroke-width:2.0px;stroke-linecap:butt;stroke-linejoin:miter;stroke-opacity:1"/>
<path class="bond-2 atom-2 atom-3" d="M 579.1,188.0 L 643.2,151.0" style="fill:none;fill-rule:evenodd;stroke:#000000;stroke-width:2.0px;stroke-linecap:butt;stroke-linejoin:miter;stroke-opacity:1"/>
<path class="bond-3 atom-3 atom-4" d="M 643.2,151.0 L 670.1,166.5" style="fill:none;fill-rule:evenodd;stroke:#000000;stroke-width:2.0px;stroke-linecap:butt;stroke-linejoin:miter;stroke-opacity:1"/>
<path class="bond-3 atom-3 atom-4" d="M 670.1,166.5 L 696.9,182.0" style="fill:none;fill-rule:evenodd;stroke:#0000FF;stroke-width:2.0px;stroke-linecap:butt;stroke-linejoin:miter;stroke-opacity:1"/>
<path d="M 511.8,152.9 L 515.0,151.0 L 518.3,152.9" style="fill:none;stroke:#000000;stroke-width:2.0px;stroke-linecap:butt;stroke-linejoin:miter;stroke-opacity:1;"/>
<path d="M 575.9,186.2 L 579.1,188.0 L 582.3,186.2" style="fill:none;stroke:#000000;stroke-width:2.0px;stroke-linecap:butt;stroke-linejoin:miter;stroke-opacity:1;"/>
<path d="M 640.0,152.9 L 643.2,151.0 L 644.6,151.8" style="fill:none;stroke:#000000;stroke-width:2.0px;stroke-linecap:butt;stroke-linejoin:miter;stroke-opacity:1;"/>
<path class="atom-4" d="M 702.7 177.5 L 709.5 188.6 Q 710.2 189.7, 711.3 191.7 Q 712.4 193.7, 712.5 193.8 L 712.5 177.5 L 715.3 177.5 L 715.3 198.5 L 712.4 198.5 L 705.0 186.4 Q 704.2 184.9, 703.2 183.3 Q 702.4 181.7, 702.1 181.2 L 702.1 198.5 L 699.4 198.5 L 699.4 177.5 L 702.7 177.5 " fill="#0000FF"/>
<path class="atom-4" d="M 719.3 177.5 L 722.1 177.5 L 722.1 186.5 L 732.8 186.5 L 732.8 177.5 L 735.7 177.5 L 735.7 198.5 L 732.8 198.5 L 732.8 188.8 L 722.1 188.8 L 722.1 198.5 L 719.3 198.5 L 719.3 177.5 " fill="#0000FF"/>
<path class="atom-4" d="M 739.8 197.8 Q 740.3 196.5, 741.5 195.7 Q 742.7 195.0, 744.4 195.0 Q 746.5 195.0, 747.6 196.1 Q 748.8 197.3, 748.8 199.3 Q 748.8 201.3, 747.3 203.2 Q 745.8 205.2, 742.7 207.4 L 749.0 207.4 L 749.0 209.0 L 739.7 209.0 L 739.7 207.7 Q 742.3 205.8, 743.8 204.5 Q 745.4 203.1, 746.1 201.9 Q 746.9 200.6, 746.9 199.4 Q 746.9 198.0, 746.2 197.3 Q 745.5 196.6, 744.4 196.6 Q 743.3 196.6, 742.5 197.0 Q 741.8 197.5, 741.2 198.4 L 739.8 197.8 " fill="#0000FF"/>
<path class="legend" d="M 578.5 381.5 Q 579.8 381.5, 580.5 382.2 Q 581.2 383.0, 581.2 384.4 L 581.2 389.8 L 579.7 389.8 L 579.7 384.5 Q 579.7 383.5, 579.3 383.1 Q 579.0 382.7, 578.1 382.7 Q 577.4 382.7, 576.7 383.0 Q 576.1 383.3, 575.7 384.0 L 575.7 389.8 L 574.2 389.8 L 574.2 381.6 L 575.5 381.6 L 575.6 382.8 Q 576.7 381.5, 578.5 381.5 " fill="#000000"/>
<path class="legend" d="M 590.2 381.6 L 590.2 389.8 L 588.9 389.8 L 588.8 388.7 Q 587.7 390.0, 586.0 390.0 Q 584.6 390.0, 583.9 389.2 Q 583.2 388.5, 583.2 387.1 L 583.2 381.6 L 584.7 381.6 L 584.7 386.9 Q 584.7 387.9, 585.0 388.4 Q 585.4 388.8, 586.3 388.8 Q 587.0 388.8, 587.6 388.5 Q 588.3 388.1, 588.7 387.5 L 588.7 381.6 L 590.2 381.6 " fill="#000000"/>
<path class="legend" d="M 592.2 385.7 Q 592.2 383.7, 593.2 382.6 Q 594.2 381.5, 596.1 381.5 Q 598.0 381.5, 599.0 382.8 L 598.0 383.6 Q 597.6 383.1, 597.1 382.9 Q 596.7 382.7, 596.1 382.7 Q 595.0 382.7, 594.4 383.4 Q 593.7 384.2, 593.7 385.7 Q 593.7 387.2, 594.4 388.0 Q 595.0 388.8, 596.2 388.8 Q 596.9 388.8, 597.4 388.6 Q 597.8 388.5, 598.4 388.2 L 598.8 389.2 Q 597.6 389.9, 596.1 389.9 Q 594.2 389.9, 593.2 388.8 Q 592.2 387.7, 592.2 385.7 " fill="#000000"/>
<path class="legend" d="M 600.7 388.6 L 603.2 388.6 L 603.2 380.1 L 600.5 380.9 L 600.1 380.0 L 603.6 378.4 L 604.7 378.6 L 604.7 388.6 L 606.9 388.6 L 606.9 389.8 L 600.7 389.8 L 600.7 388.6 " fill="#000000"/>
<path class="legend" d="M 612.8 382.8 Q 613.7 382.8, 614.5 383.2 Q 615.3 383.6, 615.7 384.4 Q 616.2 385.2, 616.2 386.2 Q 616.2 387.3, 615.7 388.2 Q 615.2 389.0, 614.3 389.5 Q 613.5 390.0, 612.4 390.0 Q 610.4 390.0, 609.3 388.6 Q 608.3 387.2, 608.3 384.5 Q 608.3 381.5, 609.6 380.0 Q 610.8 378.4, 613.2 378.4 Q 614.0 378.4, 614.5 378.5 Q 615.2 378.7, 615.7 379.0 L 615.1 380.1 Q 614.3 379.7, 613.3 379.7 Q 611.7 379.7, 610.8 380.7 Q 610.0 381.7, 609.9 383.9 Q 610.5 383.3, 611.2 383.1 Q 612.0 382.8, 612.8 382.8 M 612.4 388.7 Q 613.0 388.7, 613.5 388.3 Q 614.0 388.0, 614.3 387.5 Q 614.6 386.9, 614.6 386.2 Q 614.6 385.2, 614.0 384.6 Q 613.5 384.0, 612.5 384.0 Q 611.8 384.0, 611.1 384.3 Q 610.4 384.6, 609.9 385.1 Q 610.0 387.0, 610.6 387.8 Q 611.2 388.7, 612.4 388.7 " fill="#000000"/>
<path class="legend" d="M 623.6 383.8 Q 624.6 384.3, 625.2 385.0 Q 625.8 385.6, 625.8 386.7 Q 625.8 387.7, 625.3 388.4 Q 624.8 389.2, 623.9 389.6 Q 623.0 390.0, 621.8 390.0 Q 620.0 390.0, 618.9 389.1 Q 617.8 388.3, 617.8 386.7 Q 617.8 385.8, 618.3 385.1 Q 618.7 384.4, 619.7 383.9 Q 619.0 383.5, 618.6 382.9 Q 618.2 382.2, 618.2 381.3 Q 618.2 380.0, 619.2 379.2 Q 620.1 378.4, 621.8 378.4 Q 623.4 378.4, 624.4 379.2 Q 625.4 380.0, 625.4 381.3 Q 625.4 382.1, 624.9 382.7 Q 624.5 383.3, 623.6 383.8 M 621.8 379.6 Q 620.8 379.6, 620.3 380.0 Q 619.8 380.5, 619.8 381.3 Q 619.8 381.9, 620.1 382.3 Q 620.5 382.7, 621.0 382.9 Q 621.5 383.1, 622.5 383.4 Q 623.2 383.0, 623.5 382.4 Q 623.8 381.9, 623.8 381.3 Q 623.8 380.5, 623.2 380.0 Q 622.7 379.6, 621.8 379.6 M 621.8 388.8 Q 622.9 388.8, 623.5 388.2 Q 624.2 387.7, 624.2 386.7 Q 624.2 386.1, 623.8 385.7 Q 623.5 385.3, 623.0 385.1 Q 622.5 384.9, 621.6 384.6 L 620.9 384.4 Q 620.1 384.8, 619.7 385.4 Q 619.4 386.0, 619.4 386.7 Q 619.4 387.7, 620.1 388.2 Q 620.7 388.8, 621.8 388.8 " fill="#000000"/>
<path class="bond-0 atom-0 atom-1" d="M 1079.7,180.0 L 1047.9,180.0" style="fill:none;fill-rule:evenodd;stroke:#0000FF;stroke-width:2.0px;stroke-linecap:butt;stroke-linejoin:miter;stroke-opacity:1"/>
<path class="bond-0 atom-0 atom-1" d="M 1047.9,180.0 L 1016.1,180.0" style="fill:none;fill-rule:evenodd;stroke:#000000;stroke-width:2.0px;stroke-linecap:butt;stroke-linejoin:miter;stroke-opacity:1"/>
<path class="bond-1 atom-1 atom-2" d="M 1016.1,180.0 L 979.1,244.1" style="fill:none;fill-rule:evenodd;stroke:#000000;stroke-width:2.0px;stroke-linecap:butt;stroke-linejoin:miter;stroke-opacity:1"/>
<path class="bond-1 atom-1 atom-2" d="M 1003.3,180.0 L 972.7,233.0" style="fill:none;fill-rule:evenodd;stroke:#000000;stroke-width:2.0px;stroke-linecap:butt;stroke-linejoin:miter;stroke-opacity:1"/>
<path class="bond-2 atom-2 atom-3" d="M 979.1,244.1 L 947.3,244.1" style="fill:none;fill-rule:evenodd;stroke:#000000;stroke-width:2.0px;stroke-linecap:butt;stroke-linejoin:miter;stroke-opacity:1"/>
<path class="bond-2 atom-2 atom-3" d="M 947.3,244.1 L 915.5,244.1" style="fill:none;fill-rule:evenodd;stroke:#0000FF;stroke-width:2.0px;stroke-linecap:butt;stroke-linejoin:miter;stroke-opacity:1"/>
<path class="bond-3 atom-3 atom-4" d="M 897.7,231.2 L 882.9,205.6" style="fill:none;fill-rule:evenodd;stroke:#0000FF;stroke-width:2.0px;stroke-linecap:butt;stroke-linejoin:miter;stroke-opacity:1"/>
<path class="bond-3 atom-3 atom-4" d="M 882.9,205.6 L 868.1,180.0" style="fill:none;fill-rule:evenodd;stroke:#000000;stroke-width:2.0px;stroke-linecap:butt;stroke-linejoin:miter;stroke-opacity:1"/>
<path class="bond-3 atom-3 atom-4" d="M 907.3,225.6 L 894.1,202.8" style="fill:none;fill-rule:evenodd;stroke:#0000FF;stroke-width:2.0px;stroke-linecap:butt;stroke-linejoin:miter;stroke-opacity:1"/>
<path class="bond-3 atom-3 atom-4" d="M 894.1,202.8 L 880.9,180.0" style="fill:none;fill-rule:evenodd;stroke:#000000;stroke-width:2.0px;stroke-linecap:butt;stroke-linejoin:miter;stroke-opacity:1"/>
<path class="bond-4 atom-4 atom-5" d="M 868.1,180.0 L 882.9,154.4" style="fill:none;fill-rule:evenodd;stroke:#000000;stroke-width:2.0px;stroke-linecap:butt;stroke-linejoin:miter;stroke-opacity:1"/>
<path class="bond-4 atom-4 atom-5" d="M 882.9,154.4 L 897.7,128.8" style="fill:none;fill-rule:evenodd;stroke:#0000FF;stroke-width:2.0px;stroke-linecap:butt;stroke-linejoin:miter;stroke-opacity:1"/>
<path class="bond-5 atom-5 atom-6" d="M 915.5,115.9 L 947.3,115.9" style="fill:none;fill-rule:evenodd;stroke:#0000FF;stroke-width:2.0px;stroke-linecap:butt;stroke-linejoin:miter;stroke-opacity:1"/>
<path class="bond-5 atom-5 atom-6" d="M 947.3,115.9 L 979.1,115.9" style="fill:none;fill-rule:evenodd;stroke:#000000;stroke-width:2.0px;stroke-linecap:butt;stroke-linejoin:miter;stroke-opacity:1"/>
<path class="bond-5 atom-5 atom-6" d="M 915.5,127.0 L 944.1,127.0" style="fill:none;fill-rule:evenodd;stroke:#0000FF;stroke-width:2.0px;stroke-linecap:butt;stroke-linejoin:miter;stroke-opacity:1"/>
<path class="bond-5 atom-5 atom-6" d="M 944.1,127.0 L 972.7,127.0" style="fill:none;fill-rule:evenodd;stroke:#000000;stroke-width:2.0px;stroke-linecap:butt;stroke-linejoin:miter;stroke-opacity:1"/>
<path class="bond-6 atom-6 atom-1" d="M 979.1,115.9 L 1016.1,180.0" style="fill:none;fill-rule:evenodd;stroke:#000000;stroke-width:2.0px;stroke-linecap:butt;stroke-linejoin:miter;stroke-opacity:1"/>
<path d="M 981.0,240.9 L 979.1,244.1 L 977.5,244.1" style="fill:none;stroke:#000000;stroke-width:2.0px;stroke-linecap:butt;stroke-linejoin:miter;stroke-opacity:1;"/>
<path d="M 868.9,181.3 L 868.1,180.0 L 868.9,178.7" style="fill:none;stroke:#000000;stroke-width:2.0px;stroke-linecap:butt;stroke-linejoin:miter;stroke-opacity:1;"/>
<path d="M 977.5,115.9 L 979.1,115.9 L 981.0,119.1" style="fill:none;stroke:#000000;stroke-width:2.0px;stroke-linecap:butt;stroke-linejoin:miter;stroke-opacity:1;"/>
<path class="atom-0" d="M 1085.5 169.5 L 1092.4 180.6 Q 1093.1 181.7, 1094.1 183.7 Q 1095.2 185.7, 1095.3 185.8 L 1095.3 169.5 L 1098.1 169.5 L 1098.1 190.5 L 1095.2 190.5 L 1087.8 178.3 Q 1087.0 176.9, 1086.1 175.3 Q 1085.2 173.7, 1084.9 173.2 L 1084.9 190.5 L 1082.2 190.5 L 1082.2 169.5 L 1085.5 169.5 " fill="#0000FF"/>
<path class="atom-0" d="M 1102.1 169.5 L 1104.9 169.5 L 1104.9 178.4 L 1115.6 178.4 L 1115.6 169.5 L 1118.5 169.5 L 1118.5 190.5 L 1115.6 190.5 L 1115.6 180.8 L 1104.9 180.8 L 1104.9 190.5 L 1102.1 190.5 L 1102.1 169.5 " fill="#0000FF"/>
<path class="atom-0" d="M 1122.6 189.7 Q 1123.1 188.4, 1124.3 187.7 Q 1125.5 187.0, 1127.2 187.0 Q 1129.3 187.0, 1130.5 188.1 Q 1131.6 189.2, 1131.6 191.2 Q 1131.6 193.3, 1130.1 195.2 Q 1128.6 197.1, 1125.5 199.4 L 1131.9 199.4 L 1131.9 201.0 L 1122.6 201.0 L 1122.6 199.6 Q 1125.1 197.8, 1126.7 196.4 Q 1128.2 195.1, 1128.9 193.8 Q 1129.7 192.6, 1129.7 191.3 Q 1129.7 190.0, 1129.0 189.3 Q 1128.4 188.5, 1127.2 188.5 Q 1126.1 188.5, 1125.3 189.0 Q 1124.6 189.4, 1124.1 190.4 L 1122.6 189.7 " fill="#0000FF"/>
<path class="atom-3" d="M 900.5 233.6 L 907.4 244.7 Q 908.0 245.8, 909.1 247.8 Q 910.2 249.8, 910.3 249.9 L 910.3 233.6 L 913.1 233.6 L 913.1 254.6 L 910.2 254.6 L 902.8 242.4 Q 902.0 241.0, 901.1 239.4 Q 900.2 237.8, 899.9 237.2 L 899.9 254.6 L 897.2 254.6 L 897.2 233.6 L 900.5 233.6 " fill="#0000FF"/>
<path class="atom-5" d="M 900.5 105.4 L 907.4 116.5 Q 908.0 117.6, 909.1 119.6 Q 910.2 121.6, 910.3 121.7 L 910.3 105.4 L 913.1 105.4 L 913.1 126.4 L 910.2 126.4 L 902.8 114.3 Q 902.0 112.8, 901.1 111.2 Q 900.2 109.6, 899.9 109.1 L 899.9 126.4 L 897.2 126.4 L 897.2 105.4 L 900.5 105.4 " fill="#0000FF"/>
<path class="legend" d="M 979.1 381.5 Q 980.4 381.5, 981.1 382.2 Q 981.8 383.0, 981.8 384.4 L 981.8 389.9 L 980.3 389.9 L 980.3 384.5 Q 980.3 383.6, 979.9 383.1 Q 979.5 382.7, 978.7 382.7 Q 978.0 382.7, 977.3 383.0 Q 976.7 383.4, 976.3 384.0 L 976.3 389.9 L 974.8 389.9 L 974.8 381.6 L 976.0 381.6 L 976.2 382.8 Q 977.3 381.5, 979.1 381.5 " fill="#000000"/>
<path class="legend" d="M 990.7 381.6 L 990.7 389.9 L 989.5 389.9 L 989.3 388.7 Q 988.3 390.0, 986.5 390.0 Q 985.2 390.0, 984.5 389.3 Q 983.7 388.5, 983.7 387.1 L 983.7 381.6 L 985.3 381.6 L 985.3 387.0 Q 985.3 387.9, 985.6 388.4 Q 986.0 388.8, 986.8 388.8 Q 987.6 388.8, 988.2 388.5 Q 988.8 388.1, 989.2 387.5 L 989.2 381.6 L 990.7 381.6 " fill="#000000"/>
<path class="legend" d="M 992.8 385.7 Q 992.8 383.7, 993.8 382.6 Q 994.7 381.5, 996.7 381.5 Q 998.6 381.5, 999.5 382.8 L 998.5 383.6 Q 998.2 383.1, 997.7 382.9 Q 997.3 382.7, 996.7 382.7 Q 995.6 382.7, 994.9 383.5 Q 994.3 384.2, 994.3 385.7 Q 994.3 387.2, 994.9 388.0 Q 995.6 388.8, 996.8 388.8 Q 997.5 388.8, 997.9 388.7 Q 998.4 388.5, 999.0 388.2 L 999.4 389.3 Q 998.2 390.0, 996.7 390.0 Q 994.7 390.0, 993.8 388.8 Q 992.8 387.7, 992.8 385.7 " fill="#000000"/>
<path class="legend" d="M 1001.3 388.6 L 1003.7 388.6 L 1003.7 380.1 L 1001.0 381.0 L 1000.6 380.0 L 1004.1 378.5 L 1005.3 378.7 L 1005.3 388.6 L 1007.5 388.6 L 1007.5 389.9 L 1001.3 389.9 L 1001.3 388.6 " fill="#000000"/>
<path class="legend" d="M 1014.8 379.8 L 1008.9 379.8 L 1008.9 378.5 L 1016.4 378.5 L 1016.4 379.7 L 1011.8 389.9 L 1010.3 389.9 L 1014.8 379.8 " fill="#000000"/>
<path class="legend" d="M 1017.6 380.7 Q 1018.0 379.6, 1019.0 379.0 Q 1020.0 378.4, 1021.4 378.4 Q 1023.1 378.4, 1024.0 379.3 Q 1025.0 380.3, 1025.0 381.9 Q 1025.0 383.6, 1023.7 385.2 Q 1022.5 386.7, 1020.0 388.6 L 1025.2 388.6 L 1025.2 389.9 L 1017.6 389.9 L 1017.6 388.8 Q 1019.7 387.3, 1020.9 386.2 Q 1022.2 385.0, 1022.8 384.0 Q 1023.4 383.0, 1023.4 382.0 Q 1023.4 380.9, 1022.9 380.3 Q 1022.3 379.7, 1021.4 379.7 Q 1020.5 379.7, 1019.8 380.0 Q 1019.2 380.4, 1018.8 381.2 L 1017.6 380.7 " fill="#000000"/>
<path class="bond-0 atom-0 atom-1" d="M 1303.9,151.0 L 1368.0,114.0" style="fill:none;fill-rule:evenodd;stroke:#000000;stroke-width:2.0px;stroke-linecap:butt;stroke-linejoin:miter;stroke-opacity:1"/>
<path class="bond-1 atom-1 atom-2" d="M 1368.0,114.0 L 1432.0,151.0" style="fill:none;fill-rule:evenodd;stroke:#000000;stroke-width:2.0px;stroke-linecap:butt;stroke-linejoin:miter;stroke-opacity:1"/>
<path class="bond-2 atom-2 atom-3" d="M 1432.0,151.0 L 1496.1,114.0" style="fill:none;fill-rule:evenodd;stroke:#000000;stroke-width:2.0px;stroke-linecap:butt;stroke-linejoin:miter;stroke-opacity:1"/>
<path class="bond-3 atom-2 atom-4" d="M 1432.0,151.0 L 1432.0,181.6" style="fill:none;fill-rule:evenodd;stroke:#000000;stroke-width:2.0px;stroke-linecap:butt;stroke-linejoin:miter;stroke-opacity:1"/>
<path class="bond-3 atom-2 atom-4" d="M 1432.0,181.6 L 1432.0,212.1" style="fill:none;fill-rule:evenodd;stroke:#0000FF;stroke-width:2.0px;stroke-linecap:butt;stroke-linejoin:miter;stroke-opacity:1"/>
<path d="M 1364.8,115.9 L 1368.0,114.0 L 1371.2,115.9" style="fill:none;stroke:#000000;stroke-width:2.0px;stroke-linecap:butt;stroke-linejoin:miter;stroke-opacity:1;"/>
<path class="atom-4" d="M 1427.4 214.5 L 1434.3 225.6 Q 1435.0 226.7, 1436.1 228.7 Q 1437.2 230.7, 1437.2 230.8 L 1437.2 214.5 L 1440.0 214.5 L 1440.0 235.5 L 1437.1 235.5 L 1429.7 223.4 Q 1428.9 221.9, 1428.0 220.3 Q 1427.1 218.7, 1426.8 218.2 L 1426.8 235.5 L 1424.1 235.5 L 1424.1 214.5 L 1427.4 214.5 " fill="#0000FF"/>
<path class="atom-4" d="M 1444.0 214.5 L 1446.8 214.5 L 1446.8 223.5 L 1457.6 223.5 L 1457.6 214.5 L 1460.4 214.5 L 1460.4 235.5 L 1457.6 235.5 L 1457.6 225.8 L 1446.8 225.8 L 1446.8 235.5 L 1444.0 235.5 L 1444.0 214.5 " fill="#0000FF"/>
<path class="atom-4" d="M 1464.5 234.8 Q 1465.0 233.5, 1466.2 232.7 Q 1467.4 232.0, 1469.1 232.0 Q 1471.2 232.0, 1472.4 233.1 Q 1473.5 234.3, 1473.5 236.3 Q 1473.5 238.3, 1472.0 240.2 Q 1470.5 242.2, 1467.4 244.4 L 1473.8 244.4 L 1473.8 246.0 L 1464.5 246.0 L 1464.5 244.7 Q 1467.0 242.8, 1468.6 241.5 Q 1470.1 240.1, 1470.8 238.9 Q 1471.6 237.6, 1471.6 236.4 Q 1471.6 235.0, 1470.9 234.3 Q 1470.3 233.6, 1469.1 233.6 Q 1468.0 233.6, 1467.3 234.0 Q 1466.5 234.5, 1466.0 235.5 L 1464.5 234.8 " fill="#0000FF"/>
<path class="legend" d="M 1377.9 381.5 Q 1379.2 381.5, 1379.9 382.2 Q 1380.6 383.0, 1380.6 384.4 L 1380.6 389.9 L 1379.1 389.9 L 1379.1 384.5 Q 1379.1 383.6, 1378.8 383.1 Q 1378.4 382.7, 1377.6 382.7 Q 1376.8 382.7, 1376.2 383.0 Q 1375.6 383.4, 1375.2 384.0 L 1375.2 389.9 L 1373.6 389.9 L 1373.6 381.6 L 1374.9 381.6 L 1375.1 382.8 Q 1376.2 381.5, 1377.9 381.5 " fill="#000000"/>
<path class="legend" d="M 1389.6 381.6 L 1389.6 389.9 L 1388.4 389.9 L 1388.2 388.7 Q 1387.1 390.0, 1385.4 390.0 Q 1384.0 390.0, 1383.3 389.3 Q 1382.6 388.5, 1382.6 387.1 L 1382.6 381.6 L 1384.1 381.6 L 1384.1 387.0 Q 1384.1 387.9, 1384.5 388.4 Q 1384.9 388.8, 1385.7 388.8 Q 1386.5 388.8, 1387.1 388.5 Q 1387.7 388.1, 1388.1 387.5 L 1388.1 381.6 L 1389.6 381.6 " fill="#000000"/>
<path class="legend" d="M 1391.7 385.7 Q 1391.7 383.7, 1392.6 382.6 Q 1393.6 381.5, 1395.6 381.5 Q 1397.5 381.5, 1398.4 382.8 L 1397.4 383.6 Q 1397.0 383.1, 1396.6 382.9 Q 1396.2 382.7, 1395.6 382.7 Q 1394.5 382.7, 1393.8 383.5 Q 1393.2 384.2, 1393.2 385.7 Q 1393.2 387.2, 1393.8 388.0 Q 1394.5 388.8, 1395.7 388.8 Q 1396.4 388.8, 1396.8 388.7 Q 1397.3 388.5, 1397.9 388.2 L 1398.3 389.3 Q 1397.1 390.0, 1395.6 390.0 Q 1393.6 390.0, 1392.6 388.8 Q 1391.7 387.7, 1391.7 385.7 " fill="#000000"/>
<path class="legend" d="M 1399.6 380.7 Q 1400.0 379.6, 1401.0 379.0 Q 1402.0 378.4, 1403.4 378.4 Q 1405.1 378.4, 1406.0 379.3 Q 1407.0 380.3, 1407.0 381.9 Q 1407.0 383.6, 1405.8 385.2 Q 1404.5 386.7, 1402.0 388.6 L 1407.2 388.6 L 1407.2 389.9 L 1399.6 389.9 L 1399.6 388.8 Q 1401.7 387.3, 1402.9 386.2 Q 1404.2 385.0, 1404.8 384.0 Q 1405.4 383.0, 1405.4 382.0 Q 1405.4 380.9, 1404.9 380.3 Q 1404.3 379.7, 1403.4 379.7 Q 1402.5 379.7, 1401.8 380.0 Q 1401.2 380.4, 1400.8 381.2 L 1399.6 380.7 " fill="#000000"/>
<path class="legend" d="M 1413.0 382.8 Q 1414.0 382.8, 1414.8 383.2 Q 1415.6 383.6, 1416.1 384.4 Q 1416.6 385.2, 1416.6 386.3 Q 1416.6 387.4, 1416.0 388.3 Q 1415.4 389.1, 1414.5 389.6 Q 1413.6 390.0, 1412.5 390.0 Q 1411.5 390.0, 1410.5 389.6 Q 1409.5 389.2, 1408.9 388.5 L 1409.9 387.5 Q 1410.4 388.1, 1411.1 388.4 Q 1411.8 388.7, 1412.6 388.7 Q 1413.6 388.7, 1414.3 388.1 Q 1415.0 387.4, 1415.0 386.3 Q 1415.0 385.1, 1414.3 384.5 Q 1413.6 384.0, 1412.5 384.0 Q 1411.5 384.0, 1410.4 384.4 L 1409.5 384.0 L 1410.0 378.5 L 1415.9 378.5 L 1415.7 379.8 L 1411.3 379.8 L 1411.0 383.2 Q 1412.0 382.8, 1413.0 382.8 " fill="#000000"/>
<path class="legend" d="M 1422.2 390.0 Q 1420.1 390.0, 1419.1 388.4 Q 1418.1 386.9, 1418.1 384.2 Q 1418.1 381.4, 1419.1 379.9 Q 1420.1 378.4, 1422.2 378.4 Q 1424.3 378.4, 1425.3 379.9 Q 1426.4 381.4, 1426.4 384.2 Q 1426.4 386.9, 1425.3 388.4 Q 1424.3 390.0, 1422.2 390.0 M 1422.2 388.7 Q 1423.4 388.7, 1424.1 387.6 Q 1424.8 386.4, 1424.8 384.2 Q 1424.8 382.0, 1424.1 380.8 Q 1423.4 379.7, 1422.2 379.7 Q 1421.0 379.7, 1420.3 380.8 Q 1419.7 382.0, 1419.7 384.2 Q 1419.7 386.4, 1420.3 387.6 Q 1421.0 388.7, 1422.2 388.7 " fill="#000000"/>
<path class="bond-0 atom-0 atom-1" d="M 1681.5,186.7 L 1749.6,157.8" style="fill:none;fill-rule:evenodd;stroke:#000000;stroke-width:2.0px;stroke-linecap:butt;stroke-linejoin:miter;stroke-opacity:1"/>
<path class="bond-1 atom-1 atom-2" d="M 1749.6,157.8 L 1808.7,202.2" style="fill:none;fill-rule:evenodd;stroke:#000000;stroke-width:2.0px;stroke-linecap:butt;stroke-linejoin:miter;stroke-opacity:1"/>
<path class="bond-2 atom-2 atom-3" d="M 1808.7,202.2 L 1837.6,190.0" style="fill:none;fill-rule:evenodd;stroke:#000000;stroke-width:2.0px;stroke-linecap:butt;stroke-linejoin:miter;stroke-opacity:1"/>
<path class="bond-2 atom-2 atom-3" d="M 1837.6,190.0 L 1866.4,177.7" style="fill:none;fill-rule:evenodd;stroke:#0000FF;stroke-width:2.0px;stroke-linecap:butt;stroke-linejoin:miter;stroke-opacity:1"/>
<path d="M 1746.2,159.2 L 1749.6,157.8 L 1752.5,160.0" style="fill:none;stroke:#000000;stroke-width:2.0px;stroke-linecap:butt;stroke-linejoin:miter;stroke-opacity:1;"/>
<path d="M 1805.7,200.0 L 1808.7,202.2 L 1810.1,201.6" style="fill:none;stroke:#000000;stroke-width:2.0px;stroke-linecap:butt;stroke-linejoin:miter;stroke-opacity:1;"/>
<path class="atom-3" d="M 1872.2 162.8 L 1879.0 173.9 Q 1879.7 175.0, 1880.8 177.0 Q 1881.9 178.9, 1882.0 179.1 L 1882.0 162.8 L 1884.7 162.8 L 1884.7 183.7 L 1881.9 183.7 L 1874.5 171.6 Q 1873.6 170.2, 1872.7 168.6 Q 1871.8 166.9, 1871.6 166.4 L 1871.6 183.7 L 1868.8 183.7 L 1868.8 162.8 L 1872.2 162.8 " fill="#0000FF"/>
<path class="atom-3" d="M 1888.7 162.8 L 1891.6 162.8 L 1891.6 171.7 L 1902.3 171.7 L 1902.3 162.8 L 1905.1 162.8 L 1905.1 183.7 L 1902.3 183.7 L 1902.3 174.1 L 1891.6 174.1 L 1891.6 183.7 L 1888.7 183.7 L 1888.7 162.8 " fill="#0000FF"/>
<path class="atom-3" d="M 1909.3 183.0 Q 1909.8 181.7, 1911.0 181.0 Q 1912.2 180.2, 1913.9 180.2 Q 1916.0 180.2, 1917.1 181.4 Q 1918.3 182.5, 1918.3 184.5 Q 1918.3 186.6, 1916.8 188.5 Q 1915.3 190.4, 1912.1 192.7 L 1918.5 192.7 L 1918.5 194.2 L 1909.2 194.2 L 1909.2 192.9 Q 1911.8 191.1, 1913.3 189.7 Q 1914.9 188.3, 1915.6 187.1 Q 1916.3 185.9, 1916.3 184.6 Q 1916.3 183.3, 1915.7 182.5 Q 1915.0 181.8, 1913.9 181.8 Q 1912.7 181.8, 1912.0 182.2 Q 1911.3 182.7, 1910.7 183.7 L 1909.3 183.0 " fill="#0000FF"/>
<path class="legend" d="M 1777.8 381.5 Q 1779.1 381.5, 1779.8 382.2 Q 1780.5 383.0, 1780.5 384.4 L 1780.5 389.9 L 1779.0 389.9 L 1779.0 384.5 Q 1779.0 383.6, 1778.6 383.1 Q 1778.2 382.7, 1777.4 382.7 Q 1776.6 382.7, 1776.0 383.0 Q 1775.4 383.4, 1775.0 384.0 L 1775.0 389.9 L 1773.5 389.9 L 1773.5 381.6 L 1774.7 381.6 L 1774.9 382.8 Q 1776.0 381.5, 1777.8 381.5 " fill="#000000"/>
<path class="legend" d="M 1789.4 381.6 L 1789.4 389.9 L 1788.2 389.9 L 1788.0 388.7 Q 1787.0 390.0, 1785.3 390.0 Q 1783.9 390.0, 1783.2 389.3 Q 1782.5 388.5, 1782.5 387.1 L 1782.5 381.6 L 1784.0 381.6 L 1784.0 387.0 Q 1784.0 387.9, 1784.3 388.4 Q 1784.7 388.8, 1785.5 388.8 Q 1786.3 388.8, 1786.9 388.5 Q 1787.5 388.1, 1787.9 387.5 L 1787.9 381.6 L 1789.4 381.6 " fill="#000000"/>
<path class="legend" d="M 1791.5 385.7 Q 1791.5 383.7, 1792.5 382.6 Q 1793.5 381.5, 1795.4 381.5 Q 1797.3 381.5, 1798.3 382.8 L 1797.3 383.6 Q 1796.9 383.1, 1796.4 382.9 Q 1796.0 382.7, 1795.4 382.7 Q 1794.3 382.7, 1793.7 383.5 Q 1793.0 384.2, 1793.0 385.7 Q 1793.0 387.2, 1793.7 388.0 Q 1794.3 388.8, 1795.5 388.8 Q 1796.2 388.8, 1796.7 388.7 Q 1797.1 388.5, 1797.7 388.2 L 1798.1 389.3 Q 1796.9 390.0, 1795.4 390.0 Q 1793.5 390.0, 1792.5 388.8 Q 1791.5 387.7, 1791.5 385.7 " fill="#000000"/>
<path class="legend" d="M 1799.4 380.7 Q 1799.9 379.6, 1800.9 379.0 Q 1801.8 378.4, 1803.2 378.4 Q 1804.9 378.4, 1805.9 379.3 Q 1806.9 380.3, 1806.9 381.9 Q 1806.9 383.6, 1805.6 385.2 Q 1804.4 386.7, 1801.8 388.6 L 1807.0 388.6 L 1807.0 389.9 L 1799.4 389.9 L 1799.4 388.8 Q 1801.5 387.3, 1802.8 386.2 Q 1804.0 385.0, 1804.6 384.0 Q 1805.3 383.0, 1805.3 382.0 Q 1805.3 380.9, 1804.7 380.3 Q 1804.2 379.7, 1803.2 379.7 Q 1802.3 379.7, 1801.7 380.0 Q 1801.1 380.4, 1800.7 381.2 L 1799.4 380.7 " fill="#000000"/>
<path class="legend" d="M 1813.2 382.8 Q 1814.2 382.8, 1815.0 383.2 Q 1815.7 383.6, 1816.2 384.4 Q 1816.6 385.2, 1816.6 386.2 Q 1816.6 387.3, 1816.1 388.2 Q 1815.6 389.0, 1814.8 389.5 Q 1813.9 390.0, 1812.8 390.0 Q 1810.8 390.0, 1809.8 388.6 Q 1808.7 387.2, 1808.7 384.5 Q 1808.7 381.5, 1810.0 380.0 Q 1811.3 378.4, 1813.7 378.4 Q 1814.4 378.4, 1815.0 378.6 Q 1815.6 378.7, 1816.2 379.1 L 1815.5 380.1 Q 1814.7 379.7, 1813.7 379.7 Q 1812.1 379.7, 1811.3 380.7 Q 1810.5 381.7, 1810.4 383.9 Q 1810.9 383.3, 1811.7 383.1 Q 1812.4 382.8, 1813.2 382.8 M 1812.8 388.7 Q 1813.4 388.7, 1813.9 388.4 Q 1814.4 388.0, 1814.7 387.5 Q 1815.0 386.9, 1815.0 386.2 Q 1815.0 385.2, 1814.4 384.6 Q 1813.9 384.1, 1812.9 384.1 Q 1812.2 384.1, 1811.5 384.4 Q 1810.8 384.6, 1810.4 385.1 Q 1810.4 387.0, 1811.0 387.8 Q 1811.6 388.7, 1812.8 388.7 " fill="#000000"/>
<path class="legend" d="M 1822.4 390.0 Q 1820.3 390.0, 1819.2 388.4 Q 1818.2 386.9, 1818.2 384.2 Q 1818.2 381.4, 1819.2 379.9 Q 1820.3 378.4, 1822.4 378.4 Q 1824.5 378.4, 1825.5 379.9 Q 1826.5 381.4, 1826.5 384.2 Q 1826.5 386.9, 1825.5 388.4 Q 1824.4 390.0, 1822.4 390.0 M 1822.4 388.7 Q 1823.6 388.7, 1824.3 387.6 Q 1824.9 386.4, 1824.9 384.2 Q 1824.9 382.0, 1824.3 380.8 Q 1823.6 379.7, 1822.4 379.7 Q 1821.2 379.7, 1820.5 380.8 Q 1819.8 382.0, 1819.8 384.2 Q 1819.8 386.4, 1820.5 387.6 Q 1821.2 388.7, 1822.4 388.7 " fill="#000000"/>
<path class="bond-0 atom-0 atom-1" d="M 132.2,576.6 L 154.0,597.1" style="fill:none;fill-rule:evenodd;stroke:#0000FF;stroke-width:2.0px;stroke-linecap:butt;stroke-linejoin:miter;stroke-opacity:1"/>
<path class="bond-0 atom-0 atom-1" d="M 154.0,597.1 L 175.7,617.6" style="fill:none;fill-rule:evenodd;stroke:#000000;stroke-width:2.0px;stroke-linecap:butt;stroke-linejoin:miter;stroke-opacity:1"/>
<path class="bond-1 atom-1 atom-2" d="M 175.7,617.6 L 246.6,596.3" style="fill:none;fill-rule:evenodd;stroke:#000000;stroke-width:2.0px;stroke-linecap:butt;stroke-linejoin:miter;stroke-opacity:1"/>
<path class="bond-2 atom-2 atom-3" d="M 246.6,596.3 L 318.6,613.3" style="fill:none;fill-rule:evenodd;stroke:#000000;stroke-width:2.0px;stroke-linecap:butt;stroke-linejoin:miter;stroke-opacity:1"/>
<path class="bond-3 atom-3 atom-4" d="M 318.6,613.3 L 297.3,542.4" style="fill:none;fill-rule:evenodd;stroke:#000000;stroke-width:2.0px;stroke-linecap:butt;stroke-linejoin:miter;stroke-opacity:1"/>
<path class="bond-4 atom-4 atom-2" d="M 297.3,542.4 L 246.6,596.3" style="fill:none;fill-rule:evenodd;stroke:#000000;stroke-width:2.0px;stroke-linecap:butt;stroke-linejoin:miter;stroke-opacity:1"/>
<path d="M 174.6,616.6 L 175.7,617.6 L 179.3,616.5" style="fill:none;stroke:#000000;stroke-width:2.0px;stroke-linecap:butt;stroke-linejoin:miter;stroke-opacity:1;"/>
<path d="M 315.0,612.4 L 318.6,613.3 L 317.5,609.8" style="fill:none;stroke:#000000;stroke-width:2.0px;stroke-linecap:butt;stroke-linejoin:miter;stroke-opacity:1;"/>
<path d="M 298.4,546.0 L 297.3,542.4 L 294.8,545.1" style="fill:none;stroke:#000000;stroke-width:2.0px;stroke-linecap:butt;stroke-linejoin:miter;stroke-opacity:1;"/>
<path class="atom-0" d="M 81.4 556.4 L 84.2 556.4 L 84.2 565.3 L 94.9 565.3 L 94.9 556.4 L 97.8 556.4 L 97.8 577.3 L 94.9 577.3 L 94.9 567.6 L 84.2 567.6 L 84.2 577.3 L 81.4 577.3 L 81.4 556.4 " fill="#0000FF"/>
<path class="atom-0" d="M 101.9 576.6 Q 102.4 575.3, 103.6 574.6 Q 104.8 573.8, 106.5 573.8 Q 108.6 573.8, 109.8 574.9 Q 110.9 576.1, 110.9 578.1 Q 110.9 580.1, 109.4 582.1 Q 107.9 584.0, 104.8 586.2 L 111.2 586.2 L 111.2 587.8 L 101.9 587.8 L 101.9 586.5 Q 104.4 584.7, 106.0 583.3 Q 107.5 581.9, 108.2 580.7 Q 109.0 579.5, 109.0 578.2 Q 109.0 576.9, 108.3 576.1 Q 107.7 575.4, 106.5 575.4 Q 105.4 575.4, 104.6 575.8 Q 103.9 576.3, 103.4 577.3 L 101.9 576.6 " fill="#0000FF"/>
<path class="atom-0" d="M 117.2 556.4 L 124.1 567.5 Q 124.8 568.6, 125.9 570.5 Q 126.9 572.5, 127.0 572.6 L 127.0 556.4 L 129.8 556.4 L 129.8 577.3 L 126.9 577.3 L 119.5 565.2 Q 118.7 563.8, 117.8 562.1 Q 116.9 560.5, 116.6 560.0 L 116.6 577.3 L 113.9 577.3 L 113.9 556.4 L 117.2 556.4 " fill="#0000FF"/>
<path class="legend" d="M 178.4 781.5 Q 179.7 781.5, 180.4 782.2 Q 181.1 783.0, 181.1 784.4 L 181.1 789.9 L 179.6 789.9 L 179.6 784.5 Q 179.6 783.6, 179.2 783.1 Q 178.8 782.7, 178.0 782.7 Q 177.3 782.7, 176.6 783.0 Q 176.0 783.4, 175.6 784.0 L 175.6 789.9 L 174.1 789.9 L 174.1 781.6 L 175.3 781.6 L 175.5 782.8 Q 176.6 781.5, 178.4 781.5 " fill="#000000"/>
<path class="legend" d="M 190.1 781.6 L 190.1 789.9 L 188.8 789.9 L 188.6 788.7 Q 187.6 790.0, 185.9 790.0 Q 184.5 790.0, 183.8 789.3 Q 183.1 788.5, 183.1 787.1 L 183.1 781.6 L 184.6 781.6 L 184.6 787.0 Q 184.6 787.9, 184.9 788.4 Q 185.3 788.8, 186.2 788.8 Q 186.9 788.8, 187.5 788.5 Q 188.2 788.1, 188.6 787.5 L 188.6 781.6 L 190.1 781.6 " fill="#000000"/>
<path class="legend" d="M 192.1 785.7 Q 192.1 783.7, 193.1 782.6 Q 194.1 781.5, 196.0 781.5 Q 197.9 781.5, 198.9 782.8 L 197.9 783.6 Q 197.5 783.1, 197.0 782.9 Q 196.6 782.7, 196.0 782.7 Q 194.9 782.7, 194.3 783.5 Q 193.6 784.2, 193.6 785.7 Q 193.6 787.2, 194.3 788.0 Q 194.9 788.8, 196.1 788.8 Q 196.8 788.8, 197.3 788.7 Q 197.7 788.5, 198.3 788.2 L 198.7 789.3 Q 197.5 790.0, 196.0 790.0 Q 194.1 790.0, 193.1 788.8 Q 192.1 787.7, 192.1 785.7 " fill="#000000"/>
<path class="legend" d="M 200.0 780.7 Q 200.4 779.6, 201.4 779.0 Q 202.4 778.4, 203.8 778.4 Q 205.5 778.4, 206.5 779.3 Q 207.4 780.3, 207.4 781.9 Q 207.4 783.6, 206.2 785.2 Q 205.0 786.7, 202.4 788.6 L 207.6 788.6 L 207.6 789.9 L 200.0 789.9 L 200.0 788.8 Q 202.1 787.3, 203.4 786.2 Q 204.6 785.0, 205.2 784.0 Q 205.8 783.0, 205.8 782.0 Q 205.8 780.9, 205.3 780.3 Q 204.7 779.7, 203.8 779.7 Q 202.9 779.7, 202.3 780.0 Q 201.7 780.4, 201.2 781.2 L 200.0 780.7 " fill="#000000"/>
<path class="legend" d="M 215.3 779.8 L 209.3 779.8 L 209.3 778.5 L 216.8 778.5 L 216.8 779.7 L 212.3 789.9 L 210.7 789.9 L 215.3 779.8 " fill="#000000"/>
<path class="legend" d="M 221.8 778.4 Q 223.9 778.4, 224.9 779.8 Q 225.9 781.1, 225.9 783.9 Q 225.9 786.9, 224.6 788.4 Q 223.4 790.0, 221.0 790.0 Q 220.3 790.0, 219.6 789.8 Q 219.1 789.7, 218.5 789.3 L 219.1 788.3 Q 219.9 788.7, 220.9 788.7 Q 222.5 788.7, 223.4 787.7 Q 224.2 786.6, 224.3 784.5 Q 223.7 785.0, 223.0 785.3 Q 222.2 785.6, 221.5 785.6 Q 220.5 785.6, 219.7 785.2 Q 218.9 784.7, 218.5 784.0 Q 218.0 783.2, 218.0 782.2 Q 218.0 781.1, 218.5 780.2 Q 219.0 779.4, 219.9 778.9 Q 220.7 778.4, 221.8 778.4 M 219.6 782.2 Q 219.6 783.2, 220.2 783.7 Q 220.8 784.3, 221.7 784.3 Q 222.4 784.3, 223.1 784.0 Q 223.8 783.8, 224.3 783.3 Q 224.2 781.4, 223.6 780.6 Q 223.0 779.7, 221.8 779.7 Q 221.2 779.7, 220.7 780.0 Q 220.2 780.4, 219.9 780.9 Q 219.6 781.5, 219.6 782.2 " fill="#000000"/>
<path class="bond-0 atom-0 atom-1" d="M 452.3,520.5 L 510.4,566.2" style="fill:none;fill-rule:evenodd;stroke:#000000;stroke-width:2.0px;stroke-linecap:butt;stroke-linejoin:miter;stroke-opacity:1"/>
<path class="bond-1 atom-1 atom-2" d="M 510.4,566.2 L 500.0,639.5" style="fill:none;fill-rule:evenodd;stroke:#000000;stroke-width:2.0px;stroke-linecap:butt;stroke-linejoin:miter;stroke-opacity:1"/>
<path class="bond-2 atom-1 atom-3" d="M 510.4,566.2 L 579.1,538.7" style="fill:none;fill-rule:evenodd;stroke:#000000;stroke-width:2.0px;stroke-linecap:butt;stroke-linejoin:miter;stroke-opacity:1"/>
<path class="bond-3 atom-3 atom-4" d="M 579.1,538.7 L 637.3,584.4" style="fill:none;fill-rule:evenodd;stroke:#000000;stroke-width:2.0px;stroke-linecap:butt;stroke-linejoin:miter;stroke-opacity:1"/>
<path class="bond-4 atom-4 atom-5" d="M 637.3,584.4 L 666.5,572.7" style="fill:none;fill-rule:evenodd;stroke:#000000;stroke-width:2.0px;stroke-linecap:butt;stroke-linejoin:miter;stroke-opacity:1"/>
<path class="bond-4 atom-4 atom-5" d="M 666.5,572.7 L 695.6,561.0" style="fill:none;fill-rule:evenodd;stroke:#0000FF;stroke-width:2.0px;stroke-linecap:butt;stroke-linejoin:miter;stroke-opacity:1"/>
<path d="M 575.7,540.1 L 579.1,538.7 L 582.0,541.0" style="fill:none;stroke:#000000;stroke-width:2.0px;stroke-linecap:butt;stroke-linejoin:miter;stroke-opacity:1;"/>
<path d="M 634.4,582.1 L 637.3,584.4 L 638.8,583.8" style="fill:none;stroke:#000000;stroke-width:2.0px;stroke-linecap:butt;stroke-linejoin:miter;stroke-opacity:1;"/>
<path class="atom-5" d="M 701.4 546.4 L 708.2 557.5 Q 708.9 558.6, 710.0 560.6 Q 711.1 562.5, 711.2 562.7 L 711.2 546.4 L 714.0 546.4 L 714.0 567.3 L 711.1 567.3 L 703.7 555.2 Q 702.9 553.8, 701.9 552.2 Q 701.1 550.5, 700.8 550.0 L 700.8 567.3 L 698.1 567.3 L 698.1 546.4 L 701.4 546.4 " fill="#0000FF"/>
<path class="atom-5" d="M 718.0 546.4 L 720.8 546.4 L 720.8 555.3 L 731.5 555.3 L 731.5 546.4 L 734.4 546.4 L 734.4 567.3 L 731.5 567.3 L 731.5 557.7 L 720.8 557.7 L 720.8 567.3 L 718.0 567.3 L 718.0 546.4 " fill="#0000FF"/>
<path class="atom-5" d="M 738.5 566.6 Q 739.0 565.3, 740.2 564.6 Q 741.4 563.8, 743.1 563.8 Q 745.2 563.8, 746.3 565.0 Q 747.5 566.1, 747.5 568.1 Q 747.5 570.2, 746.0 572.1 Q 744.5 574.0, 741.4 576.3 L 747.7 576.3 L 747.7 577.8 L 738.4 577.8 L 738.4 576.5 Q 741.0 574.7, 742.5 573.3 Q 744.1 571.9, 744.8 570.7 Q 745.6 569.5, 745.6 568.2 Q 745.6 566.9, 744.9 566.1 Q 744.2 565.4, 743.1 565.4 Q 742.0 565.4, 741.2 565.8 Q 740.5 566.3, 740.0 567.3 L 738.5 566.6 " fill="#0000FF"/>
<path class="legend" d="M 577.5 781.5 Q 578.8 781.5, 579.5 782.2 Q 580.2 783.0, 580.2 784.4 L 580.2 789.8 L 578.7 789.8 L 578.7 784.5 Q 578.7 783.5, 578.3 783.1 Q 578.0 782.7, 577.1 782.7 Q 576.4 782.7, 575.8 783.0 Q 575.1 783.3, 574.7 784.0 L 574.7 789.8 L 573.2 789.8 L 573.2 781.6 L 574.5 781.6 L 574.6 782.8 Q 575.7 781.5, 577.5 781.5 " fill="#000000"/>
<path class="legend" d="M 589.2 781.6 L 589.2 789.8 L 588.0 789.8 L 587.8 788.7 Q 586.7 790.0, 585.0 790.0 Q 583.6 790.0, 582.9 789.2 Q 582.2 788.5, 582.2 787.1 L 582.2 781.6 L 583.7 781.6 L 583.7 786.9 Q 583.7 787.9, 584.1 788.4 Q 584.5 788.8, 585.3 788.8 Q 586.0 788.8, 586.7 788.5 Q 587.3 788.1, 587.7 787.5 L 587.7 781.6 L 589.2 781.6 " fill="#000000"/>
<path class="legend" d="M 591.3 785.7 Q 591.3 783.7, 592.2 782.6 Q 593.2 781.5, 595.2 781.5 Q 597.1 781.5, 598.0 782.8 L 597.0 783.6 Q 596.6 783.1, 596.2 782.9 Q 595.8 782.7, 595.2 782.7 Q 594.1 782.7, 593.4 783.4 Q 592.8 784.2, 592.8 785.7 Q 592.8 787.2, 593.4 788.0 Q 594.1 788.8, 595.3 788.8 Q 596.0 788.8, 596.4 788.6 Q 596.9 788.5, 597.5 788.2 L 597.9 789.2 Q 596.7 789.9, 595.2 789.9 Q 593.2 789.9, 592.2 788.8 Q 591.3 787.7, 591.3 785.7 " fill="#000000"/>
<path class="legend" d="M 606.5 786.0 L 607.9 786.0 L 607.9 787.2 L 606.5 787.2 L 606.5 789.8 L 605.0 789.8 L 605.0 787.2 L 599.2 787.2 L 599.2 786.2 L 604.1 778.5 L 606.5 778.5 L 606.5 786.0 M 601.0 786.0 L 605.0 786.0 L 605.0 779.5 L 601.0 786.0 " fill="#000000"/>
<path class="legend" d="M 609.5 780.7 Q 609.9 779.6, 610.9 779.0 Q 611.9 778.4, 613.2 778.4 Q 615.0 778.4, 615.9 779.3 Q 616.9 780.2, 616.9 781.9 Q 616.9 783.6, 615.6 785.1 Q 614.4 786.7, 611.8 788.6 L 617.1 788.6 L 617.1 789.8 L 609.4 789.8 L 609.4 788.8 Q 611.5 787.3, 612.8 786.1 Q 614.1 785.0, 614.7 784.0 Q 615.3 783.0, 615.3 782.0 Q 615.3 780.9, 614.7 780.3 Q 614.2 779.7, 613.2 779.7 Q 612.3 779.7, 611.7 780.0 Q 611.1 780.4, 610.7 781.2 L 609.5 780.7 " fill="#000000"/>
<path class="legend" d="M 624.6 783.8 Q 625.6 784.3, 626.2 785.0 Q 626.8 785.6, 626.8 786.7 Q 626.8 787.7, 626.3 788.4 Q 625.8 789.2, 624.9 789.6 Q 624.0 790.0, 622.8 790.0 Q 621.0 790.0, 619.9 789.1 Q 618.8 788.3, 618.8 786.7 Q 618.8 785.8, 619.3 785.1 Q 619.7 784.4, 620.7 783.9 Q 620.0 783.5, 619.6 782.9 Q 619.2 782.2, 619.2 781.3 Q 619.2 780.0, 620.2 779.2 Q 621.1 778.4, 622.8 778.4 Q 624.4 778.4, 625.4 779.2 Q 626.4 780.0, 626.4 781.3 Q 626.4 782.1, 625.9 782.7 Q 625.4 783.3, 624.6 783.8 M 622.8 779.6 Q 621.8 779.6, 621.3 780.0 Q 620.8 780.5, 620.8 781.3 Q 620.8 781.9, 621.1 782.3 Q 621.5 782.7, 622.0 782.9 Q 622.5 783.1, 623.5 783.4 Q 624.2 783.0, 624.5 782.4 Q 624.8 781.9, 624.8 781.3 Q 624.8 780.5, 624.2 780.0 Q 623.7 779.6, 622.8 779.6 M 622.8 788.8 Q 623.9 788.8, 624.5 788.2 Q 625.2 787.7, 625.2 786.7 Q 625.2 786.1, 624.8 785.7 Q 624.5 785.3, 624.0 785.1 Q 623.5 784.9, 622.6 784.6 L 621.9 784.4 Q 621.1 784.8, 620.7 785.4 Q 620.4 786.0, 620.4 786.7 Q 620.4 787.7, 621.0 788.2 Q 621.7 788.8, 622.8 788.8 " fill="#000000"/>
<path class="bond-0 atom-0 atom-1" d="M 1067.5,580.0 L 1035.7,580.0" style="fill:none;fill-rule:evenodd;stroke:#0000FF;stroke-width:2.0px;stroke-linecap:butt;stroke-linejoin:miter;stroke-opacity:1"/>
<path class="bond-0 atom-0 atom-1" d="M 1035.7,580.0 L 1003.9,580.0" style="fill:none;fill-rule:evenodd;stroke:#000000;stroke-width:2.0px;stroke-linecap:butt;stroke-linejoin:miter;stroke-opacity:1"/>
<path class="bond-1 atom-1 atom-2" d="M 1003.9,580.0 L 960.4,520.1" style="fill:none;fill-rule:evenodd;stroke:#000000;stroke-width:2.0px;stroke-linecap:butt;stroke-linejoin:miter;stroke-opacity:1"/>
<path class="bond-2 atom-2 atom-3" d="M 960.4,520.1 L 890.0,543.0" style="fill:none;fill-rule:evenodd;stroke:#000000;stroke-width:2.0px;stroke-linecap:butt;stroke-linejoin:miter;stroke-opacity:1"/>
<path class="bond-3 atom-3 atom-4" d="M 890.0,543.0 L 890.0,573.5" style="fill:none;fill-rule:evenodd;stroke:#000000;stroke-width:2.0px;stroke-linecap:butt;stroke-linejoin:miter;stroke-opacity:1"/>
<path class="bond-3 atom-3 atom-4" d="M 890.0,573.5 L 890.0,604.0" style="fill:none;fill-rule:evenodd;stroke:#FF0000;stroke-width:2.0px;stroke-linecap:butt;stroke-linejoin:miter;stroke-opacity:1"/>
<path class="bond-4 atom-4 atom-5" d="M 902.1,620.9 L 931.2,630.4" style="fill:none;fill-rule:evenodd;stroke:#FF0000;stroke-width:2.0px;stroke-linecap:butt;stroke-linejoin:miter;stroke-opacity:1"/>
<path class="bond-4 atom-4 atom-5" d="M 931.2,630.4 L 960.4,639.9" style="fill:none;fill-rule:evenodd;stroke:#000000;stroke-width:2.0px;stroke-linecap:butt;stroke-linejoin:miter;stroke-opacity:1"/>
<path class="bond-5 atom-5 atom-1" d="M 960.4,639.9 L 1003.9,580.0" style="fill:none;fill-rule:evenodd;stroke:#000000;stroke-width:2.0px;stroke-linecap:butt;stroke-linejoin:miter;stroke-opacity:1"/>
<path d="M 962.6,523.1 L 960.4,520.1 L 956.9,521.3" style="fill:none;stroke:#000000;stroke-width:2.0px;stroke-linecap:butt;stroke-linejoin:miter;stroke-opacity:1;"/>
<path d="M 893.5,541.9 L 890.0,543.0 L 890.0,544.5" style="fill:none;stroke:#000000;stroke-width:2.0px;stroke-linecap:butt;stroke-linejoin:miter;stroke-opacity:1;"/>
<path d="M 958.9,639.4 L 960.4,639.9 L 962.6,636.9" style="fill:none;stroke:#000000;stroke-width:2.0px;stroke-linecap:butt;stroke-linejoin:miter;stroke-opacity:1;"/>
<path class="atom-0" d="M 1073.3 569.5 L 1080.1 580.6 Q 1080.8 581.7, 1081.9 583.7 Q 1083.0 585.7, 1083.0 585.8 L 1083.0 569.5 L 1085.8 569.5 L 1085.8 590.5 L 1083.0 590.5 L 1075.6 578.3 Q 1074.7 576.9, 1073.8 575.3 Q 1072.9 573.7, 1072.7 573.2 L 1072.7 590.5 L 1069.9 590.5 L 1069.9 569.5 L 1073.3 569.5 " fill="#0000FF"/>
<path class="atom-0" d="M 1089.8 569.5 L 1092.7 569.5 L 1092.7 578.4 L 1103.4 578.4 L 1103.4 569.5 L 1106.2 569.5 L 1106.2 590.5 L 1103.4 590.5 L 1103.4 580.8 L 1092.7 580.8 L 1092.7 590.5 L 1089.8 590.5 L 1089.8 569.5 " fill="#0000FF"/>
<path class="atom-0" d="M 1110.3 589.7 Q 1110.8 588.4, 1112.1 587.7 Q 1113.3 587.0, 1114.9 587.0 Q 1117.0 587.0, 1118.2 588.1 Q 1119.4 589.2, 1119.4 591.2 Q 1119.4 593.3, 1117.9 595.2 Q 1116.4 597.1, 1113.2 599.4 L 1119.6 599.4 L 1119.6 601.0 L 1110.3 601.0 L 1110.3 599.6 Q 1112.9 597.8, 1114.4 596.4 Q 1115.9 595.1, 1116.7 593.8 Q 1117.4 592.6, 1117.4 591.3 Q 1117.4 590.0, 1116.8 589.3 Q 1116.1 588.5, 1114.9 588.5 Q 1113.8 588.5, 1113.1 589.0 Q 1112.3 589.4, 1111.8 590.4 L 1110.3 589.7 " fill="#0000FF"/>
<path class="atom-4" d="M 880.4 617.1 Q 880.4 612.0, 882.9 609.2 Q 885.4 606.4, 890.0 606.4 Q 894.7 606.4, 897.1 609.2 Q 899.6 612.0, 899.6 617.1 Q 899.6 622.2, 897.1 625.1 Q 894.6 627.9, 890.0 627.9 Q 885.4 627.9, 882.9 625.1 Q 880.4 622.2, 880.4 617.1 M 890.0 625.6 Q 893.2 625.6, 894.9 623.4 Q 896.7 621.3, 896.7 617.1 Q 896.7 612.9, 894.9 610.9 Q 893.2 608.8, 890.0 608.8 Q 886.8 608.8, 885.1 610.8 Q 883.3 612.9, 883.3 617.1 Q 883.3 621.3, 885.1 623.4 Q 886.8 625.6, 890.0 625.6 " fill="#FF0000"/>
<path class="legend" d="M 978.2 781.5 Q 979.5 781.5, 980.2 782.2 Q 980.9 783.0, 980.9 784.4 L 980.9 789.8 L 979.4 789.8 L 979.4 784.5 Q 979.4 783.5, 979.0 783.1 Q 978.7 782.7, 977.8 782.7 Q 977.1 782.7, 976.5 783.0 Q 975.8 783.3, 975.4 784.0 L 975.4 789.8 L 973.9 789.8 L 973.9 781.6 L 975.2 781.6 L 975.3 782.8 Q 976.4 781.5, 978.2 781.5 " fill="#000000"/>
<path class="legend" d="M 989.9 781.6 L 989.9 789.8 L 988.6 789.8 L 988.5 788.7 Q 987.4 790.0, 985.7 790.0 Q 984.3 790.0, 983.6 789.2 Q 982.9 788.5, 982.9 787.1 L 982.9 781.6 L 984.4 781.6 L 984.4 786.9 Q 984.4 787.9, 984.8 788.4 Q 985.1 788.8, 986.0 788.8 Q 986.7 788.8, 987.4 788.5 Q 988.0 788.1, 988.4 787.5 L 988.4 781.6 L 989.9 781.6 " fill="#000000"/>
<path class="legend" d="M 991.9 785.7 Q 991.9 783.7, 992.9 782.6 Q 993.9 781.5, 995.9 781.5 Q 997.7 781.5, 998.7 782.8 L 997.7 783.6 Q 997.3 783.1, 996.9 782.9 Q 996.4 782.7, 995.9 782.7 Q 994.7 782.7, 994.1 783.4 Q 993.5 784.2, 993.5 785.7 Q 993.5 787.2, 994.1 788.0 Q 994.8 788.8, 996.0 788.8 Q 996.6 788.8, 997.1 788.6 Q 997.6 788.5, 998.1 788.2 L 998.5 789.2 Q 997.4 789.9, 995.8 789.9 Q 993.9 789.9, 992.9 788.8 Q 991.9 787.7, 991.9 785.7 " fill="#000000"/>
<path class="legend" d="M 1003.9 782.8 Q 1004.9 782.8, 1005.7 783.2 Q 1006.6 783.6, 1007.0 784.4 Q 1007.5 785.2, 1007.5 786.3 Q 1007.5 787.4, 1006.9 788.3 Q 1006.3 789.1, 1005.4 789.5 Q 1004.5 790.0, 1003.4 790.0 Q 1002.4 790.0, 1001.4 789.6 Q 1000.5 789.2, 999.8 788.5 L 1000.8 787.5 Q 1001.3 788.0, 1002.0 788.4 Q 1002.7 788.7, 1003.5 788.7 Q 1004.5 788.7, 1005.2 788.0 Q 1005.9 787.4, 1005.9 786.3 Q 1005.9 785.1, 1005.2 784.5 Q 1004.5 784.0, 1003.4 784.0 Q 1002.4 784.0, 1001.3 784.4 L 1000.4 784.0 L 1001.0 778.5 L 1006.8 778.5 L 1006.6 779.8 L 1002.3 779.8 L 1001.9 783.2 Q 1002.9 782.8, 1003.9 782.8 " fill="#000000"/>
<path class="legend" d="M 1013.4 782.8 Q 1014.4 782.8, 1015.2 783.2 Q 1016.0 783.6, 1016.4 784.4 Q 1016.8 785.2, 1016.8 786.2 Q 1016.8 787.3, 1016.3 788.2 Q 1015.9 789.0, 1015.0 789.5 Q 1014.1 790.0, 1013.0 790.0 Q 1011.0 790.0, 1010.0 788.6 Q 1009.0 787.2, 1009.0 784.5 Q 1009.0 781.5, 1010.2 780.0 Q 1011.5 778.4, 1013.9 778.4 Q 1014.6 778.4, 1015.2 778.5 Q 1015.8 778.7, 1016.4 779.0 L 1015.8 780.1 Q 1014.9 779.7, 1013.9 779.7 Q 1012.3 779.7, 1011.5 780.7 Q 1010.7 781.7, 1010.6 783.9 Q 1011.2 783.3, 1011.9 783.1 Q 1012.6 782.8, 1013.4 782.8 M 1013.0 788.7 Q 1013.7 788.7, 1014.2 788.3 Q 1014.7 788.0, 1015.0 787.5 Q 1015.2 786.9, 1015.2 786.2 Q 1015.2 785.2, 1014.7 784.6 Q 1014.1 784.0, 1013.1 784.0 Q 1012.4 784.0, 1011.8 784.3 Q 1011.1 784.6, 1010.6 785.1 Q 1010.7 787.0, 1011.3 787.8 Q 1011.8 788.7, 1013.0 788.7 " fill="#000000"/>
<path class="legend" d="M 1023.9 783.9 Q 1025.0 784.2, 1025.5 784.9 Q 1026.1 785.6, 1026.1 786.7 Q 1026.1 787.7, 1025.6 788.4 Q 1025.1 789.2, 1024.2 789.6 Q 1023.3 790.0, 1022.2 790.0 Q 1021.0 790.0, 1020.1 789.6 Q 1019.2 789.2, 1018.5 788.3 L 1019.4 787.4 Q 1020.1 788.1, 1020.7 788.4 Q 1021.3 788.7, 1022.2 788.7 Q 1023.2 788.7, 1023.8 788.2 Q 1024.5 787.6, 1024.5 786.7 Q 1024.5 785.6, 1023.8 785.1 Q 1023.2 784.5, 1021.8 784.5 L 1021.0 784.5 L 1021.0 783.4 L 1021.7 783.4 Q 1022.9 783.4, 1023.6 782.8 Q 1024.2 782.3, 1024.2 781.3 Q 1024.2 780.5, 1023.7 780.1 Q 1023.1 779.7, 1022.2 779.7 Q 1021.3 779.7, 1020.7 780.0 Q 1020.1 780.3, 1019.7 781.2 L 1018.5 780.6 Q 1018.9 779.6, 1019.9 779.0 Q 1020.9 778.4, 1022.2 778.4 Q 1023.9 778.4, 1024.9 779.2 Q 1025.8 780.0, 1025.8 781.3 Q 1025.8 782.2, 1025.3 782.8 Q 1024.8 783.5, 1023.9 783.9 " fill="#000000"/>
<path class="bond-0 atom-0 atom-1" d="M 1218.2,590.3 L 1284.1,556.6" style="fill:none;fill-rule:evenodd;stroke:#000000;stroke-width:2.0px;stroke-linecap:butt;stroke-linejoin:miter;stroke-opacity:1"/>
<path class="bond-1 atom-1 atom-2" d="M 1284.1,556.6 L 1346.2,596.9" style="fill:none;fill-rule:evenodd;stroke:#000000;stroke-width:2.0px;stroke-linecap:butt;stroke-linejoin:miter;stroke-opacity:1"/>
<path class="bond-2 atom-2 atom-3" d="M 1346.2,596.9 L 1412.1,563.1" style="fill:none;fill-rule:evenodd;stroke:#000000;stroke-width:2.0px;stroke-linecap:butt;stroke-linejoin:miter;stroke-opacity:1"/>
<path class="bond-3 atom-3 atom-4" d="M 1412.1,563.1 L 1474.2,603.4" style="fill:none;fill-rule:evenodd;stroke:#000000;stroke-width:2.0px;stroke-linecap:butt;stroke-linejoin:miter;stroke-opacity:1"/>
<path class="bond-4 atom-4 atom-5" d="M 1474.2,603.4 L 1501.9,589.2" style="fill:none;fill-rule:evenodd;stroke:#000000;stroke-width:2.0px;stroke-linecap:butt;stroke-linejoin:miter;stroke-opacity:1"/>
<path class="bond-4 atom-4 atom-5" d="M 1501.9,589.2 L 1529.7,575.0" style="fill:none;fill-rule:evenodd;stroke:#0000FF;stroke-width:2.0px;stroke-linecap:butt;stroke-linejoin:miter;stroke-opacity:1"/>
<path d="M 1280.8,558.3 L 1284.1,556.6 L 1287.2,558.7" style="fill:none;stroke:#000000;stroke-width:2.0px;stroke-linecap:butt;stroke-linejoin:miter;stroke-opacity:1;"/>
<path d="M 1343.1,594.8 L 1346.2,596.9 L 1349.5,595.2" style="fill:none;stroke:#000000;stroke-width:2.0px;stroke-linecap:butt;stroke-linejoin:miter;stroke-opacity:1;"/>
<path d="M 1408.8,564.8 L 1412.1,563.1 L 1415.2,565.2" style="fill:none;stroke:#000000;stroke-width:2.0px;stroke-linecap:butt;stroke-linejoin:miter;stroke-opacity:1;"/>
<path d="M 1471.1,601.3 L 1474.2,603.4 L 1475.6,602.6" style="fill:none;stroke:#000000;stroke-width:2.0px;stroke-linecap:butt;stroke-linejoin:miter;stroke-opacity:1;"/>
<path class="atom-5" d="M 1535.5 559.2 L 1542.3 570.3 Q 1543.0 571.4, 1544.1 573.4 Q 1545.2 575.3, 1545.3 575.5 L 1545.3 559.2 L 1548.0 559.2 L 1548.0 580.1 L 1545.2 580.1 L 1537.8 568.0 Q 1536.9 566.6, 1536.0 564.9 Q 1535.1 563.3, 1534.9 562.8 L 1534.9 580.1 L 1532.1 580.1 L 1532.1 559.2 L 1535.5 559.2 " fill="#0000FF"/>
<path class="atom-5" d="M 1552.0 559.2 L 1554.9 559.2 L 1554.9 568.1 L 1565.6 568.1 L 1565.6 559.2 L 1568.4 559.2 L 1568.4 580.1 L 1565.6 580.1 L 1565.6 570.5 L 1554.9 570.5 L 1554.9 580.1 L 1552.0 580.1 L 1552.0 559.2 " fill="#0000FF"/>
<path class="atom-5" d="M 1572.5 579.4 Q 1573.0 578.1, 1574.3 577.4 Q 1575.5 576.6, 1577.1 576.6 Q 1579.2 576.6, 1580.4 577.8 Q 1581.6 578.9, 1581.6 580.9 Q 1581.6 583.0, 1580.1 584.9 Q 1578.6 586.8, 1575.4 589.0 L 1581.8 589.0 L 1581.8 590.6 L 1572.5 590.6 L 1572.5 589.3 Q 1575.1 587.5, 1576.6 586.1 Q 1578.1 584.7, 1578.9 583.5 Q 1579.6 582.3, 1579.6 581.0 Q 1579.6 579.7, 1579.0 578.9 Q 1578.3 578.2, 1577.1 578.2 Q 1576.0 578.2, 1575.3 578.6 Q 1574.6 579.1, 1574.0 580.1 L 1572.5 579.4 " fill="#0000FF"/>
<path class="legend" d="M 1378.1 781.5 Q 1379.5 781.5, 1380.1 782.2 Q 1380.9 783.0, 1380.9 784.4 L 1380.9 789.8 L 1379.3 789.8 L 1379.3 784.5 Q 1379.3 783.5, 1379.0 783.1 Q 1378.6 782.7, 1377.8 782.7 Q 1377.0 782.7, 1376.4 783.0 Q 1375.8 783.3, 1375.4 784.0 L 1375.4 789.8 L 1373.9 789.8 L 1373.9 781.6 L 1375.1 781.6 L 1375.3 782.8 Q 1376.4 781.5, 1378.1 781.5 " fill="#000000"/>
<path class="legend" d="M 1389.8 781.6 L 1389.8 789.8 L 1388.6 789.8 L 1388.4 788.7 Q 1387.3 790.0, 1385.6 790.0 Q 1384.2 790.0, 1383.5 789.2 Q 1382.8 788.5, 1382.8 787.1 L 1382.8 781.6 L 1384.3 781.6 L 1384.3 786.9 Q 1384.3 787.9, 1384.7 788.4 Q 1385.1 788.8, 1385.9 788.8 Q 1386.7 788.8, 1387.3 788.5 Q 1387.9 788.1, 1388.3 787.5 L 1388.3 781.6 L 1389.8 781.6 " fill="#000000"/>
<path class="legend" d="M 1391.9 785.7 Q 1391.9 783.7, 1392.8 782.6 Q 1393.8 781.5, 1395.8 781.5 Q 1397.7 781.5, 1398.6 782.8 L 1397.6 783.6 Q 1397.2 783.1, 1396.8 782.9 Q 1396.4 782.7, 1395.8 782.7 Q 1394.7 782.7, 1394.0 783.4 Q 1393.4 784.2, 1393.4 785.7 Q 1393.4 787.2, 1394.0 788.0 Q 1394.7 788.8, 1395.9 788.8 Q 1396.6 788.8, 1397.0 788.6 Q 1397.5 788.5, 1398.1 788.2 L 1398.5 789.2 Q 1397.3 789.9, 1395.8 789.9 Q 1393.8 789.9, 1392.8 788.8 Q 1391.9 787.7, 1391.9 785.7 " fill="#000000"/>
<path class="legend" d="M 1404.2 782.8 Q 1405.2 782.8, 1406.0 783.2 Q 1406.7 783.6, 1407.2 784.4 Q 1407.6 785.2, 1407.6 786.2 Q 1407.6 787.3, 1407.1 788.2 Q 1406.6 789.0, 1405.8 789.5 Q 1404.9 790.0, 1403.8 790.0 Q 1401.8 790.0, 1400.8 788.6 Q 1399.7 787.2, 1399.7 784.5 Q 1399.7 781.5, 1401.0 780.0 Q 1402.3 778.4, 1404.7 778.4 Q 1405.4 778.4, 1406.0 778.5 Q 1406.6 778.7, 1407.2 779.0 L 1406.5 780.1 Q 1405.7 779.7, 1404.7 779.7 Q 1403.1 779.7, 1402.3 780.7 Q 1401.5 781.7, 1401.4 783.9 Q 1401.9 783.3, 1402.7 783.1 Q 1403.4 782.8, 1404.2 782.8 M 1403.8 788.7 Q 1404.4 788.7, 1404.9 788.3 Q 1405.4 788.0, 1405.7 787.5 Q 1406.0 786.9, 1406.0 786.2 Q 1406.0 785.2, 1405.4 784.6 Q 1404.9 784.0, 1403.9 784.0 Q 1403.2 784.0, 1402.5 784.3 Q 1401.8 784.6, 1401.4 785.1 Q 1401.4 787.0, 1402.0 787.8 Q 1402.6 788.7, 1403.8 788.7 " fill="#000000"/>
<path class="legend" d="M 1414.7 783.9 Q 1415.8 784.2, 1416.3 784.9 Q 1416.8 785.6, 1416.8 786.7 Q 1416.8 787.7, 1416.4 788.4 Q 1415.9 789.2, 1415.0 789.6 Q 1414.1 790.0, 1413.0 790.0 Q 1411.7 790.0, 1410.8 789.6 Q 1409.9 789.2, 1409.2 788.3 L 1410.1 787.4 Q 1410.8 788.1, 1411.4 788.4 Q 1412.0 788.7, 1413.0 788.7 Q 1414.0 788.7, 1414.6 788.2 Q 1415.2 787.6, 1415.2 786.7 Q 1415.2 785.6, 1414.6 785.1 Q 1413.9 784.5, 1412.5 784.5 L 1411.7 784.5 L 1411.7 783.4 L 1412.4 783.4 Q 1413.7 783.4, 1414.3 782.8 Q 1415.0 782.3, 1415.0 781.3 Q 1415.0 780.5, 1414.4 780.1 Q 1413.9 779.7, 1413.0 779.7 Q 1412.0 779.7, 1411.4 780.0 Q 1410.9 780.3, 1410.4 781.2 L 1409.3 780.6 Q 1409.7 779.6, 1410.7 779.0 Q 1411.6 778.4, 1413.0 778.4 Q 1414.6 778.4, 1415.6 779.2 Q 1416.6 780.0, 1416.6 781.3 Q 1416.6 782.2, 1416.1 782.8 Q 1415.6 783.5, 1414.7 783.9 " fill="#000000"/>
<path class="legend" d="M 1418.5 780.7 Q 1419.0 779.6, 1419.9 779.0 Q 1420.9 778.4, 1422.3 778.4 Q 1424.0 778.4, 1425.0 779.3 Q 1425.9 780.2, 1425.9 781.9 Q 1425.9 783.6, 1424.7 785.1 Q 1423.5 786.7, 1420.9 788.6 L 1426.1 788.6 L 1426.1 789.8 L 1418.5 789.8 L 1418.5 788.8 Q 1420.6 787.3, 1421.9 786.1 Q 1423.1 785.0, 1423.7 784.0 Q 1424.3 783.0, 1424.3 782.0 Q 1424.3 780.9, 1423.8 780.3 Q 1423.3 779.7, 1422.3 779.7 Q 1421.4 779.7, 1420.8 780.0 Q 1420.2 780.4, 1419.8 781.2 L 1418.5 780.7 " fill="#000000"/>
<path class="bond-0 atom-0 atom-1" d="M 1683.0,561.3 L 1709.0,546.3" style="fill:none;fill-rule:evenodd;stroke:#000000;stroke-width:2.0px;stroke-linecap:butt;stroke-linejoin:miter;stroke-opacity:1"/>
<path class="bond-0 atom-0 atom-1" d="M 1709.0,546.3 L 1735.0,531.3" style="fill:none;fill-rule:evenodd;stroke:#FF0000;stroke-width:2.0px;stroke-linecap:butt;stroke-linejoin:miter;stroke-opacity:1"/>
<path class="bond-1 atom-1 atom-2" d="M 1759.2,531.3 L 1785.2,546.3" style="fill:none;fill-rule:evenodd;stroke:#FF0000;stroke-width:2.0px;stroke-linecap:butt;stroke-linejoin:miter;stroke-opacity:1"/>
<path class="bond-1 atom-1 atom-2" d="M 1785.2,546.3 L 1811.2,561.3" style="fill:none;fill-rule:evenodd;stroke:#000000;stroke-width:2.0px;stroke-linecap:butt;stroke-linejoin:miter;stroke-opacity:1"/>
<path class="bond-2 atom-2 atom-3" d="M 1811.2,561.3 L 1838.0,545.8" style="fill:none;fill-rule:evenodd;stroke:#000000;stroke-width:2.0px;stroke-linecap:butt;stroke-linejoin:miter;stroke-opacity:1"/>
<path class="bond-2 atom-2 atom-3" d="M 1838.0,545.8 L 1864.9,530.3" style="fill:none;fill-rule:evenodd;stroke:#0000FF;stroke-width:2.0px;stroke-linecap:butt;stroke-linejoin:miter;stroke-opacity:1"/>
<path class="bond-3 atom-2 atom-4" d="M 1805.6,558.1 L 1805.6,590.2" style="fill:none;fill-rule:evenodd;stroke:#000000;stroke-width:2.0px;stroke-linecap:butt;stroke-linejoin:miter;stroke-opacity:1"/>
<path class="bond-3 atom-2 atom-4" d="M 1805.6,590.2 L 1805.6,622.3" style="fill:none;fill-rule:evenodd;stroke:#FF0000;stroke-width:2.0px;stroke-linecap:butt;stroke-linejoin:miter;stroke-opacity:1"/>
<path class="bond-3 atom-2 atom-4" d="M 1816.7,558.1 L 1816.7,590.2" style="fill:none;fill-rule:evenodd;stroke:#000000;stroke-width:2.0px;stroke-linecap:butt;stroke-linejoin:miter;stroke-opacity:1"/>
<path class="bond-3 atom-2 atom-4" d="M 1816.7,590.2 L 1816.7,622.3" style="fill:none;fill-rule:evenodd;stroke:#FF0000;stroke-width:2.0px;stroke-linecap:butt;stroke-linejoin:miter;stroke-opacity:1"/>
<path d="M 1809.9,560.6 L 1811.2,561.3 L 1812.5,560.6" style="fill:none;stroke:#000000;stroke-width:2.0px;stroke-linecap:butt;stroke-linejoin:miter;stroke-opacity:1;"/>
<path class="atom-1" d="M 1737.5 524.4 Q 1737.5 519.4, 1740.0 516.6 Q 1742.4 513.7, 1747.1 513.7 Q 1751.7 513.7, 1754.2 516.6 Q 1756.7 519.4, 1756.7 524.4 Q 1756.7 529.5, 1754.2 532.4 Q 1751.7 535.3, 1747.1 535.3 Q 1742.5 535.3, 1740.0 532.4 Q 1737.5 529.5, 1737.5 524.4 M 1747.1 532.9 Q 1750.3 532.9, 1752.0 530.8 Q 1753.7 528.6, 1753.7 524.4 Q 1753.7 520.3, 1752.0 518.2 Q 1750.3 516.1, 1747.1 516.1 Q 1743.9 516.1, 1742.1 518.2 Q 1740.4 520.3, 1740.4 524.4 Q 1740.4 528.6, 1742.1 530.8 Q 1743.9 532.9, 1747.1 532.9 " fill="#FF0000"/>
<path class="atom-3" d="M 1870.6 513.9 L 1877.5 525.0 Q 1878.2 526.1, 1879.3 528.0 Q 1880.4 530.0, 1880.4 530.1 L 1880.4 513.9 L 1883.2 513.9 L 1883.2 534.8 L 1880.3 534.8 L 1873.0 522.7 Q 1872.1 521.3, 1871.2 519.6 Q 1870.3 518.0, 1870.0 517.5 L 1870.0 534.8 L 1867.3 534.8 L 1867.3 513.9 L 1870.6 513.9 " fill="#0000FF"/>
<path class="atom-3" d="M 1887.2 513.9 L 1890.1 513.9 L 1890.1 522.8 L 1900.8 522.8 L 1900.8 513.9 L 1903.6 513.9 L 1903.6 534.8 L 1900.8 534.8 L 1900.8 525.1 L 1890.1 525.1 L 1890.1 534.8 L 1887.2 534.8 L 1887.2 513.9 " fill="#0000FF"/>
<path class="atom-3" d="M 1907.7 534.1 Q 1908.2 532.8, 1909.4 532.0 Q 1910.6 531.3, 1912.3 531.3 Q 1914.4 531.3, 1915.6 532.4 Q 1916.8 533.6, 1916.8 535.6 Q 1916.8 537.6, 1915.2 539.5 Q 1913.7 541.5, 1910.6 543.7 L 1917.0 543.7 L 1917.0 545.3 L 1907.7 545.3 L 1907.7 544.0 Q 1910.3 542.1, 1911.8 540.8 Q 1913.3 539.4, 1914.1 538.2 Q 1914.8 537.0, 1914.8 535.7 Q 1914.8 534.4, 1914.1 533.6 Q 1913.5 532.9, 1912.3 532.9 Q 1911.2 532.9, 1910.5 533.3 Q 1909.7 533.8, 1909.2 534.8 L 1907.7 534.1 " fill="#0000FF"/>
<path class="atom-4" d="M 1801.6 635.4 Q 1801.6 630.4, 1804.0 627.6 Q 1806.5 624.7, 1811.2 624.7 Q 1815.8 624.7, 1818.3 627.6 Q 1820.8 630.4, 1820.8 635.4 Q 1820.8 640.5, 1818.3 643.4 Q 1815.8 646.3, 1811.2 646.3 Q 1806.6 646.3, 1804.0 643.4 Q 1801.6 640.5, 1801.6 635.4 M 1811.2 643.9 Q 1814.4 643.9, 1816.1 641.8 Q 1817.8 639.6, 1817.8 635.4 Q 1817.8 631.3, 1816.1 629.2 Q 1814.4 627.1, 1811.2 627.1 Q 1808.0 627.1, 1806.2 629.2 Q 1804.5 631.3, 1804.5 635.4 Q 1804.5 639.6, 1806.2 641.8 Q 1808.0 643.9, 1811.2 643.9 " fill="#FF0000"/>
<path class="legend" d="M 1777.7 781.5 Q 1779.0 781.5, 1779.7 782.2 Q 1780.4 783.0, 1780.4 784.4 L 1780.4 789.8 L 1778.9 789.8 L 1778.9 784.5 Q 1778.9 783.5, 1778.5 783.1 Q 1778.1 782.7, 1777.3 782.7 Q 1776.5 782.7, 1775.9 783.0 Q 1775.3 783.3, 1774.9 784.0 L 1774.9 789.8 L 1773.4 789.8 L 1773.4 781.6 L 1774.6 781.6 L 1774.8 782.8 Q 1775.9 781.5, 1777.7 781.5 " fill="#000000"/>
<path class="legend" d="M 1789.4 781.6 L 1789.4 789.8 L 1788.1 789.8 L 1787.9 788.7 Q 1786.9 790.0, 1785.2 790.0 Q 1783.8 790.0, 1783.1 789.2 Q 1782.4 788.5, 1782.4 787.1 L 1782.4 781.6 L 1783.9 781.6 L 1783.9 786.9 Q 1783.9 787.9, 1784.2 788.4 Q 1784.6 788.8, 1785.4 788.8 Q 1786.2 788.8, 1786.8 788.5 Q 1787.4 788.1, 1787.8 787.5 L 1787.8 781.6 L 1789.4 781.6 " fill="#000000"/>
<path class="legend" d="M 1791.4 785.7 Q 1791.4 783.7, 1792.4 782.6 Q 1793.4 781.5, 1795.3 781.5 Q 1797.2 781.5, 1798.2 782.8 L 1797.2 783.6 Q 1796.8 783.1, 1796.3 782.9 Q 1795.9 782.7, 1795.3 782.7 Q 1794.2 782.7, 1793.6 783.4 Q 1792.9 784.2, 1792.9 785.7 Q 1792.9 787.2, 1793.6 788.0 Q 1794.2 788.8, 1795.4 788.8 Q 1796.1 788.8, 1796.6 788.6 Q 1797.0 788.5, 1797.6 788.2 L 1798.0 789.2 Q 1796.8 789.9, 1795.3 789.9 Q 1793.4 789.9, 1792.4 788.8 Q 1791.4 787.7, 1791.4 785.7 " fill="#000000"/>
<path class="legend" d="M 1803.1 778.4 Q 1805.1 778.4, 1806.1 779.8 Q 1807.2 781.1, 1807.2 783.8 Q 1807.2 786.8, 1805.9 788.4 Q 1804.7 790.0, 1802.2 790.0 Q 1801.5 790.0, 1800.9 789.8 Q 1800.3 789.6, 1799.8 789.3 L 1800.4 788.2 Q 1801.2 788.7, 1802.2 788.7 Q 1803.8 788.7, 1804.6 787.7 Q 1805.5 786.6, 1805.6 784.5 Q 1805.0 785.0, 1804.2 785.3 Q 1803.5 785.6, 1802.7 785.6 Q 1801.7 785.6, 1801.0 785.2 Q 1800.2 784.7, 1799.7 783.9 Q 1799.3 783.2, 1799.3 782.2 Q 1799.3 781.1, 1799.8 780.2 Q 1800.3 779.3, 1801.2 778.9 Q 1802.0 778.4, 1803.1 778.4 M 1800.9 782.1 Q 1800.9 783.2, 1801.5 783.7 Q 1802.0 784.3, 1803.0 784.3 Q 1803.7 784.3, 1804.4 784.0 Q 1805.1 783.7, 1805.6 783.3 Q 1805.5 781.4, 1804.9 780.5 Q 1804.3 779.7, 1803.1 779.7 Q 1802.5 779.7, 1802.0 780.0 Q 1801.5 780.3, 1801.2 780.9 Q 1800.9 781.5, 1800.9 782.1 " fill="#000000"/>
<path class="legend" d="M 1814.8 783.8 Q 1815.8 784.3, 1816.4 785.0 Q 1817.0 785.6, 1817.0 786.7 Q 1817.0 787.7, 1816.5 788.4 Q 1816.0 789.2, 1815.1 789.6 Q 1814.2 790.0, 1813.1 790.0 Q 1811.2 790.0, 1810.1 789.1 Q 1809.0 788.3, 1809.0 786.7 Q 1809.0 785.8, 1809.5 785.1 Q 1810.0 784.4, 1811.0 783.9 Q 1810.2 783.5, 1809.8 782.9 Q 1809.4 782.2, 1809.4 781.3 Q 1809.4 780.0, 1810.4 779.2 Q 1811.4 778.4, 1813.0 778.4 Q 1814.6 778.4, 1815.6 779.2 Q 1816.6 780.0, 1816.6 781.3 Q 1816.6 782.1, 1816.1 782.7 Q 1815.7 783.3, 1814.8 783.8 M 1813.0 779.6 Q 1812.1 779.6, 1811.5 780.0 Q 1811.0 780.5, 1811.0 781.3 Q 1811.0 781.9, 1811.4 782.3 Q 1811.7 782.7, 1812.2 782.9 Q 1812.7 783.1, 1813.7 783.4 Q 1814.4 783.0, 1814.7 782.4 Q 1815.0 781.9, 1815.0 781.3 Q 1815.0 780.5, 1814.5 780.0 Q 1813.9 779.6, 1813.0 779.6 M 1813.1 788.8 Q 1814.1 788.8, 1814.8 788.2 Q 1815.4 787.7, 1815.4 786.7 Q 1815.4 786.1, 1815.1 785.7 Q 1814.7 785.3, 1814.2 785.1 Q 1813.7 784.9, 1812.8 784.6 L 1812.1 784.4 Q 1811.3 784.8, 1811.0 785.4 Q 1810.6 786.0, 1810.6 786.7 Q 1810.6 787.7, 1811.3 788.2 Q 1811.9 788.8, 1813.1 788.8 " fill="#000000"/>
<path class="legend" d="M 1823.2 782.8 Q 1824.2 782.8, 1825.0 783.2 Q 1825.7 783.6, 1826.2 784.4 Q 1826.6 785.2, 1826.6 786.2 Q 1826.6 787.3, 1826.1 788.2 Q 1825.6 789.0, 1824.8 789.5 Q 1823.9 790.0, 1822.8 790.0 Q 1820.8 790.0, 1819.8 788.6 Q 1818.7 787.2, 1818.7 784.5 Q 1818.7 781.5, 1820.0 780.0 Q 1821.3 778.4, 1823.7 778.4 Q 1824.4 778.4, 1825.0 778.5 Q 1825.6 778.7, 1826.2 779.0 L 1825.5 780.1 Q 1824.7 779.7, 1823.7 779.7 Q 1822.1 779.7, 1821.3 780.7 Q 1820.5 781.7, 1820.4 783.9 Q 1820.9 783.3, 1821.7 783.1 Q 1822.4 782.8, 1823.2 782.8 M 1822.8 788.7 Q 1823.4 788.7, 1823.9 788.3 Q 1824.4 788.0, 1824.7 787.5 Q 1825.0 786.9, 1825.0 786.2 Q 1825.0 785.2, 1824.4 784.6 Q 1823.9 784.0, 1822.9 784.0 Q 1822.2 784.0, 1821.5 784.3 Q 1820.8 784.6, 1820.4 785.1 Q 1820.4 787.0, 1821.0 787.8 Q 1821.6 788.7, 1822.8 788.7 " fill="#000000"/>
<path class="bond-0 atom-0 atom-1" d="M 83.0,961.3 L 147.1,924.3" style="fill:none;fill-rule:evenodd;stroke:#000000;stroke-width:2.0px;stroke-linecap:butt;stroke-linejoin:miter;stroke-opacity:1"/>
<path class="bond-1 atom-1 atom-2" d="M 147.1,924.3 L 211.2,961.3" style="fill:none;fill-rule:evenodd;stroke:#000000;stroke-width:2.0px;stroke-linecap:butt;stroke-linejoin:miter;stroke-opacity:1"/>
<path class="bond-2 atom-2 atom-3" d="M 211.2,961.3 L 238.0,945.8" style="fill:none;fill-rule:evenodd;stroke:#000000;stroke-width:2.0px;stroke-linecap:butt;stroke-linejoin:miter;stroke-opacity:1"/>
<path class="bond-2 atom-2 atom-3" d="M 238.0,945.8 L 264.9,930.3" style="fill:none;fill-rule:evenodd;stroke:#0000FF;stroke-width:2.0px;stroke-linecap:butt;stroke-linejoin:miter;stroke-opacity:1"/>
<path class="bond-3 atom-2 atom-4" d="M 205.6,958.1 L 205.6,990.2" style="fill:none;fill-rule:evenodd;stroke:#000000;stroke-width:2.0px;stroke-linecap:butt;stroke-linejoin:miter;stroke-opacity:1"/>
<path class="bond-3 atom-2 atom-4" d="M 205.6,990.2 L 205.6,1022.2" style="fill:none;fill-rule:evenodd;stroke:#FF0000;stroke-width:2.0px;stroke-linecap:butt;stroke-linejoin:miter;stroke-opacity:1"/>
<path class="bond-3 atom-2 atom-4" d="M 216.7,958.1 L 216.7,990.2" style="fill:none;fill-rule:evenodd;stroke:#000000;stroke-width:2.0px;stroke-linecap:butt;stroke-linejoin:miter;stroke-opacity:1"/>
<path class="bond-3 atom-2 atom-4" d="M 216.7,990.2 L 216.7,1022.2" style="fill:none;fill-rule:evenodd;stroke:#FF0000;stroke-width:2.0px;stroke-linecap:butt;stroke-linejoin:miter;stroke-opacity:1"/>
<path d="M 143.9,926.1 L 147.1,924.3 L 150.3,926.1" style="fill:none;stroke:#000000;stroke-width:2.0px;stroke-linecap:butt;stroke-linejoin:miter;stroke-opacity:1;"/>
<path d="M 208.0,959.4 L 211.2,961.3 L 212.5,960.5" style="fill:none;stroke:#000000;stroke-width:2.0px;stroke-linecap:butt;stroke-linejoin:miter;stroke-opacity:1;"/>
<path class="atom-3" d="M 270.6 913.8 L 277.5 924.9 Q 278.2 926.0, 279.3 928.0 Q 280.4 930.0, 280.4 930.1 L 280.4 913.8 L 283.2 913.8 L 283.2 934.8 L 280.3 934.8 L 273.0 922.6 Q 272.1 921.2, 271.2 919.6 Q 270.3 917.9, 270.0 917.4 L 270.0 934.8 L 267.3 934.8 L 267.3 913.8 L 270.6 913.8 " fill="#0000FF"/>
<path class="atom-3" d="M 287.2 913.8 L 290.1 913.8 L 290.1 922.7 L 300.8 922.7 L 300.8 913.8 L 303.6 913.8 L 303.6 934.8 L 300.8 934.8 L 300.8 925.1 L 290.1 925.1 L 290.1 934.8 L 287.2 934.8 L 287.2 913.8 " fill="#0000FF"/>
<path class="atom-3" d="M 307.7 934.0 Q 308.2 932.7, 309.4 932.0 Q 310.6 931.2, 312.3 931.2 Q 314.4 931.2, 315.6 932.4 Q 316.8 933.5, 316.8 935.5 Q 316.8 937.6, 315.2 939.5 Q 313.7 941.4, 310.6 943.7 L 317.0 943.7 L 317.0 945.2 L 307.7 945.2 L 307.7 943.9 Q 310.3 942.1, 311.8 940.7 Q 313.3 939.4, 314.1 938.1 Q 314.8 936.9, 314.8 935.6 Q 314.8 934.3, 314.1 933.6 Q 313.5 932.8, 312.3 932.8 Q 311.2 932.8, 310.5 933.3 Q 309.7 933.7, 309.2 934.7 L 307.7 934.0 " fill="#0000FF"/>
<path class="atom-4" d="M 201.6 1035.3 Q 201.6 1030.3, 204.0 1027.5 Q 206.5 1024.7, 211.2 1024.7 Q 215.8 1024.7, 218.3 1027.5 Q 220.8 1030.3, 220.8 1035.3 Q 220.8 1040.4, 218.3 1043.3 Q 215.8 1046.2, 211.2 1046.2 Q 206.6 1046.2, 204.0 1043.3 Q 201.6 1040.5, 201.6 1035.3 M 211.2 1043.8 Q 214.4 1043.8, 216.1 1041.7 Q 217.8 1039.5, 217.8 1035.3 Q 217.8 1031.2, 216.1 1029.2 Q 214.4 1027.1, 211.2 1027.1 Q 208.0 1027.1, 206.2 1029.1 Q 204.5 1031.2, 204.5 1035.3 Q 204.5 1039.6, 206.2 1041.7 Q 208.0 1043.8, 211.2 1043.8 " fill="#FF0000"/>
<path class="legend" d="M 173.4 1181.5 Q 174.7 1181.5, 175.4 1182.2 Q 176.1 1183.0, 176.1 1184.4 L 176.1 1189.9 L 174.6 1189.9 L 174.6 1184.5 Q 174.6 1183.6, 174.2 1183.1 Q 173.8 1182.7, 173.0 1182.7 Q 172.2 1182.7, 171.6 1183.0 Q 171.0 1183.4, 170.6 1184.0 L 170.6 1189.9 L 169.1 1189.9 L 169.1 1181.6 L 170.3 1181.6 L 170.5 1182.8 Q 171.6 1181.5, 173.4 1181.5 " fill="#000000"/>
<path class="legend" d="M 185.0 1181.6 L 185.0 1189.9 L 183.8 1189.9 L 183.6 1188.7 Q 182.6 1190.0, 180.8 1190.0 Q 179.4 1190.0, 178.7 1189.3 Q 178.0 1188.5, 178.0 1187.1 L 178.0 1181.6 L 179.5 1181.6 L 179.5 1187.0 Q 179.5 1187.9, 179.9 1188.4 Q 180.3 1188.8, 181.1 1188.8 Q 181.9 1188.8, 182.5 1188.5 Q 183.1 1188.1, 183.5 1187.5 L 183.5 1181.6 L 185.0 1181.6 " fill="#000000"/>
<path class="legend" d="M 187.1 1185.7 Q 187.1 1183.7, 188.1 1182.6 Q 189.1 1181.5, 191.0 1181.5 Q 192.9 1181.5, 193.9 1182.8 L 192.9 1183.6 Q 192.5 1183.1, 192.0 1182.9 Q 191.6 1182.7, 191.0 1182.7 Q 189.9 1182.7, 189.2 1183.5 Q 188.6 1184.2, 188.6 1185.7 Q 188.6 1187.2, 189.3 1188.0 Q 189.9 1188.8, 191.1 1188.8 Q 191.8 1188.8, 192.3 1188.7 Q 192.7 1188.5, 193.3 1188.2 L 193.7 1189.3 Q 192.5 1190.0, 191.0 1190.0 Q 189.1 1190.0, 188.1 1188.8 Q 187.1 1187.7, 187.1 1185.7 " fill="#000000"/>
<path class="legend" d="M 195.6 1188.6 L 198.1 1188.6 L 198.1 1180.1 L 195.4 1181.0 L 195.0 1180.0 L 198.5 1178.5 L 199.6 1178.7 L 199.6 1188.6 L 201.8 1188.6 L 201.8 1189.9 L 195.6 1189.9 L 195.6 1188.6 " fill="#000000"/>
<path class="legend" d="M 203.3 1180.7 Q 203.7 1179.6, 204.7 1179.0 Q 205.7 1178.4, 207.0 1178.4 Q 208.8 1178.4, 209.7 1179.3 Q 210.7 1180.3, 210.7 1181.9 Q 210.7 1183.6, 209.4 1185.2 Q 208.2 1186.7, 205.6 1188.6 L 210.9 1188.6 L 210.9 1189.9 L 203.2 1189.9 L 203.2 1188.8 Q 205.3 1187.3, 206.6 1186.2 Q 207.9 1185.0, 208.5 1184.0 Q 209.1 1183.0, 209.1 1182.0 Q 209.1 1180.9, 208.5 1180.3 Q 208.0 1179.7, 207.0 1179.7 Q 206.1 1179.7, 205.5 1180.0 Q 204.9 1180.4, 204.5 1181.2 L 203.3 1180.7 " fill="#000000"/>
<path class="legend" d="M 216.7 1190.0 Q 214.6 1190.0, 213.6 1188.4 Q 212.6 1186.9, 212.6 1184.2 Q 212.6 1181.4, 213.6 1179.9 Q 214.6 1178.4, 216.7 1178.4 Q 218.8 1178.4, 219.8 1179.9 Q 220.9 1181.4, 220.9 1184.2 Q 220.9 1186.9, 219.8 1188.4 Q 218.8 1190.0, 216.7 1190.0 M 216.7 1188.7 Q 217.9 1188.7, 218.6 1187.6 Q 219.3 1186.4, 219.3 1184.2 Q 219.3 1182.0, 218.6 1180.8 Q 217.9 1179.7, 216.7 1179.7 Q 215.5 1179.7, 214.8 1180.8 Q 214.2 1182.0, 214.2 1184.2 Q 214.2 1186.4, 214.8 1187.6 Q 215.5 1188.7, 216.7 1188.7 " fill="#000000"/>
<path class="legend" d="M 226.8 1190.0 Q 224.7 1190.0, 223.7 1188.4 Q 222.6 1186.9, 222.6 1184.2 Q 222.6 1181.4, 223.7 1179.9 Q 224.7 1178.4, 226.8 1178.4 Q 228.9 1178.4, 229.9 1179.9 Q 230.9 1181.4, 230.9 1184.2 Q 230.9 1186.9, 229.9 1188.4 Q 228.9 1190.0, 226.8 1190.0 M 226.8 1188.7 Q 228.0 1188.7, 228.7 1187.6 Q 229.3 1186.4, 229.3 1184.2 Q 229.3 1182.0, 228.7 1180.8 Q 228.0 1179.7, 226.8 1179.7 Q 225.6 1179.7, 224.9 1180.8 Q 224.2 1182.0, 224.2 1184.2 Q 224.2 1186.4, 224.9 1187.6 Q 225.6 1188.7, 226.8 1188.7 " fill="#000000"/>
<path class="bond-0 atom-0 atom-1" d="M 676.9,980.0 L 645.1,980.0" style="fill:none;fill-rule:evenodd;stroke:#0000FF;stroke-width:2.0px;stroke-linecap:butt;stroke-linejoin:miter;stroke-opacity:1"/>
<path class="bond-0 atom-0 atom-1" d="M 645.1,980.0 L 613.3,980.0" style="fill:none;fill-rule:evenodd;stroke:#000000;stroke-width:2.0px;stroke-linecap:butt;stroke-linejoin:miter;stroke-opacity:1"/>
<path class="bond-1 atom-1 atom-2" d="M 613.3,980.0 L 569.8,920.1" style="fill:none;fill-rule:evenodd;stroke:#000000;stroke-width:2.0px;stroke-linecap:butt;stroke-linejoin:miter;stroke-opacity:1"/>
<path class="bond-2 atom-2 atom-3" d="M 569.8,920.1 L 539.8,929.9" style="fill:none;fill-rule:evenodd;stroke:#000000;stroke-width:2.0px;stroke-linecap:butt;stroke-linejoin:miter;stroke-opacity:1"/>
<path class="bond-2 atom-2 atom-3" d="M 539.8,929.9 L 509.8,939.6" style="fill:none;fill-rule:evenodd;stroke:#0000FF;stroke-width:2.0px;stroke-linecap:butt;stroke-linejoin:miter;stroke-opacity:1"/>
<path class="bond-2 atom-2 atom-3" d="M 565.6,933.2 L 539.4,941.7" style="fill:none;fill-rule:evenodd;stroke:#000000;stroke-width:2.0px;stroke-linecap:butt;stroke-linejoin:miter;stroke-opacity:1"/>
<path class="bond-2 atom-2 atom-3" d="M 539.4,941.7 L 513.3,950.2" style="fill:none;fill-rule:evenodd;stroke:#0000FF;stroke-width:2.0px;stroke-linecap:butt;stroke-linejoin:miter;stroke-opacity:1"/>
<path class="bond-3 atom-3 atom-4" d="M 499.4,955.9 L 499.4,1004.1" style="fill:none;fill-rule:evenodd;stroke:#0000FF;stroke-width:2.0px;stroke-linecap:butt;stroke-linejoin:miter;stroke-opacity:1"/>
<path class="bond-4 atom-4 atom-5" d="M 509.8,1020.4 L 539.8,1030.1" style="fill:none;fill-rule:evenodd;stroke:#0000FF;stroke-width:2.0px;stroke-linecap:butt;stroke-linejoin:miter;stroke-opacity:1"/>
<path class="bond-4 atom-4 atom-5" d="M 539.8,1030.1 L 569.8,1039.9" style="fill:none;fill-rule:evenodd;stroke:#000000;stroke-width:2.0px;stroke-linecap:butt;stroke-linejoin:miter;stroke-opacity:1"/>
<path class="bond-5 atom-5 atom-1" d="M 569.8,1039.9 L 613.3,980.0" style="fill:none;fill-rule:evenodd;stroke:#000000;stroke-width:2.0px;stroke-linecap:butt;stroke-linejoin:miter;stroke-opacity:1"/>
<path class="bond-5 atom-5 atom-1" d="M 565.6,1026.8 L 599.6,980.0" style="fill:none;fill-rule:evenodd;stroke:#000000;stroke-width:2.0px;stroke-linecap:butt;stroke-linejoin:miter;stroke-opacity:1"/>
<path d="M 572.0,923.1 L 569.8,920.1 L 568.3,920.6" style="fill:none;stroke:#000000;stroke-width:2.0px;stroke-linecap:butt;stroke-linejoin:miter;stroke-opacity:1;"/>
<path d="M 568.3,1039.4 L 569.8,1039.9 L 572.0,1036.9" style="fill:none;stroke:#000000;stroke-width:2.0px;stroke-linecap:butt;stroke-linejoin:miter;stroke-opacity:1;"/>
<path class="atom-0" d="M 682.7 969.5 L 689.5 980.6 Q 690.2 981.7, 691.3 983.7 Q 692.4 985.7, 692.5 985.8 L 692.5 969.5 L 695.3 969.5 L 695.3 990.5 L 692.4 990.5 L 685.0 978.3 Q 684.2 976.9, 683.2 975.3 Q 682.4 973.7, 682.1 973.2 L 682.1 990.5 L 679.4 990.5 L 679.4 969.5 L 682.7 969.5 " fill="#0000FF"/>
<path class="atom-0" d="M 699.3 969.5 L 702.1 969.5 L 702.1 978.4 L 712.8 978.4 L 712.8 969.5 L 715.7 969.5 L 715.7 990.5 L 712.8 990.5 L 712.8 980.8 L 702.1 980.8 L 702.1 990.5 L 699.3 990.5 L 699.3 969.5 " fill="#0000FF"/>
<path class="atom-0" d="M 719.8 989.7 Q 720.3 988.4, 721.5 987.7 Q 722.7 987.0, 724.4 987.0 Q 726.5 987.0, 727.6 988.1 Q 728.8 989.2, 728.8 991.2 Q 728.8 993.3, 727.3 995.2 Q 725.8 997.1, 722.7 999.4 L 729.0 999.4 L 729.0 1001.0 L 719.7 1001.0 L 719.7 999.6 Q 722.3 997.8, 723.8 996.4 Q 725.4 995.1, 726.1 993.8 Q 726.9 992.6, 726.9 991.3 Q 726.9 990.0, 726.2 989.3 Q 725.5 988.5, 724.4 988.5 Q 723.3 988.5, 722.5 989.0 Q 721.8 989.4, 721.2 990.4 L 719.8 989.7 " fill="#0000FF"/>
<path class="atom-3" d="M 494.8 932.5 L 501.7 943.6 Q 502.3 944.7, 503.4 946.7 Q 504.5 948.7, 504.6 948.8 L 504.6 932.5 L 507.4 932.5 L 507.4 953.5 L 504.5 953.5 L 497.1 941.3 Q 496.3 939.9, 495.4 938.3 Q 494.5 936.7, 494.2 936.2 L 494.2 953.5 L 491.5 953.5 L 491.5 932.5 L 494.8 932.5 " fill="#0000FF"/>
<path class="atom-4" d="M 471.0 1006.5 L 473.8 1006.5 L 473.8 1015.4 L 484.5 1015.4 L 484.5 1006.5 L 487.4 1006.5 L 487.4 1027.5 L 484.5 1027.5 L 484.5 1017.8 L 473.8 1017.8 L 473.8 1027.5 L 471.0 1027.5 L 471.0 1006.5 " fill="#0000FF"/>
<path class="atom-4" d="M 494.8 1006.5 L 501.7 1017.6 Q 502.3 1018.7, 503.4 1020.7 Q 504.5 1022.7, 504.6 1022.8 L 504.6 1006.5 L 507.4 1006.5 L 507.4 1027.5 L 504.5 1027.5 L 497.1 1015.3 Q 496.3 1013.9, 495.4 1012.3 Q 494.5 1010.7, 494.2 1010.2 L 494.2 1027.5 L 491.5 1027.5 L 491.5 1006.5 L 494.8 1006.5 " fill="#0000FF"/>
<path class="legend" d="M 573.9 1181.5 Q 575.3 1181.5, 575.9 1182.2 Q 576.7 1183.0, 576.7 1184.4 L 576.7 1189.8 L 575.1 1189.8 L 575.1 1184.5 Q 575.1 1183.5, 574.8 1183.1 Q 574.4 1182.7, 573.6 1182.7 Q 572.8 1182.7, 572.2 1183.0 Q 571.6 1183.3, 571.2 1184.0 L 571.2 1189.8 L 569.7 1189.8 L 569.7 1181.6 L 570.9 1181.6 L 571.1 1182.8 Q 572.2 1181.5, 573.9 1181.5 " fill="#000000"/>
<path class="legend" d="M 585.6 1181.6 L 585.6 1189.8 L 584.4 1189.8 L 584.2 1188.7 Q 583.1 1190.0, 581.4 1190.0 Q 580.0 1190.0, 579.3 1189.2 Q 578.6 1188.5, 578.6 1187.1 L 578.6 1181.6 L 580.1 1181.6 L 580.1 1186.9 Q 580.1 1187.9, 580.5 1188.4 Q 580.9 1188.8, 581.7 1188.8 Q 582.5 1188.8, 583.1 1188.5 Q 583.7 1188.1, 584.1 1187.5 L 584.1 1181.6 L 585.6 1181.6 " fill="#000000"/>
<path class="legend" d="M 587.6 1185.7 Q 587.6 1183.7, 588.6 1182.6 Q 589.6 1181.5, 591.6 1181.5 Q 593.4 1181.5, 594.4 1182.8 L 593.4 1183.6 Q 593.0 1183.1, 592.6 1182.9 Q 592.2 1182.7, 591.6 1182.7 Q 590.4 1182.7, 589.8 1183.4 Q 589.2 1184.2, 589.2 1185.7 Q 589.2 1187.2, 589.8 1188.0 Q 590.5 1188.8, 591.7 1188.8 Q 592.3 1188.8, 592.8 1188.6 Q 593.3 1188.5, 593.8 1188.2 L 594.3 1189.2 Q 593.1 1189.9, 591.6 1189.9 Q 589.6 1189.9, 588.6 1188.8 Q 587.6 1187.7, 587.6 1185.7 " fill="#000000"/>
<path class="legend" d="M 596.2 1188.6 L 598.6 1188.6 L 598.6 1180.1 L 595.9 1180.9 L 595.5 1180.0 L 599.0 1178.4 L 600.1 1178.6 L 600.1 1188.6 L 602.4 1188.6 L 602.4 1189.8 L 596.2 1189.8 L 596.2 1188.6 " fill="#000000"/>
<path class="legend" d="M 609.2 1183.9 Q 610.3 1184.2, 610.8 1184.9 Q 611.4 1185.6, 611.4 1186.7 Q 611.4 1187.7, 610.9 1188.4 Q 610.4 1189.2, 609.5 1189.6 Q 608.7 1190.0, 607.5 1190.0 Q 606.3 1190.0, 605.4 1189.6 Q 604.5 1189.2, 603.8 1188.3 L 604.7 1187.4 Q 605.4 1188.1, 606.0 1188.4 Q 606.6 1188.7, 607.5 1188.7 Q 608.5 1188.7, 609.2 1188.2 Q 609.8 1187.6, 609.8 1186.7 Q 609.8 1185.6, 609.1 1185.1 Q 608.5 1184.5, 607.1 1184.5 L 606.3 1184.5 L 606.3 1183.4 L 607.0 1183.4 Q 608.2 1183.4, 608.9 1182.8 Q 609.5 1182.3, 609.5 1181.3 Q 609.5 1180.5, 609.0 1180.1 Q 608.5 1179.7, 607.5 1179.7 Q 606.6 1179.7, 606.0 1180.0 Q 605.4 1180.3, 605.0 1181.2 L 603.9 1180.6 Q 604.3 1179.6, 605.2 1179.0 Q 606.2 1178.4, 607.5 1178.4 Q 609.2 1178.4, 610.2 1179.2 Q 611.1 1180.0, 611.1 1181.3 Q 611.1 1182.2, 610.6 1182.8 Q 610.2 1183.5, 609.2 1183.9 " fill="#000000"/>
<path class="legend" d="M 618.5 1183.9 Q 619.6 1184.2, 620.1 1184.9 Q 620.7 1185.6, 620.7 1186.7 Q 620.7 1187.7, 620.2 1188.4 Q 619.7 1189.2, 618.8 1189.6 Q 617.9 1190.0, 616.8 1190.0 Q 615.6 1190.0, 614.7 1189.6 Q 613.8 1189.2, 613.1 1188.3 L 614.0 1187.4 Q 614.7 1188.1, 615.3 1188.4 Q 615.9 1188.7, 616.8 1188.7 Q 617.8 1188.7, 618.4 1188.2 Q 619.1 1187.6, 619.1 1186.7 Q 619.1 1185.6, 618.4 1185.1 Q 617.8 1184.5, 616.4 1184.5 L 615.6 1184.5 L 615.6 1183.4 L 616.3 1183.4 Q 617.5 1183.4, 618.2 1182.8 Q 618.8 1182.3, 618.8 1181.3 Q 618.8 1180.5, 618.3 1180.1 Q 617.7 1179.7, 616.8 1179.7 Q 615.9 1179.7, 615.3 1180.0 Q 614.7 1180.3, 614.3 1181.2 L 613.1 1180.6 Q 613.5 1179.6, 614.5 1179.0 Q 615.5 1178.4, 616.8 1178.4 Q 618.5 1178.4, 619.5 1179.2 Q 620.4 1180.0, 620.4 1181.3 Q 620.4 1182.2, 619.9 1182.8 Q 619.4 1183.5, 618.5 1183.9 " fill="#000000"/>
<path class="legend" d="M 628.1 1183.8 Q 629.2 1184.3, 629.7 1185.0 Q 630.3 1185.6, 630.3 1186.7 Q 630.3 1187.7, 629.8 1188.4 Q 629.3 1189.2, 628.5 1189.6 Q 627.6 1190.0, 626.4 1190.0 Q 624.5 1190.0, 623.4 1189.1 Q 622.3 1188.3, 622.3 1186.7 Q 622.3 1185.8, 622.8 1185.1 Q 623.3 1184.4, 624.3 1183.9 Q 623.6 1183.5, 623.2 1182.9 Q 622.8 1182.2, 622.8 1181.3 Q 622.8 1180.0, 623.7 1179.2 Q 624.7 1178.4, 626.3 1178.4 Q 628.0 1178.4, 628.9 1179.2 Q 629.9 1180.0, 629.9 1181.3 Q 629.9 1182.1, 629.5 1182.7 Q 629.0 1183.3, 628.1 1183.8 M 626.3 1179.6 Q 625.4 1179.6, 624.9 1180.0 Q 624.4 1180.5, 624.4 1181.3 Q 624.4 1181.9, 624.7 1182.3 Q 625.1 1182.7, 625.6 1182.9 Q 626.1 1183.1, 627.0 1183.4 Q 627.7 1183.0, 628.0 1182.4 Q 628.3 1181.9, 628.3 1181.3 Q 628.3 1180.5, 627.8 1180.0 Q 627.3 1179.6, 626.3 1179.6 M 626.4 1188.8 Q 627.5 1188.8, 628.1 1188.2 Q 628.7 1187.7, 628.7 1186.7 Q 628.7 1186.1, 628.4 1185.7 Q 628.1 1185.3, 627.6 1185.1 Q 627.1 1184.9, 626.2 1184.6 L 625.4 1184.4 Q 624.6 1184.8, 624.3 1185.4 Q 623.9 1186.0, 623.9 1186.7 Q 623.9 1187.7, 624.6 1188.2 Q 625.3 1188.8, 626.4 1188.8 " fill="#000000"/>
<path class="bond-0 atom-0 atom-1" d="M 852.3,998.0 L 920.9,970.4" style="fill:none;fill-rule:evenodd;stroke:#000000;stroke-width:2.0px;stroke-linecap:butt;stroke-linejoin:miter;stroke-opacity:1"/>
<path class="bond-1 atom-1 atom-2" d="M 920.9,970.4 L 979.1,1016.1" style="fill:none;fill-rule:evenodd;stroke:#000000;stroke-width:2.0px;stroke-linecap:butt;stroke-linejoin:miter;stroke-opacity:1"/>
<path class="bond-2 atom-2 atom-3" d="M 979.1,1016.1 L 1047.8,988.6" style="fill:none;fill-rule:evenodd;stroke:#000000;stroke-width:2.0px;stroke-linecap:butt;stroke-linejoin:miter;stroke-opacity:1"/>
<path class="bond-3 atom-3 atom-4" d="M 1047.8,988.6 L 1071.7,1007.4" style="fill:none;fill-rule:evenodd;stroke:#000000;stroke-width:2.0px;stroke-linecap:butt;stroke-linejoin:miter;stroke-opacity:1"/>
<path class="bond-3 atom-3 atom-4" d="M 1071.7,1007.4 L 1095.6,1026.1" style="fill:none;fill-rule:evenodd;stroke:#0000FF;stroke-width:2.0px;stroke-linecap:butt;stroke-linejoin:miter;stroke-opacity:1"/>
<path class="bond-4 atom-3 atom-5" d="M 1052.9,992.5 L 1057.4,961.0" style="fill:none;fill-rule:evenodd;stroke:#000000;stroke-width:2.0px;stroke-linecap:butt;stroke-linejoin:miter;stroke-opacity:1"/>
<path class="bond-4 atom-3 atom-5" d="M 1057.4,961.0 L 1061.9,929.5" style="fill:none;fill-rule:evenodd;stroke:#FF0000;stroke-width:2.0px;stroke-linecap:butt;stroke-linejoin:miter;stroke-opacity:1"/>
<path class="bond-4 atom-3 atom-5" d="M 1041.9,991.0 L 1046.4,959.4" style="fill:none;fill-rule:evenodd;stroke:#000000;stroke-width:2.0px;stroke-linecap:butt;stroke-linejoin:miter;stroke-opacity:1"/>
<path class="bond-4 atom-3 atom-5" d="M 1046.4,959.4 L 1050.9,927.9" style="fill:none;fill-rule:evenodd;stroke:#FF0000;stroke-width:2.0px;stroke-linecap:butt;stroke-linejoin:miter;stroke-opacity:1"/>
<path d="M 917.5,971.8 L 920.9,970.4 L 923.8,972.7" style="fill:none;stroke:#000000;stroke-width:2.0px;stroke-linecap:butt;stroke-linejoin:miter;stroke-opacity:1;"/>
<path d="M 976.2,1013.8 L 979.1,1016.1 L 982.6,1014.8" style="fill:none;stroke:#000000;stroke-width:2.0px;stroke-linecap:butt;stroke-linejoin:miter;stroke-opacity:1;"/>
<path d="M 1044.4,990.0 L 1047.8,988.6 L 1049.0,989.5" style="fill:none;stroke:#000000;stroke-width:2.0px;stroke-linecap:butt;stroke-linejoin:miter;stroke-opacity:1;"/>
<path class="atom-4" d="M 1101.4 1023.8 L 1108.2 1034.9 Q 1108.9 1036.0, 1110.0 1038.0 Q 1111.1 1040.0, 1111.2 1040.1 L 1111.2 1023.8 L 1114.0 1023.8 L 1114.0 1044.8 L 1111.1 1044.8 L 1103.7 1032.6 Q 1102.9 1031.2, 1101.9 1029.6 Q 1101.1 1028.0, 1100.8 1027.5 L 1100.8 1044.8 L 1098.1 1044.8 L 1098.1 1023.8 L 1101.4 1023.8 " fill="#0000FF"/>
<path class="atom-4" d="M 1118.0 1023.8 L 1120.8 1023.8 L 1120.8 1032.7 L 1131.5 1032.7 L 1131.5 1023.8 L 1134.4 1023.8 L 1134.4 1044.8 L 1131.5 1044.8 L 1131.5 1035.1 L 1120.8 1035.1 L 1120.8 1044.8 L 1118.0 1044.8 L 1118.0 1023.8 " fill="#0000FF"/>
<path class="atom-4" d="M 1138.5 1044.0 Q 1139.0 1042.7, 1140.2 1042.0 Q 1141.4 1041.3, 1143.1 1041.3 Q 1145.2 1041.3, 1146.3 1042.4 Q 1147.5 1043.5, 1147.5 1045.6 Q 1147.5 1047.6, 1146.0 1049.5 Q 1144.5 1051.4, 1141.4 1053.7 L 1147.7 1053.7 L 1147.7 1055.3 L 1138.4 1055.3 L 1138.4 1054.0 Q 1141.0 1052.1, 1142.5 1050.7 Q 1144.1 1049.4, 1144.8 1048.1 Q 1145.6 1046.9, 1145.6 1045.6 Q 1145.6 1044.3, 1144.9 1043.6 Q 1144.2 1042.8, 1143.1 1042.8 Q 1142.0 1042.8, 1141.2 1043.3 Q 1140.5 1043.7, 1140.0 1044.7 L 1138.5 1044.0 " fill="#0000FF"/>
<path class="atom-5" d="M 1048.7 915.4 Q 1048.7 910.4, 1051.2 907.6 Q 1053.7 904.7, 1058.3 904.7 Q 1063.0 904.7, 1065.4 907.6 Q 1067.9 910.4, 1067.9 915.4 Q 1067.9 920.5, 1065.4 923.4 Q 1062.9 926.3, 1058.3 926.3 Q 1053.7 926.3, 1051.2 923.4 Q 1048.7 920.5, 1048.7 915.4 M 1058.3 923.9 Q 1061.5 923.9, 1063.2 921.8 Q 1065.0 919.6, 1065.0 915.4 Q 1065.0 911.3, 1063.2 909.2 Q 1061.5 907.1, 1058.3 907.1 Q 1055.1 907.1, 1053.4 909.2 Q 1051.7 911.3, 1051.7 915.4 Q 1051.7 919.6, 1053.4 921.8 Q 1055.1 923.9, 1058.3 923.9 " fill="#FF0000"/>
<path class="legend" d="M 973.5 1181.5 Q 974.8 1181.5, 975.5 1182.2 Q 976.2 1183.0, 976.2 1184.4 L 976.2 1189.8 L 974.7 1189.8 L 974.7 1184.5 Q 974.7 1183.5, 974.3 1183.1 Q 973.9 1182.7, 973.1 1182.7 Q 972.3 1182.7, 971.7 1183.0 Q 971.1 1183.3, 970.7 1184.0 L 970.7 1189.8 L 969.2 1189.8 L 969.2 1181.6 L 970.4 1181.6 L 970.6 1182.8 Q 971.7 1181.5, 973.5 1181.5 " fill="#000000"/>
<path class="legend" d="M 985.1 1181.6 L 985.1 1189.8 L 983.9 1189.8 L 983.7 1188.7 Q 982.6 1190.0, 980.9 1190.0 Q 979.5 1190.0, 978.8 1189.2 Q 978.1 1188.5, 978.1 1187.1 L 978.1 1181.6 L 979.6 1181.6 L 979.6 1186.9 Q 979.6 1187.9, 980.0 1188.4 Q 980.4 1188.8, 981.2 1188.8 Q 982.0 1188.8, 982.6 1188.5 Q 983.2 1188.1, 983.6 1187.5 L 983.6 1181.6 L 985.1 1181.6 " fill="#000000"/>
<path class="legend" d="M 987.2 1185.7 Q 987.2 1183.7, 988.2 1182.6 Q 989.2 1181.5, 991.1 1181.5 Q 993.0 1181.5, 994.0 1182.8 L 992.9 1183.6 Q 992.6 1183.1, 992.1 1182.9 Q 991.7 1182.7, 991.1 1182.7 Q 990.0 1182.7, 989.3 1183.4 Q 988.7 1184.2, 988.7 1185.7 Q 988.7 1187.2, 989.3 1188.0 Q 990.0 1188.8, 991.2 1188.8 Q 991.9 1188.8, 992.3 1188.6 Q 992.8 1188.5, 993.4 1188.2 L 993.8 1189.2 Q 992.6 1189.9, 991.1 1189.9 Q 989.2 1189.9, 988.2 1188.8 Q 987.2 1187.7, 987.2 1185.7 " fill="#000000"/>
<path class="legend" d="M 995.1 1180.7 Q 995.5 1179.6, 996.5 1179.0 Q 997.5 1178.4, 998.9 1178.4 Q 1000.6 1178.4, 1001.6 1179.3 Q 1002.5 1180.2, 1002.5 1181.9 Q 1002.5 1183.6, 1001.3 1185.1 Q 1000.0 1186.7, 997.5 1188.6 L 1002.7 1188.6 L 1002.7 1189.8 L 995.1 1189.8 L 995.1 1188.8 Q 997.2 1187.3, 998.4 1186.1 Q 999.7 1185.0, 1000.3 1184.0 Q 1000.9 1183.0, 1000.9 1182.0 Q 1000.9 1180.9, 1000.4 1180.3 Q 999.8 1179.7, 998.9 1179.7 Q 998.0 1179.7, 997.4 1180.0 Q 996.8 1180.4, 996.3 1181.2 L 995.1 1180.7 " fill="#000000"/>
<path class="legend" d="M 1009.8 1183.9 Q 1010.9 1184.2, 1011.5 1184.9 Q 1012.0 1185.6, 1012.0 1186.7 Q 1012.0 1187.7, 1011.5 1188.4 Q 1011.1 1189.2, 1010.2 1189.6 Q 1009.3 1190.0, 1008.1 1190.0 Q 1006.9 1190.0, 1006.0 1189.6 Q 1005.1 1189.2, 1004.4 1188.3 L 1005.3 1187.4 Q 1006.0 1188.1, 1006.6 1188.4 Q 1007.2 1188.7, 1008.1 1188.7 Q 1009.2 1188.7, 1009.8 1188.2 Q 1010.4 1187.6, 1010.4 1186.7 Q 1010.4 1185.6, 1009.8 1185.1 Q 1009.1 1184.5, 1007.7 1184.5 L 1006.9 1184.5 L 1006.9 1183.4 L 1007.6 1183.4 Q 1008.9 1183.4, 1009.5 1182.8 Q 1010.2 1182.3, 1010.2 1181.3 Q 1010.2 1180.5, 1009.6 1180.1 Q 1009.1 1179.7, 1008.2 1179.7 Q 1007.2 1179.7, 1006.6 1180.0 Q 1006.0 1180.3, 1005.6 1181.2 L 1004.5 1180.6 Q 1004.9 1179.6, 1005.9 1179.0 Q 1006.8 1178.4, 1008.2 1178.4 Q 1009.8 1178.4, 1010.8 1179.2 Q 1011.8 1180.0, 1011.8 1181.3 Q 1011.8 1182.2, 1011.3 1182.8 Q 1010.8 1183.5, 1009.8 1183.9 " fill="#000000"/>
<path class="legend" d="M 1018.1 1182.8 Q 1019.1 1182.8, 1019.9 1183.2 Q 1020.7 1183.6, 1021.1 1184.4 Q 1021.6 1185.2, 1021.6 1186.2 Q 1021.6 1187.3, 1021.1 1188.2 Q 1020.6 1189.0, 1019.7 1189.5 Q 1018.8 1190.0, 1017.7 1190.0 Q 1015.7 1190.0, 1014.7 1188.6 Q 1013.7 1187.2, 1013.7 1184.5 Q 1013.7 1181.5, 1014.9 1180.0 Q 1016.2 1178.4, 1018.6 1178.4 Q 1019.3 1178.4, 1019.9 1178.5 Q 1020.5 1178.7, 1021.1 1179.0 L 1020.5 1180.1 Q 1019.6 1179.7, 1018.6 1179.7 Q 1017.0 1179.7, 1016.2 1180.7 Q 1015.4 1181.7, 1015.3 1183.9 Q 1015.9 1183.3, 1016.6 1183.1 Q 1017.3 1182.8, 1018.1 1182.8 M 1017.8 1188.7 Q 1018.4 1188.7, 1018.9 1188.3 Q 1019.4 1188.0, 1019.7 1187.5 Q 1020.0 1186.9, 1020.0 1186.2 Q 1020.0 1185.2, 1019.4 1184.6 Q 1018.8 1184.0, 1017.8 1184.0 Q 1017.2 1184.0, 1016.5 1184.3 Q 1015.8 1184.6, 1015.3 1185.1 Q 1015.4 1187.0, 1016.0 1187.8 Q 1016.6 1188.7, 1017.8 1188.7 " fill="#000000"/>
<path class="legend" d="M 1027.3 1182.8 Q 1028.3 1182.8, 1029.1 1183.2 Q 1029.9 1183.6, 1030.4 1184.4 Q 1030.8 1185.2, 1030.8 1186.3 Q 1030.8 1187.4, 1030.3 1188.3 Q 1029.7 1189.1, 1028.8 1189.5 Q 1027.8 1190.0, 1026.8 1190.0 Q 1025.7 1190.0, 1024.8 1189.6 Q 1023.8 1189.2, 1023.2 1188.5 L 1024.1 1187.5 Q 1024.7 1188.0, 1025.4 1188.4 Q 1026.1 1188.7, 1026.8 1188.7 Q 1027.8 1188.7, 1028.5 1188.0 Q 1029.2 1187.4, 1029.2 1186.3 Q 1029.2 1185.1, 1028.5 1184.5 Q 1027.8 1184.0, 1026.7 1184.0 Q 1025.7 1184.0, 1024.6 1184.4 L 1023.8 1184.0 L 1024.3 1178.5 L 1030.1 1178.5 L 1030.0 1179.8 L 1025.6 1179.8 L 1025.3 1183.2 Q 1026.3 1182.8, 1027.3 1182.8 " fill="#000000"/>
</svg>