<svg xmlns="http://www.w3.org/2000/svg" xmlns:rdkit="http://www.rdkit.org/xml" xmlns:xlink="http://www.w3.org/1999/xlink" version="1.1" baseProfile="full" xml:space="preserve" width="2000px" height="400px" viewBox="0 0 2000 400">
<!-- END OF HEADER -->
<rect style="opacity:1.0;fill:#FFFFFF;stroke:none" width="2000.0" height="400.0" x="0.0" y="0.0"> </rect>
<path class="bond-0 atom-1 atom-0" d="M 270.7,246.8 L 270.3,246.4" style="fill:none;fill-rule:evenodd;stroke:#000000;stroke-width:1.0px;stroke-linecap:butt;stroke-linejoin:miter;stroke-opacity:1"/>
<path class="bond-0 atom-1 atom-0" d="M 268.5,249.4 L 267.8,248.7" style="fill:none;fill-rule:evenodd;stroke:#000000;stroke-width:1.0px;stroke-linecap:butt;stroke-linejoin:miter;stroke-opacity:1"/>
<path class="bond-0 atom-1 atom-0" d="M 266.3,252.1 L 265.2,251.0" style="fill:none;fill-rule:evenodd;stroke:#000000;stroke-width:1.0px;stroke-linecap:butt;stroke-linejoin:miter;stroke-opacity:1"/>
<path class="bond-0 atom-1 atom-0" d="M 264.1,254.7 L 262.7,253.3" style="fill:none;fill-rule:evenodd;stroke:#000000;stroke-width:1.0px;stroke-linecap:butt;stroke-linejoin:miter;stroke-opacity:1"/>
<path class="bond-0 atom-1 atom-0" d="M 262.0,257.4 L 260.1,255.6" style="fill:none;fill-rule:evenodd;stroke:#000000;stroke-width:1.0px;stroke-linecap:butt;stroke-linejoin:miter;stroke-opacity:1"/>
<path class="bond-0 atom-1 atom-0" d="M 259.8,260.0 L 257.6,257.9" style="fill:none;fill-rule:evenodd;stroke:#000000;stroke-width:1.0px;stroke-linecap:butt;stroke-linejoin:miter;stroke-opacity:1"/>
<path class="bond-0 atom-1 atom-0" d="M 257.6,262.7 L 255.0,260.2" style="fill:none;fill-rule:evenodd;stroke:#000000;stroke-width:1.0px;stroke-linecap:butt;stroke-linejoin:miter;stroke-opacity:1"/>
<path class="bond-0 atom-1 atom-0" d="M 255.4,265.3 L 252.4,262.5" style="fill:none;fill-rule:evenodd;stroke:#000000;stroke-width:1.0px;stroke-linecap:butt;stroke-linejoin:miter;stroke-opacity:1"/>
<path class="bond-0 atom-1 atom-0" d="M 253.2,267.9 L 249.9,264.8" style="fill:none;fill-rule:evenodd;stroke:#000000;stroke-width:1.0px;stroke-linecap:butt;stroke-linejoin:miter;stroke-opacity:1"/>
<path class="bond-0 atom-1 atom-0" d="M 251.0,270.6 L 247.3,267.0" style="fill:none;fill-rule:evenodd;stroke:#000000;stroke-width:1.0px;stroke-linecap:butt;stroke-linejoin:miter;stroke-opacity:1"/>
<path class="bond-0 atom-1 atom-0" d="M 248.9,273.2 L 244.8,269.3" style="fill:none;fill-rule:evenodd;stroke:#000000;stroke-width:1.0px;stroke-linecap:butt;stroke-linejoin:miter;stroke-opacity:1"/>
<path class="bond-0 atom-1 atom-0" d="M 246.7,275.9 L 242.2,271.6" style="fill:none;fill-rule:evenodd;stroke:#000000;stroke-width:1.0px;stroke-linecap:butt;stroke-linejoin:miter;stroke-opacity:1"/>
<path class="bond-0 atom-1 atom-0" d="M 244.5,278.5 L 239.7,273.9" style="fill:none;fill-rule:evenodd;stroke:#000000;stroke-width:1.0px;stroke-linecap:butt;stroke-linejoin:miter;stroke-opacity:1"/>
<path class="bond-0 atom-1 atom-0" d="M 242.3,281.2 L 237.1,276.2" style="fill:none;fill-rule:evenodd;stroke:#000000;stroke-width:1.0px;stroke-linecap:butt;stroke-linejoin:miter;stroke-opacity:1"/>
<path class="bond-0 atom-1 atom-0" d="M 240.1,283.8 L 234.6,278.5" style="fill:none;fill-rule:evenodd;stroke:#000000;stroke-width:1.0px;stroke-linecap:butt;stroke-linejoin:miter;stroke-opacity:1"/>
<path class="bond-0 atom-1 atom-0" d="M 238.0,286.5 L 232.0,280.8" style="fill:none;fill-rule:evenodd;stroke:#000000;stroke-width:1.0px;stroke-linecap:butt;stroke-linejoin:miter;stroke-opacity:1"/>
<path class="bond-0 atom-1 atom-0" d="M 235.8,289.1 L 229.5,283.1" style="fill:none;fill-rule:evenodd;stroke:#000000;stroke-width:1.0px;stroke-linecap:butt;stroke-linejoin:miter;stroke-opacity:1"/>
<path class="bond-1 atom-1 atom-2" d="M 272.9,244.1 L 329.3,258.0" style="fill:none;fill-rule:evenodd;stroke:#000000;stroke-width:2.0px;stroke-linecap:butt;stroke-linejoin:miter;stroke-opacity:1"/>
<path class="bond-2 atom-2 atom-3" d="M 329.3,258.0 L 336.0,280.8" style="fill:none;fill-rule:evenodd;stroke:#000000;stroke-width:2.0px;stroke-linecap:butt;stroke-linejoin:miter;stroke-opacity:1"/>
<path class="bond-2 atom-2 atom-3" d="M 336.0,280.8 L 342.6,303.6" style="fill:none;fill-rule:evenodd;stroke:#FF0000;stroke-width:2.0px;stroke-linecap:butt;stroke-linejoin:miter;stroke-opacity:1"/>
<path class="bond-3 atom-1 atom-4" d="M 272.9,244.1 L 266.2,221.3" style="fill:none;fill-rule:evenodd;stroke:#000000;stroke-width:2.0px;stroke-linecap:butt;stroke-linejoin:miter;stroke-opacity:1"/>
<path class="bond-3 atom-1 atom-4" d="M 266.2,221.3 L 259.6,198.4" style="fill:none;fill-rule:evenodd;stroke:#0000FF;stroke-width:2.0px;stroke-linecap:butt;stroke-linejoin:miter;stroke-opacity:1"/>
<path class="bond-4 atom-4 atom-5" d="M 264.5,178.1 L 278.4,160.2" style="fill:none;fill-rule:evenodd;stroke:#0000FF;stroke-width:2.0px;stroke-linecap:butt;stroke-linejoin:miter;stroke-opacity:1"/>
<path class="bond-4 atom-4 atom-5" d="M 278.4,160.2 L 292.3,142.3" style="fill:none;fill-rule:evenodd;stroke:#000000;stroke-width:2.0px;stroke-linecap:butt;stroke-linejoin:miter;stroke-opacity:1"/>
<path class="bond-5 atom-5 atom-6" d="M 292.3,142.3 L 350.3,138.0" style="fill:none;fill-rule:evenodd;stroke:#000000;stroke-width:2.0px;stroke-linecap:butt;stroke-linejoin:miter;stroke-opacity:1"/>
<path class="bond-5 atom-5 atom-6" d="M 296.7,133.2 L 344.6,129.7" style="fill:none;fill-rule:evenodd;stroke:#000000;stroke-width:2.0px;stroke-linecap:butt;stroke-linejoin:miter;stroke-opacity:1"/>
<path class="bond-6 atom-6 atom-7" d="M 350.3,138.0 L 360.5,116.9" style="fill:none;fill-rule:evenodd;stroke:#000000;stroke-width:2.0px;stroke-linecap:butt;stroke-linejoin:miter;stroke-opacity:1"/>
<path class="bond-6 atom-6 atom-7" d="M 360.5,116.9 L 370.7,95.8" style="fill:none;fill-rule:evenodd;stroke:#0000FF;stroke-width:2.0px;stroke-linecap:butt;stroke-linejoin:miter;stroke-opacity:1"/>
<path class="bond-7 atom-7 atom-8" d="M 368.7,75.5 L 355.8,56.6" style="fill:none;fill-rule:evenodd;stroke:#0000FF;stroke-width:2.0px;stroke-linecap:butt;stroke-linejoin:miter;stroke-opacity:1"/>
<path class="bond-7 atom-7 atom-8" d="M 355.8,56.6 L 342.9,37.6" style="fill:none;fill-rule:evenodd;stroke:#000000;stroke-width:2.0px;stroke-linecap:butt;stroke-linejoin:miter;stroke-opacity:1"/>
<path class="bond-7 atom-7 atom-8" d="M 361.5,80.4 L 350.0,63.5" style="fill:none;fill-rule:evenodd;stroke:#0000FF;stroke-width:2.0px;stroke-linecap:butt;stroke-linejoin:miter;stroke-opacity:1"/>
<path class="bond-7 atom-7 atom-8" d="M 350.0,63.5 L 338.5,46.7" style="fill:none;fill-rule:evenodd;stroke:#000000;stroke-width:2.0px;stroke-linecap:butt;stroke-linejoin:miter;stroke-opacity:1"/>
<path class="bond-8 atom-8 atom-9" d="M 342.9,37.6 L 284.9,41.9" style="fill:none;fill-rule:evenodd;stroke:#000000;stroke-width:2.0px;stroke-linecap:butt;stroke-linejoin:miter;stroke-opacity:1"/>
<path class="bond-9 atom-9 atom-10" d="M 284.9,41.9 L 259.6,94.2" style="fill:none;fill-rule:evenodd;stroke:#000000;stroke-width:2.0px;stroke-linecap:butt;stroke-linejoin:miter;stroke-opacity:1"/>
<path class="bond-9 atom-9 atom-10" d="M 290.5,50.2 L 269.6,93.5" style="fill:none;fill-rule:evenodd;stroke:#000000;stroke-width:2.0px;stroke-linecap:butt;stroke-linejoin:miter;stroke-opacity:1"/>
<path class="bond-10 atom-10 atom-11" d="M 259.6,94.2 L 203.7,110.5" style="fill:none;fill-rule:evenodd;stroke:#000000;stroke-width:2.0px;stroke-linecap:butt;stroke-linejoin:miter;stroke-opacity:1"/>
<path class="bond-11 atom-11 atom-12" d="M 203.7,110.5 L 154.3,79.8" style="fill:none;fill-rule:evenodd;stroke:#000000;stroke-width:2.0px;stroke-linecap:butt;stroke-linejoin:miter;stroke-opacity:1"/>
<path class="bond-11 atom-11 atom-12" d="M 194.8,115.2 L 154.0,89.9" style="fill:none;fill-rule:evenodd;stroke:#000000;stroke-width:2.0px;stroke-linecap:butt;stroke-linejoin:miter;stroke-opacity:1"/>
<path class="bond-12 atom-12 atom-13" d="M 154.3,79.8 L 132.7,91.4" style="fill:none;fill-rule:evenodd;stroke:#000000;stroke-width:2.0px;stroke-linecap:butt;stroke-linejoin:miter;stroke-opacity:1"/>
<path class="bond-12 atom-12 atom-13" d="M 132.7,91.4 L 111.2,102.9" style="fill:none;fill-rule:evenodd;stroke:#0000FF;stroke-width:2.0px;stroke-linecap:butt;stroke-linejoin:miter;stroke-opacity:1"/>
<path class="bond-13 atom-13 atom-14" d="M 102.7,117.5 L 102.0,141.5" style="fill:none;fill-rule:evenodd;stroke:#0000FF;stroke-width:2.0px;stroke-linecap:butt;stroke-linejoin:miter;stroke-opacity:1"/>
<path class="bond-13 atom-13 atom-14" d="M 102.0,141.5 L 101.2,165.4" style="fill:none;fill-rule:evenodd;stroke:#000000;stroke-width:2.0px;stroke-linecap:butt;stroke-linejoin:miter;stroke-opacity:1"/>
<path class="bond-13 atom-13 atom-14" d="M 111.4,117.7 L 110.8,139.2" style="fill:none;fill-rule:evenodd;stroke:#0000FF;stroke-width:2.0px;stroke-linecap:butt;stroke-linejoin:miter;stroke-opacity:1"/>
<path class="bond-13 atom-13 atom-14" d="M 110.8,139.2 L 110.1,160.7" style="fill:none;fill-rule:evenodd;stroke:#000000;stroke-width:2.0px;stroke-linecap:butt;stroke-linejoin:miter;stroke-opacity:1"/>
<path class="bond-14 atom-14 atom-15" d="M 101.2,165.4 L 79.7,177.0" style="fill:none;fill-rule:evenodd;stroke:#000000;stroke-width:2.0px;stroke-linecap:butt;stroke-linejoin:miter;stroke-opacity:1"/>
<path class="bond-14 atom-14 atom-15" d="M 79.7,177.0 L 58.1,188.6" style="fill:none;fill-rule:evenodd;stroke:#0000FF;stroke-width:2.0px;stroke-linecap:butt;stroke-linejoin:miter;stroke-opacity:1"/>
<path class="bond-15 atom-14 atom-16" d="M 101.2,165.4 L 121.9,178.2" style="fill:none;fill-rule:evenodd;stroke:#000000;stroke-width:2.0px;stroke-linecap:butt;stroke-linejoin:miter;stroke-opacity:1"/>
<path class="bond-15 atom-14 atom-16" d="M 121.9,178.2 L 142.5,191.0" style="fill:none;fill-rule:evenodd;stroke:#0000FF;stroke-width:2.0px;stroke-linecap:butt;stroke-linejoin:miter;stroke-opacity:1"/>
<path class="bond-16 atom-16 atom-17" d="M 158.8,191.7 L 180.4,180.1" style="fill:none;fill-rule:evenodd;stroke:#0000FF;stroke-width:2.0px;stroke-linecap:butt;stroke-linejoin:miter;stroke-opacity:1"/>
<path class="bond-16 atom-16 atom-17" d="M 180.4,180.1 L 201.9,168.6" style="fill:none;fill-rule:evenodd;stroke:#000000;stroke-width:2.0px;stroke-linecap:butt;stroke-linejoin:miter;stroke-opacity:1"/>
<path class="bond-16 atom-16 atom-17" d="M 154.7,184.0 L 174.0,173.6" style="fill:none;fill-rule:evenodd;stroke:#0000FF;stroke-width:2.0px;stroke-linecap:butt;stroke-linejoin:miter;stroke-opacity:1"/>
<path class="bond-16 atom-16 atom-17" d="M 174.0,173.6 L 193.3,163.3" style="fill:none;fill-rule:evenodd;stroke:#000000;stroke-width:2.0px;stroke-linecap:butt;stroke-linejoin:miter;stroke-opacity:1"/>
<path class="bond-17 atom-17 atom-4" d="M 201.9,168.6 L 225.2,177.0" style="fill:none;fill-rule:evenodd;stroke:#000000;stroke-width:2.0px;stroke-linecap:butt;stroke-linejoin:miter;stroke-opacity:1"/>
<path class="bond-17 atom-17 atom-4" d="M 225.2,177.0 L 248.5,185.3" style="fill:none;fill-rule:evenodd;stroke:#0000FF;stroke-width:2.0px;stroke-linecap:butt;stroke-linejoin:miter;stroke-opacity:1"/>
<path class="bond-18 atom-10 atom-5" d="M 259.6,94.2 L 292.3,142.3" style="fill:none;fill-rule:evenodd;stroke:#000000;stroke-width:2.0px;stroke-linecap:butt;stroke-linejoin:miter;stroke-opacity:1"/>
<path class="bond-19 atom-17 atom-11" d="M 201.9,168.6 L 203.7,110.5" style="fill:none;fill-rule:evenodd;stroke:#000000;stroke-width:2.0px;stroke-linecap:butt;stroke-linejoin:miter;stroke-opacity:1"/>
<path d="M 275.7,244.8 L 272.9,244.1 L 272.5,243.0" style="fill:none;stroke:#000000;stroke-width:2.0px;stroke-linecap:butt;stroke-linejoin:miter;stroke-opacity:1;"/>
<path d="M 326.5,257.3 L 329.3,258.0 L 329.7,259.1" style="fill:none;stroke:#000000;stroke-width:2.0px;stroke-linecap:butt;stroke-linejoin:miter;stroke-opacity:1;"/>
<path d="M 347.4,138.3 L 350.3,138.0 L 350.8,137.0" style="fill:none;stroke:#000000;stroke-width:2.0px;stroke-linecap:butt;stroke-linejoin:miter;stroke-opacity:1;"/>
<path d="M 343.5,38.5 L 342.9,37.6 L 340.0,37.8" style="fill:none;stroke:#000000;stroke-width:2.0px;stroke-linecap:butt;stroke-linejoin:miter;stroke-opacity:1;"/>
<path d="M 287.8,41.6 L 284.9,41.9 L 283.6,44.5" style="fill:none;stroke:#000000;stroke-width:2.0px;stroke-linecap:butt;stroke-linejoin:miter;stroke-opacity:1;"/>
<path d="M 156.8,81.4 L 154.3,79.8 L 153.2,80.4" style="fill:none;stroke:#000000;stroke-width:2.0px;stroke-linecap:butt;stroke-linejoin:miter;stroke-opacity:1;"/>
<path class="atom-3" d="M 338.0 313.9 Q 338.0 309.9, 340.0 307.7 Q 341.9 305.5, 345.6 305.5 Q 349.2 305.5, 351.2 307.7 Q 353.1 309.9, 353.1 313.9 Q 353.1 317.9, 351.2 320.2 Q 349.2 322.4, 345.6 322.4 Q 342.0 322.4, 340.0 320.2 Q 338.0 317.9, 338.0 313.9 M 345.6 320.6 Q 348.1 320.6, 349.4 318.9 Q 350.8 317.2, 350.8 313.9 Q 350.8 310.6, 349.4 309.0 Q 348.1 307.4, 345.6 307.4 Q 343.1 307.4, 341.7 309.0 Q 340.4 310.6, 340.4 313.9 Q 340.4 317.2, 341.7 318.9 Q 343.1 320.6, 345.6 320.6 " fill="#FF0000"/>
<path class="atom-3" d="M 355.7 305.7 L 357.9 305.7 L 357.9 312.7 L 366.4 312.7 L 366.4 305.7 L 368.6 305.7 L 368.6 322.2 L 366.4 322.2 L 366.4 314.6 L 357.9 314.6 L 357.9 322.2 L 355.7 322.2 L 355.7 305.7 " fill="#FF0000"/>
<path class="atom-4" d="M 253.0 180.0 L 258.4 188.8 Q 258.9 189.6, 259.8 191.2 Q 260.6 192.7, 260.7 192.8 L 260.7 180.0 L 262.9 180.0 L 262.9 196.5 L 260.6 196.5 L 254.8 187.0 Q 254.2 185.9, 253.4 184.6 Q 252.7 183.3, 252.5 182.9 L 252.5 196.5 L 250.4 196.5 L 250.4 180.0 L 253.0 180.0 " fill="#0000FF"/>
<path class="atom-7" d="M 371.9 77.4 L 377.3 86.2 Q 377.9 87.0, 378.7 88.6 Q 379.6 90.1, 379.6 90.2 L 379.6 77.4 L 381.8 77.4 L 381.8 93.9 L 379.6 93.9 L 373.8 84.4 Q 373.1 83.3, 372.4 82.0 Q 371.7 80.7, 371.5 80.3 L 371.5 93.9 L 369.3 93.9 L 369.3 77.4 L 371.9 77.4 " fill="#0000FF"/>
<path class="atom-13" d="M 99.4 99.1 L 104.8 107.8 Q 105.3 108.7, 106.2 110.2 Q 107.0 111.8, 107.1 111.9 L 107.1 99.1 L 109.3 99.1 L 109.3 115.5 L 107.0 115.5 L 101.2 106.0 Q 100.6 104.9, 99.8 103.6 Q 99.1 102.3, 98.9 101.9 L 98.9 115.5 L 96.8 115.5 L 96.8 99.1 L 99.4 99.1 " fill="#0000FF"/>
<path class="atom-15" d="M 18.2 184.7 L 20.4 184.7 L 20.4 191.7 L 28.8 191.7 L 28.8 184.7 L 31.1 184.7 L 31.1 201.2 L 28.8 201.2 L 28.8 193.6 L 20.4 193.6 L 20.4 201.2 L 18.2 201.2 L 18.2 184.7 " fill="#0000FF"/>
<path class="atom-15" d="M 34.3 200.6 Q 34.7 199.6, 35.6 199.0 Q 36.6 198.4, 37.9 198.4 Q 39.6 198.4, 40.5 199.3 Q 41.4 200.2, 41.4 201.8 Q 41.4 203.4, 40.2 204.9 Q 39.0 206.4, 36.6 208.2 L 41.6 208.2 L 41.6 209.4 L 34.3 209.4 L 34.3 208.4 Q 36.3 206.9, 37.5 205.9 Q 38.7 204.8, 39.3 203.8 Q 39.9 202.9, 39.9 201.9 Q 39.9 200.8, 39.3 200.2 Q 38.8 199.6, 37.9 199.6 Q 37.0 199.6, 36.5 200.0 Q 35.9 200.3, 35.5 201.1 L 34.3 200.6 " fill="#0000FF"/>
<path class="atom-15" d="M 46.3 184.7 L 51.7 193.4 Q 52.3 194.3, 53.1 195.8 Q 54.0 197.4, 54.0 197.5 L 54.0 184.7 L 56.2 184.7 L 56.2 201.2 L 54.0 201.2 L 48.2 191.6 Q 47.5 190.5, 46.8 189.2 Q 46.1 188.0, 45.9 187.6 L 45.9 201.2 L 43.7 201.2 L 43.7 184.7 L 46.3 184.7 " fill="#0000FF"/>
<path class="atom-16" d="M 147.0 187.8 L 152.4 196.6 Q 152.9 197.4, 153.8 199.0 Q 154.7 200.5, 154.7 200.6 L 154.7 187.8 L 156.9 187.8 L 156.9 204.3 L 154.6 204.3 L 148.9 194.8 Q 148.2 193.7, 147.5 192.4 Q 146.8 191.1, 146.5 190.7 L 146.5 204.3 L 144.4 204.3 L 144.4 187.8 L 147.0 187.8 " fill="#0000FF"/>
<path class="legend" d="M 178.2 381.5 Q 179.5 381.5, 180.2 382.2 Q 180.9 383.0, 180.9 384.4 L 180.9 389.8 L 179.4 389.8 L 179.4 384.5 Q 179.4 383.5, 179.0 383.1 Q 178.7 382.7, 177.8 382.7 Q 177.1 382.7, 176.5 383.0 Q 175.8 383.3, 175.4 384.0 L 175.4 389.8 L 173.9 389.8 L 173.9 381.6 L 175.2 381.6 L 175.3 382.8 Q 176.4 381.5, 178.2 381.5 " fill="#000000"/>
<path class="legend" d="M 189.9 381.6 L 189.9 389.8 L 188.6 389.8 L 188.5 388.7 Q 187.4 390.0, 185.7 390.0 Q 184.3 390.0, 183.6 389.2 Q 182.9 388.5, 182.9 387.1 L 182.9 381.6 L 184.4 381.6 L 184.4 386.9 Q 184.4 387.9, 184.7 388.4 Q 185.1 388.8, 186.0 388.8 Q 186.7 388.8, 187.3 388.5 Q 188.0 388.1, 188.4 387.5 L 188.4 381.6 L 189.9 381.6 " fill="#000000"/>
<path class="legend" d="M 191.9 385.7 Q 191.9 383.7, 192.9 382.6 Q 193.9 381.5, 195.8 381.5 Q 197.7 381.5, 198.7 382.8 L 197.7 383.6 Q 197.3 383.1, 196.9 382.9 Q 196.4 382.7, 195.8 382.7 Q 194.7 382.7, 194.1 383.4 Q 193.4 384.2, 193.4 385.7 Q 193.4 387.2, 194.1 388.0 Q 194.7 388.8, 195.9 388.8 Q 196.6 388.8, 197.1 388.6 Q 197.5 388.5, 198.1 388.2 L 198.5 389.2 Q 197.3 389.9, 195.8 389.9 Q 193.9 389.9, 192.9 388.8 Q 191.9 387.7, 191.9 385.7 " fill="#000000"/>
<path class="legend" d="M 205.2 383.9 Q 206.3 384.2, 206.9 384.9 Q 207.4 385.6, 207.4 386.7 Q 207.4 387.7, 206.9 388.4 Q 206.5 389.2, 205.6 389.6 Q 204.7 390.0, 203.5 390.0 Q 202.3 390.0, 201.4 389.6 Q 200.5 389.2, 199.8 388.3 L 200.7 387.4 Q 201.4 388.1, 202.0 388.4 Q 202.6 388.7, 203.5 388.7 Q 204.6 388.7, 205.2 388.2 Q 205.8 387.6, 205.8 386.7 Q 205.8 385.6, 205.2 385.1 Q 204.5 384.5, 203.1 384.5 L 202.3 384.5 L 202.3 383.4 L 203.0 383.4 Q 204.3 383.4, 204.9 382.8 Q 205.6 382.3, 205.6 381.3 Q 205.6 380.5, 205.0 380.1 Q 204.5 379.7, 203.6 379.7 Q 202.6 379.7, 202.0 380.0 Q 201.5 380.3, 201.0 381.2 L 199.9 380.6 Q 200.3 379.6, 201.3 379.0 Q 202.2 378.4, 203.6 378.4 Q 205.2 378.4, 206.2 379.2 Q 207.2 380.0, 207.2 381.3 Q 207.2 382.2, 206.7 382.8 Q 206.2 383.5, 205.2 383.9 " fill="#000000"/>
<path class="legend" d="M 209.1 380.7 Q 209.5 379.6, 210.5 379.0 Q 211.5 378.4, 212.9 378.4 Q 214.6 378.4, 215.6 379.3 Q 216.5 380.2, 216.5 381.9 Q 216.5 383.6, 215.3 385.1 Q 214.1 386.7, 211.5 388.6 L 216.7 388.6 L 216.7 389.8 L 209.1 389.8 L 209.1 388.8 Q 211.2 387.3, 212.5 386.1 Q 213.7 385.0, 214.3 384.0 Q 214.9 383.0, 214.9 382.0 Q 214.9 380.9, 214.4 380.3 Q 213.8 379.7, 212.9 379.7 Q 212.0 379.7, 211.4 380.0 Q 210.8 380.4, 210.3 381.2 L 209.1 380.7 " fill="#000000"/>
<path class="legend" d="M 222.5 382.8 Q 223.5 382.8, 224.3 383.2 Q 225.1 383.6, 225.6 384.4 Q 226.1 385.2, 226.1 386.3 Q 226.1 387.4, 225.5 388.3 Q 224.9 389.1, 224.0 389.5 Q 223.1 390.0, 222.0 390.0 Q 221.0 390.0, 220.0 389.6 Q 219.1 389.2, 218.4 388.5 L 219.4 387.5 Q 219.9 388.0, 220.6 388.4 Q 221.3 388.7, 222.1 388.7 Q 223.1 388.7, 223.8 388.0 Q 224.5 387.4, 224.5 386.3 Q 224.5 385.1, 223.8 384.5 Q 223.1 384.0, 222.0 384.0 Q 221.0 384.0, 219.9 384.4 L 219.0 384.0 L 219.5 378.5 L 225.4 378.5 L 225.2 379.8 L 220.9 379.8 L 220.5 383.2 Q 221.5 382.8, 222.5 382.8 " fill="#000000"/>
<path class="bond-0 atom-0 atom-1" d="M 472.6,100.2 L 488.3,117.2" style="fill:none;fill-rule:evenodd;stroke:#0000FF;stroke-width:2.0px;stroke-linecap:butt;stroke-linejoin:miter;stroke-opacity:1"/>
<path class="bond-0 atom-0 atom-1" d="M 488.3,117.2 L 503.9,134.1" style="fill:none;fill-rule:evenodd;stroke:#000000;stroke-width:2.0px;stroke-linecap:butt;stroke-linejoin:miter;stroke-opacity:1"/>
<path class="bond-1 atom-1 atom-2" d="M 503.9,134.1 L 496.9,156.8" style="fill:none;fill-rule:evenodd;stroke:#000000;stroke-width:2.0px;stroke-linecap:butt;stroke-linejoin:miter;stroke-opacity:1"/>
<path class="bond-1 atom-1 atom-2" d="M 496.9,156.8 L 489.8,179.5" style="fill:none;fill-rule:evenodd;stroke:#0000FF;stroke-width:2.0px;stroke-linecap:butt;stroke-linejoin:miter;stroke-opacity:1"/>
<path class="bond-1 atom-1 atom-2" d="M 510.8,141.5 L 504.4,161.8" style="fill:none;fill-rule:evenodd;stroke:#000000;stroke-width:2.0px;stroke-linecap:butt;stroke-linejoin:miter;stroke-opacity:1"/>
<path class="bond-1 atom-1 atom-2" d="M 504.4,161.8 L 498.1,182.1" style="fill:none;fill-rule:evenodd;stroke:#0000FF;stroke-width:2.0px;stroke-linecap:butt;stroke-linejoin:miter;stroke-opacity:1"/>
<path class="bond-2 atom-2 atom-3" d="M 494.8,198.5 L 510.4,215.4" style="fill:none;fill-rule:evenodd;stroke:#0000FF;stroke-width:2.0px;stroke-linecap:butt;stroke-linejoin:miter;stroke-opacity:1"/>
<path class="bond-2 atom-2 atom-3" d="M 510.4,215.4 L 526.1,232.4" style="fill:none;fill-rule:evenodd;stroke:#000000;stroke-width:2.0px;stroke-linecap:butt;stroke-linejoin:miter;stroke-opacity:1"/>
<path class="bond-3 atom-3 atom-4" d="M 526.1,232.4 L 582.8,219.6" style="fill:none;fill-rule:evenodd;stroke:#000000;stroke-width:2.0px;stroke-linecap:butt;stroke-linejoin:miter;stroke-opacity:1"/>
<path class="bond-3 atom-3 atom-4" d="M 529.1,222.8 L 576.0,212.2" style="fill:none;fill-rule:evenodd;stroke:#000000;stroke-width:2.0px;stroke-linecap:butt;stroke-linejoin:miter;stroke-opacity:1"/>
<path class="bond-4 atom-4 atom-5" d="M 582.8,219.6 L 630.3,253.2" style="fill:none;fill-rule:evenodd;stroke:#000000;stroke-width:2.0px;stroke-linecap:butt;stroke-linejoin:miter;stroke-opacity:1"/>
<path class="bond-5 atom-5 atom-6" d="M 630.3,253.2 L 637.0,311.0" style="fill:none;fill-rule:evenodd;stroke:#000000;stroke-width:2.0px;stroke-linecap:butt;stroke-linejoin:miter;stroke-opacity:1"/>
<path class="bond-5 atom-5 atom-6" d="M 639.5,257.2 L 645.1,304.9" style="fill:none;fill-rule:evenodd;stroke:#000000;stroke-width:2.0px;stroke-linecap:butt;stroke-linejoin:miter;stroke-opacity:1"/>
<path class="bond-6 atom-6 atom-7" d="M 637.0,311.0 L 690.5,334.0" style="fill:none;fill-rule:evenodd;stroke:#000000;stroke-width:2.0px;stroke-linecap:butt;stroke-linejoin:miter;stroke-opacity:1"/>
<path class="bond-7 atom-7 atom-8" d="M 690.5,334.0 L 709.7,319.6" style="fill:none;fill-rule:evenodd;stroke:#000000;stroke-width:2.0px;stroke-linecap:butt;stroke-linejoin:miter;stroke-opacity:1"/>
<path class="bond-7 atom-7 atom-8" d="M 709.7,319.6 L 728.9,305.3" style="fill:none;fill-rule:evenodd;stroke:#0000FF;stroke-width:2.0px;stroke-linecap:butt;stroke-linejoin:miter;stroke-opacity:1"/>
<path class="bond-7 atom-7 atom-8" d="M 689.3,324.0 L 706.5,311.1" style="fill:none;fill-rule:evenodd;stroke:#000000;stroke-width:2.0px;stroke-linecap:butt;stroke-linejoin:miter;stroke-opacity:1"/>
<path class="bond-7 atom-7 atom-8" d="M 706.5,311.1 L 723.7,298.3" style="fill:none;fill-rule:evenodd;stroke:#0000FF;stroke-width:2.0px;stroke-linecap:butt;stroke-linejoin:miter;stroke-opacity:1"/>
<path class="bond-8 atom-8 atom-9" d="M 735.9,289.1 L 731.5,251.6" style="fill:none;fill-rule:evenodd;stroke:#0000FF;stroke-width:2.0px;stroke-linecap:butt;stroke-linejoin:miter;stroke-opacity:1"/>
<path class="bond-9 atom-9 atom-10" d="M 722.1,237.9 L 699.5,228.2" style="fill:none;fill-rule:evenodd;stroke:#0000FF;stroke-width:2.0px;stroke-linecap:butt;stroke-linejoin:miter;stroke-opacity:1"/>
<path class="bond-9 atom-9 atom-10" d="M 699.5,228.2 L 676.9,218.4" style="fill:none;fill-rule:evenodd;stroke:#000000;stroke-width:2.0px;stroke-linecap:butt;stroke-linejoin:miter;stroke-opacity:1"/>
<path class="bond-9 atom-9 atom-10" d="M 718.7,245.9 L 698.4,237.2" style="fill:none;fill-rule:evenodd;stroke:#0000FF;stroke-width:2.0px;stroke-linecap:butt;stroke-linejoin:miter;stroke-opacity:1"/>
<path class="bond-9 atom-9 atom-10" d="M 698.4,237.2 L 678.1,228.4" style="fill:none;fill-rule:evenodd;stroke:#000000;stroke-width:2.0px;stroke-linecap:butt;stroke-linejoin:miter;stroke-opacity:1"/>
<path class="bond-10 atom-10 atom-11" d="M 676.9,218.4 L 669.3,196.0" style="fill:none;fill-rule:evenodd;stroke:#000000;stroke-width:2.0px;stroke-linecap:butt;stroke-linejoin:miter;stroke-opacity:1"/>
<path class="bond-10 atom-10 atom-11" d="M 669.3,196.0 L 661.7,173.5" style="fill:none;fill-rule:evenodd;stroke:#0000FF;stroke-width:2.0px;stroke-linecap:butt;stroke-linejoin:miter;stroke-opacity:1"/>
<path class="bond-11 atom-11 atom-12" d="M 665.4,153.2 L 678.6,134.5" style="fill:none;fill-rule:evenodd;stroke:#0000FF;stroke-width:2.0px;stroke-linecap:butt;stroke-linejoin:miter;stroke-opacity:1"/>
<path class="bond-11 atom-11 atom-12" d="M 678.6,134.5 L 691.9,115.9" style="fill:none;fill-rule:evenodd;stroke:#000000;stroke-width:2.0px;stroke-linecap:butt;stroke-linejoin:miter;stroke-opacity:1"/>
<path class="bond-12 atom-12 atom-13" d="M 691.9,115.9 L 673.2,60.8" style="fill:none;fill-rule:evenodd;stroke:#000000;stroke-width:2.0px;stroke-linecap:butt;stroke-linejoin:miter;stroke-opacity:1"/>
<path class="bond-13 atom-13 atom-14" d="M 673.2,60.8 L 719.8,26.0" style="fill:none;fill-rule:evenodd;stroke:#000000;stroke-width:2.0px;stroke-linecap:butt;stroke-linejoin:miter;stroke-opacity:1"/>
<path class="bond-14 atom-14 atom-15" d="M 719.8,26.0 L 767.3,59.6" style="fill:none;fill-rule:evenodd;stroke:#000000;stroke-width:2.0px;stroke-linecap:butt;stroke-linejoin:miter;stroke-opacity:1"/>
<path class="bond-15 atom-15 atom-16" d="M 767.3,59.6 L 750.0,115.2" style="fill:none;fill-rule:evenodd;stroke:#000000;stroke-width:2.0px;stroke-linecap:butt;stroke-linejoin:miter;stroke-opacity:1"/>
<path class="bond-16 atom-11 atom-17" d="M 650.1,163.4 L 625.1,163.8" style="fill:none;fill-rule:evenodd;stroke:#0000FF;stroke-width:2.0px;stroke-linecap:butt;stroke-linejoin:miter;stroke-opacity:1"/>
<path class="bond-16 atom-11 atom-17" d="M 625.1,163.8 L 600.1,164.1" style="fill:none;fill-rule:evenodd;stroke:#000000;stroke-width:2.0px;stroke-linecap:butt;stroke-linejoin:miter;stroke-opacity:1"/>
<path class="bond-17 atom-17 atom-18" d="M 600.1,164.1 L 584.5,147.1" style="fill:none;fill-rule:evenodd;stroke:#000000;stroke-width:2.0px;stroke-linecap:butt;stroke-linejoin:miter;stroke-opacity:1"/>
<path class="bond-17 atom-17 atom-18" d="M 584.5,147.1 L 568.8,130.2" style="fill:none;fill-rule:evenodd;stroke:#0000FF;stroke-width:2.0px;stroke-linecap:butt;stroke-linejoin:miter;stroke-opacity:1"/>
<path class="bond-17 atom-17 atom-18" d="M 590.3,166.3 L 576.3,151.2" style="fill:none;fill-rule:evenodd;stroke:#000000;stroke-width:2.0px;stroke-linecap:butt;stroke-linejoin:miter;stroke-opacity:1"/>
<path class="bond-17 atom-17 atom-18" d="M 576.3,151.2 L 562.4,136.1" style="fill:none;fill-rule:evenodd;stroke:#0000FF;stroke-width:2.0px;stroke-linecap:butt;stroke-linejoin:miter;stroke-opacity:1"/>
<path class="bond-18 atom-18 atom-1" d="M 552.5,123.2 L 528.2,128.6" style="fill:none;fill-rule:evenodd;stroke:#0000FF;stroke-width:2.0px;stroke-linecap:butt;stroke-linejoin:miter;stroke-opacity:1"/>
<path class="bond-18 atom-18 atom-1" d="M 528.2,128.6 L 503.9,134.1" style="fill:none;fill-rule:evenodd;stroke:#000000;stroke-width:2.0px;stroke-linecap:butt;stroke-linejoin:miter;stroke-opacity:1"/>
<path class="bond-19 atom-17 atom-4" d="M 600.1,164.1 L 582.8,219.6" style="fill:none;fill-rule:evenodd;stroke:#000000;stroke-width:2.0px;stroke-linecap:butt;stroke-linejoin:miter;stroke-opacity:1"/>
<path class="bond-20 atom-10 atom-5" d="M 676.9,218.4 L 630.3,253.2" style="fill:none;fill-rule:evenodd;stroke:#000000;stroke-width:2.0px;stroke-linecap:butt;stroke-linejoin:miter;stroke-opacity:1"/>
<path class="bond-21 atom-16 atom-12" d="M 750.0,115.2 L 691.9,115.9" style="fill:none;fill-rule:evenodd;stroke:#000000;stroke-width:2.0px;stroke-linecap:butt;stroke-linejoin:miter;stroke-opacity:1"/>
<path d="M 525.3,231.5 L 526.1,232.4 L 528.9,231.7" style="fill:none;stroke:#000000;stroke-width:2.0px;stroke-linecap:butt;stroke-linejoin:miter;stroke-opacity:1;"/>
<path d="M 636.7,308.1 L 637.0,311.0 L 639.7,312.1" style="fill:none;stroke:#000000;stroke-width:2.0px;stroke-linecap:butt;stroke-linejoin:miter;stroke-opacity:1;"/>
<path d="M 687.8,332.8 L 690.5,334.0 L 691.4,333.2" style="fill:none;stroke:#000000;stroke-width:2.0px;stroke-linecap:butt;stroke-linejoin:miter;stroke-opacity:1;"/>
<path d="M 674.1,63.5 L 673.2,60.8 L 675.5,59.1" style="fill:none;stroke:#000000;stroke-width:2.0px;stroke-linecap:butt;stroke-linejoin:miter;stroke-opacity:1;"/>
<path d="M 717.5,27.8 L 719.8,26.0 L 722.2,27.7" style="fill:none;stroke:#000000;stroke-width:2.0px;stroke-linecap:butt;stroke-linejoin:miter;stroke-opacity:1;"/>
<path d="M 764.9,58.0 L 767.3,59.6 L 766.4,62.4" style="fill:none;stroke:#000000;stroke-width:2.0px;stroke-linecap:butt;stroke-linejoin:miter;stroke-opacity:1;"/>
<path d="M 750.9,112.4 L 750.0,115.2 L 747.1,115.2" style="fill:none;stroke:#000000;stroke-width:2.0px;stroke-linecap:butt;stroke-linejoin:miter;stroke-opacity:1;"/>
<path class="atom-0" d="M 432.7 83.1 L 434.9 83.1 L 434.9 90.1 L 443.3 90.1 L 443.3 83.1 L 445.6 83.1 L 445.6 99.6 L 443.3 99.6 L 443.3 92.0 L 434.9 92.0 L 434.9 99.6 L 432.7 99.6 L 432.7 83.1 " fill="#0000FF"/>
<path class="atom-0" d="M 448.8 99.0 Q 449.2 98.0, 450.2 97.4 Q 451.1 96.8, 452.4 96.8 Q 454.1 96.8, 455.0 97.7 Q 455.9 98.6, 455.9 100.2 Q 455.9 101.8, 454.7 103.3 Q 453.5 104.8, 451.1 106.6 L 456.1 106.6 L 456.1 107.8 L 448.8 107.8 L 448.8 106.8 Q 450.8 105.4, 452.0 104.3 Q 453.2 103.2, 453.8 102.2 Q 454.4 101.3, 454.4 100.3 Q 454.4 99.2, 453.9 98.6 Q 453.3 98.1, 452.4 98.1 Q 451.6 98.1, 451.0 98.4 Q 450.4 98.8, 450.0 99.6 L 448.8 99.0 " fill="#0000FF"/>
<path class="atom-0" d="M 460.8 83.1 L 466.2 91.8 Q 466.8 92.7, 467.6 94.3 Q 468.5 95.8, 468.5 95.9 L 468.5 83.1 L 470.7 83.1 L 470.7 99.6 L 468.5 99.6 L 462.7 90.1 Q 462.0 88.9, 461.3 87.7 Q 460.6 86.4, 460.4 86.0 L 460.4 99.6 L 458.2 99.6 L 458.2 83.1 L 460.8 83.1 " fill="#0000FF"/>
<path class="atom-2" d="M 483.0 181.4 L 488.4 190.1 Q 488.9 191.0, 489.8 192.5 Q 490.6 194.1, 490.7 194.2 L 490.7 181.4 L 492.9 181.4 L 492.9 197.9 L 490.6 197.9 L 484.8 188.3 Q 484.1 187.2, 483.4 185.9 Q 482.7 184.6, 482.5 184.3 L 482.5 197.9 L 480.4 197.9 L 480.4 181.4 L 483.0 181.4 " fill="#0000FF"/>
<path class="atom-8" d="M 733.5 291.0 L 738.9 299.7 Q 739.4 300.6, 740.2 302.1 Q 741.1 303.7, 741.2 303.8 L 741.2 291.0 L 743.3 291.0 L 743.3 307.4 L 741.1 307.4 L 735.3 297.9 Q 734.6 296.8, 733.9 295.5 Q 733.2 294.2, 733.0 293.8 L 733.0 307.4 L 730.8 307.4 L 730.8 291.0 L 733.5 291.0 " fill="#0000FF"/>
<path class="atom-9" d="M 726.7 233.2 L 732.1 241.9 Q 732.6 242.8, 733.5 244.4 Q 734.3 245.9, 734.4 246.0 L 734.4 233.2 L 736.6 233.2 L 736.6 249.7 L 734.3 249.7 L 728.5 240.1 Q 727.8 239.0, 727.1 237.7 Q 726.4 236.5, 726.2 236.1 L 726.2 249.7 L 724.1 249.7 L 724.1 233.2 L 726.7 233.2 " fill="#0000FF"/>
<path class="atom-11" d="M 654.6 155.1 L 660.0 163.8 Q 660.5 164.7, 661.4 166.3 Q 662.3 167.8, 662.3 167.9 L 662.3 155.1 L 664.5 155.1 L 664.5 171.6 L 662.2 171.6 L 656.4 162.0 Q 655.8 160.9, 655.1 159.6 Q 654.4 158.4, 654.1 158.0 L 654.1 171.6 L 652.0 171.6 L 652.0 155.1 L 654.6 155.1 " fill="#0000FF"/>
<path class="atom-18" d="M 557.0 113.1 L 562.4 121.8 Q 562.9 122.7, 563.8 124.2 Q 564.7 125.8, 564.7 125.9 L 564.7 113.1 L 566.9 113.1 L 566.9 129.6 L 564.6 129.6 L 558.9 120.0 Q 558.2 118.9, 557.5 117.6 Q 556.8 116.3, 556.5 115.9 L 556.5 129.6 L 554.4 129.6 L 554.4 113.1 L 557.0 113.1 " fill="#0000FF"/>
<path class="legend" d="M 578.1 381.5 Q 579.4 381.5, 580.1 382.2 Q 580.8 383.0, 580.8 384.4 L 580.8 389.8 L 579.3 389.8 L 579.3 384.5 Q 579.3 383.5, 578.9 383.1 Q 578.6 382.7, 577.7 382.7 Q 577.0 382.7, 576.4 383.0 Q 575.7 383.3, 575.3 384.0 L 575.3 389.8 L 573.8 389.8 L 573.8 381.6 L 575.1 381.6 L 575.2 382.8 Q 576.3 381.5, 578.1 381.5 " fill="#000000"/>
<path class="legend" d="M 589.8 381.6 L 589.8 389.8 L 588.6 389.8 L 588.4 388.7 Q 587.3 390.0, 585.6 390.0 Q 584.2 390.0, 583.5 389.2 Q 582.8 388.5, 582.8 387.1 L 582.8 381.6 L 584.3 381.6 L 584.3 386.9 Q 584.3 387.9, 584.7 388.4 Q 585.0 388.8, 585.9 388.8 Q 586.6 388.8, 587.3 388.5 Q 587.9 388.1, 588.3 387.5 L 588.3 381.6 L 589.8 381.6 " fill="#000000"/>
<path class="legend" d="M 591.8 385.7 Q 591.8 383.7, 592.8 382.6 Q 593.8 381.5, 595.8 381.5 Q 597.6 381.5, 598.6 382.8 L 597.6 383.6 Q 597.2 383.1, 596.8 382.9 Q 596.3 382.7, 595.8 382.7 Q 594.6 382.7, 594.0 383.4 Q 593.4 384.2, 593.4 385.7 Q 593.4 387.2, 594.0 388.0 Q 594.7 388.8, 595.9 388.8 Q 596.5 388.8, 597.0 388.6 Q 597.5 388.5, 598.0 388.2 L 598.5 389.2 Q 597.3 389.9, 595.7 389.9 Q 593.8 389.9, 592.8 388.8 Q 591.8 387.7, 591.8 385.7 " fill="#000000"/>
<path class="legend" d="M 605.2 383.9 Q 606.3 384.2, 606.8 384.9 Q 607.3 385.6, 607.3 386.7 Q 607.3 387.7, 606.9 388.4 Q 606.4 389.2, 605.5 389.6 Q 604.6 390.0, 603.5 390.0 Q 602.3 390.0, 601.3 389.6 Q 600.4 389.2, 599.7 388.3 L 600.6 387.4 Q 601.3 388.1, 601.9 388.4 Q 602.5 388.7, 603.5 388.7 Q 604.5 388.7, 605.1 388.2 Q 605.7 387.6, 605.7 386.7 Q 605.7 385.6, 605.1 385.1 Q 604.4 384.5, 603.1 384.5 L 602.2 384.5 L 602.2 383.4 L 603.0 383.4 Q 604.2 383.4, 604.8 382.8 Q 605.5 382.3, 605.5 381.3 Q 605.5 380.5, 605.0 380.1 Q 604.4 379.7, 603.5 379.7 Q 602.5 379.7, 601.9 380.0 Q 601.4 380.3, 600.9 381.2 L 599.8 380.6 Q 600.2 379.6, 601.2 379.0 Q 602.1 378.4, 603.5 378.4 Q 605.1 378.4, 606.1 379.2 Q 607.1 380.0, 607.1 381.3 Q 607.1 382.2, 606.6 382.8 Q 606.1 383.5, 605.2 383.9 " fill="#000000"/>
<path class="legend" d="M 614.5 383.9 Q 615.6 384.2, 616.1 384.9 Q 616.6 385.6, 616.6 386.7 Q 616.6 387.7, 616.2 388.4 Q 615.7 389.2, 614.8 389.6 Q 613.9 390.0, 612.8 390.0 Q 611.5 390.0, 610.6 389.6 Q 609.7 389.2, 609.0 388.3 L 609.9 387.4 Q 610.6 388.1, 611.2 388.4 Q 611.8 388.7, 612.8 388.7 Q 613.8 388.7, 614.4 388.2 Q 615.0 387.6, 615.0 386.7 Q 615.0 385.6, 614.4 385.1 Q 613.7 384.5, 612.3 384.5 L 611.5 384.5 L 611.5 383.4 L 612.2 383.4 Q 613.5 383.4, 614.1 382.8 Q 614.8 382.3, 614.8 381.3 Q 614.8 380.5, 614.2 380.1 Q 613.7 379.7, 612.8 379.7 Q 611.8 379.7, 611.2 380.0 Q 610.7 380.3, 610.2 381.2 L 609.1 380.6 Q 609.5 379.6, 610.5 379.0 Q 611.4 378.4, 612.8 378.4 Q 614.4 378.4, 615.4 379.2 Q 616.4 380.0, 616.4 381.3 Q 616.4 382.2, 615.9 382.8 Q 615.4 383.5, 614.5 383.9 " fill="#000000"/>
<path class="legend" d="M 622.7 382.8 Q 623.7 382.8, 624.5 383.2 Q 625.3 383.6, 625.7 384.4 Q 626.2 385.2, 626.2 386.2 Q 626.2 387.3, 625.7 388.2 Q 625.2 389.0, 624.3 389.5 Q 623.5 390.0, 622.4 390.0 Q 620.3 390.0, 619.3 388.6 Q 618.3 387.2, 618.3 384.5 Q 618.3 381.5, 619.6 380.0 Q 620.8 378.4, 623.2 378.4 Q 623.9 378.4, 624.5 378.5 Q 625.1 378.7, 625.7 379.0 L 625.1 380.1 Q 624.3 379.7, 623.3 379.7 Q 621.7 379.7, 620.8 380.7 Q 620.0 381.7, 619.9 383.9 Q 620.5 383.3, 621.2 383.1 Q 622.0 382.8, 622.7 382.8 M 622.4 388.7 Q 623.0 388.7, 623.5 388.3 Q 624.0 388.0, 624.3 387.5 Q 624.6 386.9, 624.6 386.2 Q 624.6 385.2, 624.0 384.6 Q 623.4 384.0, 622.5 384.0 Q 621.8 384.0, 621.1 384.3 Q 620.4 384.6, 619.9 385.1 Q 620.0 387.0, 620.6 387.8 Q 621.2 388.7, 622.4 388.7 " fill="#000000"/>
</svg>