<svg xmlns="http://www.w3.org/2000/svg" xmlns:rdkit="http://www.rdkit.org/xml" xmlns:xlink="http://www.w3.org/1999/xlink" version="1.1" baseProfile="full" xml:space="preserve" width="2000px" height="400px" viewBox="0 0 2000 400">
<!-- END OF HEADER -->
<rect style="opacity:1.0;fill:#FFFFFF;stroke:none" width="2000.0" height="400.0" x="0.0" y="0.0"> </rect>
<path class="bond-0 atom-0 atom-1" d="M 36.8,161.2 L 46.6,189.7" style="fill:none;fill-rule:evenodd;stroke:#000000;stroke-width:2.0px;stroke-linecap:butt;stroke-linejoin:miter;stroke-opacity:1"/>
<path class="bond-1 atom-1 atom-2" d="M 46.6,189.7 L 56.4,218.1" style="fill:none;fill-rule:evenodd;stroke:#000000;stroke-width:2.0px;stroke-linecap:butt;stroke-linejoin:miter;stroke-opacity:1"/>
<path class="bond-2 atom-1 atom-3" d="M 46.6,189.7 L 18.2,199.5" style="fill:none;fill-rule:evenodd;stroke:#000000;stroke-width:2.0px;stroke-linecap:butt;stroke-linejoin:miter;stroke-opacity:1"/>
<path class="bond-3 atom-1 atom-4" d="M 46.6,189.7 L 58.4,185.6" style="fill:none;fill-rule:evenodd;stroke:#000000;stroke-width:2.0px;stroke-linecap:butt;stroke-linejoin:miter;stroke-opacity:1"/>
<path class="bond-3 atom-1 atom-4" d="M 58.4,185.6 L 70.1,181.5" style="fill:none;fill-rule:evenodd;stroke:#FF0000;stroke-width:2.0px;stroke-linecap:butt;stroke-linejoin:miter;stroke-opacity:1"/>
<path class="bond-4 atom-4 atom-5" d="M 79.9,184.1 L 88.8,191.8" style="fill:none;fill-rule:evenodd;stroke:#FF0000;stroke-width:2.0px;stroke-linecap:butt;stroke-linejoin:miter;stroke-opacity:1"/>
<path class="bond-4 atom-4 atom-5" d="M 88.8,191.8 L 97.7,199.5" style="fill:none;fill-rule:evenodd;stroke:#000000;stroke-width:2.0px;stroke-linecap:butt;stroke-linejoin:miter;stroke-opacity:1"/>
<path class="bond-5 atom-5 atom-6" d="M 95.8,197.8 L 93.3,210.6" style="fill:none;fill-rule:evenodd;stroke:#000000;stroke-width:2.0px;stroke-linecap:butt;stroke-linejoin:miter;stroke-opacity:1"/>
<path class="bond-5 atom-5 atom-6" d="M 93.3,210.6 L 90.8,223.3" style="fill:none;fill-rule:evenodd;stroke:#FF0000;stroke-width:2.0px;stroke-linecap:butt;stroke-linejoin:miter;stroke-opacity:1"/>
<path class="bond-5 atom-5 atom-6" d="M 100.2,198.7 L 97.7,211.4" style="fill:none;fill-rule:evenodd;stroke:#000000;stroke-width:2.0px;stroke-linecap:butt;stroke-linejoin:miter;stroke-opacity:1"/>
<path class="bond-5 atom-5 atom-6" d="M 97.7,211.4 L 95.3,224.2" style="fill:none;fill-rule:evenodd;stroke:#FF0000;stroke-width:2.0px;stroke-linecap:butt;stroke-linejoin:miter;stroke-opacity:1"/>
<path class="bond-6 atom-5 atom-7" d="M 97.7,199.5 L 109.8,195.4" style="fill:none;fill-rule:evenodd;stroke:#000000;stroke-width:2.0px;stroke-linecap:butt;stroke-linejoin:miter;stroke-opacity:1"/>
<path class="bond-6 atom-5 atom-7" d="M 109.8,195.4 L 121.9,191.2" style="fill:none;fill-rule:evenodd;stroke:#0000FF;stroke-width:2.0px;stroke-linecap:butt;stroke-linejoin:miter;stroke-opacity:1"/>
<path class="bond-7 atom-7 atom-8" d="M 127.2,184.5 L 129.5,172.3" style="fill:none;fill-rule:evenodd;stroke:#0000FF;stroke-width:2.0px;stroke-linecap:butt;stroke-linejoin:miter;stroke-opacity:1"/>
<path class="bond-7 atom-7 atom-8" d="M 129.5,172.3 L 131.9,160.2" style="fill:none;fill-rule:evenodd;stroke:#000000;stroke-width:2.0px;stroke-linecap:butt;stroke-linejoin:miter;stroke-opacity:1"/>
<path class="bond-8 atom-8 atom-9" d="M 131.9,160.2 L 160.3,150.4" style="fill:none;fill-rule:evenodd;stroke:#000000;stroke-width:2.0px;stroke-linecap:butt;stroke-linejoin:miter;stroke-opacity:1"/>
<path class="bond-9 atom-9 atom-10" d="M 160.3,150.4 L 169.5,158.4" style="fill:none;fill-rule:evenodd;stroke:#000000;stroke-width:2.0px;stroke-linecap:butt;stroke-linejoin:miter;stroke-opacity:1"/>
<path class="bond-9 atom-9 atom-10" d="M 169.5,158.4 L 178.8,166.4" style="fill:none;fill-rule:evenodd;stroke:#0000FF;stroke-width:2.0px;stroke-linecap:butt;stroke-linejoin:miter;stroke-opacity:1"/>
<path class="bond-10 atom-10 atom-11" d="M 187.2,168.6 L 199.3,164.4" style="fill:none;fill-rule:evenodd;stroke:#0000FF;stroke-width:2.0px;stroke-linecap:butt;stroke-linejoin:miter;stroke-opacity:1"/>
<path class="bond-10 atom-10 atom-11" d="M 199.3,164.4 L 211.4,160.3" style="fill:none;fill-rule:evenodd;stroke:#000000;stroke-width:2.0px;stroke-linecap:butt;stroke-linejoin:miter;stroke-opacity:1"/>
<path class="bond-11 atom-11 atom-12" d="M 211.4,160.3 L 234.2,180.0" style="fill:none;fill-rule:evenodd;stroke:#000000;stroke-width:2.0px;stroke-linecap:butt;stroke-linejoin:miter;stroke-opacity:1"/>
<path class="bond-11 atom-11 atom-12" d="M 216.4,158.6 L 235.1,174.9" style="fill:none;fill-rule:evenodd;stroke:#000000;stroke-width:2.0px;stroke-linecap:butt;stroke-linejoin:miter;stroke-opacity:1"/>
<path class="bond-12 atom-12 atom-13" d="M 234.2,180.0 L 262.6,170.1" style="fill:none;fill-rule:evenodd;stroke:#000000;stroke-width:2.0px;stroke-linecap:butt;stroke-linejoin:miter;stroke-opacity:1"/>
<path class="bond-13 atom-13 atom-14" d="M 262.6,170.1 L 285.3,189.9" style="fill:none;fill-rule:evenodd;stroke:#000000;stroke-width:2.0px;stroke-linecap:butt;stroke-linejoin:miter;stroke-opacity:1"/>
<path class="bond-14 atom-14 atom-15" d="M 285.3,189.9 L 279.6,219.4" style="fill:none;fill-rule:evenodd;stroke:#000000;stroke-width:2.0px;stroke-linecap:butt;stroke-linejoin:miter;stroke-opacity:1"/>
<path class="bond-14 atom-14 atom-15" d="M 289.2,193.3 L 284.5,217.7" style="fill:none;fill-rule:evenodd;stroke:#000000;stroke-width:2.0px;stroke-linecap:butt;stroke-linejoin:miter;stroke-opacity:1"/>
<path class="bond-15 atom-15 atom-16" d="M 279.6,219.4 L 302.3,239.1" style="fill:none;fill-rule:evenodd;stroke:#000000;stroke-width:2.0px;stroke-linecap:butt;stroke-linejoin:miter;stroke-opacity:1"/>
<path class="bond-16 atom-16 atom-17" d="M 302.3,239.1 L 330.7,229.3" style="fill:none;fill-rule:evenodd;stroke:#000000;stroke-width:2.0px;stroke-linecap:butt;stroke-linejoin:miter;stroke-opacity:1"/>
<path class="bond-16 atom-16 atom-17" d="M 303.3,234.0 L 326.8,225.8" style="fill:none;fill-rule:evenodd;stroke:#000000;stroke-width:2.0px;stroke-linecap:butt;stroke-linejoin:miter;stroke-opacity:1"/>
<path class="bond-17 atom-17 atom-18" d="M 330.7,229.3 L 336.4,199.7" style="fill:none;fill-rule:evenodd;stroke:#000000;stroke-width:2.0px;stroke-linecap:butt;stroke-linejoin:miter;stroke-opacity:1"/>
<path class="bond-18 atom-18 atom-19" d="M 336.4,199.7 L 348.5,195.6" style="fill:none;fill-rule:evenodd;stroke:#000000;stroke-width:2.0px;stroke-linecap:butt;stroke-linejoin:miter;stroke-opacity:1"/>
<path class="bond-18 atom-18 atom-19" d="M 348.5,195.6 L 360.6,191.4" style="fill:none;fill-rule:evenodd;stroke:#0000FF;stroke-width:2.0px;stroke-linecap:butt;stroke-linejoin:miter;stroke-opacity:1"/>
<path class="bond-19 atom-18 atom-20" d="M 336.4,199.7 L 327.2,191.7" style="fill:none;fill-rule:evenodd;stroke:#000000;stroke-width:2.0px;stroke-linecap:butt;stroke-linejoin:miter;stroke-opacity:1"/>
<path class="bond-19 atom-18 atom-20" d="M 327.2,191.7 L 317.9,183.7" style="fill:none;fill-rule:evenodd;stroke:#0000FF;stroke-width:2.0px;stroke-linecap:butt;stroke-linejoin:miter;stroke-opacity:1"/>
<path class="bond-19 atom-18 atom-20" d="M 331.5,201.4 L 323.2,194.3" style="fill:none;fill-rule:evenodd;stroke:#000000;stroke-width:2.0px;stroke-linecap:butt;stroke-linejoin:miter;stroke-opacity:1"/>
<path class="bond-19 atom-18 atom-20" d="M 323.2,194.3 L 315.0,187.1" style="fill:none;fill-rule:evenodd;stroke:#0000FF;stroke-width:2.0px;stroke-linecap:butt;stroke-linejoin:miter;stroke-opacity:1"/>
<path class="bond-20 atom-13 atom-21" d="M 262.6,170.1 L 268.3,140.6" style="fill:none;fill-rule:evenodd;stroke:#000000;stroke-width:2.0px;stroke-linecap:butt;stroke-linejoin:miter;stroke-opacity:1"/>
<path class="bond-20 atom-13 atom-21" d="M 258.6,166.7 L 263.4,142.3" style="fill:none;fill-rule:evenodd;stroke:#000000;stroke-width:2.0px;stroke-linecap:butt;stroke-linejoin:miter;stroke-opacity:1"/>
<path class="bond-21 atom-21 atom-22" d="M 268.3,140.6 L 245.6,120.9" style="fill:none;fill-rule:evenodd;stroke:#000000;stroke-width:2.0px;stroke-linecap:butt;stroke-linejoin:miter;stroke-opacity:1"/>
<path class="bond-22 atom-22 atom-23" d="M 245.6,120.9 L 233.5,125.1" style="fill:none;fill-rule:evenodd;stroke:#000000;stroke-width:2.0px;stroke-linecap:butt;stroke-linejoin:miter;stroke-opacity:1"/>
<path class="bond-22 atom-22 atom-23" d="M 233.5,125.1 L 221.4,129.3" style="fill:none;fill-rule:evenodd;stroke:#0000FF;stroke-width:2.0px;stroke-linecap:butt;stroke-linejoin:miter;stroke-opacity:1"/>
<path class="bond-22 atom-22 atom-23" d="M 244.6,126.0 L 233.7,129.8" style="fill:none;fill-rule:evenodd;stroke:#000000;stroke-width:2.0px;stroke-linecap:butt;stroke-linejoin:miter;stroke-opacity:1"/>
<path class="bond-22 atom-22 atom-23" d="M 233.7,129.8 L 222.8,133.5" style="fill:none;fill-rule:evenodd;stroke:#0000FF;stroke-width:2.0px;stroke-linecap:butt;stroke-linejoin:miter;stroke-opacity:1"/>
<path class="bond-23 atom-10 atom-24" d="M 182.0,175.3 L 179.7,187.5" style="fill:none;fill-rule:evenodd;stroke:#0000FF;stroke-width:2.0px;stroke-linecap:butt;stroke-linejoin:miter;stroke-opacity:1"/>
<path class="bond-23 atom-10 atom-24" d="M 179.7,187.5 L 177.3,199.6" style="fill:none;fill-rule:evenodd;stroke:#000000;stroke-width:2.0px;stroke-linecap:butt;stroke-linejoin:miter;stroke-opacity:1"/>
<path class="bond-24 atom-24 atom-25" d="M 177.3,199.6 L 148.9,209.4" style="fill:none;fill-rule:evenodd;stroke:#000000;stroke-width:2.0px;stroke-linecap:butt;stroke-linejoin:miter;stroke-opacity:1"/>
<path class="bond-25 atom-25 atom-7" d="M 148.9,209.4 L 139.6,201.4" style="fill:none;fill-rule:evenodd;stroke:#000000;stroke-width:2.0px;stroke-linecap:butt;stroke-linejoin:miter;stroke-opacity:1"/>
<path class="bond-25 atom-25 atom-7" d="M 139.6,201.4 L 130.4,193.4" style="fill:none;fill-rule:evenodd;stroke:#0000FF;stroke-width:2.0px;stroke-linecap:butt;stroke-linejoin:miter;stroke-opacity:1"/>
<path class="bond-26 atom-23 atom-11" d="M 216.1,136.0 L 213.8,148.1" style="fill:none;fill-rule:evenodd;stroke:#0000FF;stroke-width:2.0px;stroke-linecap:butt;stroke-linejoin:miter;stroke-opacity:1"/>
<path class="bond-26 atom-23 atom-11" d="M 213.8,148.1 L 211.4,160.3" style="fill:none;fill-rule:evenodd;stroke:#000000;stroke-width:2.0px;stroke-linecap:butt;stroke-linejoin:miter;stroke-opacity:1"/>
<path class="bond-27 atom-20 atom-14" d="M 309.5,181.5 L 297.4,185.7" style="fill:none;fill-rule:evenodd;stroke:#0000FF;stroke-width:2.0px;stroke-linecap:butt;stroke-linejoin:miter;stroke-opacity:1"/>
<path class="bond-27 atom-20 atom-14" d="M 297.4,185.7 L 285.3,189.9" style="fill:none;fill-rule:evenodd;stroke:#000000;stroke-width:2.0px;stroke-linecap:butt;stroke-linejoin:miter;stroke-opacity:1"/>
<path d="M 97.3,199.2 L 97.7,199.5 L 98.4,199.3" style="fill:none;stroke:#000000;stroke-width:2.0px;stroke-linecap:butt;stroke-linejoin:miter;stroke-opacity:1;"/>
<path d="M 131.8,160.8 L 131.9,160.2 L 133.3,159.7" style="fill:none;stroke:#000000;stroke-width:2.0px;stroke-linecap:butt;stroke-linejoin:miter;stroke-opacity:1;"/>
<path d="M 158.9,150.9 L 160.3,150.4 L 160.8,150.8" style="fill:none;stroke:#000000;stroke-width:2.0px;stroke-linecap:butt;stroke-linejoin:miter;stroke-opacity:1;"/>
<path d="M 233.0,179.0 L 234.2,180.0 L 235.6,179.5" style="fill:none;stroke:#000000;stroke-width:2.0px;stroke-linecap:butt;stroke-linejoin:miter;stroke-opacity:1;"/>
<path d="M 279.9,217.9 L 279.6,219.4 L 280.7,220.4" style="fill:none;stroke:#000000;stroke-width:2.0px;stroke-linecap:butt;stroke-linejoin:miter;stroke-opacity:1;"/>
<path d="M 301.2,238.1 L 302.3,239.1 L 303.7,238.6" style="fill:none;stroke:#000000;stroke-width:2.0px;stroke-linecap:butt;stroke-linejoin:miter;stroke-opacity:1;"/>
<path d="M 329.3,229.8 L 330.7,229.3 L 331.0,227.8" style="fill:none;stroke:#000000;stroke-width:2.0px;stroke-linecap:butt;stroke-linejoin:miter;stroke-opacity:1;"/>
<path d="M 268.0,142.1 L 268.3,140.6 L 267.2,139.6" style="fill:none;stroke:#000000;stroke-width:2.0px;stroke-linecap:butt;stroke-linejoin:miter;stroke-opacity:1;"/>
<path d="M 246.7,121.9 L 245.6,120.9 L 245.0,121.1" style="fill:none;stroke:#000000;stroke-width:2.0px;stroke-linecap:butt;stroke-linejoin:miter;stroke-opacity:1;"/>
<path d="M 177.4,199.0 L 177.3,199.6 L 175.9,200.1" style="fill:none;stroke:#000000;stroke-width:2.0px;stroke-linecap:butt;stroke-linejoin:miter;stroke-opacity:1;"/>
<path d="M 150.3,208.9 L 148.9,209.4 L 148.4,209.0" style="fill:none;stroke:#000000;stroke-width:2.0px;stroke-linecap:butt;stroke-linejoin:miter;stroke-opacity:1;"/>
<path class="atom-4" d="M 71.1 179.9 Q 71.1 177.8, 72.1 176.7 Q 73.1 175.5, 75.0 175.5 Q 76.9 175.5, 77.9 176.7 Q 78.9 177.8, 78.9 179.9 Q 78.9 181.9, 77.9 183.1 Q 76.9 184.3, 75.0 184.3 Q 73.2 184.3, 72.1 183.1 Q 71.1 181.9, 71.1 179.9 M 75.0 183.3 Q 76.3 183.3, 77.0 182.5 Q 77.7 181.6, 77.7 179.9 Q 77.7 178.2, 77.0 177.4 Q 76.3 176.5, 75.0 176.5 Q 73.7 176.5, 73.0 177.3 Q 72.3 178.2, 72.3 179.9 Q 72.3 181.6, 73.0 182.5 Q 73.7 183.3, 75.0 183.3 " fill="#FF0000"/>
<path class="atom-6" d="M 88.1 229.1 Q 88.1 227.1, 89.1 225.9 Q 90.1 224.8, 92.0 224.8 Q 93.9 224.8, 94.9 225.9 Q 95.9 227.1, 95.9 229.1 Q 95.9 231.2, 94.9 232.3 Q 93.9 233.5, 92.0 233.5 Q 90.2 233.5, 89.1 232.3 Q 88.1 231.2, 88.1 229.1 M 92.0 232.5 Q 93.3 232.5, 94.0 231.7 Q 94.7 230.8, 94.7 229.1 Q 94.7 227.4, 94.0 226.6 Q 93.3 225.7, 92.0 225.7 Q 90.7 225.7, 90.0 226.6 Q 89.3 227.4, 89.3 229.1 Q 89.3 230.8, 90.0 231.7 Q 90.7 232.5, 92.0 232.5 " fill="#FF0000"/>
<path class="atom-7" d="M 124.3 185.5 L 127.1 190.0 Q 127.4 190.4, 127.8 191.2 Q 128.2 192.0, 128.3 192.1 L 128.3 185.5 L 129.4 185.5 L 129.4 194.0 L 128.2 194.0 L 125.2 189.1 Q 124.9 188.5, 124.5 187.8 Q 124.2 187.2, 124.0 186.9 L 124.0 194.0 L 122.9 194.0 L 122.9 185.5 L 124.3 185.5 " fill="#0000FF"/>
<path class="atom-10" d="M 181.1 165.8 L 183.9 170.3 Q 184.2 170.8, 184.6 171.6 Q 185.1 172.4, 185.1 172.4 L 185.1 165.8 L 186.2 165.8 L 186.2 174.3 L 185.1 174.3 L 182.1 169.4 Q 181.7 168.8, 181.4 168.2 Q 181.0 167.5, 180.9 167.3 L 180.9 174.3 L 179.8 174.3 L 179.8 165.8 L 181.1 165.8 " fill="#0000FF"/>
<path class="atom-19" d="M 363.0 185.7 L 365.8 190.2 Q 366.0 190.6, 366.5 191.4 Q 366.9 192.2, 367.0 192.3 L 367.0 185.7 L 368.1 185.7 L 368.1 194.2 L 366.9 194.2 L 363.9 189.2 Q 363.6 188.7, 363.2 188.0 Q 362.8 187.3, 362.7 187.1 L 362.7 194.2 L 361.6 194.2 L 361.6 185.7 L 363.0 185.7 " fill="#0000FF"/>
<path class="atom-19" d="M 369.7 185.7 L 370.9 185.7 L 370.9 189.3 L 375.2 189.3 L 375.2 185.7 L 376.4 185.7 L 376.4 194.2 L 375.2 194.2 L 375.2 190.2 L 370.9 190.2 L 370.9 194.2 L 369.7 194.2 L 369.7 185.7 " fill="#0000FF"/>
<path class="atom-19" d="M 378.0 193.9 Q 378.3 193.3, 378.7 193.1 Q 379.2 192.7, 379.9 192.7 Q 380.8 192.7, 381.2 193.2 Q 381.7 193.7, 381.7 194.5 Q 381.7 195.3, 381.1 196.1 Q 380.5 196.9, 379.2 197.8 L 381.8 197.8 L 381.8 198.4 L 378.0 198.4 L 378.0 197.9 Q 379.1 197.2, 379.7 196.6 Q 380.3 196.0, 380.6 195.5 Q 380.9 195.0, 380.9 194.5 Q 380.9 194.0, 380.7 193.7 Q 380.4 193.4, 379.9 193.4 Q 379.5 193.4, 379.2 193.6 Q 378.9 193.7, 378.7 194.2 L 378.0 193.9 " fill="#0000FF"/>
<path class="atom-20" d="M 311.8 175.8 L 314.6 180.3 Q 314.9 180.7, 315.3 181.5 Q 315.8 182.3, 315.8 182.4 L 315.8 175.8 L 316.9 175.8 L 316.9 184.3 L 315.8 184.3 L 312.8 179.4 Q 312.4 178.8, 312.1 178.1 Q 311.7 177.5, 311.6 177.3 L 311.6 184.3 L 310.5 184.3 L 310.5 175.8 L 311.8 175.8 " fill="#0000FF"/>
<path class="atom-23" d="M 215.3 126.5 L 218.1 131.0 Q 218.3 131.4, 218.8 132.2 Q 219.2 133.0, 219.2 133.1 L 219.2 126.5 L 220.4 126.5 L 220.4 135.0 L 219.2 135.0 L 216.2 130.1 Q 215.9 129.5, 215.5 128.8 Q 215.1 128.2, 215.0 128.0 L 215.0 135.0 L 213.9 135.0 L 213.9 126.5 L 215.3 126.5 " fill="#0000FF"/>
<path class="legend" d="M 177.4 381.5 Q 178.8 381.5, 179.4 382.2 Q 180.1 383.0, 180.1 384.4 L 180.1 389.9 L 178.6 389.9 L 178.6 384.5 Q 178.6 383.6, 178.3 383.1 Q 177.9 382.7, 177.1 382.7 Q 176.3 382.7, 175.7 383.0 Q 175.1 383.4, 174.7 384.0 L 174.7 389.9 L 173.2 389.9 L 173.2 381.6 L 174.4 381.6 L 174.6 382.8 Q 175.7 381.5, 177.4 381.5 " fill="#000000"/>
<path class="legend" d="M 189.1 381.6 L 189.1 389.9 L 187.9 389.9 L 187.7 388.7 Q 186.6 390.0, 184.9 390.0 Q 183.5 390.0, 182.8 389.3 Q 182.1 388.5, 182.1 387.1 L 182.1 381.6 L 183.6 381.6 L 183.6 387.0 Q 183.6 387.9, 184.0 388.4 Q 184.4 388.8, 185.2 388.8 Q 186.0 388.8, 186.6 388.5 Q 187.2 388.1, 187.6 387.5 L 187.6 381.6 L 189.1 381.6 " fill="#000000"/>
<path class="legend" d="M 191.2 385.7 Q 191.2 383.7, 192.2 382.6 Q 193.2 381.5, 195.1 381.5 Q 197.0 381.5, 198.0 382.8 L 197.0 383.6 Q 196.6 383.1, 196.1 382.9 Q 195.7 382.7, 195.1 382.7 Q 194.0 382.7, 193.3 383.5 Q 192.7 384.2, 192.7 385.7 Q 192.7 387.2, 193.4 388.0 Q 194.0 388.8, 195.2 388.8 Q 195.9 388.8, 196.3 388.7 Q 196.8 388.5, 197.4 388.2 L 197.8 389.3 Q 196.6 390.0, 195.1 390.0 Q 193.2 390.0, 192.2 388.8 Q 191.2 387.7, 191.2 385.7 " fill="#000000"/>
<path class="legend" d="M 199.1 380.7 Q 199.5 379.6, 200.5 379.0 Q 201.5 378.4, 202.9 378.4 Q 204.6 378.4, 205.6 379.3 Q 206.5 380.3, 206.5 381.9 Q 206.5 383.6, 205.3 385.2 Q 204.1 386.7, 201.5 388.6 L 206.7 388.6 L 206.7 389.9 L 199.1 389.9 L 199.1 388.8 Q 201.2 387.3, 202.5 386.2 Q 203.7 385.0, 204.3 384.0 Q 204.9 383.0, 204.9 382.0 Q 204.9 380.9, 204.4 380.3 Q 203.8 379.7, 202.9 379.7 Q 202.0 379.7, 201.4 380.0 Q 200.8 380.4, 200.3 381.2 L 199.1 380.7 " fill="#000000"/>
<path class="legend" d="M 212.2 378.4 Q 214.3 378.4, 215.3 379.8 Q 216.3 381.1, 216.3 383.9 Q 216.3 386.9, 215.0 388.4 Q 213.8 390.0, 211.4 390.0 Q 210.7 390.0, 210.1 389.8 Q 209.5 389.7, 208.9 389.3 L 209.5 388.3 Q 210.3 388.7, 211.3 388.7 Q 212.9 388.7, 213.8 387.7 Q 214.6 386.6, 214.7 384.5 Q 214.1 385.0, 213.4 385.3 Q 212.6 385.6, 211.9 385.6 Q 210.9 385.6, 210.1 385.2 Q 209.3 384.7, 208.9 384.0 Q 208.4 383.2, 208.4 382.2 Q 208.4 381.1, 208.9 380.2 Q 209.4 379.4, 210.3 378.9 Q 211.1 378.4, 212.2 378.4 M 210.0 382.2 Q 210.0 383.2, 210.6 383.7 Q 211.2 384.3, 212.1 384.3 Q 212.8 384.3, 213.5 384.0 Q 214.2 383.8, 214.7 383.3 Q 214.6 381.4, 214.0 380.6 Q 213.4 379.7, 212.2 379.7 Q 211.6 379.7, 211.1 380.0 Q 210.6 380.4, 210.3 380.9 Q 210.0 381.5, 210.0 382.2 " fill="#000000"/>
<path class="legend" d="M 225.5 386.0 L 226.8 386.0 L 226.8 387.2 L 225.5 387.2 L 225.5 389.9 L 224.0 389.9 L 224.0 387.2 L 218.1 387.2 L 218.1 386.2 L 223.1 378.5 L 225.5 378.5 L 225.5 386.0 M 220.0 386.0 L 224.0 386.0 L 224.0 379.6 L 220.0 386.0 " fill="#000000"/>
<path class="bond-0 atom-0 atom-1" d="M 668.5,255.7 L 676.4,226.7" style="fill:none;fill-rule:evenodd;stroke:#000000;stroke-width:2.0px;stroke-linecap:butt;stroke-linejoin:miter;stroke-opacity:1"/>
<path class="bond-1 atom-1 atom-2" d="M 676.4,226.7 L 684.2,197.7" style="fill:none;fill-rule:evenodd;stroke:#000000;stroke-width:2.0px;stroke-linecap:butt;stroke-linejoin:miter;stroke-opacity:1"/>
<path class="bond-2 atom-1 atom-3" d="M 676.4,226.7 L 705.4,234.6" style="fill:none;fill-rule:evenodd;stroke:#000000;stroke-width:2.0px;stroke-linecap:butt;stroke-linejoin:miter;stroke-opacity:1"/>
<path class="bond-3 atom-1 atom-4" d="M 676.4,226.7 L 664.3,223.4" style="fill:none;fill-rule:evenodd;stroke:#000000;stroke-width:2.0px;stroke-linecap:butt;stroke-linejoin:miter;stroke-opacity:1"/>
<path class="bond-3 atom-1 atom-4" d="M 664.3,223.4 L 652.2,220.1" style="fill:none;fill-rule:evenodd;stroke:#FF0000;stroke-width:2.0px;stroke-linecap:butt;stroke-linejoin:miter;stroke-opacity:1"/>
<path class="bond-4 atom-4 atom-5" d="M 645.9,213.5 L 642.8,201.6" style="fill:none;fill-rule:evenodd;stroke:#FF0000;stroke-width:2.0px;stroke-linecap:butt;stroke-linejoin:miter;stroke-opacity:1"/>
<path class="bond-4 atom-4 atom-5" d="M 642.8,201.6 L 639.7,189.7" style="fill:none;fill-rule:evenodd;stroke:#000000;stroke-width:2.0px;stroke-linecap:butt;stroke-linejoin:miter;stroke-opacity:1"/>
<path class="bond-5 atom-5 atom-6" d="M 640.3,192.3 L 649.0,183.6" style="fill:none;fill-rule:evenodd;stroke:#000000;stroke-width:2.0px;stroke-linecap:butt;stroke-linejoin:miter;stroke-opacity:1"/>
<path class="bond-5 atom-5 atom-6" d="M 649.0,183.6 L 657.7,175.0" style="fill:none;fill-rule:evenodd;stroke:#FF0000;stroke-width:2.0px;stroke-linecap:butt;stroke-linejoin:miter;stroke-opacity:1"/>
<path class="bond-5 atom-5 atom-6" d="M 637.1,189.1 L 645.8,180.4" style="fill:none;fill-rule:evenodd;stroke:#000000;stroke-width:2.0px;stroke-linecap:butt;stroke-linejoin:miter;stroke-opacity:1"/>
<path class="bond-5 atom-5 atom-6" d="M 645.8,180.4 L 654.5,171.8" style="fill:none;fill-rule:evenodd;stroke:#FF0000;stroke-width:2.0px;stroke-linecap:butt;stroke-linejoin:miter;stroke-opacity:1"/>
<path class="bond-6 atom-5 atom-7" d="M 639.7,189.7 L 627.3,186.4" style="fill:none;fill-rule:evenodd;stroke:#000000;stroke-width:2.0px;stroke-linecap:butt;stroke-linejoin:miter;stroke-opacity:1"/>
<path class="bond-6 atom-5 atom-7" d="M 627.3,186.4 L 614.9,183.0" style="fill:none;fill-rule:evenodd;stroke:#0000FF;stroke-width:2.0px;stroke-linecap:butt;stroke-linejoin:miter;stroke-opacity:1"/>
<path class="bond-7 atom-7 atom-8" d="M 608.6,176.6 L 604.3,165.2" style="fill:none;fill-rule:evenodd;stroke:#0000FF;stroke-width:2.0px;stroke-linecap:butt;stroke-linejoin:miter;stroke-opacity:1"/>
<path class="bond-7 atom-7 atom-8" d="M 604.3,165.2 L 600.0,153.7" style="fill:none;fill-rule:evenodd;stroke:#000000;stroke-width:2.0px;stroke-linecap:butt;stroke-linejoin:miter;stroke-opacity:1"/>
<path class="bond-8 atom-8 atom-9" d="M 600.0,153.7 L 569.9,155.2" style="fill:none;fill-rule:evenodd;stroke:#000000;stroke-width:2.0px;stroke-linecap:butt;stroke-linejoin:miter;stroke-opacity:1"/>
<path class="bond-9 atom-9 atom-10" d="M 568.0,152.4 L 567.6,152.8" style="fill:none;fill-rule:evenodd;stroke:#000000;stroke-width:1.0px;stroke-linecap:butt;stroke-linejoin:miter;stroke-opacity:1"/>
<path class="bond-9 atom-9 atom-10" d="M 566.2,149.6 L 565.3,150.4" style="fill:none;fill-rule:evenodd;stroke:#000000;stroke-width:1.0px;stroke-linecap:butt;stroke-linejoin:miter;stroke-opacity:1"/>
<path class="bond-9 atom-9 atom-10" d="M 564.3,146.9 L 563.0,147.9" style="fill:none;fill-rule:evenodd;stroke:#000000;stroke-width:1.0px;stroke-linecap:butt;stroke-linejoin:miter;stroke-opacity:1"/>
<path class="bond-9 atom-9 atom-10" d="M 562.4,144.1 L 560.7,145.5" style="fill:none;fill-rule:evenodd;stroke:#000000;stroke-width:1.0px;stroke-linecap:butt;stroke-linejoin:miter;stroke-opacity:1"/>
<path class="bond-9 atom-9 atom-10" d="M 560.6,141.3 L 558.4,143.1" style="fill:none;fill-rule:evenodd;stroke:#000000;stroke-width:1.0px;stroke-linecap:butt;stroke-linejoin:miter;stroke-opacity:1"/>
<path class="bond-9 atom-9 atom-10" d="M 558.7,138.5 L 556.1,140.7" style="fill:none;fill-rule:evenodd;stroke:#000000;stroke-width:1.0px;stroke-linecap:butt;stroke-linejoin:miter;stroke-opacity:1"/>
<path class="bond-9 atom-9 atom-10" d="M 556.8,135.8 L 553.7,138.2" style="fill:none;fill-rule:evenodd;stroke:#000000;stroke-width:1.0px;stroke-linecap:butt;stroke-linejoin:miter;stroke-opacity:1"/>
<path class="bond-9 atom-9 atom-10" d="M 554.9,133.0 L 551.4,135.8" style="fill:none;fill-rule:evenodd;stroke:#000000;stroke-width:1.0px;stroke-linecap:butt;stroke-linejoin:miter;stroke-opacity:1"/>
<path class="bond-10 atom-10 atom-11" d="M 551.1,131.8 L 562.0,103.7" style="fill:none;fill-rule:evenodd;stroke:#000000;stroke-width:2.0px;stroke-linecap:butt;stroke-linejoin:miter;stroke-opacity:1"/>
<path class="bond-11 atom-11 atom-12" d="M 562.0,103.7 L 554.6,94.6" style="fill:none;fill-rule:evenodd;stroke:#000000;stroke-width:2.0px;stroke-linecap:butt;stroke-linejoin:miter;stroke-opacity:1"/>
<path class="bond-11 atom-11 atom-12" d="M 554.6,94.6 L 547.3,85.5" style="fill:none;fill-rule:evenodd;stroke:#0000FF;stroke-width:2.0px;stroke-linecap:butt;stroke-linejoin:miter;stroke-opacity:1"/>
<path class="bond-12 atom-9 atom-13" d="M 569.9,155.2 L 562.0,184.2" style="fill:none;fill-rule:evenodd;stroke:#000000;stroke-width:2.0px;stroke-linecap:butt;stroke-linejoin:miter;stroke-opacity:1"/>
<path class="bond-13 atom-13 atom-14" d="M 562.0,184.2 L 551.3,189.5 L 550.5,187.4 Z" style="fill:#000000;fill-rule:evenodd;fill-opacity:1;stroke:#000000;stroke-width:0.5px;stroke-linecap:butt;stroke-linejoin:miter;stroke-opacity:1;"/>
<path class="bond-13 atom-13 atom-14" d="M 551.3,189.5 L 539.0,190.6 L 540.6,194.8 Z" style="fill:#FF0000;fill-rule:evenodd;fill-opacity:1;stroke:#FF0000;stroke-width:0.5px;stroke-linecap:butt;stroke-linejoin:miter;stroke-opacity:1;"/>
<path class="bond-13 atom-13 atom-14" d="M 551.3,189.5 L 550.5,187.4 L 539.0,190.6 Z" style="fill:#FF0000;fill-rule:evenodd;fill-opacity:1;stroke:#FF0000;stroke-width:0.5px;stroke-linecap:butt;stroke-linejoin:miter;stroke-opacity:1;"/>
<path class="bond-14 atom-14 atom-15" d="M 533.0,200.3 L 531.5,209.9" style="fill:none;fill-rule:evenodd;stroke:#FF0000;stroke-width:2.0px;stroke-linecap:butt;stroke-linejoin:miter;stroke-opacity:1"/>
<path class="bond-14 atom-14 atom-15" d="M 531.5,209.9 L 530.0,219.4" style="fill:none;fill-rule:evenodd;stroke:#000000;stroke-width:2.0px;stroke-linecap:butt;stroke-linejoin:miter;stroke-opacity:1"/>
<path class="bond-15 atom-15 atom-16" d="M 524.4,223.8 L 499.4,219.8" style="fill:none;fill-rule:evenodd;stroke:#000000;stroke-width:2.0px;stroke-linecap:butt;stroke-linejoin:miter;stroke-opacity:1"/>
<path class="bond-16 atom-15 atom-17" d="M 533.8,225.4 L 558.8,229.4" style="fill:none;fill-rule:evenodd;stroke:#000000;stroke-width:2.0px;stroke-linecap:butt;stroke-linejoin:miter;stroke-opacity:1"/>
<path class="bond-17 atom-15 atom-18" d="M 528.2,230.1 L 524.3,254.3" style="fill:none;fill-rule:evenodd;stroke:#000000;stroke-width:2.0px;stroke-linecap:butt;stroke-linejoin:miter;stroke-opacity:1"/>
<path class="bond-18 atom-18 atom-19" d="M 524.3,254.3 L 554.0,259.1" style="fill:none;fill-rule:evenodd;stroke:#000000;stroke-width:2.0px;stroke-linecap:butt;stroke-linejoin:miter;stroke-opacity:1"/>
<path class="bond-19 atom-18 atom-20" d="M 524.3,254.3 L 494.6,249.5" style="fill:none;fill-rule:evenodd;stroke:#000000;stroke-width:2.0px;stroke-linecap:butt;stroke-linejoin:miter;stroke-opacity:1"/>
<path class="bond-20 atom-18 atom-21" d="M 524.3,254.3 L 519.5,284.0" style="fill:none;fill-rule:evenodd;stroke:#000000;stroke-width:2.0px;stroke-linecap:butt;stroke-linejoin:miter;stroke-opacity:1"/>
<path class="bond-21 atom-13 atom-22" d="M 562.0,184.2 L 587.2,200.7" style="fill:none;fill-rule:evenodd;stroke:#000000;stroke-width:2.0px;stroke-linecap:butt;stroke-linejoin:miter;stroke-opacity:1"/>
<path class="bond-22 atom-22 atom-7" d="M 587.2,200.7 L 596.8,193.0" style="fill:none;fill-rule:evenodd;stroke:#000000;stroke-width:2.0px;stroke-linecap:butt;stroke-linejoin:miter;stroke-opacity:1"/>
<path class="bond-22 atom-22 atom-7" d="M 596.8,193.0 L 606.4,185.2" style="fill:none;fill-rule:evenodd;stroke:#0000FF;stroke-width:2.0px;stroke-linecap:butt;stroke-linejoin:miter;stroke-opacity:1"/>
<path d="M 639.8,190.3 L 639.7,189.7 L 639.0,189.6" style="fill:none;stroke:#000000;stroke-width:2.0px;stroke-linecap:butt;stroke-linejoin:miter;stroke-opacity:1;"/>
<path d="M 600.2,154.3 L 600.0,153.7 L 598.5,153.8" style="fill:none;stroke:#000000;stroke-width:2.0px;stroke-linecap:butt;stroke-linejoin:miter;stroke-opacity:1;"/>
<path d="M 571.4,155.1 L 569.9,155.2 L 569.5,156.7" style="fill:none;stroke:#000000;stroke-width:2.0px;stroke-linecap:butt;stroke-linejoin:miter;stroke-opacity:1;"/>
<path d="M 561.4,105.1 L 562.0,103.7 L 561.6,103.3" style="fill:none;stroke:#000000;stroke-width:2.0px;stroke-linecap:butt;stroke-linejoin:miter;stroke-opacity:1;"/>
<path d="M 562.4,182.8 L 562.0,184.2 L 563.3,185.1" style="fill:none;stroke:#000000;stroke-width:2.0px;stroke-linecap:butt;stroke-linejoin:miter;stroke-opacity:1;"/>
<path d="M 585.9,199.9 L 587.2,200.7 L 587.7,200.3" style="fill:none;stroke:#000000;stroke-width:2.0px;stroke-linecap:butt;stroke-linejoin:miter;stroke-opacity:1;"/>
<path class="atom-4" d="M 643.4 218.8 Q 643.4 216.8, 644.4 215.6 Q 645.4 214.5, 647.3 214.5 Q 649.2 214.5, 650.2 215.6 Q 651.2 216.8, 651.2 218.8 Q 651.2 220.9, 650.2 222.1 Q 649.2 223.2, 647.3 223.2 Q 645.5 223.2, 644.4 222.1 Q 643.4 220.9, 643.4 218.8 M 647.3 222.3 Q 648.6 222.3, 649.3 221.4 Q 650.0 220.5, 650.0 218.8 Q 650.0 217.2, 649.3 216.3 Q 648.6 215.5, 647.3 215.5 Q 646.0 215.5, 645.3 216.3 Q 644.6 217.2, 644.6 218.8 Q 644.6 220.6, 645.3 221.4 Q 646.0 222.3, 647.3 222.3 " fill="#FF0000"/>
<path class="atom-6" d="M 657.1 168.6 Q 657.1 166.5, 658.1 165.4 Q 659.1 164.2, 661.0 164.2 Q 662.9 164.2, 663.9 165.4 Q 664.9 166.5, 664.9 168.6 Q 664.9 170.6, 663.9 171.8 Q 662.9 173.0, 661.0 173.0 Q 659.1 173.0, 658.1 171.8 Q 657.1 170.7, 657.1 168.6 M 661.0 172.0 Q 662.3 172.0, 663.0 171.2 Q 663.7 170.3, 663.7 168.6 Q 663.7 166.9, 663.0 166.1 Q 662.3 165.2, 661.0 165.2 Q 659.7 165.2, 659.0 166.0 Q 658.3 166.9, 658.3 168.6 Q 658.3 170.3, 659.0 171.2 Q 659.7 172.0, 661.0 172.0 " fill="#FF0000"/>
<path class="atom-7" d="M 608.8 177.6 L 611.5 182.1 Q 611.8 182.5, 612.3 183.4 Q 612.7 184.2, 612.7 184.2 L 612.7 177.6 L 613.9 177.6 L 613.9 186.1 L 612.7 186.1 L 609.7 181.2 Q 609.4 180.6, 609.0 179.9 Q 608.6 179.3, 608.5 179.1 L 608.5 186.1 L 607.4 186.1 L 607.4 177.6 L 608.8 177.6 " fill="#0000FF"/>
<path class="atom-12" d="M 526.7 76.0 L 527.8 76.0 L 527.8 79.7 L 532.2 79.7 L 532.2 76.0 L 533.3 76.0 L 533.3 84.6 L 532.2 84.6 L 532.2 80.6 L 527.8 80.6 L 527.8 84.6 L 526.7 84.6 L 526.7 76.0 " fill="#0000FF"/>
<path class="atom-12" d="M 535.0 84.3 Q 535.2 83.7, 535.7 83.4 Q 536.2 83.1, 536.9 83.1 Q 537.7 83.1, 538.2 83.6 Q 538.7 84.0, 538.7 84.9 Q 538.7 85.7, 538.1 86.5 Q 537.5 87.3, 536.2 88.2 L 538.8 88.2 L 538.8 88.8 L 535.0 88.8 L 535.0 88.3 Q 536.0 87.5, 536.7 87.0 Q 537.3 86.4, 537.6 85.9 Q 537.9 85.4, 537.9 84.9 Q 537.9 84.4, 537.6 84.1 Q 537.3 83.8, 536.9 83.8 Q 536.4 83.8, 536.1 83.9 Q 535.8 84.1, 535.6 84.5 L 535.0 84.3 " fill="#0000FF"/>
<path class="atom-12" d="M 541.2 76.0 L 544.0 80.5 Q 544.3 81.0, 544.7 81.8 Q 545.2 82.6, 545.2 82.7 L 545.2 76.0 L 546.3 76.0 L 546.3 84.6 L 545.2 84.6 L 542.2 79.6 Q 541.8 79.0, 541.5 78.4 Q 541.1 77.7, 541.0 77.5 L 541.0 84.6 L 539.9 84.6 L 539.9 76.0 L 541.2 76.0 " fill="#0000FF"/>
<path class="atom-14" d="M 530.0 194.9 Q 530.0 192.9, 531.0 191.7 Q 532.0 190.6, 533.9 190.6 Q 535.8 190.6, 536.8 191.7 Q 537.8 192.9, 537.8 194.9 Q 537.8 197.0, 536.8 198.2 Q 535.8 199.3, 533.9 199.3 Q 532.0 199.3, 531.0 198.2 Q 530.0 197.0, 530.0 194.9 M 533.9 198.4 Q 535.2 198.4, 535.9 197.5 Q 536.6 196.6, 536.6 194.9 Q 536.6 193.3, 535.9 192.4 Q 535.2 191.6, 533.9 191.6 Q 532.6 191.6, 531.9 192.4 Q 531.2 193.2, 531.2 194.9 Q 531.2 196.6, 531.9 197.5 Q 532.6 198.4, 533.9 198.4 " fill="#FF0000"/>
<path class="atom-15" d="M 525.7 227.5 Q 525.8 227.6, 526.2 227.7 Q 526.6 227.9, 527.0 228.0 Q 527.5 228.1, 527.9 228.1 Q 528.7 228.1, 529.2 227.7 Q 529.7 227.3, 529.7 226.6 Q 529.7 226.2, 529.4 225.9 Q 529.2 225.6, 528.8 225.4 Q 528.5 225.3, 527.9 225.1 Q 527.1 224.9, 526.6 224.7 Q 526.2 224.4, 525.9 224.0 Q 525.6 223.5, 525.6 222.8 Q 525.6 221.7, 526.3 221.0 Q 527.0 220.4, 528.5 220.4 Q 529.5 220.4, 530.6 220.8 L 530.3 221.8 Q 529.3 221.3, 528.5 221.3 Q 527.7 221.3, 527.2 221.7 Q 526.8 222.0, 526.8 222.6 Q 526.8 223.1, 527.0 223.3 Q 527.2 223.6, 527.6 223.8 Q 527.9 223.9, 528.5 224.1 Q 529.3 224.4, 529.7 224.6 Q 530.2 224.8, 530.5 225.3 Q 530.8 225.8, 530.8 226.6 Q 530.8 227.8, 530.1 228.5 Q 529.3 229.1, 528.0 229.1 Q 527.2 229.1, 526.6 228.9 Q 526.1 228.8, 525.4 228.5 L 525.7 227.5 " fill="#000000"/>
<path class="atom-15" d="M 531.7 220.3 L 532.8 220.3 L 532.8 221.4 L 531.7 221.4 L 531.7 220.3 M 531.7 222.7 L 532.8 222.7 L 532.8 228.8 L 531.7 228.8 L 531.7 222.7 " fill="#000000"/>
<path class="legend" d="M 574.8 381.5 Q 576.1 381.5, 576.8 382.2 Q 577.5 383.0, 577.5 384.4 L 577.5 389.8 L 576.0 389.8 L 576.0 384.5 Q 576.0 383.5, 575.6 383.1 Q 575.2 382.7, 574.4 382.7 Q 573.6 382.7, 573.0 383.0 Q 572.4 383.3, 572.0 384.0 L 572.0 389.8 L 570.5 389.8 L 570.5 381.6 L 571.7 381.6 L 571.9 382.8 Q 573.0 381.5, 574.8 381.5 " fill="#000000"/>
<path class="legend" d="M 586.4 381.6 L 586.4 389.8 L 585.2 389.8 L 585.0 388.7 Q 583.9 390.0, 582.2 390.0 Q 580.8 390.0, 580.1 389.2 Q 579.4 388.5, 579.4 387.1 L 579.4 381.6 L 580.9 381.6 L 580.9 386.9 Q 580.9 387.9, 581.3 388.4 Q 581.7 388.8, 582.5 388.8 Q 583.3 388.8, 583.9 388.5 Q 584.5 388.1, 584.9 387.5 L 584.9 381.6 L 586.4 381.6 " fill="#000000"/>
<path class="legend" d="M 588.4 385.7 Q 588.4 383.7, 589.4 382.6 Q 590.4 381.5, 592.4 381.5 Q 594.2 381.5, 595.2 382.8 L 594.2 383.6 Q 593.8 383.1, 593.4 382.9 Q 592.9 382.7, 592.4 382.7 Q 591.2 382.7, 590.6 383.4 Q 590.0 384.2, 590.0 385.7 Q 590.0 387.2, 590.6 388.0 Q 591.3 388.8, 592.5 388.8 Q 593.1 388.8, 593.6 388.6 Q 594.1 388.5, 594.6 388.2 L 595.1 389.2 Q 593.9 389.9, 592.3 389.9 Q 590.4 389.9, 589.4 388.8 Q 588.4 387.7, 588.4 385.7 " fill="#000000"/>
<path class="legend" d="M 596.9 388.6 L 599.4 388.6 L 599.4 380.1 L 596.7 380.9 L 596.3 380.0 L 599.8 378.4 L 600.9 378.6 L 600.9 388.6 L 603.1 388.6 L 603.1 389.8 L 596.9 389.8 L 596.9 388.6 " fill="#000000"/>
<path class="legend" d="M 610.0 383.9 Q 611.1 384.2, 611.6 384.9 Q 612.1 385.6, 612.1 386.7 Q 612.1 387.7, 611.7 388.4 Q 611.2 389.2, 610.3 389.6 Q 609.4 390.0, 608.3 390.0 Q 607.0 390.0, 606.1 389.6 Q 605.2 389.2, 604.5 388.3 L 605.4 387.4 Q 606.1 388.1, 606.7 388.4 Q 607.3 388.7, 608.3 388.7 Q 609.3 388.7, 609.9 388.2 Q 610.5 387.6, 610.5 386.7 Q 610.5 385.6, 609.9 385.1 Q 609.2 384.5, 607.8 384.5 L 607.0 384.5 L 607.0 383.4 L 607.7 383.4 Q 609.0 383.4, 609.6 382.8 Q 610.3 382.3, 610.3 381.3 Q 610.3 380.5, 609.7 380.1 Q 609.2 379.7, 608.3 379.7 Q 607.3 379.7, 606.7 380.0 Q 606.2 380.3, 605.7 381.2 L 604.6 380.6 Q 605.0 379.6, 606.0 379.0 Q 606.9 378.4, 608.3 378.4 Q 609.9 378.4, 610.9 379.2 Q 611.9 380.0, 611.9 381.3 Q 611.9 382.2, 611.4 382.8 Q 610.9 383.5, 610.0 383.9 " fill="#000000"/>
<path class="legend" d="M 614.4 388.6 L 616.9 388.6 L 616.9 380.1 L 614.2 380.9 L 613.8 380.0 L 617.3 378.4 L 618.4 378.6 L 618.4 388.6 L 620.6 388.6 L 620.6 389.8 L 614.4 389.8 L 614.4 388.6 " fill="#000000"/>
<path class="legend" d="M 627.9 379.8 L 622.0 379.8 L 622.0 378.5 L 629.5 378.5 L 629.5 379.6 L 624.9 389.8 L 623.4 389.8 L 627.9 379.8 " fill="#000000"/>
<path class="bond-0 atom-0 atom-1" d="M 856.5,112.6 L 863.2,122.3" style="fill:none;fill-rule:evenodd;stroke:#0000FF;stroke-width:2.0px;stroke-linecap:butt;stroke-linejoin:miter;stroke-opacity:1"/>
<path class="bond-0 atom-0 atom-1" d="M 863.2,122.3 L 870.0,132.0" style="fill:none;fill-rule:evenodd;stroke:#000000;stroke-width:2.0px;stroke-linecap:butt;stroke-linejoin:miter;stroke-opacity:1"/>
<path class="bond-1 atom-1 atom-2" d="M 870.0,132.0 L 882.9,130.9" style="fill:none;fill-rule:evenodd;stroke:#000000;stroke-width:2.0px;stroke-linecap:butt;stroke-linejoin:miter;stroke-opacity:1"/>
<path class="bond-1 atom-1 atom-2" d="M 882.9,130.9 L 895.7,129.9" style="fill:none;fill-rule:evenodd;stroke:#0000FF;stroke-width:2.0px;stroke-linecap:butt;stroke-linejoin:miter;stroke-opacity:1"/>
<path class="bond-1 atom-1 atom-2" d="M 873.0,136.3 L 884.5,135.3" style="fill:none;fill-rule:evenodd;stroke:#000000;stroke-width:2.0px;stroke-linecap:butt;stroke-linejoin:miter;stroke-opacity:1"/>
<path class="bond-1 atom-1 atom-2" d="M 884.5,135.3 L 896.1,134.3" style="fill:none;fill-rule:evenodd;stroke:#0000FF;stroke-width:2.0px;stroke-linecap:butt;stroke-linejoin:miter;stroke-opacity:1"/>
<path class="bond-2 atom-2 atom-3" d="M 903.6,134.7 L 910.4,144.5" style="fill:none;fill-rule:evenodd;stroke:#0000FF;stroke-width:2.0px;stroke-linecap:butt;stroke-linejoin:miter;stroke-opacity:1"/>
<path class="bond-2 atom-2 atom-3" d="M 910.4,144.5 L 917.1,154.2" style="fill:none;fill-rule:evenodd;stroke:#000000;stroke-width:2.0px;stroke-linecap:butt;stroke-linejoin:miter;stroke-opacity:1"/>
<path class="bond-3 atom-3 atom-4" d="M 917.1,154.2 L 904.3,181.4" style="fill:none;fill-rule:evenodd;stroke:#000000;stroke-width:2.0px;stroke-linecap:butt;stroke-linejoin:miter;stroke-opacity:1"/>
<path class="bond-3 atom-3 atom-4" d="M 911.9,154.6 L 901.4,177.1" style="fill:none;fill-rule:evenodd;stroke:#000000;stroke-width:2.0px;stroke-linecap:butt;stroke-linejoin:miter;stroke-opacity:1"/>
<path class="bond-4 atom-4 atom-5" d="M 904.3,181.4 L 921.5,206.1" style="fill:none;fill-rule:evenodd;stroke:#000000;stroke-width:2.0px;stroke-linecap:butt;stroke-linejoin:miter;stroke-opacity:1"/>
<path class="bond-5 atom-5 atom-6" d="M 921.5,206.1 L 911.6,234.5" style="fill:none;fill-rule:evenodd;stroke:#000000;stroke-width:2.0px;stroke-linecap:butt;stroke-linejoin:miter;stroke-opacity:1"/>
<path class="bond-5 atom-5 atom-6" d="M 924.7,210.7 L 917.0,232.9" style="fill:none;fill-rule:evenodd;stroke:#000000;stroke-width:2.0px;stroke-linecap:butt;stroke-linejoin:miter;stroke-opacity:1"/>
<path class="bond-6 atom-6 atom-7" d="M 911.6,234.5 L 921.5,242.0" style="fill:none;fill-rule:evenodd;stroke:#000000;stroke-width:2.0px;stroke-linecap:butt;stroke-linejoin:miter;stroke-opacity:1"/>
<path class="bond-6 atom-6 atom-7" d="M 921.5,242.0 L 931.4,249.5" style="fill:none;fill-rule:evenodd;stroke:#0000FF;stroke-width:2.0px;stroke-linecap:butt;stroke-linejoin:miter;stroke-opacity:1"/>
<path class="bond-7 atom-7 atom-8" d="M 939.8,249.7 L 950.1,242.6" style="fill:none;fill-rule:evenodd;stroke:#0000FF;stroke-width:2.0px;stroke-linecap:butt;stroke-linejoin:miter;stroke-opacity:1"/>
<path class="bond-7 atom-7 atom-8" d="M 950.1,242.6 L 960.3,235.5" style="fill:none;fill-rule:evenodd;stroke:#000000;stroke-width:2.0px;stroke-linecap:butt;stroke-linejoin:miter;stroke-opacity:1"/>
<path class="bond-7 atom-7 atom-8" d="M 937.3,246.0 L 946.1,239.8" style="fill:none;fill-rule:evenodd;stroke:#0000FF;stroke-width:2.0px;stroke-linecap:butt;stroke-linejoin:miter;stroke-opacity:1"/>
<path class="bond-7 atom-7 atom-8" d="M 946.1,239.8 L 955.0,233.6" style="fill:none;fill-rule:evenodd;stroke:#000000;stroke-width:2.0px;stroke-linecap:butt;stroke-linejoin:miter;stroke-opacity:1"/>
<path class="bond-8 atom-8 atom-9" d="M 960.3,235.5 L 989.6,242.3" style="fill:none;fill-rule:evenodd;stroke:#000000;stroke-width:2.0px;stroke-linecap:butt;stroke-linejoin:miter;stroke-opacity:1"/>
<path class="bond-9 atom-9 atom-10" d="M 989.6,242.3 L 1010.1,220.4" style="fill:none;fill-rule:evenodd;stroke:#000000;stroke-width:2.0px;stroke-linecap:butt;stroke-linejoin:miter;stroke-opacity:1"/>
<path class="bond-9 atom-9 atom-10" d="M 988.1,237.3 L 1005.1,219.2" style="fill:none;fill-rule:evenodd;stroke:#000000;stroke-width:2.0px;stroke-linecap:butt;stroke-linejoin:miter;stroke-opacity:1"/>
<path class="bond-10 atom-10 atom-11" d="M 1010.1,220.4 L 1001.4,191.6" style="fill:none;fill-rule:evenodd;stroke:#000000;stroke-width:2.0px;stroke-linecap:butt;stroke-linejoin:miter;stroke-opacity:1"/>
<path class="bond-11 atom-11 atom-12" d="M 1001.4,191.6 L 1009.6,182.9" style="fill:none;fill-rule:evenodd;stroke:#000000;stroke-width:2.0px;stroke-linecap:butt;stroke-linejoin:miter;stroke-opacity:1"/>
<path class="bond-11 atom-11 atom-12" d="M 1009.6,182.9 L 1017.8,174.2" style="fill:none;fill-rule:evenodd;stroke:#0000FF;stroke-width:2.0px;stroke-linecap:butt;stroke-linejoin:miter;stroke-opacity:1"/>
<path class="bond-12 atom-12 atom-13" d="M 1026.2,170.7 L 1038.8,173.6" style="fill:none;fill-rule:evenodd;stroke:#0000FF;stroke-width:2.0px;stroke-linecap:butt;stroke-linejoin:miter;stroke-opacity:1"/>
<path class="bond-12 atom-12 atom-13" d="M 1038.8,173.6 L 1051.3,176.5" style="fill:none;fill-rule:evenodd;stroke:#000000;stroke-width:2.0px;stroke-linecap:butt;stroke-linejoin:miter;stroke-opacity:1"/>
<path class="bond-13 atom-13 atom-14" d="M 1051.3,176.5 L 1071.9,154.6" style="fill:none;fill-rule:evenodd;stroke:#000000;stroke-width:2.0px;stroke-linecap:butt;stroke-linejoin:miter;stroke-opacity:1"/>
<path class="bond-14 atom-14 atom-15" d="M 1071.9,154.6 L 1084.4,157.5" style="fill:none;fill-rule:evenodd;stroke:#000000;stroke-width:2.0px;stroke-linecap:butt;stroke-linejoin:miter;stroke-opacity:1"/>
<path class="bond-14 atom-14 atom-15" d="M 1084.4,157.5 L 1096.9,160.5" style="fill:none;fill-rule:evenodd;stroke:#0000FF;stroke-width:2.0px;stroke-linecap:butt;stroke-linejoin:miter;stroke-opacity:1"/>
<path class="bond-15 atom-15 atom-16" d="M 1102.7,166.7 L 1106.3,178.5" style="fill:none;fill-rule:evenodd;stroke:#0000FF;stroke-width:2.0px;stroke-linecap:butt;stroke-linejoin:miter;stroke-opacity:1"/>
<path class="bond-15 atom-15 atom-16" d="M 1106.3,178.5 L 1109.9,190.2" style="fill:none;fill-rule:evenodd;stroke:#000000;stroke-width:2.0px;stroke-linecap:butt;stroke-linejoin:miter;stroke-opacity:1"/>
<path class="bond-16 atom-16 atom-17" d="M 1109.9,190.2 L 1139.1,197.1" style="fill:none;fill-rule:evenodd;stroke:#000000;stroke-width:2.0px;stroke-linecap:butt;stroke-linejoin:miter;stroke-opacity:1"/>
<path class="bond-17 atom-17 atom-18" d="M 1139.1,197.1 L 1147.0,188.7" style="fill:none;fill-rule:evenodd;stroke:#000000;stroke-width:2.0px;stroke-linecap:butt;stroke-linejoin:miter;stroke-opacity:1"/>
<path class="bond-17 atom-17 atom-18" d="M 1147.0,188.7 L 1154.8,180.4" style="fill:none;fill-rule:evenodd;stroke:#FF0000;stroke-width:2.0px;stroke-linecap:butt;stroke-linejoin:miter;stroke-opacity:1"/>
<path class="bond-18 atom-18 atom-19" d="M 1158.1,169.9 L 1154.6,158.1" style="fill:none;fill-rule:evenodd;stroke:#FF0000;stroke-width:2.0px;stroke-linecap:butt;stroke-linejoin:miter;stroke-opacity:1"/>
<path class="bond-18 atom-18 atom-19" d="M 1154.6,158.1 L 1151.0,146.4" style="fill:none;fill-rule:evenodd;stroke:#000000;stroke-width:2.0px;stroke-linecap:butt;stroke-linejoin:miter;stroke-opacity:1"/>
<path class="bond-19 atom-19 atom-20" d="M 1151.0,146.4 L 1121.7,139.5" style="fill:none;fill-rule:evenodd;stroke:#000000;stroke-width:2.0px;stroke-linecap:butt;stroke-linejoin:miter;stroke-opacity:1"/>
<path class="bond-20 atom-11 atom-21" d="M 1001.4,191.6 L 988.9,188.7" style="fill:none;fill-rule:evenodd;stroke:#000000;stroke-width:2.0px;stroke-linecap:butt;stroke-linejoin:miter;stroke-opacity:1"/>
<path class="bond-20 atom-11 atom-21" d="M 988.9,188.7 L 976.4,185.8" style="fill:none;fill-rule:evenodd;stroke:#0000FF;stroke-width:2.0px;stroke-linecap:butt;stroke-linejoin:miter;stroke-opacity:1"/>
<path class="bond-20 atom-11 atom-21" d="M 997.9,195.4 L 986.6,192.8" style="fill:none;fill-rule:evenodd;stroke:#000000;stroke-width:2.0px;stroke-linecap:butt;stroke-linejoin:miter;stroke-opacity:1"/>
<path class="bond-20 atom-11 atom-21" d="M 986.6,192.8 L 975.4,190.1" style="fill:none;fill-rule:evenodd;stroke:#0000FF;stroke-width:2.0px;stroke-linecap:butt;stroke-linejoin:miter;stroke-opacity:1"/>
<path class="bond-21 atom-21 atom-22" d="M 967.9,189.3 L 955.8,202.2" style="fill:none;fill-rule:evenodd;stroke:#0000FF;stroke-width:2.0px;stroke-linecap:butt;stroke-linejoin:miter;stroke-opacity:1"/>
<path class="bond-22 atom-4 atom-23" d="M 904.3,181.4 L 874.4,183.9" style="fill:none;fill-rule:evenodd;stroke:#000000;stroke-width:2.0px;stroke-linecap:butt;stroke-linejoin:miter;stroke-opacity:1"/>
<path class="bond-23 atom-23 atom-24" d="M 874.4,183.9 L 867.6,174.2" style="fill:none;fill-rule:evenodd;stroke:#000000;stroke-width:2.0px;stroke-linecap:butt;stroke-linejoin:miter;stroke-opacity:1"/>
<path class="bond-23 atom-23 atom-24" d="M 867.6,174.2 L 860.9,164.5" style="fill:none;fill-rule:evenodd;stroke:#0000FF;stroke-width:2.0px;stroke-linecap:butt;stroke-linejoin:miter;stroke-opacity:1"/>
<path class="bond-23 atom-23 atom-24" d="M 876.6,179.2 L 870.6,170.6" style="fill:none;fill-rule:evenodd;stroke:#000000;stroke-width:2.0px;stroke-linecap:butt;stroke-linejoin:miter;stroke-opacity:1"/>
<path class="bond-23 atom-23 atom-24" d="M 870.6,170.6 L 864.6,161.9" style="fill:none;fill-rule:evenodd;stroke:#0000FF;stroke-width:2.0px;stroke-linecap:butt;stroke-linejoin:miter;stroke-opacity:1"/>
<path class="bond-24 atom-24 atom-1" d="M 859.7,154.0 L 864.8,143.0" style="fill:none;fill-rule:evenodd;stroke:#0000FF;stroke-width:2.0px;stroke-linecap:butt;stroke-linejoin:miter;stroke-opacity:1"/>
<path class="bond-24 atom-24 atom-1" d="M 864.8,143.0 L 870.0,132.0" style="fill:none;fill-rule:evenodd;stroke:#000000;stroke-width:2.0px;stroke-linecap:butt;stroke-linejoin:miter;stroke-opacity:1"/>
<path class="bond-25 atom-22 atom-5" d="M 947.4,206.6 L 934.4,206.3" style="fill:none;fill-rule:evenodd;stroke:#0000FF;stroke-width:2.0px;stroke-linecap:butt;stroke-linejoin:miter;stroke-opacity:1"/>
<path class="bond-25 atom-22 atom-5" d="M 934.4,206.3 L 921.5,206.1" style="fill:none;fill-rule:evenodd;stroke:#000000;stroke-width:2.0px;stroke-linecap:butt;stroke-linejoin:miter;stroke-opacity:1"/>
<path class="bond-26 atom-22 atom-8" d="M 953.2,211.9 L 956.7,223.7" style="fill:none;fill-rule:evenodd;stroke:#0000FF;stroke-width:2.0px;stroke-linecap:butt;stroke-linejoin:miter;stroke-opacity:1"/>
<path class="bond-26 atom-22 atom-8" d="M 956.7,223.7 L 960.3,235.5" style="fill:none;fill-rule:evenodd;stroke:#000000;stroke-width:2.0px;stroke-linecap:butt;stroke-linejoin:miter;stroke-opacity:1"/>
<path class="bond-27 atom-20 atom-15" d="M 1121.7,139.5 L 1113.5,148.2" style="fill:none;fill-rule:evenodd;stroke:#000000;stroke-width:2.0px;stroke-linecap:butt;stroke-linejoin:miter;stroke-opacity:1"/>
<path class="bond-27 atom-20 atom-15" d="M 1113.5,148.2 L 1105.4,156.9" style="fill:none;fill-rule:evenodd;stroke:#0000FF;stroke-width:2.0px;stroke-linecap:butt;stroke-linejoin:miter;stroke-opacity:1"/>
<path d="M 916.8,153.7 L 917.1,154.2 L 916.5,155.5" style="fill:none;stroke:#000000;stroke-width:2.0px;stroke-linecap:butt;stroke-linejoin:miter;stroke-opacity:1;"/>
<path d="M 912.1,233.1 L 911.6,234.5 L 912.1,234.9" style="fill:none;stroke:#000000;stroke-width:2.0px;stroke-linecap:butt;stroke-linejoin:miter;stroke-opacity:1;"/>
<path d="M 988.1,242.0 L 989.6,242.3 L 990.6,241.2" style="fill:none;stroke:#000000;stroke-width:2.0px;stroke-linecap:butt;stroke-linejoin:miter;stroke-opacity:1;"/>
<path d="M 1009.1,221.5 L 1010.1,220.4 L 1009.7,219.0" style="fill:none;stroke:#000000;stroke-width:2.0px;stroke-linecap:butt;stroke-linejoin:miter;stroke-opacity:1;"/>
<path d="M 1050.7,176.4 L 1051.3,176.5 L 1052.3,175.4" style="fill:none;stroke:#000000;stroke-width:2.0px;stroke-linecap:butt;stroke-linejoin:miter;stroke-opacity:1;"/>
<path d="M 1070.8,155.7 L 1071.9,154.6 L 1072.5,154.7" style="fill:none;stroke:#000000;stroke-width:2.0px;stroke-linecap:butt;stroke-linejoin:miter;stroke-opacity:1;"/>
<path d="M 1109.7,189.6 L 1109.9,190.2 L 1111.3,190.6" style="fill:none;stroke:#000000;stroke-width:2.0px;stroke-linecap:butt;stroke-linejoin:miter;stroke-opacity:1;"/>
<path d="M 1137.7,196.7 L 1139.1,197.1 L 1139.5,196.7" style="fill:none;stroke:#000000;stroke-width:2.0px;stroke-linecap:butt;stroke-linejoin:miter;stroke-opacity:1;"/>
<path d="M 1151.2,147.0 L 1151.0,146.4 L 1149.5,146.0" style="fill:none;stroke:#000000;stroke-width:2.0px;stroke-linecap:butt;stroke-linejoin:miter;stroke-opacity:1;"/>
<path d="M 1123.2,139.9 L 1121.7,139.5 L 1121.3,140.0" style="fill:none;stroke:#000000;stroke-width:2.0px;stroke-linecap:butt;stroke-linejoin:miter;stroke-opacity:1;"/>
<path d="M 875.9,183.8 L 874.4,183.9 L 874.0,183.4" style="fill:none;stroke:#000000;stroke-width:2.0px;stroke-linecap:butt;stroke-linejoin:miter;stroke-opacity:1;"/>
<path class="atom-0" d="M 836.4 103.1 L 837.5 103.1 L 837.5 106.7 L 841.9 106.7 L 841.9 103.1 L 843.0 103.1 L 843.0 111.6 L 841.9 111.6 L 841.9 107.7 L 837.5 107.7 L 837.5 111.6 L 836.4 111.6 L 836.4 103.1 " fill="#0000FF"/>
<path class="atom-0" d="M 844.7 111.3 Q 844.9 110.8, 845.4 110.5 Q 845.9 110.2, 846.6 110.2 Q 847.4 110.2, 847.9 110.6 Q 848.4 111.1, 848.4 111.9 Q 848.4 112.7, 847.8 113.5 Q 847.2 114.3, 845.9 115.2 L 848.5 115.2 L 848.5 115.9 L 844.7 115.9 L 844.7 115.3 Q 845.7 114.6, 846.4 114.0 Q 847.0 113.5, 847.3 113.0 Q 847.6 112.5, 847.6 112.0 Q 847.6 111.4, 847.3 111.1 Q 847.1 110.8, 846.6 110.8 Q 846.1 110.8, 845.8 111.0 Q 845.5 111.2, 845.3 111.6 L 844.7 111.3 " fill="#0000FF"/>
<path class="atom-0" d="M 850.9 103.1 L 853.7 107.6 Q 854.0 108.0, 854.4 108.8 Q 854.9 109.7, 854.9 109.7 L 854.9 103.1 L 856.0 103.1 L 856.0 111.6 L 854.9 111.6 L 851.9 106.7 Q 851.5 106.1, 851.2 105.4 Q 850.8 104.8, 850.7 104.6 L 850.7 111.6 L 849.6 111.6 L 849.6 103.1 L 850.9 103.1 " fill="#0000FF"/>
<path class="atom-2" d="M 898.1 125.2 L 900.9 129.7 Q 901.1 130.2, 901.6 131.0 Q 902.0 131.8, 902.1 131.9 L 902.1 125.2 L 903.2 125.2 L 903.2 133.8 L 902.0 133.8 L 899.0 128.8 Q 898.7 128.2, 898.3 127.6 Q 897.9 126.9, 897.8 126.7 L 897.8 133.8 L 896.7 133.8 L 896.7 125.2 L 898.1 125.2 " fill="#0000FF"/>
<path class="atom-7" d="M 933.7 248.4 L 936.5 252.9 Q 936.8 253.4, 937.2 254.2 Q 937.7 255.0, 937.7 255.0 L 937.7 248.4 L 938.8 248.4 L 938.8 256.9 L 937.7 256.9 L 934.7 252.0 Q 934.3 251.4, 934.0 250.7 Q 933.6 250.1, 933.5 249.9 L 933.5 256.9 L 932.4 256.9 L 932.4 248.4 L 933.7 248.4 " fill="#0000FF"/>
<path class="atom-12" d="M 1020.1 165.4 L 1022.9 169.9 Q 1023.2 170.4, 1023.6 171.2 Q 1024.1 172.0, 1024.1 172.0 L 1024.1 165.4 L 1025.2 165.4 L 1025.2 173.9 L 1024.1 173.9 L 1021.1 169.0 Q 1020.7 168.4, 1020.4 167.8 Q 1020.0 167.1, 1019.9 166.9 L 1019.9 173.9 L 1018.8 173.9 L 1018.8 165.4 L 1020.1 165.4 " fill="#0000FF"/>
<path class="atom-12" d="M 1018.7 156.1 L 1019.8 156.1 L 1019.8 159.7 L 1024.2 159.7 L 1024.2 156.1 L 1025.3 156.1 L 1025.3 164.6 L 1024.2 164.6 L 1024.2 160.6 L 1019.8 160.6 L 1019.8 164.6 L 1018.7 164.6 L 1018.7 156.1 " fill="#0000FF"/>
<path class="atom-15" d="M 1099.3 157.2 L 1102.1 161.7 Q 1102.3 162.1, 1102.8 163.0 Q 1103.2 163.8, 1103.2 163.8 L 1103.2 157.2 L 1104.4 157.2 L 1104.4 165.7 L 1103.2 165.7 L 1100.2 160.8 Q 1099.9 160.2, 1099.5 159.5 Q 1099.1 158.9, 1099.0 158.7 L 1099.0 165.7 L 1097.9 165.7 L 1097.9 157.2 L 1099.3 157.2 " fill="#0000FF"/>
<path class="atom-18" d="M 1155.8 175.2 Q 1155.8 173.1, 1156.8 172.0 Q 1157.8 170.8, 1159.7 170.8 Q 1161.6 170.8, 1162.6 172.0 Q 1163.6 173.1, 1163.6 175.2 Q 1163.6 177.2, 1162.6 178.4 Q 1161.6 179.6, 1159.7 179.6 Q 1157.8 179.6, 1156.8 178.4 Q 1155.8 177.3, 1155.8 175.2 M 1159.7 178.6 Q 1161.0 178.6, 1161.7 177.8 Q 1162.4 176.9, 1162.4 175.2 Q 1162.4 173.5, 1161.7 172.7 Q 1161.0 171.8, 1159.7 171.8 Q 1158.4 171.8, 1157.7 172.7 Q 1157.0 173.5, 1157.0 175.2 Q 1157.0 176.9, 1157.7 177.8 Q 1158.4 178.6, 1159.7 178.6 " fill="#FF0000"/>
<path class="atom-21" d="M 970.3 180.5 L 973.1 185.0 Q 973.3 185.5, 973.8 186.3 Q 974.2 187.1, 974.3 187.1 L 974.3 180.5 L 975.4 180.5 L 975.4 189.0 L 974.2 189.0 L 971.2 184.1 Q 970.9 183.5, 970.5 182.9 Q 970.1 182.2, 970.0 182.0 L 970.0 189.0 L 968.9 189.0 L 968.9 180.5 L 970.3 180.5 " fill="#0000FF"/>
<path class="atom-22" d="M 949.7 202.4 L 952.5 206.9 Q 952.8 207.4, 953.2 208.2 Q 953.7 209.0, 953.7 209.1 L 953.7 202.4 L 954.8 202.4 L 954.8 211.0 L 953.6 211.0 L 950.7 206.0 Q 950.3 205.4, 949.9 204.8 Q 949.6 204.1, 949.5 203.9 L 949.5 211.0 L 948.4 211.0 L 948.4 202.4 L 949.7 202.4 " fill="#0000FF"/>
<path class="atom-24" d="M 855.3 155.0 L 858.1 159.5 Q 858.4 159.9, 858.8 160.7 Q 859.3 161.6, 859.3 161.6 L 859.3 155.0 L 860.4 155.0 L 860.4 163.5 L 859.3 163.5 L 856.3 158.6 Q 855.9 158.0, 855.5 157.3 Q 855.2 156.7, 855.1 156.5 L 855.1 163.5 L 854.0 163.5 L 854.0 155.0 L 855.3 155.0 " fill="#0000FF"/>
<path class="legend" d="M 974.4 381.5 Q 975.7 381.5, 976.4 382.2 Q 977.1 383.0, 977.1 384.4 L 977.1 389.9 L 975.6 389.9 L 975.6 384.5 Q 975.6 383.6, 975.2 383.1 Q 974.8 382.7, 974.0 382.7 Q 973.2 382.7, 972.6 383.0 Q 972.0 383.4, 971.6 384.0 L 971.6 389.9 L 970.1 389.9 L 970.1 381.6 L 971.3 381.6 L 971.5 382.8 Q 972.6 381.5, 974.4 381.5 " fill="#000000"/>
<path class="legend" d="M 986.0 381.6 L 986.0 389.9 L 984.8 389.9 L 984.6 388.7 Q 983.6 390.0, 981.8 390.0 Q 980.4 390.0, 979.7 389.3 Q 979.0 388.5, 979.0 387.1 L 979.0 381.6 L 980.5 381.6 L 980.5 387.0 Q 980.5 387.9, 980.9 388.4 Q 981.3 388.8, 982.1 388.8 Q 982.9 388.8, 983.5 388.5 Q 984.1 388.1, 984.5 387.5 L 984.5 381.6 L 986.0 381.6 " fill="#000000"/>
<path class="legend" d="M 988.1 385.7 Q 988.1 383.7, 989.1 382.6 Q 990.1 381.5, 992.0 381.5 Q 993.9 381.5, 994.9 382.8 L 993.8 383.6 Q 993.5 383.1, 993.0 382.9 Q 992.6 382.7, 992.0 382.7 Q 990.9 382.7, 990.2 383.5 Q 989.6 384.2, 989.6 385.7 Q 989.6 387.2, 990.2 388.0 Q 990.9 388.8, 992.1 388.8 Q 992.8 388.8, 993.2 388.7 Q 993.7 388.5, 994.3 388.2 L 994.7 389.3 Q 993.5 390.0, 992.0 390.0 Q 990.1 390.0, 989.1 388.8 Q 988.1 387.7, 988.1 385.7 " fill="#000000"/>
<path class="legend" d="M 996.6 388.6 L 999.1 388.6 L 999.1 380.1 L 996.3 381.0 L 996.0 380.0 L 999.4 378.5 L 1000.6 378.7 L 1000.6 388.6 L 1002.8 388.6 L 1002.8 389.9 L 996.6 389.9 L 996.6 388.6 " fill="#000000"/>
<path class="legend" d="M 1010.1 379.8 L 1004.2 379.8 L 1004.2 378.5 L 1011.7 378.5 L 1011.7 379.7 L 1007.1 389.9 L 1005.6 389.9 L 1010.1 379.8 " fill="#000000"/>
<path class="legend" d="M 1018.8 379.8 L 1012.9 379.8 L 1012.9 378.5 L 1020.4 378.5 L 1020.4 379.7 L 1015.9 389.9 L 1014.3 389.9 L 1018.8 379.8 " fill="#000000"/>
<path class="legend" d="M 1025.8 390.0 Q 1023.7 390.0, 1022.6 388.4 Q 1021.6 386.9, 1021.6 384.2 Q 1021.6 381.4, 1022.6 379.9 Q 1023.7 378.4, 1025.8 378.4 Q 1027.9 378.4, 1028.9 379.9 Q 1029.9 381.4, 1029.9 384.2 Q 1029.9 386.9, 1028.9 388.4 Q 1027.8 390.0, 1025.8 390.0 M 1025.8 388.7 Q 1027.0 388.7, 1027.7 387.6 Q 1028.3 386.4, 1028.3 384.2 Q 1028.3 382.0, 1027.7 380.8 Q 1027.0 379.7, 1025.8 379.7 Q 1024.6 379.7, 1023.9 380.8 Q 1023.2 382.0, 1023.2 384.2 Q 1023.2 386.4, 1023.9 387.6 Q 1024.6 388.7, 1025.8 388.7 " fill="#000000"/>
<path class="bond-0 atom-0 atom-1" d="M 1454.0,95.9 L 1474.6,117.8" style="fill:none;fill-rule:evenodd;stroke:#000000;stroke-width:2.0px;stroke-linecap:butt;stroke-linejoin:miter;stroke-opacity:1"/>
<path class="bond-1 atom-1 atom-2" d="M 1474.6,117.8 L 1495.2,139.7" style="fill:none;fill-rule:evenodd;stroke:#000000;stroke-width:2.0px;stroke-linecap:butt;stroke-linejoin:miter;stroke-opacity:1"/>
<path class="bond-2 atom-1 atom-3" d="M 1474.6,117.8 L 1496.5,97.2" style="fill:none;fill-rule:evenodd;stroke:#000000;stroke-width:2.0px;stroke-linecap:butt;stroke-linejoin:miter;stroke-opacity:1"/>
<path class="bond-3 atom-1 atom-4" d="M 1474.6,117.8 L 1466.1,125.8" style="fill:none;fill-rule:evenodd;stroke:#000000;stroke-width:2.0px;stroke-linecap:butt;stroke-linejoin:miter;stroke-opacity:1"/>
<path class="bond-3 atom-1 atom-4" d="M 1466.1,125.8 L 1457.6,133.8" style="fill:none;fill-rule:evenodd;stroke:#FF0000;stroke-width:2.0px;stroke-linecap:butt;stroke-linejoin:miter;stroke-opacity:1"/>
<path class="bond-4 atom-4 atom-5" d="M 1454.0,143.8 L 1456.8,155.7" style="fill:none;fill-rule:evenodd;stroke:#FF0000;stroke-width:2.0px;stroke-linecap:butt;stroke-linejoin:miter;stroke-opacity:1"/>
<path class="bond-4 atom-4 atom-5" d="M 1456.8,155.7 L 1459.6,167.6" style="fill:none;fill-rule:evenodd;stroke:#000000;stroke-width:2.0px;stroke-linecap:butt;stroke-linejoin:miter;stroke-opacity:1"/>
<path class="bond-5 atom-5 atom-6" d="M 1457.7,169.4 L 1470.2,173.2" style="fill:none;fill-rule:evenodd;stroke:#000000;stroke-width:2.0px;stroke-linecap:butt;stroke-linejoin:miter;stroke-opacity:1"/>
<path class="bond-5 atom-5 atom-6" d="M 1470.2,173.2 L 1482.8,177.0" style="fill:none;fill-rule:evenodd;stroke:#FF0000;stroke-width:2.0px;stroke-linecap:butt;stroke-linejoin:miter;stroke-opacity:1"/>
<path class="bond-5 atom-5 atom-6" d="M 1459.0,165.1 L 1471.5,168.9" style="fill:none;fill-rule:evenodd;stroke:#000000;stroke-width:2.0px;stroke-linecap:butt;stroke-linejoin:miter;stroke-opacity:1"/>
<path class="bond-5 atom-5 atom-6" d="M 1471.5,168.9 L 1484.1,172.7" style="fill:none;fill-rule:evenodd;stroke:#FF0000;stroke-width:2.0px;stroke-linecap:butt;stroke-linejoin:miter;stroke-opacity:1"/>
<path class="bond-6 atom-5 atom-7" d="M 1459.6,167.6 L 1450.7,176.0" style="fill:none;fill-rule:evenodd;stroke:#000000;stroke-width:2.0px;stroke-linecap:butt;stroke-linejoin:miter;stroke-opacity:1"/>
<path class="bond-6 atom-5 atom-7" d="M 1450.7,176.0 L 1441.9,184.3" style="fill:none;fill-rule:evenodd;stroke:#0000FF;stroke-width:2.0px;stroke-linecap:butt;stroke-linejoin:miter;stroke-opacity:1"/>
<path class="bond-7 atom-7 atom-8" d="M 1438.9,193.5 L 1441.7,205.5" style="fill:none;fill-rule:evenodd;stroke:#0000FF;stroke-width:2.0px;stroke-linecap:butt;stroke-linejoin:miter;stroke-opacity:1"/>
<path class="bond-7 atom-7 atom-8" d="M 1441.7,205.5 L 1444.5,217.5" style="fill:none;fill-rule:evenodd;stroke:#000000;stroke-width:2.0px;stroke-linecap:butt;stroke-linejoin:miter;stroke-opacity:1"/>
<path class="bond-8 atom-8 atom-9" d="M 1444.5,217.5 L 1473.3,226.2" style="fill:none;fill-rule:evenodd;stroke:#000000;stroke-width:2.0px;stroke-linecap:butt;stroke-linejoin:miter;stroke-opacity:1"/>
<path class="bond-9 atom-9 atom-10" d="M 1473.3,226.2 L 1480.2,255.5" style="fill:none;fill-rule:evenodd;stroke:#000000;stroke-width:2.0px;stroke-linecap:butt;stroke-linejoin:miter;stroke-opacity:1"/>
<path class="bond-9 atom-9 atom-10" d="M 1478.3,227.7 L 1484.0,251.9" style="fill:none;fill-rule:evenodd;stroke:#000000;stroke-width:2.0px;stroke-linecap:butt;stroke-linejoin:miter;stroke-opacity:1"/>
<path class="bond-10 atom-10 atom-11" d="M 1480.2,255.5 L 1509.0,264.1" style="fill:none;fill-rule:evenodd;stroke:#000000;stroke-width:2.0px;stroke-linecap:butt;stroke-linejoin:miter;stroke-opacity:1"/>
<path class="bond-11 atom-11 atom-12" d="M 1509.0,264.1 L 1530.9,243.6" style="fill:none;fill-rule:evenodd;stroke:#000000;stroke-width:2.0px;stroke-linecap:butt;stroke-linejoin:miter;stroke-opacity:1"/>
<path class="bond-11 atom-11 atom-12" d="M 1507.8,259.1 L 1525.9,242.0" style="fill:none;fill-rule:evenodd;stroke:#000000;stroke-width:2.0px;stroke-linecap:butt;stroke-linejoin:miter;stroke-opacity:1"/>
<path class="bond-12 atom-12 atom-13" d="M 1530.9,243.6 L 1524.0,214.3" style="fill:none;fill-rule:evenodd;stroke:#000000;stroke-width:2.0px;stroke-linecap:butt;stroke-linejoin:miter;stroke-opacity:1"/>
<path class="bond-13 atom-13 atom-14" d="M 1524.0,214.3 L 1511.7,210.6" style="fill:none;fill-rule:evenodd;stroke:#000000;stroke-width:2.0px;stroke-linecap:butt;stroke-linejoin:miter;stroke-opacity:1"/>
<path class="bond-13 atom-13 atom-14" d="M 1511.7,210.6 L 1499.5,206.9" style="fill:none;fill-rule:evenodd;stroke:#0000FF;stroke-width:2.0px;stroke-linecap:butt;stroke-linejoin:miter;stroke-opacity:1"/>
<path class="bond-13 atom-13 atom-14" d="M 1520.2,217.8 L 1509.2,214.5" style="fill:none;fill-rule:evenodd;stroke:#000000;stroke-width:2.0px;stroke-linecap:butt;stroke-linejoin:miter;stroke-opacity:1"/>
<path class="bond-13 atom-13 atom-14" d="M 1509.2,214.5 L 1498.2,211.2" style="fill:none;fill-rule:evenodd;stroke:#0000FF;stroke-width:2.0px;stroke-linecap:butt;stroke-linejoin:miter;stroke-opacity:1"/>
<path class="bond-14 atom-7 atom-15" d="M 1433.4,187.0 L 1421.1,183.3" style="fill:none;fill-rule:evenodd;stroke:#0000FF;stroke-width:2.0px;stroke-linecap:butt;stroke-linejoin:miter;stroke-opacity:1"/>
<path class="bond-14 atom-7 atom-15" d="M 1421.1,183.3 L 1408.9,179.5" style="fill:none;fill-rule:evenodd;stroke:#000000;stroke-width:2.0px;stroke-linecap:butt;stroke-linejoin:miter;stroke-opacity:1"/>
<path class="bond-15 atom-15 atom-16" d="M 1408.9,179.5 L 1402.0,150.3" style="fill:none;fill-rule:evenodd;stroke:#000000;stroke-width:2.0px;stroke-linecap:butt;stroke-linejoin:miter;stroke-opacity:1"/>
<path class="bond-15 atom-15 atom-16" d="M 1403.9,178.0 L 1398.2,153.8" style="fill:none;fill-rule:evenodd;stroke:#000000;stroke-width:2.0px;stroke-linecap:butt;stroke-linejoin:miter;stroke-opacity:1"/>
<path class="bond-16 atom-16 atom-17" d="M 1402.0,150.3 L 1373.2,141.6" style="fill:none;fill-rule:evenodd;stroke:#000000;stroke-width:2.0px;stroke-linecap:butt;stroke-linejoin:miter;stroke-opacity:1"/>
<path class="bond-17 atom-17 atom-18" d="M 1373.2,141.6 L 1351.3,162.2" style="fill:none;fill-rule:evenodd;stroke:#000000;stroke-width:2.0px;stroke-linecap:butt;stroke-linejoin:miter;stroke-opacity:1"/>
<path class="bond-17 atom-17 atom-18" d="M 1374.4,146.7 L 1356.3,163.7" style="fill:none;fill-rule:evenodd;stroke:#000000;stroke-width:2.0px;stroke-linecap:butt;stroke-linejoin:miter;stroke-opacity:1"/>
<path class="bond-18 atom-18 atom-19" d="M 1351.3,162.2 L 1358.2,191.5" style="fill:none;fill-rule:evenodd;stroke:#000000;stroke-width:2.0px;stroke-linecap:butt;stroke-linejoin:miter;stroke-opacity:1"/>
<path class="bond-19 atom-19 atom-20" d="M 1358.2,191.5 L 1336.2,212.1" style="fill:none;fill-rule:evenodd;stroke:#000000;stroke-width:2.0px;stroke-linecap:butt;stroke-linejoin:miter;stroke-opacity:1"/>
<path class="bond-20 atom-20 atom-21" d="M 1336.2,212.1 L 1307.4,203.4" style="fill:none;fill-rule:evenodd;stroke:#000000;stroke-width:2.0px;stroke-linecap:butt;stroke-linejoin:miter;stroke-opacity:1"/>
<path class="bond-21 atom-21 atom-22" d="M 1307.4,203.4 L 1298.6,211.7" style="fill:none;fill-rule:evenodd;stroke:#000000;stroke-width:2.0px;stroke-linecap:butt;stroke-linejoin:miter;stroke-opacity:1"/>
<path class="bond-21 atom-21 atom-22" d="M 1298.6,211.7 L 1289.8,220.0" style="fill:none;fill-rule:evenodd;stroke:#0000FF;stroke-width:2.0px;stroke-linecap:butt;stroke-linejoin:miter;stroke-opacity:1"/>
<path class="bond-22 atom-19 atom-23" d="M 1358.2,191.5 L 1370.4,195.2" style="fill:none;fill-rule:evenodd;stroke:#000000;stroke-width:2.0px;stroke-linecap:butt;stroke-linejoin:miter;stroke-opacity:1"/>
<path class="bond-22 atom-19 atom-23" d="M 1370.4,195.2 L 1382.7,198.9" style="fill:none;fill-rule:evenodd;stroke:#0000FF;stroke-width:2.0px;stroke-linecap:butt;stroke-linejoin:miter;stroke-opacity:1"/>
<path class="bond-22 atom-19 atom-23" d="M 1362.0,187.9 L 1373.0,191.2" style="fill:none;fill-rule:evenodd;stroke:#000000;stroke-width:2.0px;stroke-linecap:butt;stroke-linejoin:miter;stroke-opacity:1"/>
<path class="bond-22 atom-19 atom-23" d="M 1373.0,191.2 L 1384.0,194.5" style="fill:none;fill-rule:evenodd;stroke:#0000FF;stroke-width:2.0px;stroke-linecap:butt;stroke-linejoin:miter;stroke-opacity:1"/>
<path class="bond-23 atom-14 atom-9" d="M 1491.0,209.6 L 1482.2,217.9" style="fill:none;fill-rule:evenodd;stroke:#0000FF;stroke-width:2.0px;stroke-linecap:butt;stroke-linejoin:miter;stroke-opacity:1"/>
<path class="bond-23 atom-14 atom-9" d="M 1482.2,217.9 L 1473.3,226.2" style="fill:none;fill-rule:evenodd;stroke:#000000;stroke-width:2.0px;stroke-linecap:butt;stroke-linejoin:miter;stroke-opacity:1"/>
<path class="bond-24 atom-23 atom-15" d="M 1391.2,196.2 L 1400.0,187.9" style="fill:none;fill-rule:evenodd;stroke:#0000FF;stroke-width:2.0px;stroke-linecap:butt;stroke-linejoin:miter;stroke-opacity:1"/>
<path class="bond-24 atom-23 atom-15" d="M 1400.0,187.9 L 1408.9,179.5" style="fill:none;fill-rule:evenodd;stroke:#000000;stroke-width:2.0px;stroke-linecap:butt;stroke-linejoin:miter;stroke-opacity:1"/>
<path d="M 1459.4,167.0 L 1459.6,167.6 L 1459.1,168.1" style="fill:none;stroke:#000000;stroke-width:2.0px;stroke-linecap:butt;stroke-linejoin:miter;stroke-opacity:1;"/>
<path d="M 1444.4,216.9 L 1444.5,217.5 L 1446.0,217.9" style="fill:none;stroke:#000000;stroke-width:2.0px;stroke-linecap:butt;stroke-linejoin:miter;stroke-opacity:1;"/>
<path d="M 1479.9,254.0 L 1480.2,255.5 L 1481.6,255.9" style="fill:none;stroke:#000000;stroke-width:2.0px;stroke-linecap:butt;stroke-linejoin:miter;stroke-opacity:1;"/>
<path d="M 1507.5,263.7 L 1509.0,264.1 L 1510.1,263.1" style="fill:none;stroke:#000000;stroke-width:2.0px;stroke-linecap:butt;stroke-linejoin:miter;stroke-opacity:1;"/>
<path d="M 1529.8,244.6 L 1530.9,243.6 L 1530.6,242.1" style="fill:none;stroke:#000000;stroke-width:2.0px;stroke-linecap:butt;stroke-linejoin:miter;stroke-opacity:1;"/>
<path d="M 1524.4,215.7 L 1524.0,214.3 L 1523.4,214.1" style="fill:none;stroke:#000000;stroke-width:2.0px;stroke-linecap:butt;stroke-linejoin:miter;stroke-opacity:1;"/>
<path d="M 1402.3,151.7 L 1402.0,150.3 L 1400.5,149.8" style="fill:none;stroke:#000000;stroke-width:2.0px;stroke-linecap:butt;stroke-linejoin:miter;stroke-opacity:1;"/>
<path d="M 1374.6,142.0 L 1373.2,141.6 L 1372.1,142.6" style="fill:none;stroke:#000000;stroke-width:2.0px;stroke-linecap:butt;stroke-linejoin:miter;stroke-opacity:1;"/>
<path d="M 1352.4,161.2 L 1351.3,162.2 L 1351.6,163.6" style="fill:none;stroke:#000000;stroke-width:2.0px;stroke-linecap:butt;stroke-linejoin:miter;stroke-opacity:1;"/>
<path d="M 1337.3,211.0 L 1336.2,212.1 L 1334.8,211.6" style="fill:none;stroke:#000000;stroke-width:2.0px;stroke-linecap:butt;stroke-linejoin:miter;stroke-opacity:1;"/>
<path d="M 1308.9,203.8 L 1307.4,203.4 L 1307.0,203.8" style="fill:none;stroke:#000000;stroke-width:2.0px;stroke-linecap:butt;stroke-linejoin:miter;stroke-opacity:1;"/>
<path class="atom-4" d="M 1448.8 138.4 Q 1448.8 136.3, 1449.8 135.2 Q 1450.8 134.1, 1452.7 134.1 Q 1454.6 134.1, 1455.6 135.2 Q 1456.6 136.3, 1456.6 138.4 Q 1456.6 140.5, 1455.6 141.6 Q 1454.6 142.8, 1452.7 142.8 Q 1450.8 142.8, 1449.8 141.6 Q 1448.8 140.5, 1448.8 138.4 M 1452.7 141.8 Q 1454.0 141.8, 1454.7 141.0 Q 1455.4 140.1, 1455.4 138.4 Q 1455.4 136.7, 1454.7 135.9 Q 1454.0 135.0, 1452.7 135.0 Q 1451.4 135.0, 1450.7 135.9 Q 1450.0 136.7, 1450.0 138.4 Q 1450.0 140.1, 1450.7 141.0 Q 1451.4 141.8, 1452.7 141.8 " fill="#FF0000"/>
<path class="atom-6" d="M 1484.4 176.3 Q 1484.4 174.3, 1485.5 173.2 Q 1486.5 172.0, 1488.4 172.0 Q 1490.2 172.0, 1491.3 173.2 Q 1492.3 174.3, 1492.3 176.3 Q 1492.3 178.4, 1491.2 179.6 Q 1490.2 180.8, 1488.4 180.8 Q 1486.5 180.8, 1485.5 179.6 Q 1484.4 178.4, 1484.4 176.3 M 1488.4 179.8 Q 1489.7 179.8, 1490.4 178.9 Q 1491.1 178.1, 1491.1 176.3 Q 1491.1 174.7, 1490.4 173.8 Q 1489.7 173.0, 1488.4 173.0 Q 1487.1 173.0, 1486.4 173.8 Q 1485.7 174.7, 1485.7 176.3 Q 1485.7 178.1, 1486.4 178.9 Q 1487.1 179.8, 1488.4 179.8 " fill="#FF0000"/>
<path class="atom-7" d="M 1435.8 184.0 L 1438.6 188.5 Q 1438.8 188.9, 1439.3 189.7 Q 1439.7 190.5, 1439.8 190.6 L 1439.8 184.0 L 1440.9 184.0 L 1440.9 192.5 L 1439.7 192.5 L 1436.7 187.6 Q 1436.4 187.0, 1436.0 186.3 Q 1435.6 185.7, 1435.5 185.5 L 1435.5 192.5 L 1434.4 192.5 L 1434.4 184.0 L 1435.8 184.0 " fill="#0000FF"/>
<path class="atom-14" d="M 1493.4 201.3 L 1496.1 205.8 Q 1496.4 206.3, 1496.9 207.1 Q 1497.3 207.9, 1497.3 208.0 L 1497.3 201.3 L 1498.5 201.3 L 1498.5 209.9 L 1497.3 209.9 L 1494.3 204.9 Q 1494.0 204.3, 1493.6 203.7 Q 1493.2 203.0, 1493.1 202.8 L 1493.1 209.9 L 1492.0 209.9 L 1492.0 201.3 L 1493.4 201.3 " fill="#0000FF"/>
<path class="atom-22" d="M 1269.1 219.7 L 1270.3 219.7 L 1270.3 223.3 L 1274.6 223.3 L 1274.6 219.7 L 1275.8 219.7 L 1275.8 228.2 L 1274.6 228.2 L 1274.6 224.3 L 1270.3 224.3 L 1270.3 228.2 L 1269.1 228.2 L 1269.1 219.7 " fill="#0000FF"/>
<path class="atom-22" d="M 1277.4 227.9 Q 1277.6 227.4, 1278.1 227.1 Q 1278.6 226.8, 1279.3 226.8 Q 1280.2 226.8, 1280.6 227.3 Q 1281.1 227.7, 1281.1 228.5 Q 1281.1 229.4, 1280.5 230.1 Q 1279.9 230.9, 1278.6 231.8 L 1281.2 231.8 L 1281.2 232.5 L 1277.4 232.5 L 1277.4 231.9 Q 1278.5 231.2, 1279.1 230.6 Q 1279.7 230.1, 1280.0 229.6 Q 1280.3 229.1, 1280.3 228.6 Q 1280.3 228.0, 1280.0 227.7 Q 1279.8 227.4, 1279.3 227.4 Q 1278.8 227.4, 1278.5 227.6 Q 1278.2 227.8, 1278.0 228.2 L 1277.4 227.9 " fill="#0000FF"/>
<path class="atom-22" d="M 1283.7 219.7 L 1286.4 224.2 Q 1286.7 224.7, 1287.2 225.5 Q 1287.6 226.3, 1287.6 226.3 L 1287.6 219.7 L 1288.8 219.7 L 1288.8 228.2 L 1287.6 228.2 L 1284.6 223.3 Q 1284.3 222.7, 1283.9 222.0 Q 1283.5 221.4, 1283.4 221.2 L 1283.4 228.2 L 1282.3 228.2 L 1282.3 219.7 L 1283.7 219.7 " fill="#0000FF"/>
<path class="atom-23" d="M 1385.1 195.9 L 1387.9 200.4 Q 1388.1 200.8, 1388.6 201.6 Q 1389.0 202.5, 1389.0 202.5 L 1389.0 195.9 L 1390.2 195.9 L 1390.2 204.4 L 1389.0 204.4 L 1386.0 199.5 Q 1385.7 198.9, 1385.3 198.2 Q 1384.9 197.6, 1384.8 197.4 L 1384.8 204.4 L 1383.7 204.4 L 1383.7 195.9 L 1385.1 195.9 " fill="#0000FF"/>
<path class="legend" d="M 1373.8 381.5 Q 1375.1 381.5, 1375.8 382.2 Q 1376.5 383.0, 1376.5 384.4 L 1376.5 389.9 L 1375.0 389.9 L 1375.0 384.5 Q 1375.0 383.6, 1374.6 383.1 Q 1374.3 382.7, 1373.4 382.7 Q 1372.7 382.7, 1372.0 383.0 Q 1371.4 383.4, 1371.0 384.0 L 1371.0 389.9 L 1369.5 389.9 L 1369.5 381.6 L 1370.7 381.6 L 1370.9 382.8 Q 1372.0 381.5, 1373.8 381.5 " fill="#000000"/>
<path class="legend" d="M 1385.5 381.6 L 1385.5 389.9 L 1384.2 389.9 L 1384.1 388.7 Q 1383.0 390.0, 1381.3 390.0 Q 1379.9 390.0, 1379.2 389.3 Q 1378.5 388.5, 1378.5 387.1 L 1378.5 381.6 L 1380.0 381.6 L 1380.0 387.0 Q 1380.0 387.9, 1380.3 388.4 Q 1380.7 388.8, 1381.6 388.8 Q 1382.3 388.8, 1382.9 388.5 Q 1383.6 388.1, 1384.0 387.5 L 1384.0 381.6 L 1385.5 381.6 " fill="#000000"/>
<path class="legend" d="M 1387.5 385.7 Q 1387.5 383.7, 1388.5 382.6 Q 1389.5 381.5, 1391.4 381.5 Q 1393.3 381.5, 1394.3 382.8 L 1393.3 383.6 Q 1392.9 383.1, 1392.4 382.9 Q 1392.0 382.7, 1391.4 382.7 Q 1390.3 382.7, 1389.7 383.5 Q 1389.0 384.2, 1389.0 385.7 Q 1389.0 387.2, 1389.7 388.0 Q 1390.3 388.8, 1391.5 388.8 Q 1392.2 388.8, 1392.7 388.7 Q 1393.1 388.5, 1393.7 388.2 L 1394.1 389.3 Q 1392.9 390.0, 1391.4 390.0 Q 1389.5 390.0, 1388.5 388.8 Q 1387.5 387.7, 1387.5 385.7 " fill="#000000"/>
<path class="legend" d="M 1396.0 388.6 L 1398.5 388.6 L 1398.5 380.1 L 1395.8 381.0 L 1395.4 380.0 L 1398.9 378.5 L 1400.0 378.7 L 1400.0 388.6 L 1402.2 388.6 L 1402.2 389.9 L 1396.0 389.9 L 1396.0 388.6 " fill="#000000"/>
<path class="legend" d="M 1407.4 378.4 Q 1409.4 378.4, 1410.5 379.8 Q 1411.5 381.1, 1411.5 383.9 Q 1411.5 386.9, 1410.2 388.4 Q 1409.0 390.0, 1406.6 390.0 Q 1405.8 390.0, 1405.2 389.8 Q 1404.6 389.7, 1404.1 389.3 L 1404.7 388.3 Q 1405.5 388.7, 1406.5 388.7 Q 1408.1 388.7, 1409.0 387.7 Q 1409.8 386.6, 1409.9 384.5 Q 1409.3 385.0, 1408.6 385.3 Q 1407.8 385.6, 1407.0 385.6 Q 1406.1 385.6, 1405.3 385.2 Q 1404.5 384.7, 1404.1 384.0 Q 1403.6 383.2, 1403.6 382.2 Q 1403.6 381.1, 1404.1 380.2 Q 1404.6 379.4, 1405.5 378.9 Q 1406.3 378.4, 1407.4 378.4 M 1405.2 382.2 Q 1405.2 383.2, 1405.8 383.7 Q 1406.3 384.3, 1407.3 384.3 Q 1408.0 384.3, 1408.7 384.0 Q 1409.4 383.8, 1409.9 383.3 Q 1409.8 381.4, 1409.2 380.6 Q 1408.6 379.7, 1407.4 379.7 Q 1406.8 379.7, 1406.3 380.0 Q 1405.8 380.4, 1405.5 380.9 Q 1405.2 381.5, 1405.2 382.2 " fill="#000000"/>
<path class="legend" d="M 1417.1 378.4 Q 1419.1 378.4, 1420.1 379.8 Q 1421.1 381.1, 1421.1 383.9 Q 1421.1 386.9, 1419.9 388.4 Q 1418.6 390.0, 1416.2 390.0 Q 1415.5 390.0, 1414.9 389.8 Q 1414.3 389.7, 1413.7 389.3 L 1414.4 388.3 Q 1415.2 388.7, 1416.2 388.7 Q 1417.8 388.7, 1418.6 387.7 Q 1419.4 386.6, 1419.5 384.5 Q 1419.0 385.0, 1418.2 385.3 Q 1417.5 385.6, 1416.7 385.6 Q 1415.7 385.6, 1414.9 385.2 Q 1414.2 384.7, 1413.7 384.0 Q 1413.3 383.2, 1413.3 382.2 Q 1413.3 381.1, 1413.8 380.2 Q 1414.3 379.4, 1415.1 378.9 Q 1416.0 378.4, 1417.1 378.4 M 1414.9 382.2 Q 1414.9 383.2, 1415.5 383.7 Q 1416.0 384.3, 1417.0 384.3 Q 1417.7 384.3, 1418.4 384.0 Q 1419.1 383.8, 1419.5 383.3 Q 1419.5 381.4, 1418.9 380.6 Q 1418.3 379.7, 1417.1 379.7 Q 1416.5 379.7, 1416.0 380.0 Q 1415.5 380.4, 1415.2 380.9 Q 1414.9 381.5, 1414.9 382.2 " fill="#000000"/>
<path class="legend" d="M 1428.9 379.8 L 1423.0 379.8 L 1423.0 378.5 L 1430.5 378.5 L 1430.5 379.7 L 1425.9 389.9 L 1424.4 389.9 L 1428.9 379.8 " fill="#000000"/>
<path class="bond-0 atom-0 atom-1" d="M 1691.8,133.3 L 1682.9,162.0" style="fill:none;fill-rule:evenodd;stroke:#000000;stroke-width:2.0px;stroke-linecap:butt;stroke-linejoin:miter;stroke-opacity:1"/>
<path class="bond-1 atom-1 atom-2" d="M 1682.9,162.0 L 1673.9,190.7" style="fill:none;fill-rule:evenodd;stroke:#000000;stroke-width:2.0px;stroke-linecap:butt;stroke-linejoin:miter;stroke-opacity:1"/>
<path class="bond-2 atom-1 atom-3" d="M 1682.9,162.0 L 1654.2,153.0" style="fill:none;fill-rule:evenodd;stroke:#000000;stroke-width:2.0px;stroke-linecap:butt;stroke-linejoin:miter;stroke-opacity:1"/>
<path class="bond-3 atom-1 atom-4" d="M 1682.9,162.0 L 1694.8,165.7" style="fill:none;fill-rule:evenodd;stroke:#000000;stroke-width:2.0px;stroke-linecap:butt;stroke-linejoin:miter;stroke-opacity:1"/>
<path class="bond-3 atom-1 atom-4" d="M 1694.8,165.7 L 1706.7,169.4" style="fill:none;fill-rule:evenodd;stroke:#FF0000;stroke-width:2.0px;stroke-linecap:butt;stroke-linejoin:miter;stroke-opacity:1"/>
<path class="bond-4 atom-4 atom-5" d="M 1712.8,176.4 L 1715.5,188.3" style="fill:none;fill-rule:evenodd;stroke:#FF0000;stroke-width:2.0px;stroke-linecap:butt;stroke-linejoin:miter;stroke-opacity:1"/>
<path class="bond-4 atom-4 atom-5" d="M 1715.5,188.3 L 1718.1,200.3" style="fill:none;fill-rule:evenodd;stroke:#000000;stroke-width:2.0px;stroke-linecap:butt;stroke-linejoin:miter;stroke-opacity:1"/>
<path class="bond-5 atom-5 atom-6" d="M 1717.6,197.8 L 1708.5,206.1" style="fill:none;fill-rule:evenodd;stroke:#000000;stroke-width:2.0px;stroke-linecap:butt;stroke-linejoin:miter;stroke-opacity:1"/>
<path class="bond-5 atom-5 atom-6" d="M 1708.5,206.1 L 1699.4,214.5" style="fill:none;fill-rule:evenodd;stroke:#FF0000;stroke-width:2.0px;stroke-linecap:butt;stroke-linejoin:miter;stroke-opacity:1"/>
<path class="bond-5 atom-5 atom-6" d="M 1720.6,201.1 L 1711.5,209.4" style="fill:none;fill-rule:evenodd;stroke:#000000;stroke-width:2.0px;stroke-linecap:butt;stroke-linejoin:miter;stroke-opacity:1"/>
<path class="bond-5 atom-5 atom-6" d="M 1711.5,209.4 L 1702.4,217.8" style="fill:none;fill-rule:evenodd;stroke:#FF0000;stroke-width:2.0px;stroke-linecap:butt;stroke-linejoin:miter;stroke-opacity:1"/>
<path class="bond-6 atom-5 atom-7" d="M 1718.1,200.3 L 1730.4,204.1" style="fill:none;fill-rule:evenodd;stroke:#000000;stroke-width:2.0px;stroke-linecap:butt;stroke-linejoin:miter;stroke-opacity:1"/>
<path class="bond-6 atom-5 atom-7" d="M 1730.4,204.1 L 1742.6,208.0" style="fill:none;fill-rule:evenodd;stroke:#0000FF;stroke-width:2.0px;stroke-linecap:butt;stroke-linejoin:miter;stroke-opacity:1"/>
<path class="bond-7 atom-7 atom-8" d="M 1751.1,205.4 L 1760.0,197.1" style="fill:none;fill-rule:evenodd;stroke:#0000FF;stroke-width:2.0px;stroke-linecap:butt;stroke-linejoin:miter;stroke-opacity:1"/>
<path class="bond-7 atom-7 atom-8" d="M 1760.0,197.1 L 1769.0,188.9" style="fill:none;fill-rule:evenodd;stroke:#000000;stroke-width:2.0px;stroke-linecap:butt;stroke-linejoin:miter;stroke-opacity:1"/>
<path class="bond-8 atom-8 atom-9" d="M 1769.0,188.9 L 1797.7,197.9" style="fill:none;fill-rule:evenodd;stroke:#000000;stroke-width:2.0px;stroke-linecap:butt;stroke-linejoin:miter;stroke-opacity:1"/>
<path class="bond-9 atom-9 atom-10" d="M 1797.7,197.9 L 1800.4,209.9" style="fill:none;fill-rule:evenodd;stroke:#000000;stroke-width:2.0px;stroke-linecap:butt;stroke-linejoin:miter;stroke-opacity:1"/>
<path class="bond-9 atom-9 atom-10" d="M 1800.4,209.9 L 1803.1,222.0" style="fill:none;fill-rule:evenodd;stroke:#0000FF;stroke-width:2.0px;stroke-linecap:butt;stroke-linejoin:miter;stroke-opacity:1"/>
<path class="bond-10 atom-10 atom-11" d="M 1808.5,228.5 L 1820.7,232.4" style="fill:none;fill-rule:evenodd;stroke:#0000FF;stroke-width:2.0px;stroke-linecap:butt;stroke-linejoin:miter;stroke-opacity:1"/>
<path class="bond-10 atom-10 atom-11" d="M 1820.7,232.4 L 1832.9,236.2" style="fill:none;fill-rule:evenodd;stroke:#000000;stroke-width:2.0px;stroke-linecap:butt;stroke-linejoin:miter;stroke-opacity:1"/>
<path class="bond-11 atom-11 atom-12" d="M 1832.9,236.2 L 1839.5,265.5" style="fill:none;fill-rule:evenodd;stroke:#000000;stroke-width:2.0px;stroke-linecap:butt;stroke-linejoin:miter;stroke-opacity:1"/>
<path class="bond-12 atom-12 atom-13" d="M 1839.5,265.5 L 1868.2,274.5" style="fill:none;fill-rule:evenodd;stroke:#000000;stroke-width:2.0px;stroke-linecap:butt;stroke-linejoin:miter;stroke-opacity:1"/>
<path class="bond-12 atom-12 atom-13" d="M 1843.4,262.0 L 1867.1,269.4" style="fill:none;fill-rule:evenodd;stroke:#000000;stroke-width:2.0px;stroke-linecap:butt;stroke-linejoin:miter;stroke-opacity:1"/>
<path class="bond-13 atom-13 atom-14" d="M 1868.2,274.5 L 1890.3,254.2" style="fill:none;fill-rule:evenodd;stroke:#000000;stroke-width:2.0px;stroke-linecap:butt;stroke-linejoin:miter;stroke-opacity:1"/>
<path class="bond-14 atom-14 atom-15" d="M 1890.3,254.2 L 1903.2,255.4" style="fill:none;fill-rule:evenodd;stroke:#000000;stroke-width:2.0px;stroke-linecap:butt;stroke-linejoin:miter;stroke-opacity:1"/>
<path class="bond-14 atom-14 atom-15" d="M 1903.2,255.4 L 1916.1,256.6" style="fill:none;fill-rule:evenodd;stroke:#0000FF;stroke-width:2.0px;stroke-linecap:butt;stroke-linejoin:miter;stroke-opacity:1"/>
<path class="bond-14 atom-14 atom-15" d="M 1894.0,250.0 L 1905.3,251.0" style="fill:none;fill-rule:evenodd;stroke:#000000;stroke-width:2.0px;stroke-linecap:butt;stroke-linejoin:miter;stroke-opacity:1"/>
<path class="bond-14 atom-14 atom-15" d="M 1905.3,251.0 L 1916.5,252.1" style="fill:none;fill-rule:evenodd;stroke:#0000FF;stroke-width:2.0px;stroke-linecap:butt;stroke-linejoin:miter;stroke-opacity:1"/>
<path class="bond-15 atom-15 atom-16" d="M 1922.6,251.7 L 1927.4,240.5" style="fill:none;fill-rule:evenodd;stroke:#0000FF;stroke-width:2.0px;stroke-linecap:butt;stroke-linejoin:miter;stroke-opacity:1"/>
<path class="bond-15 atom-15 atom-16" d="M 1927.4,240.5 L 1932.2,229.4" style="fill:none;fill-rule:evenodd;stroke:#000000;stroke-width:2.0px;stroke-linecap:butt;stroke-linejoin:miter;stroke-opacity:1"/>
<path class="bond-16 atom-16 atom-17" d="M 1932.2,229.4 L 1909.6,209.5" style="fill:none;fill-rule:evenodd;stroke:#000000;stroke-width:2.0px;stroke-linecap:butt;stroke-linejoin:miter;stroke-opacity:1"/>
<path class="bond-16 atom-16 atom-17" d="M 1926.8,230.6 L 1909.1,215.0" style="fill:none;fill-rule:evenodd;stroke:#000000;stroke-width:2.0px;stroke-linecap:butt;stroke-linejoin:miter;stroke-opacity:1"/>
<path class="bond-17 atom-17 atom-18" d="M 1909.6,209.5 L 1912.5,179.6" style="fill:none;fill-rule:evenodd;stroke:#000000;stroke-width:2.0px;stroke-linecap:butt;stroke-linejoin:miter;stroke-opacity:1"/>
<path class="bond-18 atom-18 atom-19" d="M 1912.5,179.6 L 1939.8,167.0" style="fill:none;fill-rule:evenodd;stroke:#000000;stroke-width:2.0px;stroke-linecap:butt;stroke-linejoin:miter;stroke-opacity:1"/>
<path class="bond-18 atom-18 atom-19" d="M 1912.9,174.4 L 1935.5,164.0" style="fill:none;fill-rule:evenodd;stroke:#000000;stroke-width:2.0px;stroke-linecap:butt;stroke-linejoin:miter;stroke-opacity:1"/>
<path class="bond-19 atom-19 atom-20" d="M 1939.8,167.0 L 1941.0,154.7" style="fill:none;fill-rule:evenodd;stroke:#000000;stroke-width:2.0px;stroke-linecap:butt;stroke-linejoin:miter;stroke-opacity:1"/>
<path class="bond-19 atom-19 atom-20" d="M 1941.0,154.7 L 1942.1,142.3" style="fill:none;fill-rule:evenodd;stroke:#0000FF;stroke-width:2.0px;stroke-linecap:butt;stroke-linejoin:miter;stroke-opacity:1"/>
<path class="bond-20 atom-20 atom-21" d="M 1938.4,134.1 L 1928.2,126.9" style="fill:none;fill-rule:evenodd;stroke:#0000FF;stroke-width:2.0px;stroke-linecap:butt;stroke-linejoin:miter;stroke-opacity:1"/>
<path class="bond-20 atom-20 atom-21" d="M 1928.2,126.9 L 1918.1,119.7" style="fill:none;fill-rule:evenodd;stroke:#000000;stroke-width:2.0px;stroke-linecap:butt;stroke-linejoin:miter;stroke-opacity:1"/>
<path class="bond-20 atom-20 atom-21" d="M 1935.8,137.8 L 1926.7,131.3" style="fill:none;fill-rule:evenodd;stroke:#0000FF;stroke-width:2.0px;stroke-linecap:butt;stroke-linejoin:miter;stroke-opacity:1"/>
<path class="bond-20 atom-20 atom-21" d="M 1926.7,131.3 L 1917.6,124.9" style="fill:none;fill-rule:evenodd;stroke:#000000;stroke-width:2.0px;stroke-linecap:butt;stroke-linejoin:miter;stroke-opacity:1"/>
<path class="bond-21 atom-21 atom-22" d="M 1918.1,119.7 L 1919.2,107.3" style="fill:none;fill-rule:evenodd;stroke:#000000;stroke-width:2.0px;stroke-linecap:butt;stroke-linejoin:miter;stroke-opacity:1"/>
<path class="bond-21 atom-21 atom-22" d="M 1919.2,107.3 L 1920.4,95.0" style="fill:none;fill-rule:evenodd;stroke:#0000FF;stroke-width:2.0px;stroke-linecap:butt;stroke-linejoin:miter;stroke-opacity:1"/>
<path class="bond-22 atom-21 atom-23" d="M 1918.1,119.7 L 1906.5,125.0" style="fill:none;fill-rule:evenodd;stroke:#000000;stroke-width:2.0px;stroke-linecap:butt;stroke-linejoin:miter;stroke-opacity:1"/>
<path class="bond-22 atom-21 atom-23" d="M 1906.5,125.0 L 1895.0,130.3" style="fill:none;fill-rule:evenodd;stroke:#0000FF;stroke-width:2.0px;stroke-linecap:butt;stroke-linejoin:miter;stroke-opacity:1"/>
<path class="bond-23 atom-23 atom-24" d="M 1890.3,137.5 L 1889.1,149.8" style="fill:none;fill-rule:evenodd;stroke:#0000FF;stroke-width:2.0px;stroke-linecap:butt;stroke-linejoin:miter;stroke-opacity:1"/>
<path class="bond-23 atom-23 atom-24" d="M 1889.1,149.8 L 1887.9,162.1" style="fill:none;fill-rule:evenodd;stroke:#000000;stroke-width:2.0px;stroke-linecap:butt;stroke-linejoin:miter;stroke-opacity:1"/>
<path class="bond-23 atom-23 atom-24" d="M 1894.7,137.9 L 1893.7,148.9" style="fill:none;fill-rule:evenodd;stroke:#0000FF;stroke-width:2.0px;stroke-linecap:butt;stroke-linejoin:miter;stroke-opacity:1"/>
<path class="bond-23 atom-23 atom-24" d="M 1893.7,148.9 L 1892.7,160.0" style="fill:none;fill-rule:evenodd;stroke:#000000;stroke-width:2.0px;stroke-linecap:butt;stroke-linejoin:miter;stroke-opacity:1"/>
<path class="bond-24 atom-17 atom-25" d="M 1909.6,209.5 L 1898.8,215.9" style="fill:none;fill-rule:evenodd;stroke:#000000;stroke-width:2.0px;stroke-linecap:butt;stroke-linejoin:miter;stroke-opacity:1"/>
<path class="bond-24 atom-17 atom-25" d="M 1898.8,215.9 L 1888.0,222.3" style="fill:none;fill-rule:evenodd;stroke:#0000FF;stroke-width:2.0px;stroke-linecap:butt;stroke-linejoin:miter;stroke-opacity:1"/>
<path class="bond-25 atom-25 atom-26" d="M 1879.5,223.5 L 1859.3,217.2" style="fill:none;fill-rule:evenodd;stroke:#0000FF;stroke-width:2.0px;stroke-linecap:butt;stroke-linejoin:miter;stroke-opacity:1"/>
<path class="bond-26 atom-10 atom-27" d="M 1800.0,231.1 L 1791.1,239.4" style="fill:none;fill-rule:evenodd;stroke:#0000FF;stroke-width:2.0px;stroke-linecap:butt;stroke-linejoin:miter;stroke-opacity:1"/>
<path class="bond-26 atom-10 atom-27" d="M 1791.1,239.4 L 1782.1,247.6" style="fill:none;fill-rule:evenodd;stroke:#000000;stroke-width:2.0px;stroke-linecap:butt;stroke-linejoin:miter;stroke-opacity:1"/>
<path class="bond-27 atom-27 atom-28" d="M 1782.1,247.6 L 1753.4,238.6" style="fill:none;fill-rule:evenodd;stroke:#000000;stroke-width:2.0px;stroke-linecap:butt;stroke-linejoin:miter;stroke-opacity:1"/>
<path class="bond-28 atom-28 atom-7" d="M 1753.4,238.6 L 1750.7,226.6" style="fill:none;fill-rule:evenodd;stroke:#000000;stroke-width:2.0px;stroke-linecap:butt;stroke-linejoin:miter;stroke-opacity:1"/>
<path class="bond-28 atom-28 atom-7" d="M 1750.7,226.6 L 1748.0,214.5" style="fill:none;fill-rule:evenodd;stroke:#0000FF;stroke-width:2.0px;stroke-linecap:butt;stroke-linejoin:miter;stroke-opacity:1"/>
<path class="bond-29 atom-26 atom-11" d="M 1850.8,219.7 L 1841.9,228.0" style="fill:none;fill-rule:evenodd;stroke:#0000FF;stroke-width:2.0px;stroke-linecap:butt;stroke-linejoin:miter;stroke-opacity:1"/>
<path class="bond-29 atom-26 atom-11" d="M 1841.9,228.0 L 1832.9,236.2" style="fill:none;fill-rule:evenodd;stroke:#000000;stroke-width:2.0px;stroke-linecap:butt;stroke-linejoin:miter;stroke-opacity:1"/>
<path class="bond-29 atom-26 atom-11" d="M 1853.9,223.0 L 1845.9,230.4" style="fill:none;fill-rule:evenodd;stroke:#0000FF;stroke-width:2.0px;stroke-linecap:butt;stroke-linejoin:miter;stroke-opacity:1"/>
<path class="bond-29 atom-26 atom-11" d="M 1845.9,230.4 L 1837.9,237.8" style="fill:none;fill-rule:evenodd;stroke:#000000;stroke-width:2.0px;stroke-linecap:butt;stroke-linejoin:miter;stroke-opacity:1"/>
<path class="bond-30 atom-25 atom-14" d="M 1884.9,230.1 L 1887.6,242.1" style="fill:none;fill-rule:evenodd;stroke:#0000FF;stroke-width:2.0px;stroke-linecap:butt;stroke-linejoin:miter;stroke-opacity:1"/>
<path class="bond-30 atom-25 atom-14" d="M 1887.6,242.1 L 1890.3,254.2" style="fill:none;fill-rule:evenodd;stroke:#000000;stroke-width:2.0px;stroke-linecap:butt;stroke-linejoin:miter;stroke-opacity:1"/>
<path class="bond-31 atom-24 atom-18" d="M 1887.9,162.1 L 1912.5,179.6" style="fill:none;fill-rule:evenodd;stroke:#000000;stroke-width:2.0px;stroke-linecap:butt;stroke-linejoin:miter;stroke-opacity:1"/>
<path d="M 1718.0,199.7 L 1718.1,200.3 L 1718.8,200.5" style="fill:none;stroke:#000000;stroke-width:2.0px;stroke-linecap:butt;stroke-linejoin:miter;stroke-opacity:1;"/>
<path d="M 1768.5,189.3 L 1769.0,188.9 L 1770.4,189.4" style="fill:none;stroke:#000000;stroke-width:2.0px;stroke-linecap:butt;stroke-linejoin:miter;stroke-opacity:1;"/>
<path d="M 1796.2,197.4 L 1797.7,197.9 L 1797.8,198.5" style="fill:none;stroke:#000000;stroke-width:2.0px;stroke-linecap:butt;stroke-linejoin:miter;stroke-opacity:1;"/>
<path d="M 1839.2,264.1 L 1839.5,265.5 L 1841.0,266.0" style="fill:none;stroke:#000000;stroke-width:2.0px;stroke-linecap:butt;stroke-linejoin:miter;stroke-opacity:1;"/>
<path d="M 1866.8,274.1 L 1868.2,274.5 L 1869.3,273.5" style="fill:none;stroke:#000000;stroke-width:2.0px;stroke-linecap:butt;stroke-linejoin:miter;stroke-opacity:1;"/>
<path d="M 1932.0,229.9 L 1932.2,229.4 L 1931.1,228.4" style="fill:none;stroke:#000000;stroke-width:2.0px;stroke-linecap:butt;stroke-linejoin:miter;stroke-opacity:1;"/>
<path d="M 1938.4,167.6 L 1939.8,167.0 L 1939.9,166.4" style="fill:none;stroke:#000000;stroke-width:2.0px;stroke-linecap:butt;stroke-linejoin:miter;stroke-opacity:1;"/>
<path d="M 1888.0,161.5 L 1887.9,162.1 L 1889.2,163.0" style="fill:none;stroke:#000000;stroke-width:2.0px;stroke-linecap:butt;stroke-linejoin:miter;stroke-opacity:1;"/>
<path d="M 1782.6,247.2 L 1782.1,247.6 L 1780.7,247.1" style="fill:none;stroke:#000000;stroke-width:2.0px;stroke-linecap:butt;stroke-linejoin:miter;stroke-opacity:1;"/>
<path d="M 1754.9,239.1 L 1753.4,238.6 L 1753.3,238.0" style="fill:none;stroke:#000000;stroke-width:2.0px;stroke-linecap:butt;stroke-linejoin:miter;stroke-opacity:1;"/>
<path class="atom-4" d="M 1707.7 171.0 Q 1707.7 168.9, 1708.7 167.8 Q 1709.7 166.6, 1711.6 166.6 Q 1713.5 166.6, 1714.5 167.8 Q 1715.5 168.9, 1715.5 171.0 Q 1715.5 173.0, 1714.5 174.2 Q 1713.4 175.4, 1711.6 175.4 Q 1709.7 175.4, 1708.7 174.2 Q 1707.7 173.1, 1707.7 171.0 M 1711.6 174.4 Q 1712.9 174.4, 1713.6 173.6 Q 1714.3 172.7, 1714.3 171.0 Q 1714.3 169.3, 1713.6 168.5 Q 1712.9 167.6, 1711.6 167.6 Q 1710.3 167.6, 1709.6 168.5 Q 1708.9 169.3, 1708.9 171.0 Q 1708.9 172.7, 1709.6 173.6 Q 1710.3 174.4, 1711.6 174.4 " fill="#FF0000"/>
<path class="atom-6" d="M 1692.1 220.7 Q 1692.1 218.6, 1693.1 217.5 Q 1694.1 216.4, 1696.0 216.4 Q 1697.9 216.4, 1698.9 217.5 Q 1699.9 218.6, 1699.9 220.7 Q 1699.9 222.8, 1698.9 223.9 Q 1697.9 225.1, 1696.0 225.1 Q 1694.1 225.1, 1693.1 223.9 Q 1692.1 222.8, 1692.1 220.7 M 1696.0 224.1 Q 1697.3 224.1, 1698.0 223.3 Q 1698.7 222.4, 1698.7 220.7 Q 1698.7 219.0, 1698.0 218.2 Q 1697.3 217.3, 1696.0 217.3 Q 1694.7 217.3, 1694.0 218.2 Q 1693.3 219.0, 1693.3 220.7 Q 1693.3 222.4, 1694.0 223.3 Q 1694.7 224.1, 1696.0 224.1 " fill="#FF0000"/>
<path class="atom-7" d="M 1745.0 205.0 L 1747.7 209.5 Q 1748.0 210.0, 1748.5 210.8 Q 1748.9 211.6, 1748.9 211.6 L 1748.9 205.0 L 1750.1 205.0 L 1750.1 213.5 L 1748.9 213.5 L 1745.9 208.6 Q 1745.6 208.0, 1745.2 207.4 Q 1744.8 206.7, 1744.7 206.5 L 1744.7 213.5 L 1743.6 213.5 L 1743.6 205.0 L 1745.0 205.0 " fill="#0000FF"/>
<path class="atom-10" d="M 1802.4 223.0 L 1805.2 227.5 Q 1805.4 227.9, 1805.9 228.7 Q 1806.3 229.5, 1806.3 229.6 L 1806.3 223.0 L 1807.5 223.0 L 1807.5 231.5 L 1806.3 231.5 L 1803.3 226.6 Q 1803.0 226.0, 1802.6 225.3 Q 1802.2 224.7, 1802.1 224.4 L 1802.1 231.5 L 1801.0 231.5 L 1801.0 223.0 L 1802.4 223.0 " fill="#0000FF"/>
<path class="atom-15" d="M 1918.4 252.7 L 1921.2 257.2 Q 1921.5 257.7, 1921.9 258.5 Q 1922.4 259.3, 1922.4 259.3 L 1922.4 252.7 L 1923.5 252.7 L 1923.5 261.2 L 1922.3 261.2 L 1919.4 256.3 Q 1919.0 255.7, 1918.6 255.1 Q 1918.3 254.4, 1918.2 254.2 L 1918.2 261.2 L 1917.1 261.2 L 1917.1 252.7 L 1918.4 252.7 " fill="#0000FF"/>
<path class="atom-20" d="M 1940.7 132.8 L 1943.5 137.3 Q 1943.8 137.8, 1944.2 138.6 Q 1944.7 139.4, 1944.7 139.4 L 1944.7 132.8 L 1945.8 132.8 L 1945.8 141.3 L 1944.7 141.3 L 1941.7 136.4 Q 1941.3 135.8, 1941.0 135.2 Q 1940.6 134.5, 1940.5 134.3 L 1940.5 141.3 L 1939.4 141.3 L 1939.4 132.8 L 1940.7 132.8 " fill="#0000FF"/>
<path class="atom-22" d="M 1919.0 85.5 L 1921.8 90.0 Q 1922.1 90.4, 1922.5 91.2 Q 1923.0 92.0, 1923.0 92.1 L 1923.0 85.5 L 1924.1 85.5 L 1924.1 94.0 L 1923.0 94.0 L 1920.0 89.1 Q 1919.6 88.5, 1919.2 87.8 Q 1918.9 87.2, 1918.8 87.0 L 1918.8 94.0 L 1917.7 94.0 L 1917.7 85.5 L 1919.0 85.5 " fill="#0000FF"/>
<path class="atom-22" d="M 1925.8 85.5 L 1926.9 85.5 L 1926.9 89.1 L 1931.3 89.1 L 1931.3 85.5 L 1932.4 85.5 L 1932.4 94.0 L 1931.3 94.0 L 1931.3 90.1 L 1926.9 90.1 L 1926.9 94.0 L 1925.8 94.0 L 1925.8 85.5 " fill="#0000FF"/>
<path class="atom-22" d="M 1934.1 93.7 Q 1934.3 93.2, 1934.8 92.9 Q 1935.3 92.6, 1936.0 92.6 Q 1936.8 92.6, 1937.3 93.0 Q 1937.8 93.5, 1937.8 94.3 Q 1937.8 95.1, 1937.1 95.9 Q 1936.5 96.7, 1935.3 97.6 L 1937.9 97.6 L 1937.9 98.2 L 1934.1 98.2 L 1934.1 97.7 Q 1935.1 97.0, 1935.7 96.4 Q 1936.4 95.9, 1936.7 95.4 Q 1937.0 94.9, 1937.0 94.3 Q 1937.0 93.8, 1936.7 93.5 Q 1936.4 93.2, 1936.0 93.2 Q 1935.5 93.2, 1935.2 93.4 Q 1934.9 93.6, 1934.7 94.0 L 1934.1 93.7 " fill="#0000FF"/>
<path class="atom-23" d="M 1888.9 127.9 L 1891.7 132.5 Q 1891.9 132.9, 1892.4 133.7 Q 1892.8 134.5, 1892.8 134.6 L 1892.8 127.9 L 1894.0 127.9 L 1894.0 136.5 L 1892.8 136.5 L 1889.8 131.5 Q 1889.5 131.0, 1889.1 130.3 Q 1888.7 129.6, 1888.6 129.4 L 1888.6 136.5 L 1887.5 136.5 L 1887.5 127.9 L 1888.9 127.9 " fill="#0000FF"/>
<path class="atom-25" d="M 1881.9 220.6 L 1884.7 225.1 Q 1885.0 225.5, 1885.4 226.3 Q 1885.8 227.1, 1885.9 227.2 L 1885.9 220.6 L 1887.0 220.6 L 1887.0 229.1 L 1885.8 229.1 L 1882.8 224.1 Q 1882.5 223.6, 1882.1 222.9 Q 1881.8 222.2, 1881.6 222.0 L 1881.6 229.1 L 1880.5 229.1 L 1880.5 220.6 L 1881.9 220.6 " fill="#0000FF"/>
<path class="atom-26" d="M 1853.2 211.6 L 1856.0 216.1 Q 1856.3 216.5, 1856.7 217.3 Q 1857.1 218.1, 1857.2 218.2 L 1857.2 211.6 L 1858.3 211.6 L 1858.3 220.1 L 1857.1 220.1 L 1854.1 215.2 Q 1853.8 214.6, 1853.4 213.9 Q 1853.1 213.3, 1852.9 213.1 L 1852.9 220.1 L 1851.8 220.1 L 1851.8 211.6 L 1853.2 211.6 " fill="#0000FF"/>
<path class="legend" d="M 1774.6 381.5 Q 1775.9 381.5, 1776.6 382.2 Q 1777.3 383.0, 1777.3 384.4 L 1777.3 389.9 L 1775.8 389.9 L 1775.8 384.5 Q 1775.8 383.6, 1775.4 383.1 Q 1775.1 382.7, 1774.2 382.7 Q 1773.5 382.7, 1772.9 383.0 Q 1772.2 383.4, 1771.8 384.0 L 1771.8 389.9 L 1770.3 389.9 L 1770.3 381.6 L 1771.6 381.6 L 1771.7 382.8 Q 1772.9 381.5, 1774.6 381.5 " fill="#000000"/>
<path class="legend" d="M 1786.3 381.6 L 1786.3 389.9 L 1785.0 389.9 L 1784.9 388.7 Q 1783.8 390.0, 1782.1 390.0 Q 1780.7 390.0, 1780.0 389.3 Q 1779.3 388.5, 1779.3 387.1 L 1779.3 381.6 L 1780.8 381.6 L 1780.8 387.0 Q 1780.8 387.9, 1781.1 388.4 Q 1781.5 388.8, 1782.4 388.8 Q 1783.1 388.8, 1783.7 388.5 Q 1784.4 388.1, 1784.8 387.5 L 1784.8 381.6 L 1786.3 381.6 " fill="#000000"/>
<path class="legend" d="M 1788.3 385.7 Q 1788.3 383.7, 1789.3 382.6 Q 1790.3 381.5, 1792.2 381.5 Q 1794.1 381.5, 1795.1 382.8 L 1794.1 383.6 Q 1793.7 383.1, 1793.2 382.9 Q 1792.8 382.7, 1792.2 382.7 Q 1791.1 382.7, 1790.4 383.5 Q 1789.8 384.2, 1789.8 385.7 Q 1789.8 387.2, 1790.5 388.0 Q 1791.1 388.8, 1792.3 388.8 Q 1793.0 388.8, 1793.5 388.7 Q 1793.9 388.5, 1794.5 388.2 L 1794.9 389.3 Q 1793.7 390.0, 1792.2 390.0 Q 1790.3 390.0, 1789.3 388.8 Q 1788.3 387.7, 1788.3 385.7 " fill="#000000"/>
<path class="legend" d="M 1796.2 380.7 Q 1796.6 379.6, 1797.6 379.0 Q 1798.6 378.4, 1800.0 378.4 Q 1801.7 378.4, 1802.6 379.3 Q 1803.6 380.3, 1803.6 381.9 Q 1803.6 383.6, 1802.4 385.2 Q 1801.1 386.7, 1798.6 388.6 L 1803.8 388.6 L 1803.8 389.9 L 1796.2 389.9 L 1796.2 388.8 Q 1798.3 387.3, 1799.5 386.2 Q 1800.8 385.0, 1801.4 384.0 Q 1802.0 383.0, 1802.0 382.0 Q 1802.0 380.9, 1801.5 380.3 Q 1800.9 379.7, 1800.0 379.7 Q 1799.1 379.7, 1798.5 380.0 Q 1797.8 380.4, 1797.4 381.2 L 1796.2 380.7 " fill="#000000"/>
<path class="legend" d="M 1809.6 382.8 Q 1810.6 382.8, 1811.4 383.2 Q 1812.2 383.6, 1812.7 384.4 Q 1813.1 385.2, 1813.1 386.3 Q 1813.1 387.4, 1812.6 388.3 Q 1812.0 389.1, 1811.1 389.6 Q 1810.1 390.0, 1809.1 390.0 Q 1808.0 390.0, 1807.1 389.6 Q 1806.1 389.2, 1805.5 388.5 L 1806.4 387.5 Q 1807.0 388.1, 1807.7 388.4 Q 1808.4 388.7, 1809.1 388.7 Q 1810.1 388.7, 1810.8 388.1 Q 1811.5 387.4, 1811.5 386.3 Q 1811.5 385.1, 1810.8 384.5 Q 1810.1 384.0, 1809.0 384.0 Q 1808.0 384.0, 1806.9 384.4 L 1806.1 384.0 L 1806.6 378.5 L 1812.4 378.5 L 1812.3 379.8 L 1807.9 379.8 L 1807.6 383.2 Q 1808.6 382.8, 1809.6 382.8 " fill="#000000"/>
<path class="legend" d="M 1815.2 388.6 L 1817.7 388.6 L 1817.7 380.1 L 1815.0 381.0 L 1814.6 380.0 L 1818.1 378.5 L 1819.2 378.7 L 1819.2 388.6 L 1821.4 388.6 L 1821.4 389.9 L 1815.2 389.9 L 1815.2 388.6 " fill="#000000"/>
<path class="legend" d="M 1823.5 388.6 L 1825.9 388.6 L 1825.9 380.1 L 1823.2 381.0 L 1822.8 380.0 L 1826.3 378.5 L 1827.4 378.7 L 1827.4 388.6 L 1829.7 388.6 L 1829.7 389.9 L 1823.5 389.9 L 1823.5 388.6 " fill="#000000"/>
</svg>