<svg xmlns="http://www.w3.org/2000/svg" xmlns:rdkit="http://www.rdkit.org/xml" xmlns:xlink="http://www.w3.org/1999/xlink" version="1.1" baseProfile="full" xml:space="preserve" width="2000px" height="400px" viewBox="0 0 2000 400">
<!-- END OF HEADER -->
<rect style="opacity:1.0;fill:#FFFFFF;stroke:none" width="2000.0" height="400.0" x="0.0" y="0.0"> </rect>
<path class="bond-0 atom-0 atom-1" d="M 65.5,299.1 L 79.9,298.2" style="fill:none;fill-rule:evenodd;stroke:#000000;stroke-width:2.0px;stroke-linecap:butt;stroke-linejoin:miter;stroke-opacity:1"/>
<path class="bond-0 atom-0 atom-1" d="M 79.9,298.2 L 94.4,297.3" style="fill:none;fill-rule:evenodd;stroke:#FF0000;stroke-width:2.0px;stroke-linecap:butt;stroke-linejoin:miter;stroke-opacity:1"/>
<path class="bond-1 atom-1 atom-2" d="M 103.1,290.9 L 109.3,278.5" style="fill:none;fill-rule:evenodd;stroke:#FF0000;stroke-width:2.0px;stroke-linecap:butt;stroke-linejoin:miter;stroke-opacity:1"/>
<path class="bond-1 atom-1 atom-2" d="M 109.3,278.5 L 115.5,266.1" style="fill:none;fill-rule:evenodd;stroke:#000000;stroke-width:2.0px;stroke-linecap:butt;stroke-linejoin:miter;stroke-opacity:1"/>
<path class="bond-2 atom-2 atom-3" d="M 115.5,266.1 L 96.5,237.2" style="fill:none;fill-rule:evenodd;stroke:#000000;stroke-width:2.0px;stroke-linecap:butt;stroke-linejoin:miter;stroke-opacity:1"/>
<path class="bond-2 atom-2 atom-3" d="M 118.2,260.7 L 102.4,236.9" style="fill:none;fill-rule:evenodd;stroke:#000000;stroke-width:2.0px;stroke-linecap:butt;stroke-linejoin:miter;stroke-opacity:1"/>
<path class="bond-3 atom-3 atom-4" d="M 96.5,237.2 L 111.9,206.3" style="fill:none;fill-rule:evenodd;stroke:#000000;stroke-width:2.0px;stroke-linecap:butt;stroke-linejoin:miter;stroke-opacity:1"/>
<path class="bond-4 atom-4 atom-5" d="M 111.9,206.3 L 146.5,204.3" style="fill:none;fill-rule:evenodd;stroke:#000000;stroke-width:2.0px;stroke-linecap:butt;stroke-linejoin:miter;stroke-opacity:1"/>
<path class="bond-4 atom-4 atom-5" d="M 115.2,211.3 L 143.8,209.6" style="fill:none;fill-rule:evenodd;stroke:#000000;stroke-width:2.0px;stroke-linecap:butt;stroke-linejoin:miter;stroke-opacity:1"/>
<path class="bond-5 atom-5 atom-6" d="M 146.5,204.3 L 152.6,192.0" style="fill:none;fill-rule:evenodd;stroke:#000000;stroke-width:2.0px;stroke-linecap:butt;stroke-linejoin:miter;stroke-opacity:1"/>
<path class="bond-5 atom-5 atom-6" d="M 152.6,192.0 L 158.8,179.6" style="fill:none;fill-rule:evenodd;stroke:#CCCC00;stroke-width:2.0px;stroke-linecap:butt;stroke-linejoin:miter;stroke-opacity:1"/>
<path class="bond-6 atom-6 atom-7" d="M 165.1,177.8 L 175.6,183.1" style="fill:none;fill-rule:evenodd;stroke:#CCCC00;stroke-width:2.0px;stroke-linecap:butt;stroke-linejoin:miter;stroke-opacity:1"/>
<path class="bond-6 atom-6 atom-7" d="M 175.6,183.1 L 186.1,188.3" style="fill:none;fill-rule:evenodd;stroke:#FF0000;stroke-width:2.0px;stroke-linecap:butt;stroke-linejoin:miter;stroke-opacity:1"/>
<path class="bond-6 atom-6 atom-7" d="M 167.4,173.2 L 177.9,178.4" style="fill:none;fill-rule:evenodd;stroke:#CCCC00;stroke-width:2.0px;stroke-linecap:butt;stroke-linejoin:miter;stroke-opacity:1"/>
<path class="bond-6 atom-6 atom-7" d="M 177.9,178.4 L 188.4,183.7" style="fill:none;fill-rule:evenodd;stroke:#FF0000;stroke-width:2.0px;stroke-linecap:butt;stroke-linejoin:miter;stroke-opacity:1"/>
<path class="bond-7 atom-6 atom-8" d="M 158.8,168.9 L 148.3,163.6" style="fill:none;fill-rule:evenodd;stroke:#CCCC00;stroke-width:2.0px;stroke-linecap:butt;stroke-linejoin:miter;stroke-opacity:1"/>
<path class="bond-7 atom-6 atom-8" d="M 148.3,163.6 L 137.8,158.4" style="fill:none;fill-rule:evenodd;stroke:#FF0000;stroke-width:2.0px;stroke-linecap:butt;stroke-linejoin:miter;stroke-opacity:1"/>
<path class="bond-7 atom-6 atom-8" d="M 156.5,173.5 L 146.0,168.3" style="fill:none;fill-rule:evenodd;stroke:#CCCC00;stroke-width:2.0px;stroke-linecap:butt;stroke-linejoin:miter;stroke-opacity:1"/>
<path class="bond-7 atom-6 atom-8" d="M 146.0,168.3 L 135.5,163.0" style="fill:none;fill-rule:evenodd;stroke:#FF0000;stroke-width:2.0px;stroke-linecap:butt;stroke-linejoin:miter;stroke-opacity:1"/>
<path class="bond-8 atom-6 atom-9" d="M 165.0,167.3 L 169.7,157.9" style="fill:none;fill-rule:evenodd;stroke:#CCCC00;stroke-width:2.0px;stroke-linecap:butt;stroke-linejoin:miter;stroke-opacity:1"/>
<path class="bond-8 atom-6 atom-9" d="M 169.7,157.9 L 174.4,148.5" style="fill:none;fill-rule:evenodd;stroke:#0000FF;stroke-width:2.0px;stroke-linecap:butt;stroke-linejoin:miter;stroke-opacity:1"/>
<path class="bond-9 atom-9 atom-10" d="M 173.4,136.4 L 165.9,125.0" style="fill:none;fill-rule:evenodd;stroke:#0000FF;stroke-width:2.0px;stroke-linecap:butt;stroke-linejoin:miter;stroke-opacity:1"/>
<path class="bond-9 atom-9 atom-10" d="M 165.9,125.0 L 158.4,113.6" style="fill:none;fill-rule:evenodd;stroke:#000000;stroke-width:2.0px;stroke-linecap:butt;stroke-linejoin:miter;stroke-opacity:1"/>
<path class="bond-10 atom-10 atom-11" d="M 160.0,116.1 L 166.6,103.1" style="fill:none;fill-rule:evenodd;stroke:#000000;stroke-width:2.0px;stroke-linecap:butt;stroke-linejoin:miter;stroke-opacity:1"/>
<path class="bond-10 atom-10 atom-11" d="M 166.6,103.1 L 173.1,90.1" style="fill:none;fill-rule:evenodd;stroke:#FF0000;stroke-width:2.0px;stroke-linecap:butt;stroke-linejoin:miter;stroke-opacity:1"/>
<path class="bond-10 atom-10 atom-11" d="M 155.4,113.8 L 161.9,100.7" style="fill:none;fill-rule:evenodd;stroke:#000000;stroke-width:2.0px;stroke-linecap:butt;stroke-linejoin:miter;stroke-opacity:1"/>
<path class="bond-10 atom-10 atom-11" d="M 161.9,100.7 L 168.4,87.7" style="fill:none;fill-rule:evenodd;stroke:#FF0000;stroke-width:2.0px;stroke-linecap:butt;stroke-linejoin:miter;stroke-opacity:1"/>
<path class="bond-11 atom-10 atom-12" d="M 158.4,113.6 L 144.0,114.4" style="fill:none;fill-rule:evenodd;stroke:#000000;stroke-width:2.0px;stroke-linecap:butt;stroke-linejoin:miter;stroke-opacity:1"/>
<path class="bond-11 atom-10 atom-12" d="M 144.0,114.4 L 129.5,115.3" style="fill:none;fill-rule:evenodd;stroke:#FF0000;stroke-width:2.0px;stroke-linecap:butt;stroke-linejoin:miter;stroke-opacity:1"/>
<path class="bond-12 atom-12 atom-13" d="M 119.9,109.5 L 112.4,98.1" style="fill:none;fill-rule:evenodd;stroke:#FF0000;stroke-width:2.0px;stroke-linecap:butt;stroke-linejoin:miter;stroke-opacity:1"/>
<path class="bond-12 atom-12 atom-13" d="M 112.4,98.1 L 104.8,86.8" style="fill:none;fill-rule:evenodd;stroke:#000000;stroke-width:2.0px;stroke-linecap:butt;stroke-linejoin:miter;stroke-opacity:1"/>
<path class="bond-13 atom-13 atom-14" d="M 104.8,86.8 L 76.0,105.8" style="fill:none;fill-rule:evenodd;stroke:#000000;stroke-width:2.0px;stroke-linecap:butt;stroke-linejoin:miter;stroke-opacity:1"/>
<path class="bond-14 atom-13 atom-15" d="M 104.8,86.8 L 133.7,67.7" style="fill:none;fill-rule:evenodd;stroke:#000000;stroke-width:2.0px;stroke-linecap:butt;stroke-linejoin:miter;stroke-opacity:1"/>
<path class="bond-15 atom-13 atom-16" d="M 104.8,86.8 L 85.8,57.9" style="fill:none;fill-rule:evenodd;stroke:#000000;stroke-width:2.0px;stroke-linecap:butt;stroke-linejoin:miter;stroke-opacity:1"/>
<path class="bond-16 atom-9 atom-17" d="M 182.3,142.2 L 197.1,141.3" style="fill:none;fill-rule:evenodd;stroke:#0000FF;stroke-width:2.0px;stroke-linecap:butt;stroke-linejoin:miter;stroke-opacity:1"/>
<path class="bond-16 atom-9 atom-17" d="M 197.1,141.3 L 211.9,140.4" style="fill:none;fill-rule:evenodd;stroke:#000000;stroke-width:2.0px;stroke-linecap:butt;stroke-linejoin:miter;stroke-opacity:1"/>
<path class="bond-17 atom-17 atom-18" d="M 213.6,142.9 L 220.1,129.9" style="fill:none;fill-rule:evenodd;stroke:#000000;stroke-width:2.0px;stroke-linecap:butt;stroke-linejoin:miter;stroke-opacity:1"/>
<path class="bond-17 atom-17 atom-18" d="M 220.1,129.9 L 226.6,116.9" style="fill:none;fill-rule:evenodd;stroke:#FF0000;stroke-width:2.0px;stroke-linecap:butt;stroke-linejoin:miter;stroke-opacity:1"/>
<path class="bond-17 atom-17 atom-18" d="M 208.9,140.6 L 215.5,127.6" style="fill:none;fill-rule:evenodd;stroke:#000000;stroke-width:2.0px;stroke-linecap:butt;stroke-linejoin:miter;stroke-opacity:1"/>
<path class="bond-17 atom-17 atom-18" d="M 215.5,127.6 L 222.0,114.6" style="fill:none;fill-rule:evenodd;stroke:#FF0000;stroke-width:2.0px;stroke-linecap:butt;stroke-linejoin:miter;stroke-opacity:1"/>
<path class="bond-18 atom-17 atom-19" d="M 211.9,140.4 L 231.0,169.3" style="fill:none;fill-rule:evenodd;stroke:#000000;stroke-width:2.0px;stroke-linecap:butt;stroke-linejoin:miter;stroke-opacity:1"/>
<path class="bond-19 atom-19 atom-20" d="M 231.0,169.3 L 215.5,200.2" style="fill:none;fill-rule:evenodd;stroke:#000000;stroke-width:2.0px;stroke-linecap:butt;stroke-linejoin:miter;stroke-opacity:1"/>
<path class="bond-19 atom-19 atom-20" d="M 234.3,174.3 L 221.5,199.8" style="fill:none;fill-rule:evenodd;stroke:#000000;stroke-width:2.0px;stroke-linecap:butt;stroke-linejoin:miter;stroke-opacity:1"/>
<path class="bond-20 atom-20 atom-21" d="M 215.5,200.2 L 234.5,229.0" style="fill:none;fill-rule:evenodd;stroke:#000000;stroke-width:2.0px;stroke-linecap:butt;stroke-linejoin:miter;stroke-opacity:1"/>
<path class="bond-21 atom-21 atom-22" d="M 234.5,229.0 L 269.0,227.0" style="fill:none;fill-rule:evenodd;stroke:#000000;stroke-width:2.0px;stroke-linecap:butt;stroke-linejoin:miter;stroke-opacity:1"/>
<path class="bond-21 atom-21 atom-22" d="M 237.2,223.7 L 265.7,222.0" style="fill:none;fill-rule:evenodd;stroke:#000000;stroke-width:2.0px;stroke-linecap:butt;stroke-linejoin:miter;stroke-opacity:1"/>
<path class="bond-22 atom-22 atom-23" d="M 269.0,227.0 L 276.5,238.4" style="fill:none;fill-rule:evenodd;stroke:#000000;stroke-width:2.0px;stroke-linecap:butt;stroke-linejoin:miter;stroke-opacity:1"/>
<path class="bond-22 atom-22 atom-23" d="M 276.5,238.4 L 284.1,249.8" style="fill:none;fill-rule:evenodd;stroke:#7F4C19;stroke-width:2.0px;stroke-linecap:butt;stroke-linejoin:miter;stroke-opacity:1"/>
<path class="bond-23 atom-22 atom-24" d="M 269.0,227.0 L 284.5,196.1" style="fill:none;fill-rule:evenodd;stroke:#000000;stroke-width:2.0px;stroke-linecap:butt;stroke-linejoin:miter;stroke-opacity:1"/>
<path class="bond-24 atom-24 atom-25" d="M 284.5,196.1 L 319.0,194.0" style="fill:none;fill-rule:evenodd;stroke:#000000;stroke-width:2.0px;stroke-linecap:butt;stroke-linejoin:miter;stroke-opacity:1"/>
<path class="bond-24 atom-24 atom-25" d="M 287.2,190.7 L 315.7,189.0" style="fill:none;fill-rule:evenodd;stroke:#000000;stroke-width:2.0px;stroke-linecap:butt;stroke-linejoin:miter;stroke-opacity:1"/>
<path class="bond-25 atom-25 atom-26" d="M 319.0,194.0 L 334.5,163.1" style="fill:none;fill-rule:evenodd;stroke:#000000;stroke-width:2.0px;stroke-linecap:butt;stroke-linejoin:miter;stroke-opacity:1"/>
<path class="bond-26 atom-26 atom-27" d="M 334.5,163.1 L 315.5,134.2" style="fill:none;fill-rule:evenodd;stroke:#000000;stroke-width:2.0px;stroke-linecap:butt;stroke-linejoin:miter;stroke-opacity:1"/>
<path class="bond-26 atom-26 atom-27" d="M 328.5,163.5 L 312.8,139.6" style="fill:none;fill-rule:evenodd;stroke:#000000;stroke-width:2.0px;stroke-linecap:butt;stroke-linejoin:miter;stroke-opacity:1"/>
<path class="bond-27 atom-27 atom-28" d="M 315.5,134.2 L 281.0,136.3" style="fill:none;fill-rule:evenodd;stroke:#000000;stroke-width:2.0px;stroke-linecap:butt;stroke-linejoin:miter;stroke-opacity:1"/>
<path class="bond-28 atom-28 atom-29" d="M 281.0,136.3 L 265.5,167.2" style="fill:none;fill-rule:evenodd;stroke:#000000;stroke-width:2.0px;stroke-linecap:butt;stroke-linejoin:miter;stroke-opacity:1"/>
<path class="bond-28 atom-28 atom-29" d="M 284.3,141.3 L 271.5,166.9" style="fill:none;fill-rule:evenodd;stroke:#000000;stroke-width:2.0px;stroke-linecap:butt;stroke-linejoin:miter;stroke-opacity:1"/>
<path class="bond-29 atom-5 atom-30" d="M 146.5,204.3 L 165.5,233.1" style="fill:none;fill-rule:evenodd;stroke:#000000;stroke-width:2.0px;stroke-linecap:butt;stroke-linejoin:miter;stroke-opacity:1"/>
<path class="bond-30 atom-30 atom-31" d="M 165.5,233.1 L 150.0,264.0" style="fill:none;fill-rule:evenodd;stroke:#000000;stroke-width:2.0px;stroke-linecap:butt;stroke-linejoin:miter;stroke-opacity:1"/>
<path class="bond-30 atom-30 atom-31" d="M 159.5,233.5 L 146.7,259.0" style="fill:none;fill-rule:evenodd;stroke:#000000;stroke-width:2.0px;stroke-linecap:butt;stroke-linejoin:miter;stroke-opacity:1"/>
<path class="bond-31 atom-31 atom-2" d="M 150.0,264.0 L 115.5,266.1" style="fill:none;fill-rule:evenodd;stroke:#000000;stroke-width:2.0px;stroke-linecap:butt;stroke-linejoin:miter;stroke-opacity:1"/>
<path class="bond-32 atom-29 atom-19" d="M 265.5,167.2 L 231.0,169.3" style="fill:none;fill-rule:evenodd;stroke:#000000;stroke-width:2.0px;stroke-linecap:butt;stroke-linejoin:miter;stroke-opacity:1"/>
<path class="bond-33 atom-29 atom-24" d="M 265.5,167.2 L 284.5,196.1" style="fill:none;fill-rule:evenodd;stroke:#000000;stroke-width:2.0px;stroke-linecap:butt;stroke-linejoin:miter;stroke-opacity:1"/>
<path d="M 97.4,238.7 L 96.5,237.2 L 97.2,235.7" style="fill:none;stroke:#000000;stroke-width:2.0px;stroke-linecap:butt;stroke-linejoin:miter;stroke-opacity:1;"/>
<path d="M 111.2,207.9 L 111.9,206.3 L 113.7,206.2" style="fill:none;stroke:#000000;stroke-width:2.0px;stroke-linecap:butt;stroke-linejoin:miter;stroke-opacity:1;"/>
<path d="M 158.8,114.1 L 158.4,113.6 L 157.7,113.6" style="fill:none;stroke:#000000;stroke-width:2.0px;stroke-linecap:butt;stroke-linejoin:miter;stroke-opacity:1;"/>
<path d="M 211.2,140.4 L 211.9,140.4 L 212.9,141.8" style="fill:none;stroke:#000000;stroke-width:2.0px;stroke-linecap:butt;stroke-linejoin:miter;stroke-opacity:1;"/>
<path d="M 216.3,198.6 L 215.5,200.2 L 216.4,201.6" style="fill:none;stroke:#000000;stroke-width:2.0px;stroke-linecap:butt;stroke-linejoin:miter;stroke-opacity:1;"/>
<path d="M 233.6,227.6 L 234.5,229.0 L 236.2,228.9" style="fill:none;stroke:#000000;stroke-width:2.0px;stroke-linecap:butt;stroke-linejoin:miter;stroke-opacity:1;"/>
<path d="M 317.3,194.1 L 319.0,194.0 L 319.8,192.5" style="fill:none;stroke:#000000;stroke-width:2.0px;stroke-linecap:butt;stroke-linejoin:miter;stroke-opacity:1;"/>
<path d="M 333.7,164.7 L 334.5,163.1 L 333.5,161.7" style="fill:none;stroke:#000000;stroke-width:2.0px;stroke-linecap:butt;stroke-linejoin:miter;stroke-opacity:1;"/>
<path d="M 316.4,135.7 L 315.5,134.2 L 313.7,134.3" style="fill:none;stroke:#000000;stroke-width:2.0px;stroke-linecap:butt;stroke-linejoin:miter;stroke-opacity:1;"/>
<path d="M 282.7,136.2 L 281.0,136.3 L 280.2,137.8" style="fill:none;stroke:#000000;stroke-width:2.0px;stroke-linecap:butt;stroke-linejoin:miter;stroke-opacity:1;"/>
<path d="M 164.5,231.7 L 165.5,233.1 L 164.7,234.7" style="fill:none;stroke:#000000;stroke-width:2.0px;stroke-linecap:butt;stroke-linejoin:miter;stroke-opacity:1;"/>
<path d="M 150.8,262.5 L 150.0,264.0 L 148.3,264.1" style="fill:none;stroke:#000000;stroke-width:2.0px;stroke-linecap:butt;stroke-linejoin:miter;stroke-opacity:1;"/>
<path class="atom-1" d="M 95.5 297.0 Q 95.5 294.7, 96.7 293.4 Q 97.8 292.1, 100.0 292.1 Q 102.2 292.1, 103.3 293.4 Q 104.5 294.7, 104.5 297.0 Q 104.5 299.4, 103.3 300.8 Q 102.2 302.1, 100.0 302.1 Q 97.9 302.1, 96.7 300.8 Q 95.5 299.4, 95.5 297.0 M 100.0 301.0 Q 101.5 301.0, 102.3 300.0 Q 103.1 299.0, 103.1 297.0 Q 103.1 295.1, 102.3 294.1 Q 101.5 293.2, 100.0 293.2 Q 98.5 293.2, 97.7 294.1 Q 96.9 295.1, 96.9 297.0 Q 96.9 299.0, 97.7 300.0 Q 98.5 301.0, 100.0 301.0 " fill="#FF0000"/>
<path class="atom-6" d="M 159.2 176.7 Q 159.3 176.8, 159.7 176.9 Q 160.2 177.1, 160.7 177.3 Q 161.2 177.4, 161.7 177.4 Q 162.6 177.4, 163.2 176.9 Q 163.7 176.5, 163.7 175.7 Q 163.7 175.1, 163.4 174.8 Q 163.2 174.5, 162.8 174.3 Q 162.3 174.1, 161.6 173.9 Q 160.8 173.7, 160.3 173.4 Q 159.7 173.2, 159.4 172.6 Q 159.0 172.1, 159.0 171.2 Q 159.0 170.0, 159.8 169.2 Q 160.7 168.5, 162.3 168.5 Q 163.5 168.5, 164.8 169.0 L 164.4 170.1 Q 163.3 169.6, 162.4 169.6 Q 161.4 169.6, 160.9 170.0 Q 160.4 170.4, 160.4 171.1 Q 160.4 171.6, 160.7 171.9 Q 160.9 172.2, 161.3 172.4 Q 161.7 172.6, 162.4 172.8 Q 163.3 173.1, 163.8 173.3 Q 164.3 173.6, 164.7 174.2 Q 165.1 174.7, 165.1 175.7 Q 165.1 177.0, 164.2 177.8 Q 163.3 178.5, 161.8 178.5 Q 160.9 178.5, 160.2 178.3 Q 159.6 178.1, 158.8 177.8 L 159.2 176.7 " fill="#CCCC00"/>
<path class="atom-7" d="M 188.4 188.9 Q 188.4 186.5, 189.5 185.2 Q 190.7 183.9, 192.9 183.9 Q 195.0 183.9, 196.2 185.2 Q 197.3 186.5, 197.3 188.9 Q 197.3 191.2, 196.2 192.6 Q 195.0 193.9, 192.9 193.9 Q 190.7 193.9, 189.5 192.6 Q 188.4 191.3, 188.4 188.9 M 192.9 192.8 Q 194.3 192.8, 195.1 191.8 Q 196.0 190.8, 196.0 188.9 Q 196.0 186.9, 195.1 186.0 Q 194.3 185.0, 192.9 185.0 Q 191.4 185.0, 190.5 186.0 Q 189.7 186.9, 189.7 188.9 Q 189.7 190.8, 190.5 191.8 Q 191.4 192.8, 192.9 192.8 " fill="#FF0000"/>
<path class="atom-8" d="M 126.5 157.9 Q 126.5 155.5, 127.7 154.2 Q 128.9 152.9, 131.0 152.9 Q 133.2 152.9, 134.4 154.2 Q 135.5 155.5, 135.5 157.9 Q 135.5 160.3, 134.3 161.6 Q 133.2 163.0, 131.0 163.0 Q 128.9 163.0, 127.7 161.6 Q 126.5 160.3, 126.5 157.9 M 131.0 161.9 Q 132.5 161.9, 133.3 160.9 Q 134.1 159.9, 134.1 157.9 Q 134.1 156.0, 133.3 155.0 Q 132.5 154.0, 131.0 154.0 Q 129.5 154.0, 128.7 155.0 Q 127.9 156.0, 127.9 157.9 Q 127.9 159.9, 128.7 160.9 Q 129.5 161.9, 131.0 161.9 " fill="#FF0000"/>
<path class="atom-9" d="M 175.3 137.5 L 178.5 142.7 Q 178.8 143.2, 179.3 144.2 Q 179.8 145.1, 179.8 145.1 L 179.8 137.5 L 181.1 137.5 L 181.1 147.3 L 179.8 147.3 L 176.3 141.7 Q 175.9 141.0, 175.5 140.2 Q 175.1 139.5, 175.0 139.2 L 175.0 147.3 L 173.7 147.3 L 173.7 137.5 L 175.3 137.5 " fill="#0000FF"/>
<path class="atom-11" d="M 169.4 82.7 Q 169.4 80.3, 170.5 79.0 Q 171.7 77.7, 173.9 77.7 Q 176.0 77.7, 177.2 79.0 Q 178.4 80.3, 178.4 82.7 Q 178.4 85.1, 177.2 86.4 Q 176.0 87.8, 173.9 87.8 Q 171.7 87.8, 170.5 86.4 Q 169.4 85.1, 169.4 82.7 M 173.9 86.7 Q 175.4 86.7, 176.2 85.7 Q 177.0 84.7, 177.0 82.7 Q 177.0 80.8, 176.2 79.8 Q 175.4 78.8, 173.9 78.8 Q 172.4 78.8, 171.6 79.8 Q 170.8 80.8, 170.8 82.7 Q 170.8 84.7, 171.6 85.7 Q 172.4 86.7, 173.9 86.7 " fill="#FF0000"/>
<path class="atom-12" d="M 119.4 115.7 Q 119.4 113.3, 120.5 112.0 Q 121.7 110.7, 123.9 110.7 Q 126.1 110.7, 127.2 112.0 Q 128.4 113.3, 128.4 115.7 Q 128.4 118.0, 127.2 119.4 Q 126.0 120.7, 123.9 120.7 Q 121.7 120.7, 120.5 119.4 Q 119.4 118.0, 119.4 115.7 M 123.9 119.6 Q 125.4 119.6, 126.2 118.6 Q 127.0 117.6, 127.0 115.7 Q 127.0 113.7, 126.2 112.8 Q 125.4 111.8, 123.9 111.8 Q 122.4 111.8, 121.6 112.7 Q 120.8 113.7, 120.8 115.7 Q 120.8 117.6, 121.6 118.6 Q 122.4 119.6, 123.9 119.6 " fill="#FF0000"/>
<path class="atom-18" d="M 222.9 109.5 Q 222.9 107.2, 224.1 105.8 Q 225.2 104.5, 227.4 104.5 Q 229.6 104.5, 230.7 105.8 Q 231.9 107.2, 231.9 109.5 Q 231.9 111.9, 230.7 113.2 Q 229.6 114.6, 227.4 114.6 Q 225.3 114.6, 224.1 113.2 Q 222.9 111.9, 222.9 109.5 M 227.4 113.5 Q 228.9 113.5, 229.7 112.5 Q 230.5 111.5, 230.5 109.5 Q 230.5 107.6, 229.7 106.6 Q 228.9 105.6, 227.4 105.6 Q 225.9 105.6, 225.1 106.6 Q 224.3 107.6, 224.3 109.5 Q 224.3 111.5, 225.1 112.5 Q 225.9 113.5, 227.4 113.5 " fill="#FF0000"/>
<path class="atom-23" d="M 289.5 255.6 Q 290.4 255.9, 290.9 256.4 Q 291.4 257.0, 291.4 257.9 Q 291.4 259.2, 290.5 260.0 Q 289.7 260.7, 288.0 260.7 L 284.7 260.7 L 284.7 251.0 L 287.6 251.0 Q 289.3 251.0, 290.1 251.6 Q 291.0 252.3, 291.0 253.6 Q 291.0 255.0, 289.5 255.6 M 286.0 252.1 L 286.0 255.1 L 287.6 255.1 Q 288.6 255.1, 289.1 254.7 Q 289.6 254.3, 289.6 253.6 Q 289.6 252.1, 287.6 252.1 L 286.0 252.1 M 288.0 259.6 Q 289.0 259.6, 289.5 259.2 Q 290.0 258.7, 290.0 257.9 Q 290.0 257.1, 289.4 256.6 Q 288.9 256.2, 287.8 256.2 L 286.0 256.2 L 286.0 259.6 L 288.0 259.6 " fill="#7F4C19"/>
<path class="atom-23" d="M 293.6 253.6 L 293.8 254.6 Q 294.5 253.5, 295.7 253.5 Q 296.1 253.5, 296.6 253.6 L 296.4 254.8 Q 295.8 254.7, 295.5 254.7 Q 294.9 254.7, 294.5 254.9 Q 294.2 255.1, 293.9 255.7 L 293.9 260.7 L 292.6 260.7 L 292.6 253.6 L 293.6 253.6 " fill="#7F4C19"/>
<path class="legend" d="M 176.4 385.7 Q 176.4 383.7, 177.4 382.6 Q 178.4 381.5, 180.2 381.5 Q 182.0 381.5, 182.8 382.6 Q 183.6 383.7, 183.6 385.7 L 183.6 386.0 L 177.9 386.0 Q 177.9 387.3, 178.5 388.1 Q 179.2 388.8, 180.3 388.8 Q 181.0 388.8, 181.6 388.7 Q 182.2 388.5, 182.9 388.2 L 183.3 389.2 Q 182.5 389.6, 181.8 389.8 Q 181.0 390.0, 180.3 390.0 Q 178.4 390.0, 177.4 388.9 Q 176.4 387.8, 176.4 385.7 M 180.2 382.7 Q 179.3 382.7, 178.7 383.2 Q 178.1 383.8, 178.0 384.8 L 182.1 384.8 Q 181.9 383.7, 181.5 383.2 Q 181.0 382.7, 180.2 382.7 " fill="#000000"/>
<path class="legend" d="M 184.9 377.7 L 186.4 377.7 L 186.4 389.9 L 184.9 389.9 L 184.9 377.7 " fill="#000000"/>
<path class="legend" d="M 189.0 388.6 L 191.5 388.6 L 191.5 380.1 L 188.8 381.0 L 188.4 380.0 L 191.9 378.5 L 193.0 378.7 L 193.0 388.6 L 195.2 388.6 L 195.2 389.9 L 189.0 389.9 L 189.0 388.6 " fill="#000000"/>
<path class="legend" d="M 196.6 380.7 Q 197.0 379.6, 198.0 379.0 Q 199.0 378.4, 200.4 378.4 Q 202.1 378.4, 203.1 379.3 Q 204.0 380.3, 204.0 381.9 Q 204.0 383.6, 202.8 385.2 Q 201.5 386.7, 199.0 388.6 L 204.2 388.6 L 204.2 389.9 L 196.6 389.9 L 196.6 388.8 Q 198.7 387.3, 199.9 386.2 Q 201.2 385.1, 201.8 384.0 Q 202.4 383.0, 202.4 382.0 Q 202.4 380.9, 201.9 380.3 Q 201.3 379.7, 200.4 379.7 Q 199.5 379.7, 198.9 380.1 Q 198.3 380.4, 197.8 381.2 L 196.6 380.7 " fill="#000000"/>
<path class="legend" d="M 209.9 382.8 Q 210.9 382.8, 211.8 383.2 Q 212.6 383.6, 213.0 384.4 Q 213.5 385.2, 213.5 386.3 Q 213.5 387.5, 212.9 388.3 Q 212.4 389.1, 211.4 389.6 Q 210.5 390.0, 209.4 390.0 Q 208.4 390.0, 207.4 389.6 Q 206.5 389.2, 205.8 388.5 L 206.8 387.5 Q 207.3 388.1, 208.0 388.4 Q 208.8 388.7, 209.5 388.7 Q 210.5 388.7, 211.2 388.1 Q 211.9 387.5, 211.9 386.3 Q 211.9 385.1, 211.2 384.6 Q 210.5 384.0, 209.4 384.0 Q 208.4 384.0, 207.3 384.4 L 206.4 384.0 L 207.0 378.5 L 212.8 378.5 L 212.6 379.8 L 208.3 379.8 L 207.9 383.2 Q 208.9 382.8, 209.9 382.8 " fill="#000000"/>
<path class="legend" d="M 222.3 386.0 L 223.6 386.0 L 223.6 387.3 L 222.3 387.3 L 222.3 389.9 L 220.8 389.9 L 220.8 387.3 L 214.9 387.3 L 214.9 386.3 L 219.9 378.5 L 222.3 378.5 L 222.3 386.0 M 216.8 386.0 L 220.8 386.0 L 220.8 379.6 L 216.8 386.0 " fill="#000000"/>
<path class="bond-0 atom-0 atom-1" d="M 464.4,275.2 L 478.8,276.9" style="fill:none;fill-rule:evenodd;stroke:#000000;stroke-width:2.0px;stroke-linecap:butt;stroke-linejoin:miter;stroke-opacity:1"/>
<path class="bond-0 atom-0 atom-1" d="M 478.8,276.9 L 493.1,278.6" style="fill:none;fill-rule:evenodd;stroke:#FF0000;stroke-width:2.0px;stroke-linecap:butt;stroke-linejoin:miter;stroke-opacity:1"/>
<path class="bond-1 atom-1 atom-2" d="M 503.3,273.2 L 511.4,262.4" style="fill:none;fill-rule:evenodd;stroke:#FF0000;stroke-width:2.0px;stroke-linecap:butt;stroke-linejoin:miter;stroke-opacity:1"/>
<path class="bond-1 atom-1 atom-2" d="M 511.4,262.4 L 519.5,251.6" style="fill:none;fill-rule:evenodd;stroke:#000000;stroke-width:2.0px;stroke-linecap:butt;stroke-linejoin:miter;stroke-opacity:1"/>
<path class="bond-2 atom-2 atom-3" d="M 519.5,251.6 L 505.9,219.8" style="fill:none;fill-rule:evenodd;stroke:#000000;stroke-width:2.0px;stroke-linecap:butt;stroke-linejoin:miter;stroke-opacity:1"/>
<path class="bond-2 atom-2 atom-3" d="M 523.1,246.8 L 511.8,220.5" style="fill:none;fill-rule:evenodd;stroke:#000000;stroke-width:2.0px;stroke-linecap:butt;stroke-linejoin:miter;stroke-opacity:1"/>
<path class="bond-3 atom-3 atom-4" d="M 505.9,219.8 L 526.6,192.2" style="fill:none;fill-rule:evenodd;stroke:#000000;stroke-width:2.0px;stroke-linecap:butt;stroke-linejoin:miter;stroke-opacity:1"/>
<path class="bond-4 atom-4 atom-5" d="M 526.6,192.2 L 560.9,196.3" style="fill:none;fill-rule:evenodd;stroke:#000000;stroke-width:2.0px;stroke-linecap:butt;stroke-linejoin:miter;stroke-opacity:1"/>
<path class="bond-4 atom-4 atom-5" d="M 529.0,197.7 L 557.4,201.1" style="fill:none;fill-rule:evenodd;stroke:#000000;stroke-width:2.0px;stroke-linecap:butt;stroke-linejoin:miter;stroke-opacity:1"/>
<path class="bond-5 atom-5 atom-6" d="M 560.9,196.3 L 574.5,228.1" style="fill:none;fill-rule:evenodd;stroke:#000000;stroke-width:2.0px;stroke-linecap:butt;stroke-linejoin:miter;stroke-opacity:1"/>
<path class="bond-6 atom-6 atom-7" d="M 574.5,228.1 L 553.8,255.7" style="fill:none;fill-rule:evenodd;stroke:#000000;stroke-width:2.0px;stroke-linecap:butt;stroke-linejoin:miter;stroke-opacity:1"/>
<path class="bond-6 atom-6 atom-7" d="M 568.6,227.4 L 551.5,250.2" style="fill:none;fill-rule:evenodd;stroke:#000000;stroke-width:2.0px;stroke-linecap:butt;stroke-linejoin:miter;stroke-opacity:1"/>
<path class="bond-7 atom-6 atom-8" d="M 574.5,228.1 L 609.0,225.0" style="fill:none;fill-rule:evenodd;stroke:#000000;stroke-width:2.0px;stroke-linecap:butt;stroke-linejoin:miter;stroke-opacity:1"/>
<path class="bond-8 atom-8 atom-9" d="M 609.0,225.0 L 618.1,235.4" style="fill:none;fill-rule:evenodd;stroke:#000000;stroke-width:2.0px;stroke-linecap:butt;stroke-linejoin:miter;stroke-opacity:1"/>
<path class="bond-8 atom-8 atom-9" d="M 618.1,235.4 L 627.3,245.9" style="fill:none;fill-rule:evenodd;stroke:#7F4C19;stroke-width:2.0px;stroke-linecap:butt;stroke-linejoin:miter;stroke-opacity:1"/>
<path class="bond-9 atom-8 atom-10" d="M 609.0,225.0 L 616.7,191.2" style="fill:none;fill-rule:evenodd;stroke:#000000;stroke-width:2.0px;stroke-linecap:butt;stroke-linejoin:miter;stroke-opacity:1"/>
<path class="bond-9 atom-8 atom-10" d="M 604.8,220.1 L 610.8,193.8" style="fill:none;fill-rule:evenodd;stroke:#000000;stroke-width:2.0px;stroke-linecap:butt;stroke-linejoin:miter;stroke-opacity:1"/>
<path class="bond-10 atom-10 atom-11" d="M 616.7,191.2 L 648.4,177.7" style="fill:none;fill-rule:evenodd;stroke:#000000;stroke-width:2.0px;stroke-linecap:butt;stroke-linejoin:miter;stroke-opacity:1"/>
<path class="bond-11 atom-11 atom-12" d="M 650.8,179.4 L 652.6,164.7" style="fill:none;fill-rule:evenodd;stroke:#000000;stroke-width:2.0px;stroke-linecap:butt;stroke-linejoin:miter;stroke-opacity:1"/>
<path class="bond-11 atom-11 atom-12" d="M 652.6,164.7 L 654.4,149.9" style="fill:none;fill-rule:evenodd;stroke:#FF0000;stroke-width:2.0px;stroke-linecap:butt;stroke-linejoin:miter;stroke-opacity:1"/>
<path class="bond-11 atom-11 atom-12" d="M 645.7,178.8 L 647.5,164.0" style="fill:none;fill-rule:evenodd;stroke:#000000;stroke-width:2.0px;stroke-linecap:butt;stroke-linejoin:miter;stroke-opacity:1"/>
<path class="bond-11 atom-11 atom-12" d="M 647.5,164.0 L 649.2,149.3" style="fill:none;fill-rule:evenodd;stroke:#FF0000;stroke-width:2.0px;stroke-linecap:butt;stroke-linejoin:miter;stroke-opacity:1"/>
<path class="bond-12 atom-11 atom-13" d="M 648.4,177.7 L 659.5,185.9" style="fill:none;fill-rule:evenodd;stroke:#000000;stroke-width:2.0px;stroke-linecap:butt;stroke-linejoin:miter;stroke-opacity:1"/>
<path class="bond-12 atom-11 atom-13" d="M 659.5,185.9 L 670.5,194.2" style="fill:none;fill-rule:evenodd;stroke:#FF0000;stroke-width:2.0px;stroke-linecap:butt;stroke-linejoin:miter;stroke-opacity:1"/>
<path class="bond-13 atom-13 atom-14" d="M 681.8,196.0 L 694.8,190.4" style="fill:none;fill-rule:evenodd;stroke:#FF0000;stroke-width:2.0px;stroke-linecap:butt;stroke-linejoin:miter;stroke-opacity:1"/>
<path class="bond-13 atom-13 atom-14" d="M 694.8,190.4 L 707.9,184.8" style="fill:none;fill-rule:evenodd;stroke:#000000;stroke-width:2.0px;stroke-linecap:butt;stroke-linejoin:miter;stroke-opacity:1"/>
<path class="bond-14 atom-14 atom-15" d="M 707.9,184.8 L 735.6,205.5" style="fill:none;fill-rule:evenodd;stroke:#000000;stroke-width:2.0px;stroke-linecap:butt;stroke-linejoin:miter;stroke-opacity:1"/>
<path class="bond-15 atom-14 atom-16" d="M 707.9,184.8 L 712.0,150.5" style="fill:none;fill-rule:evenodd;stroke:#000000;stroke-width:2.0px;stroke-linecap:butt;stroke-linejoin:miter;stroke-opacity:1"/>
<path class="bond-16 atom-10 atom-17" d="M 616.7,191.2 L 604.2,183.8" style="fill:none;fill-rule:evenodd;stroke:#000000;stroke-width:2.0px;stroke-linecap:butt;stroke-linejoin:miter;stroke-opacity:1"/>
<path class="bond-16 atom-10 atom-17" d="M 604.2,183.8 L 591.8,176.4" style="fill:none;fill-rule:evenodd;stroke:#0000FF;stroke-width:2.0px;stroke-linecap:butt;stroke-linejoin:miter;stroke-opacity:1"/>
<path class="bond-17 atom-17 atom-18" d="M 586.4,167.5 L 585.1,153.3" style="fill:none;fill-rule:evenodd;stroke:#0000FF;stroke-width:2.0px;stroke-linecap:butt;stroke-linejoin:miter;stroke-opacity:1"/>
<path class="bond-17 atom-17 atom-18" d="M 585.1,153.3 L 583.9,139.1" style="fill:none;fill-rule:evenodd;stroke:#000000;stroke-width:2.0px;stroke-linecap:butt;stroke-linejoin:miter;stroke-opacity:1"/>
<path class="bond-18 atom-18 atom-19" d="M 583.9,139.1 L 552.5,124.6" style="fill:none;fill-rule:evenodd;stroke:#000000;stroke-width:2.0px;stroke-linecap:butt;stroke-linejoin:miter;stroke-opacity:1"/>
<path class="bond-19 atom-19 atom-20" d="M 552.5,124.6 L 549.4,90.1" style="fill:none;fill-rule:evenodd;stroke:#000000;stroke-width:2.0px;stroke-linecap:butt;stroke-linejoin:miter;stroke-opacity:1"/>
<path class="bond-19 atom-19 atom-20" d="M 547.1,122.1 L 544.5,93.6" style="fill:none;fill-rule:evenodd;stroke:#000000;stroke-width:2.0px;stroke-linecap:butt;stroke-linejoin:miter;stroke-opacity:1"/>
<path class="bond-20 atom-20 atom-21" d="M 549.4,90.1 L 518.0,75.6" style="fill:none;fill-rule:evenodd;stroke:#000000;stroke-width:2.0px;stroke-linecap:butt;stroke-linejoin:miter;stroke-opacity:1"/>
<path class="bond-21 atom-21 atom-22" d="M 518.0,75.6 L 489.7,95.5" style="fill:none;fill-rule:evenodd;stroke:#000000;stroke-width:2.0px;stroke-linecap:butt;stroke-linejoin:miter;stroke-opacity:1"/>
<path class="bond-21 atom-21 atom-22" d="M 518.5,81.6 L 495.2,98.0" style="fill:none;fill-rule:evenodd;stroke:#000000;stroke-width:2.0px;stroke-linecap:butt;stroke-linejoin:miter;stroke-opacity:1"/>
<path class="bond-22 atom-22 atom-23" d="M 489.7,95.5 L 492.9,130.0" style="fill:none;fill-rule:evenodd;stroke:#000000;stroke-width:2.0px;stroke-linecap:butt;stroke-linejoin:miter;stroke-opacity:1"/>
<path class="bond-23 atom-23 atom-24" d="M 492.9,130.0 L 524.2,144.5" style="fill:none;fill-rule:evenodd;stroke:#000000;stroke-width:2.0px;stroke-linecap:butt;stroke-linejoin:miter;stroke-opacity:1"/>
<path class="bond-23 atom-23 atom-24" d="M 497.7,126.5 L 523.7,138.5" style="fill:none;fill-rule:evenodd;stroke:#000000;stroke-width:2.0px;stroke-linecap:butt;stroke-linejoin:miter;stroke-opacity:1"/>
<path class="bond-24 atom-7 atom-2" d="M 553.8,255.7 L 519.5,251.6" style="fill:none;fill-rule:evenodd;stroke:#000000;stroke-width:2.0px;stroke-linecap:butt;stroke-linejoin:miter;stroke-opacity:1"/>
<path class="bond-25 atom-24 atom-19" d="M 524.2,144.5 L 552.5,124.6" style="fill:none;fill-rule:evenodd;stroke:#000000;stroke-width:2.0px;stroke-linecap:butt;stroke-linejoin:miter;stroke-opacity:1"/>
<path class="bond-26 atom-17 atom-5" d="M 582.1,177.8 L 571.5,187.0" style="fill:none;fill-rule:evenodd;stroke:#0000FF;stroke-width:2.0px;stroke-linecap:butt;stroke-linejoin:miter;stroke-opacity:1"/>
<path class="bond-26 atom-17 atom-5" d="M 571.5,187.0 L 560.9,196.3" style="fill:none;fill-rule:evenodd;stroke:#000000;stroke-width:2.0px;stroke-linecap:butt;stroke-linejoin:miter;stroke-opacity:1"/>
<path d="M 506.6,221.4 L 505.9,219.8 L 506.9,218.4" style="fill:none;stroke:#000000;stroke-width:2.0px;stroke-linecap:butt;stroke-linejoin:miter;stroke-opacity:1;"/>
<path d="M 525.6,193.5 L 526.6,192.2 L 528.3,192.4" style="fill:none;stroke:#000000;stroke-width:2.0px;stroke-linecap:butt;stroke-linejoin:miter;stroke-opacity:1;"/>
<path d="M 554.8,254.4 L 553.8,255.7 L 552.1,255.5" style="fill:none;stroke:#000000;stroke-width:2.0px;stroke-linecap:butt;stroke-linejoin:miter;stroke-opacity:1;"/>
<path d="M 646.9,178.3 L 648.4,177.7 L 649.0,178.1" style="fill:none;stroke:#000000;stroke-width:2.0px;stroke-linecap:butt;stroke-linejoin:miter;stroke-opacity:1;"/>
<path d="M 583.9,139.8 L 583.9,139.1 L 582.3,138.4" style="fill:none;stroke:#000000;stroke-width:2.0px;stroke-linecap:butt;stroke-linejoin:miter;stroke-opacity:1;"/>
<path d="M 549.5,91.9 L 549.4,90.1 L 547.8,89.4" style="fill:none;stroke:#000000;stroke-width:2.0px;stroke-linecap:butt;stroke-linejoin:miter;stroke-opacity:1;"/>
<path d="M 519.6,76.3 L 518.0,75.6 L 516.6,76.6" style="fill:none;stroke:#000000;stroke-width:2.0px;stroke-linecap:butt;stroke-linejoin:miter;stroke-opacity:1;"/>
<path d="M 491.2,94.5 L 489.7,95.5 L 489.9,97.2" style="fill:none;stroke:#000000;stroke-width:2.0px;stroke-linecap:butt;stroke-linejoin:miter;stroke-opacity:1;"/>
<path d="M 492.7,128.2 L 492.9,130.0 L 494.4,130.7" style="fill:none;stroke:#000000;stroke-width:2.0px;stroke-linecap:butt;stroke-linejoin:miter;stroke-opacity:1;"/>
<path d="M 522.7,143.8 L 524.2,144.5 L 525.6,143.5" style="fill:none;stroke:#000000;stroke-width:2.0px;stroke-linecap:butt;stroke-linejoin:miter;stroke-opacity:1;"/>
<path class="atom-1" d="M 494.3 279.3 Q 494.3 277.0, 495.4 275.6 Q 496.6 274.3, 498.8 274.3 Q 500.9 274.3, 502.1 275.6 Q 503.3 277.0, 503.3 279.3 Q 503.3 281.7, 502.1 283.0 Q 500.9 284.4, 498.8 284.4 Q 496.6 284.4, 495.4 283.0 Q 494.3 281.7, 494.3 279.3 M 498.8 283.3 Q 500.2 283.3, 501.1 282.3 Q 501.9 281.3, 501.9 279.3 Q 501.9 277.4, 501.1 276.4 Q 500.2 275.4, 498.8 275.4 Q 497.3 275.4, 496.4 276.4 Q 495.6 277.4, 495.6 279.3 Q 495.6 281.3, 496.4 282.3 Q 497.3 283.3, 498.8 283.3 " fill="#FF0000"/>
<path class="atom-9" d="M 633.2 250.7 Q 634.1 251.0, 634.6 251.6 Q 635.1 252.1, 635.1 253.0 Q 635.1 254.3, 634.2 255.1 Q 633.3 255.9, 631.7 255.9 L 628.4 255.9 L 628.4 246.1 L 631.3 246.1 Q 633.0 246.1, 633.8 246.8 Q 634.7 247.4, 634.7 248.7 Q 634.7 250.2, 633.2 250.7 M 629.7 247.2 L 629.7 250.3 L 631.3 250.3 Q 632.3 250.3, 632.8 249.9 Q 633.3 249.5, 633.3 248.7 Q 633.3 247.2, 631.3 247.2 L 629.7 247.2 M 631.7 254.8 Q 632.6 254.8, 633.2 254.3 Q 633.7 253.9, 633.7 253.0 Q 633.7 252.2, 633.1 251.8 Q 632.6 251.4, 631.5 251.4 L 629.7 251.4 L 629.7 254.8 L 631.7 254.8 " fill="#7F4C19"/>
<path class="atom-9" d="M 637.3 248.8 L 637.4 249.8 Q 638.2 248.6, 639.4 248.6 Q 639.8 248.6, 640.3 248.8 L 640.1 249.9 Q 639.5 249.8, 639.2 249.8 Q 638.6 249.8, 638.2 250.0 Q 637.8 250.3, 637.5 250.8 L 637.5 255.9 L 636.2 255.9 L 636.2 248.8 L 637.3 248.8 " fill="#7F4C19"/>
<path class="atom-12" d="M 648.1 143.4 Q 648.1 141.0, 649.2 139.7 Q 650.4 138.4, 652.6 138.4 Q 654.7 138.4, 655.9 139.7 Q 657.1 141.0, 657.1 143.4 Q 657.1 145.7, 655.9 147.1 Q 654.7 148.4, 652.6 148.4 Q 650.4 148.4, 649.2 147.1 Q 648.1 145.7, 648.1 143.4 M 652.6 147.3 Q 654.1 147.3, 654.9 146.3 Q 655.7 145.3, 655.7 143.4 Q 655.7 141.4, 654.9 140.5 Q 654.1 139.5, 652.6 139.5 Q 651.1 139.5, 650.3 140.4 Q 649.5 141.4, 649.5 143.4 Q 649.5 145.3, 650.3 146.3 Q 651.1 147.3, 652.6 147.3 " fill="#FF0000"/>
<path class="atom-13" d="M 671.6 198.4 Q 671.6 196.1, 672.8 194.7 Q 673.9 193.4, 676.1 193.4 Q 678.3 193.4, 679.4 194.7 Q 680.6 196.1, 680.6 198.4 Q 680.6 200.8, 679.4 202.1 Q 678.3 203.5, 676.1 203.5 Q 674.0 203.5, 672.8 202.1 Q 671.6 200.8, 671.6 198.4 M 676.1 202.4 Q 677.6 202.4, 678.4 201.4 Q 679.2 200.4, 679.2 198.4 Q 679.2 196.5, 678.4 195.5 Q 677.6 194.5, 676.1 194.5 Q 674.6 194.5, 673.8 195.5 Q 673.0 196.5, 673.0 198.4 Q 673.0 200.4, 673.8 201.4 Q 674.6 202.4, 676.1 202.4 " fill="#FF0000"/>
<path class="atom-17" d="M 584.8 168.6 L 588.0 173.8 Q 588.3 174.3, 588.8 175.3 Q 589.4 176.2, 589.4 176.2 L 589.4 168.6 L 590.7 168.6 L 590.7 178.4 L 589.3 178.4 L 585.9 172.7 Q 585.5 172.1, 585.1 171.3 Q 584.7 170.6, 584.5 170.3 L 584.5 178.4 L 583.3 178.4 L 583.3 168.6 L 584.8 168.6 " fill="#0000FF"/>
<path class="legend" d="M 576.9 385.7 Q 576.9 383.7, 577.9 382.6 Q 578.9 381.5, 580.8 381.5 Q 582.6 381.5, 583.4 382.6 Q 584.2 383.6, 584.2 385.7 L 584.2 385.9 L 578.4 385.9 Q 578.5 387.3, 579.1 388.0 Q 579.7 388.8, 580.9 388.8 Q 581.5 388.8, 582.1 388.6 Q 582.7 388.5, 583.4 388.2 L 583.9 389.2 Q 583.0 389.6, 582.3 389.8 Q 581.6 390.0, 580.8 390.0 Q 579.0 390.0, 577.9 388.8 Q 576.9 387.7, 576.9 385.7 M 580.8 382.7 Q 579.8 382.7, 579.2 383.2 Q 578.7 383.7, 578.5 384.8 L 582.6 384.8 Q 582.5 383.7, 582.0 383.2 Q 581.6 382.7, 580.8 382.7 " fill="#000000"/>
<path class="legend" d="M 585.4 377.7 L 586.9 377.7 L 586.9 389.8 L 585.4 389.8 L 585.4 377.7 " fill="#000000"/>
<path class="legend" d="M 589.5 388.6 L 592.0 388.6 L 592.0 380.1 L 589.3 380.9 L 588.9 380.0 L 592.4 378.4 L 593.5 378.6 L 593.5 388.6 L 595.8 388.6 L 595.8 389.8 L 589.5 389.8 L 589.5 388.6 " fill="#000000"/>
<path class="legend" d="M 602.5 383.9 Q 603.6 384.2, 604.1 384.9 Q 604.7 385.6, 604.7 386.7 Q 604.7 387.7, 604.2 388.4 Q 603.7 389.2, 602.8 389.6 Q 602.0 390.0, 600.8 390.0 Q 599.6 390.0, 598.7 389.6 Q 597.8 389.2, 597.1 388.3 L 598.0 387.4 Q 598.7 388.1, 599.3 388.4 Q 599.9 388.7, 600.8 388.7 Q 601.8 388.7, 602.5 388.2 Q 603.1 387.6, 603.1 386.7 Q 603.1 385.6, 602.4 385.1 Q 601.8 384.5, 600.4 384.5 L 599.6 384.5 L 599.6 383.4 L 600.3 383.4 Q 601.5 383.4, 602.2 382.8 Q 602.8 382.3, 602.8 381.3 Q 602.8 380.5, 602.3 380.1 Q 601.8 379.7, 600.8 379.7 Q 599.9 379.7, 599.3 380.0 Q 598.7 380.3, 598.3 381.2 L 597.2 380.6 Q 597.6 379.6, 598.5 379.0 Q 599.5 378.4, 600.8 378.4 Q 602.5 378.4, 603.5 379.2 Q 604.4 380.0, 604.4 381.3 Q 604.4 382.2, 603.9 382.8 Q 603.4 383.5, 602.5 383.9 " fill="#000000"/>
<path class="legend" d="M 611.7 383.9 Q 612.8 384.2, 613.3 384.9 Q 613.9 385.6, 613.9 386.7 Q 613.9 387.7, 613.4 388.4 Q 612.9 389.2, 612.0 389.6 Q 611.2 390.0, 610.0 390.0 Q 608.8 390.0, 607.9 389.6 Q 607.0 389.2, 606.3 388.3 L 607.2 387.4 Q 607.9 388.1, 608.5 388.4 Q 609.1 388.7, 610.0 388.7 Q 611.0 388.7, 611.7 388.2 Q 612.3 387.6, 612.3 386.7 Q 612.3 385.6, 611.6 385.1 Q 611.0 384.5, 609.6 384.5 L 608.8 384.5 L 608.8 383.4 L 609.5 383.4 Q 610.7 383.4, 611.4 382.8 Q 612.0 382.3, 612.0 381.3 Q 612.0 380.5, 611.5 380.1 Q 611.0 379.7, 610.0 379.7 Q 609.1 379.7, 608.5 380.0 Q 607.9 380.3, 607.5 381.2 L 606.4 380.6 Q 606.8 379.6, 607.7 379.0 Q 608.7 378.4, 610.0 378.4 Q 611.7 378.4, 612.7 379.2 Q 613.6 380.0, 613.6 381.3 Q 613.6 382.2, 613.1 382.8 Q 612.6 383.5, 611.7 383.9 " fill="#000000"/>
<path class="legend" d="M 615.5 380.7 Q 615.9 379.6, 616.9 379.0 Q 617.9 378.4, 619.3 378.4 Q 621.0 378.4, 621.9 379.3 Q 622.9 380.2, 622.9 381.9 Q 622.9 383.6, 621.7 385.1 Q 620.4 386.7, 617.9 388.6 L 623.1 388.6 L 623.1 389.8 L 615.5 389.8 L 615.5 388.8 Q 617.6 387.3, 618.8 386.1 Q 620.1 385.0, 620.7 384.0 Q 621.3 383.0, 621.3 382.0 Q 621.3 380.9, 620.8 380.3 Q 620.2 379.7, 619.3 379.7 Q 618.4 379.7, 617.8 380.0 Q 617.1 380.4, 616.7 381.2 L 615.5 380.7 " fill="#000000"/>
<path class="bond-0 atom-0 atom-1" d="M 899.3,38.1 L 886.7,62.9" style="fill:none;fill-rule:evenodd;stroke:#000000;stroke-width:2.0px;stroke-linecap:butt;stroke-linejoin:miter;stroke-opacity:1"/>
<path class="bond-1 atom-1 atom-2" d="M 880.5,75.2 L 868.1,99.8" style="fill:none;fill-rule:evenodd;stroke:#000000;stroke-width:2.0px;stroke-linecap:butt;stroke-linejoin:miter;stroke-opacity:1"/>
<path class="bond-2 atom-1 atom-3" d="M 878.2,66.2 L 852.8,53.4" style="fill:none;fill-rule:evenodd;stroke:#000000;stroke-width:2.0px;stroke-linecap:butt;stroke-linejoin:miter;stroke-opacity:1"/>
<path class="bond-3 atom-1 atom-4" d="M 889.1,71.7 L 914.5,84.5" style="fill:none;fill-rule:evenodd;stroke:#000000;stroke-width:2.0px;stroke-linecap:butt;stroke-linejoin:miter;stroke-opacity:1"/>
<path class="bond-4 atom-4 atom-5" d="M 914.5,84.5 L 916.4,119.1" style="fill:none;fill-rule:evenodd;stroke:#000000;stroke-width:2.0px;stroke-linecap:butt;stroke-linejoin:miter;stroke-opacity:1"/>
<path class="bond-5 atom-5 atom-6" d="M 916.4,119.1 L 929.0,125.4" style="fill:none;fill-rule:evenodd;stroke:#000000;stroke-width:2.0px;stroke-linecap:butt;stroke-linejoin:miter;stroke-opacity:1"/>
<path class="bond-5 atom-5 atom-6" d="M 929.0,125.4 L 941.7,131.8" style="fill:none;fill-rule:evenodd;stroke:#FF0000;stroke-width:2.0px;stroke-linecap:butt;stroke-linejoin:miter;stroke-opacity:1"/>
<path class="bond-6 atom-6 atom-7" d="M 947.6,140.9 L 948.4,155.0" style="fill:none;fill-rule:evenodd;stroke:#FF0000;stroke-width:2.0px;stroke-linecap:butt;stroke-linejoin:miter;stroke-opacity:1"/>
<path class="bond-6 atom-6 atom-7" d="M 948.4,155.0 L 949.2,169.2" style="fill:none;fill-rule:evenodd;stroke:#000000;stroke-width:2.0px;stroke-linecap:butt;stroke-linejoin:miter;stroke-opacity:1"/>
<path class="bond-7 atom-7 atom-8" d="M 949.2,169.2 L 962.2,175.8" style="fill:none;fill-rule:evenodd;stroke:#000000;stroke-width:2.0px;stroke-linecap:butt;stroke-linejoin:miter;stroke-opacity:1"/>
<path class="bond-7 atom-7 atom-8" d="M 962.2,175.8 L 975.2,182.3" style="fill:none;fill-rule:evenodd;stroke:#0000FF;stroke-width:2.0px;stroke-linecap:butt;stroke-linejoin:miter;stroke-opacity:1"/>
<path class="bond-8 atom-8 atom-9" d="M 981.0,190.8 L 983.3,204.9" style="fill:none;fill-rule:evenodd;stroke:#0000FF;stroke-width:2.0px;stroke-linecap:butt;stroke-linejoin:miter;stroke-opacity:1"/>
<path class="bond-8 atom-8 atom-9" d="M 983.3,204.9 L 985.6,218.9" style="fill:none;fill-rule:evenodd;stroke:#000000;stroke-width:2.0px;stroke-linecap:butt;stroke-linejoin:miter;stroke-opacity:1"/>
<path class="bond-9 atom-9 atom-10" d="M 985.6,218.9 L 961.2,243.4" style="fill:none;fill-rule:evenodd;stroke:#000000;stroke-width:2.0px;stroke-linecap:butt;stroke-linejoin:miter;stroke-opacity:1"/>
<path class="bond-10 atom-10 atom-11" d="M 961.2,243.4 L 927.8,234.6" style="fill:none;fill-rule:evenodd;stroke:#000000;stroke-width:2.0px;stroke-linecap:butt;stroke-linejoin:miter;stroke-opacity:1"/>
<path class="bond-10 atom-10 atom-11" d="M 957.0,247.7 L 929.4,240.4" style="fill:none;fill-rule:evenodd;stroke:#000000;stroke-width:2.0px;stroke-linecap:butt;stroke-linejoin:miter;stroke-opacity:1"/>
<path class="bond-11 atom-11 atom-12" d="M 927.8,234.6 L 903.4,259.1" style="fill:none;fill-rule:evenodd;stroke:#000000;stroke-width:2.0px;stroke-linecap:butt;stroke-linejoin:miter;stroke-opacity:1"/>
<path class="bond-12 atom-12 atom-13" d="M 903.4,259.1 L 912.5,292.5" style="fill:none;fill-rule:evenodd;stroke:#000000;stroke-width:2.0px;stroke-linecap:butt;stroke-linejoin:miter;stroke-opacity:1"/>
<path class="bond-12 atom-12 atom-13" d="M 909.2,260.6 L 916.7,288.2" style="fill:none;fill-rule:evenodd;stroke:#000000;stroke-width:2.0px;stroke-linecap:butt;stroke-linejoin:miter;stroke-opacity:1"/>
<path class="bond-13 atom-13 atom-14" d="M 912.5,292.5 L 902.3,302.7" style="fill:none;fill-rule:evenodd;stroke:#000000;stroke-width:2.0px;stroke-linecap:butt;stroke-linejoin:miter;stroke-opacity:1"/>
<path class="bond-13 atom-13 atom-14" d="M 902.3,302.7 L 892.2,312.9" style="fill:none;fill-rule:evenodd;stroke:#33CCCC;stroke-width:2.0px;stroke-linecap:butt;stroke-linejoin:miter;stroke-opacity:1"/>
<path class="bond-14 atom-13 atom-15" d="M 912.5,292.5 L 945.9,301.3" style="fill:none;fill-rule:evenodd;stroke:#000000;stroke-width:2.0px;stroke-linecap:butt;stroke-linejoin:miter;stroke-opacity:1"/>
<path class="bond-15 atom-15 atom-16" d="M 945.9,301.3 L 970.3,276.8" style="fill:none;fill-rule:evenodd;stroke:#000000;stroke-width:2.0px;stroke-linecap:butt;stroke-linejoin:miter;stroke-opacity:1"/>
<path class="bond-15 atom-15 atom-16" d="M 944.3,295.5 L 964.5,275.3" style="fill:none;fill-rule:evenodd;stroke:#000000;stroke-width:2.0px;stroke-linecap:butt;stroke-linejoin:miter;stroke-opacity:1"/>
<path class="bond-16 atom-9 atom-17" d="M 985.6,218.9 L 1019.8,224.2" style="fill:none;fill-rule:evenodd;stroke:#000000;stroke-width:2.0px;stroke-linecap:butt;stroke-linejoin:miter;stroke-opacity:1"/>
<path class="bond-16 atom-9 atom-17" d="M 990.1,214.4 L 1016.8,218.5" style="fill:none;fill-rule:evenodd;stroke:#000000;stroke-width:2.0px;stroke-linecap:butt;stroke-linejoin:miter;stroke-opacity:1"/>
<path class="bond-17 atom-17 atom-18" d="M 1019.8,224.2 L 1035.3,193.3" style="fill:none;fill-rule:evenodd;stroke:#000000;stroke-width:2.0px;stroke-linecap:butt;stroke-linejoin:miter;stroke-opacity:1"/>
<path class="bond-18 atom-18 atom-19" d="M 1035.3,193.3 L 1068.7,184.3" style="fill:none;fill-rule:evenodd;stroke:#000000;stroke-width:2.0px;stroke-linecap:butt;stroke-linejoin:miter;stroke-opacity:1"/>
<path class="bond-18 atom-18 atom-19" d="M 1036.9,187.6 L 1064.5,180.1" style="fill:none;fill-rule:evenodd;stroke:#000000;stroke-width:2.0px;stroke-linecap:butt;stroke-linejoin:miter;stroke-opacity:1"/>
<path class="bond-19 atom-19 atom-20" d="M 1068.7,184.3 L 1078.5,194.0" style="fill:none;fill-rule:evenodd;stroke:#000000;stroke-width:2.0px;stroke-linecap:butt;stroke-linejoin:miter;stroke-opacity:1"/>
<path class="bond-19 atom-19 atom-20" d="M 1078.5,194.0 L 1088.3,203.8" style="fill:none;fill-rule:evenodd;stroke:#00CC00;stroke-width:2.0px;stroke-linecap:butt;stroke-linejoin:miter;stroke-opacity:1"/>
<path class="bond-20 atom-19 atom-21" d="M 1068.7,184.3 L 1077.6,150.9" style="fill:none;fill-rule:evenodd;stroke:#000000;stroke-width:2.0px;stroke-linecap:butt;stroke-linejoin:miter;stroke-opacity:1"/>
<path class="bond-21 atom-21 atom-22" d="M 1077.6,150.9 L 1110.9,141.8" style="fill:none;fill-rule:evenodd;stroke:#000000;stroke-width:2.0px;stroke-linecap:butt;stroke-linejoin:miter;stroke-opacity:1"/>
<path class="bond-22 atom-22 atom-23" d="M 1110.9,141.8 L 1125.6,137.8" style="fill:none;fill-rule:evenodd;stroke:#000000;stroke-width:2.0px;stroke-linecap:butt;stroke-linejoin:miter;stroke-opacity:1"/>
<path class="bond-22 atom-22 atom-23" d="M 1125.6,137.8 L 1140.2,133.9" style="fill:none;fill-rule:evenodd;stroke:#33CCCC;stroke-width:2.0px;stroke-linecap:butt;stroke-linejoin:miter;stroke-opacity:1"/>
<path class="bond-23 atom-22 atom-24" d="M 1110.9,141.8 L 1114.6,155.5" style="fill:none;fill-rule:evenodd;stroke:#000000;stroke-width:2.0px;stroke-linecap:butt;stroke-linejoin:miter;stroke-opacity:1"/>
<path class="bond-23 atom-22 atom-24" d="M 1114.6,155.5 L 1118.3,169.1" style="fill:none;fill-rule:evenodd;stroke:#33CCCC;stroke-width:2.0px;stroke-linecap:butt;stroke-linejoin:miter;stroke-opacity:1"/>
<path class="bond-24 atom-22 atom-25" d="M 1110.9,141.8 L 1107.2,128.1" style="fill:none;fill-rule:evenodd;stroke:#000000;stroke-width:2.0px;stroke-linecap:butt;stroke-linejoin:miter;stroke-opacity:1"/>
<path class="bond-24 atom-22 atom-25" d="M 1107.2,128.1 L 1103.5,114.5" style="fill:none;fill-rule:evenodd;stroke:#33CCCC;stroke-width:2.0px;stroke-linecap:butt;stroke-linejoin:miter;stroke-opacity:1"/>
<path class="bond-25 atom-21 atom-26" d="M 1077.6,150.9 L 1053.0,126.5" style="fill:none;fill-rule:evenodd;stroke:#000000;stroke-width:2.0px;stroke-linecap:butt;stroke-linejoin:miter;stroke-opacity:1"/>
<path class="bond-25 atom-21 atom-26" d="M 1071.8,152.4 L 1051.5,132.3" style="fill:none;fill-rule:evenodd;stroke:#000000;stroke-width:2.0px;stroke-linecap:butt;stroke-linejoin:miter;stroke-opacity:1"/>
<path class="bond-26 atom-26 atom-27" d="M 1053.0,126.5 L 1038.8,130.4" style="fill:none;fill-rule:evenodd;stroke:#000000;stroke-width:2.0px;stroke-linecap:butt;stroke-linejoin:miter;stroke-opacity:1"/>
<path class="bond-26 atom-26 atom-27" d="M 1038.8,130.4 L 1024.5,134.2" style="fill:none;fill-rule:evenodd;stroke:#0000FF;stroke-width:2.0px;stroke-linecap:butt;stroke-linejoin:miter;stroke-opacity:1"/>
<path class="bond-27 atom-27 atom-28" d="M 1018.1,141.6 L 1014.4,155.3" style="fill:none;fill-rule:evenodd;stroke:#0000FF;stroke-width:2.0px;stroke-linecap:butt;stroke-linejoin:miter;stroke-opacity:1"/>
<path class="bond-27 atom-27 atom-28" d="M 1014.4,155.3 L 1010.8,169.0" style="fill:none;fill-rule:evenodd;stroke:#000000;stroke-width:2.0px;stroke-linecap:butt;stroke-linejoin:miter;stroke-opacity:1"/>
<path class="bond-27 atom-27 atom-28" d="M 1023.1,142.9 L 1019.8,155.2" style="fill:none;fill-rule:evenodd;stroke:#0000FF;stroke-width:2.0px;stroke-linecap:butt;stroke-linejoin:miter;stroke-opacity:1"/>
<path class="bond-27 atom-27 atom-28" d="M 1019.8,155.2 L 1016.6,167.4" style="fill:none;fill-rule:evenodd;stroke:#000000;stroke-width:2.0px;stroke-linecap:butt;stroke-linejoin:miter;stroke-opacity:1"/>
<path class="bond-28 atom-28 atom-8" d="M 1010.8,169.0 L 997.9,175.6" style="fill:none;fill-rule:evenodd;stroke:#000000;stroke-width:2.0px;stroke-linecap:butt;stroke-linejoin:miter;stroke-opacity:1"/>
<path class="bond-28 atom-28 atom-8" d="M 997.9,175.6 L 984.9,182.3" style="fill:none;fill-rule:evenodd;stroke:#0000FF;stroke-width:2.0px;stroke-linecap:butt;stroke-linejoin:miter;stroke-opacity:1"/>
<path class="bond-29 atom-16 atom-10" d="M 970.3,276.8 L 961.2,243.4" style="fill:none;fill-rule:evenodd;stroke:#000000;stroke-width:2.0px;stroke-linecap:butt;stroke-linejoin:miter;stroke-opacity:1"/>
<path class="bond-30 atom-28 atom-18" d="M 1010.8,169.0 L 1035.3,193.3" style="fill:none;fill-rule:evenodd;stroke:#000000;stroke-width:2.0px;stroke-linecap:butt;stroke-linejoin:miter;stroke-opacity:1"/>
<path d="M 913.2,83.9 L 914.5,84.5 L 914.6,86.3" style="fill:none;stroke:#000000;stroke-width:2.0px;stroke-linecap:butt;stroke-linejoin:miter;stroke-opacity:1;"/>
<path d="M 916.3,117.3 L 916.4,119.1 L 917.1,119.4" style="fill:none;stroke:#000000;stroke-width:2.0px;stroke-linecap:butt;stroke-linejoin:miter;stroke-opacity:1;"/>
<path d="M 949.2,168.5 L 949.2,169.2 L 949.9,169.5" style="fill:none;stroke:#000000;stroke-width:2.0px;stroke-linecap:butt;stroke-linejoin:miter;stroke-opacity:1;"/>
<path d="M 929.5,235.0 L 927.8,234.6 L 926.6,235.8" style="fill:none;stroke:#000000;stroke-width:2.0px;stroke-linecap:butt;stroke-linejoin:miter;stroke-opacity:1;"/>
<path d="M 904.6,257.9 L 903.4,259.1 L 903.9,260.8" style="fill:none;stroke:#000000;stroke-width:2.0px;stroke-linecap:butt;stroke-linejoin:miter;stroke-opacity:1;"/>
<path d="M 944.2,300.9 L 945.9,301.3 L 947.1,300.1" style="fill:none;stroke:#000000;stroke-width:2.0px;stroke-linecap:butt;stroke-linejoin:miter;stroke-opacity:1;"/>
<path d="M 969.1,278.0 L 970.3,276.8 L 969.8,275.1" style="fill:none;stroke:#000000;stroke-width:2.0px;stroke-linecap:butt;stroke-linejoin:miter;stroke-opacity:1;"/>
<path d="M 1018.0,223.9 L 1019.8,224.2 L 1020.5,222.7" style="fill:none;stroke:#000000;stroke-width:2.0px;stroke-linecap:butt;stroke-linejoin:miter;stroke-opacity:1;"/>
<path d="M 1054.3,127.7 L 1053.0,126.5 L 1052.3,126.7" style="fill:none;stroke:#000000;stroke-width:2.0px;stroke-linecap:butt;stroke-linejoin:miter;stroke-opacity:1;"/>
<path class="atom-1" d="M 879.7 72.3 Q 879.9 72.4, 880.3 72.6 Q 880.8 72.8, 881.3 72.9 Q 881.8 73.0, 882.3 73.0 Q 883.2 73.0, 883.7 72.5 Q 884.3 72.1, 884.3 71.3 Q 884.3 70.8, 884.0 70.4 Q 883.7 70.1, 883.3 69.9 Q 882.9 69.7, 882.2 69.5 Q 881.3 69.3, 880.8 69.0 Q 880.3 68.8, 879.9 68.2 Q 879.6 67.7, 879.6 66.8 Q 879.6 65.6, 880.4 64.8 Q 881.3 64.1, 882.9 64.1 Q 884.0 64.1, 885.3 64.6 L 885.0 65.7 Q 883.8 65.2, 883.0 65.2 Q 882.0 65.2, 881.5 65.6 Q 880.9 66.0, 881.0 66.7 Q 881.0 67.2, 881.2 67.5 Q 881.5 67.8, 881.9 68.0 Q 882.3 68.2, 883.0 68.4 Q 883.8 68.7, 884.4 68.9 Q 884.9 69.2, 885.3 69.8 Q 885.6 70.3, 885.6 71.3 Q 885.6 72.7, 884.7 73.4 Q 883.8 74.1, 882.3 74.1 Q 881.5 74.1, 880.8 73.9 Q 880.1 73.7, 879.4 73.4 L 879.7 72.3 " fill="#000000"/>
<path class="atom-1" d="M 886.7 64.1 L 887.9 64.1 L 887.9 65.3 L 886.7 65.3 L 886.7 64.1 M 886.7 66.7 L 887.9 66.7 L 887.9 73.8 L 886.7 73.8 L 886.7 66.7 " fill="#000000"/>
<path class="atom-6" d="M 942.8 134.7 Q 942.8 132.3, 944.0 131.0 Q 945.1 129.7, 947.3 129.7 Q 949.5 129.7, 950.6 131.0 Q 951.8 132.3, 951.8 134.7 Q 951.8 137.1, 950.6 138.4 Q 949.4 139.8, 947.3 139.8 Q 945.1 139.8, 944.0 138.4 Q 942.8 137.1, 942.8 134.7 M 947.3 138.7 Q 948.8 138.7, 949.6 137.7 Q 950.4 136.7, 950.4 134.7 Q 950.4 132.8, 949.6 131.8 Q 948.8 130.8, 947.3 130.8 Q 945.8 130.8, 945.0 131.8 Q 944.2 132.8, 944.2 134.7 Q 944.2 136.7, 945.0 137.7 Q 945.8 138.7, 947.3 138.7 " fill="#FF0000"/>
<path class="atom-8" d="M 977.9 179.9 L 981.1 185.1 Q 981.4 185.6, 981.9 186.5 Q 982.5 187.4, 982.5 187.5 L 982.5 179.9 L 983.8 179.9 L 983.8 189.7 L 982.4 189.7 L 979.0 184.0 Q 978.6 183.3, 978.2 182.6 Q 977.8 181.8, 977.6 181.6 L 977.6 189.7 L 976.4 189.7 L 976.4 179.9 L 977.9 179.9 " fill="#0000FF"/>
<path class="atom-14" d="M 885.2 312.1 L 891.0 312.1 L 891.0 313.2 L 886.5 313.2 L 886.5 316.2 L 890.5 316.2 L 890.5 317.3 L 886.5 317.3 L 886.5 321.9 L 885.2 321.9 L 885.2 312.1 " fill="#33CCCC"/>
<path class="atom-20" d="M 1089.5 209.0 Q 1089.5 206.6, 1090.6 205.3 Q 1091.7 204.0, 1093.9 204.0 Q 1095.9 204.0, 1097.0 205.4 L 1096.1 206.2 Q 1095.3 205.1, 1093.9 205.1 Q 1092.4 205.1, 1091.6 206.1 Q 1090.9 207.1, 1090.9 209.0 Q 1090.9 210.9, 1091.7 211.9 Q 1092.5 212.9, 1094.1 212.9 Q 1095.1 212.9, 1096.4 212.3 L 1096.8 213.3 Q 1096.3 213.6, 1095.5 213.8 Q 1094.7 214.0, 1093.9 214.0 Q 1091.7 214.0, 1090.6 212.7 Q 1089.5 211.4, 1089.5 209.0 " fill="#00CC00"/>
<path class="atom-20" d="M 1098.0 203.4 L 1099.3 203.4 L 1099.3 213.9 L 1098.0 213.9 L 1098.0 203.4 " fill="#00CC00"/>
<path class="atom-23" d="M 1141.4 127.9 L 1147.2 127.9 L 1147.2 129.0 L 1142.7 129.0 L 1142.7 132.0 L 1146.7 132.0 L 1146.7 133.1 L 1142.7 133.1 L 1142.7 137.7 L 1141.4 137.7 L 1141.4 127.9 " fill="#33CCCC"/>
<path class="atom-24" d="M 1117.1 170.3 L 1122.9 170.3 L 1122.9 171.4 L 1118.4 171.4 L 1118.4 174.4 L 1122.4 174.4 L 1122.4 175.5 L 1118.4 175.5 L 1118.4 180.1 L 1117.1 180.1 L 1117.1 170.3 " fill="#33CCCC"/>
<path class="atom-25" d="M 1099.0 103.6 L 1104.8 103.6 L 1104.8 104.7 L 1100.3 104.7 L 1100.3 107.6 L 1104.3 107.6 L 1104.3 108.8 L 1100.3 108.8 L 1100.3 113.3 L 1099.0 113.3 L 1099.0 103.6 " fill="#33CCCC"/>
<path class="atom-27" d="M 1017.5 130.7 L 1020.7 135.8 Q 1021.0 136.4, 1021.5 137.3 Q 1022.0 138.2, 1022.1 138.3 L 1022.1 130.7 L 1023.4 130.7 L 1023.4 140.5 L 1022.0 140.5 L 1018.6 134.8 Q 1018.2 134.1, 1017.8 133.4 Q 1017.3 132.6, 1017.2 132.4 L 1017.2 140.5 L 1015.9 140.5 L 1015.9 130.7 L 1017.5 130.7 " fill="#0000FF"/>
<path class="legend" d="M 976.8 385.7 Q 976.8 383.7, 977.8 382.6 Q 978.8 381.5, 980.7 381.5 Q 982.5 381.5, 983.3 382.6 Q 984.1 383.7, 984.1 385.7 L 984.1 386.0 L 978.4 386.0 Q 978.4 387.3, 979.0 388.1 Q 979.6 388.8, 980.8 388.8 Q 981.4 388.8, 982.0 388.7 Q 982.6 388.5, 983.4 388.2 L 983.8 389.2 Q 983.0 389.6, 982.2 389.8 Q 981.5 390.0, 980.7 390.0 Q 978.9 390.0, 977.8 388.9 Q 976.8 387.8, 976.8 385.7 M 980.7 382.7 Q 979.7 382.7, 979.2 383.2 Q 978.6 383.8, 978.4 384.8 L 982.5 384.8 Q 982.4 383.7, 982.0 383.2 Q 981.5 382.7, 980.7 382.7 " fill="#000000"/>
<path class="legend" d="M 985.4 377.7 L 986.8 377.7 L 986.8 389.9 L 985.4 389.9 L 985.4 377.7 " fill="#000000"/>
<path class="legend" d="M 989.5 388.6 L 992.0 388.6 L 992.0 380.1 L 989.2 381.0 L 988.9 380.0 L 992.3 378.5 L 993.5 378.7 L 993.5 388.6 L 995.7 388.6 L 995.7 389.9 L 989.5 389.9 L 989.5 388.6 " fill="#000000"/>
<path class="legend" d="M 1002.9 379.8 L 997.0 379.8 L 997.0 378.5 L 1004.5 378.5 L 1004.5 379.7 L 1000.0 389.9 L 998.4 389.9 L 1002.9 379.8 " fill="#000000"/>
<path class="legend" d="M 1005.7 380.7 Q 1006.1 379.6, 1007.1 379.0 Q 1008.1 378.4, 1009.5 378.4 Q 1011.2 378.4, 1012.1 379.3 Q 1013.1 380.3, 1013.1 381.9 Q 1013.1 383.6, 1011.8 385.2 Q 1010.6 386.7, 1008.0 388.6 L 1013.3 388.6 L 1013.3 389.9 L 1005.6 389.9 L 1005.6 388.8 Q 1007.8 387.3, 1009.0 386.2 Q 1010.3 385.1, 1010.9 384.0 Q 1011.5 383.0, 1011.5 382.0 Q 1011.5 380.9, 1010.9 380.3 Q 1010.4 379.7, 1009.5 379.7 Q 1008.5 379.7, 1007.9 380.1 Q 1007.3 380.4, 1006.9 381.2 L 1005.7 380.7 " fill="#000000"/>
<path class="legend" d="M 1019.0 390.0 Q 1017.0 390.0, 1015.9 388.5 Q 1014.9 386.9, 1014.9 384.2 Q 1014.9 381.5, 1015.9 379.9 Q 1016.9 378.4, 1019.0 378.4 Q 1021.1 378.4, 1022.2 379.9 Q 1023.2 381.5, 1023.2 384.2 Q 1023.2 386.9, 1022.1 388.5 Q 1021.1 390.0, 1019.0 390.0 M 1019.0 388.7 Q 1020.3 388.7, 1020.9 387.6 Q 1021.6 386.4, 1021.6 384.2 Q 1021.6 382.0, 1020.9 380.8 Q 1020.3 379.7, 1019.0 379.7 Q 1017.8 379.7, 1017.1 380.8 Q 1016.5 382.0, 1016.5 384.2 Q 1016.5 386.4, 1017.1 387.6 Q 1017.8 388.7, 1019.0 388.7 " fill="#000000"/>
<path class="bond-0 atom-0 atom-1" d="M 1499.8,114.6 L 1497.0,125.2" style="fill:none;fill-rule:evenodd;stroke:#FF0000;stroke-width:2.0px;stroke-linecap:butt;stroke-linejoin:miter;stroke-opacity:1"/>
<path class="bond-0 atom-0 atom-1" d="M 1497.0,125.2 L 1494.3,135.8" style="fill:none;fill-rule:evenodd;stroke:#CCCC00;stroke-width:2.0px;stroke-linecap:butt;stroke-linejoin:miter;stroke-opacity:1"/>
<path class="bond-0 atom-0 atom-1" d="M 1494.8,113.3 L 1492.0,123.9" style="fill:none;fill-rule:evenodd;stroke:#FF0000;stroke-width:2.0px;stroke-linecap:butt;stroke-linejoin:miter;stroke-opacity:1"/>
<path class="bond-0 atom-0 atom-1" d="M 1492.0,123.9 L 1489.3,134.5" style="fill:none;fill-rule:evenodd;stroke:#CCCC00;stroke-width:2.0px;stroke-linecap:butt;stroke-linejoin:miter;stroke-opacity:1"/>
<path class="bond-1 atom-1 atom-2" d="M 1494.5,143.9 L 1506.8,144.2" style="fill:none;fill-rule:evenodd;stroke:#CCCC00;stroke-width:2.0px;stroke-linecap:butt;stroke-linejoin:miter;stroke-opacity:1"/>
<path class="bond-1 atom-1 atom-2" d="M 1506.8,144.2 L 1519.1,144.5" style="fill:none;fill-rule:evenodd;stroke:#FF0000;stroke-width:2.0px;stroke-linecap:butt;stroke-linejoin:miter;stroke-opacity:1"/>
<path class="bond-1 atom-1 atom-2" d="M 1494.6,138.7 L 1506.9,139.0" style="fill:none;fill-rule:evenodd;stroke:#CCCC00;stroke-width:2.0px;stroke-linecap:butt;stroke-linejoin:miter;stroke-opacity:1"/>
<path class="bond-1 atom-1 atom-2" d="M 1506.9,139.0 L 1519.2,139.3" style="fill:none;fill-rule:evenodd;stroke:#FF0000;stroke-width:2.0px;stroke-linecap:butt;stroke-linejoin:miter;stroke-opacity:1"/>
<path class="bond-2 atom-1 atom-3" d="M 1486.0,138.9 L 1472.8,132.1" style="fill:none;fill-rule:evenodd;stroke:#CCCC00;stroke-width:2.0px;stroke-linecap:butt;stroke-linejoin:miter;stroke-opacity:1"/>
<path class="bond-2 atom-1 atom-3" d="M 1472.8,132.1 L 1459.5,125.3" style="fill:none;fill-rule:evenodd;stroke:#000000;stroke-width:2.0px;stroke-linecap:butt;stroke-linejoin:miter;stroke-opacity:1"/>
<path class="bond-3 atom-3 atom-4" d="M 1459.5,125.3 L 1428.0,139.4" style="fill:none;fill-rule:evenodd;stroke:#000000;stroke-width:2.0px;stroke-linecap:butt;stroke-linejoin:miter;stroke-opacity:1"/>
<path class="bond-4 atom-4 atom-5" d="M 1428.0,139.4 L 1424.4,153.1" style="fill:none;fill-rule:evenodd;stroke:#000000;stroke-width:2.0px;stroke-linecap:butt;stroke-linejoin:miter;stroke-opacity:1"/>
<path class="bond-4 atom-4 atom-5" d="M 1424.4,153.1 L 1420.9,166.9" style="fill:none;fill-rule:evenodd;stroke:#0000FF;stroke-width:2.0px;stroke-linecap:butt;stroke-linejoin:miter;stroke-opacity:1"/>
<path class="bond-5 atom-5 atom-6" d="M 1414.5,173.9 L 1400.0,176.8" style="fill:none;fill-rule:evenodd;stroke:#0000FF;stroke-width:2.0px;stroke-linecap:butt;stroke-linejoin:miter;stroke-opacity:1"/>
<path class="bond-5 atom-5 atom-6" d="M 1400.0,176.8 L 1385.5,179.7" style="fill:none;fill-rule:evenodd;stroke:#000000;stroke-width:2.0px;stroke-linecap:butt;stroke-linejoin:miter;stroke-opacity:1"/>
<path class="bond-6 atom-6 atom-7" d="M 1385.5,179.7 L 1374.4,212.4" style="fill:none;fill-rule:evenodd;stroke:#000000;stroke-width:2.0px;stroke-linecap:butt;stroke-linejoin:miter;stroke-opacity:1"/>
<path class="bond-6 atom-6 atom-7" d="M 1379.6,180.8 L 1370.4,207.9" style="fill:none;fill-rule:evenodd;stroke:#000000;stroke-width:2.0px;stroke-linecap:butt;stroke-linejoin:miter;stroke-opacity:1"/>
<path class="bond-7 atom-7 atom-8" d="M 1374.4,212.4 L 1340.4,219.2" style="fill:none;fill-rule:evenodd;stroke:#000000;stroke-width:2.0px;stroke-linecap:butt;stroke-linejoin:miter;stroke-opacity:1"/>
<path class="bond-8 atom-8 atom-9" d="M 1340.4,219.2 L 1335.9,232.6" style="fill:none;fill-rule:evenodd;stroke:#000000;stroke-width:2.0px;stroke-linecap:butt;stroke-linejoin:miter;stroke-opacity:1"/>
<path class="bond-8 atom-8 atom-9" d="M 1335.9,232.6 L 1331.3,246.1" style="fill:none;fill-rule:evenodd;stroke:#00CC00;stroke-width:2.0px;stroke-linecap:butt;stroke-linejoin:miter;stroke-opacity:1"/>
<path class="bond-9 atom-8 atom-10" d="M 1340.4,219.2 L 1317.6,193.2" style="fill:none;fill-rule:evenodd;stroke:#000000;stroke-width:2.0px;stroke-linecap:butt;stroke-linejoin:miter;stroke-opacity:1"/>
<path class="bond-9 atom-8 atom-10" d="M 1342.4,213.5 L 1323.5,192.0" style="fill:none;fill-rule:evenodd;stroke:#000000;stroke-width:2.0px;stroke-linecap:butt;stroke-linejoin:miter;stroke-opacity:1"/>
<path class="bond-10 atom-10 atom-11" d="M 1317.6,193.2 L 1283.7,200.0" style="fill:none;fill-rule:evenodd;stroke:#000000;stroke-width:2.0px;stroke-linecap:butt;stroke-linejoin:miter;stroke-opacity:1"/>
<path class="bond-11 atom-11 atom-12" d="M 1283.7,200.0 L 1274.8,189.7" style="fill:none;fill-rule:evenodd;stroke:#000000;stroke-width:2.0px;stroke-linecap:butt;stroke-linejoin:miter;stroke-opacity:1"/>
<path class="bond-11 atom-11 atom-12" d="M 1274.8,189.7 L 1265.8,179.5" style="fill:none;fill-rule:evenodd;stroke:#0000FF;stroke-width:2.0px;stroke-linecap:butt;stroke-linejoin:miter;stroke-opacity:1"/>
<path class="bond-11 atom-11 atom-12" d="M 1285.7,194.3 L 1277.7,185.2" style="fill:none;fill-rule:evenodd;stroke:#000000;stroke-width:2.0px;stroke-linecap:butt;stroke-linejoin:miter;stroke-opacity:1"/>
<path class="bond-11 atom-11 atom-12" d="M 1277.7,185.2 L 1269.7,176.1" style="fill:none;fill-rule:evenodd;stroke:#0000FF;stroke-width:2.0px;stroke-linecap:butt;stroke-linejoin:miter;stroke-opacity:1"/>
<path class="bond-12 atom-12 atom-13" d="M 1263.0,167.9 L 1267.5,154.6" style="fill:none;fill-rule:evenodd;stroke:#0000FF;stroke-width:2.0px;stroke-linecap:butt;stroke-linejoin:miter;stroke-opacity:1"/>
<path class="bond-12 atom-12 atom-13" d="M 1267.5,154.6 L 1272.0,141.2" style="fill:none;fill-rule:evenodd;stroke:#000000;stroke-width:2.0px;stroke-linecap:butt;stroke-linejoin:miter;stroke-opacity:1"/>
<path class="bond-13 atom-13 atom-14" d="M 1272.0,141.2 L 1305.9,134.5" style="fill:none;fill-rule:evenodd;stroke:#000000;stroke-width:2.0px;stroke-linecap:butt;stroke-linejoin:miter;stroke-opacity:1"/>
<path class="bond-13 atom-13 atom-14" d="M 1276.0,145.7 L 1304.0,140.1" style="fill:none;fill-rule:evenodd;stroke:#000000;stroke-width:2.0px;stroke-linecap:butt;stroke-linejoin:miter;stroke-opacity:1"/>
<path class="bond-14 atom-14 atom-15" d="M 1305.9,134.5 L 1328.7,160.4" style="fill:none;fill-rule:evenodd;stroke:#000000;stroke-width:2.0px;stroke-linecap:butt;stroke-linejoin:miter;stroke-opacity:1"/>
<path class="bond-15 atom-15 atom-16" d="M 1328.7,160.4 L 1343.3,157.5" style="fill:none;fill-rule:evenodd;stroke:#000000;stroke-width:2.0px;stroke-linecap:butt;stroke-linejoin:miter;stroke-opacity:1"/>
<path class="bond-15 atom-15 atom-16" d="M 1343.3,157.5 L 1357.8,154.7" style="fill:none;fill-rule:evenodd;stroke:#0000FF;stroke-width:2.0px;stroke-linecap:butt;stroke-linejoin:miter;stroke-opacity:1"/>
<path class="bond-15 atom-15 atom-16" d="M 1332.7,164.9 L 1345.7,162.3" style="fill:none;fill-rule:evenodd;stroke:#000000;stroke-width:2.0px;stroke-linecap:butt;stroke-linejoin:miter;stroke-opacity:1"/>
<path class="bond-15 atom-15 atom-16" d="M 1345.7,162.3 L 1358.8,159.7" style="fill:none;fill-rule:evenodd;stroke:#0000FF;stroke-width:2.0px;stroke-linecap:butt;stroke-linejoin:miter;stroke-opacity:1"/>
<path class="bond-16 atom-5 atom-17" d="M 1423.9,178.9 L 1432.0,189.7" style="fill:none;fill-rule:evenodd;stroke:#0000FF;stroke-width:2.0px;stroke-linecap:butt;stroke-linejoin:miter;stroke-opacity:1"/>
<path class="bond-16 atom-5 atom-17" d="M 1432.0,189.7 L 1440.2,200.5" style="fill:none;fill-rule:evenodd;stroke:#000000;stroke-width:2.0px;stroke-linecap:butt;stroke-linejoin:miter;stroke-opacity:1"/>
<path class="bond-17 atom-17 atom-18" d="M 1440.2,200.5 L 1474.7,201.5" style="fill:none;fill-rule:evenodd;stroke:#000000;stroke-width:2.0px;stroke-linecap:butt;stroke-linejoin:miter;stroke-opacity:1"/>
<path class="bond-18 atom-18 atom-19" d="M 1474.7,201.5 L 1486.5,234.0" style="fill:none;fill-rule:evenodd;stroke:#000000;stroke-width:2.0px;stroke-linecap:butt;stroke-linejoin:miter;stroke-opacity:1"/>
<path class="bond-18 atom-18 atom-19" d="M 1480.6,202.5 L 1490.3,229.4" style="fill:none;fill-rule:evenodd;stroke:#000000;stroke-width:2.0px;stroke-linecap:butt;stroke-linejoin:miter;stroke-opacity:1"/>
<path class="bond-19 atom-19 atom-20" d="M 1486.5,234.0 L 1520.5,240.1" style="fill:none;fill-rule:evenodd;stroke:#000000;stroke-width:2.0px;stroke-linecap:butt;stroke-linejoin:miter;stroke-opacity:1"/>
<path class="bond-20 atom-20 atom-21" d="M 1520.5,240.1 L 1542.8,213.7" style="fill:none;fill-rule:evenodd;stroke:#000000;stroke-width:2.0px;stroke-linecap:butt;stroke-linejoin:miter;stroke-opacity:1"/>
<path class="bond-20 atom-20 atom-21" d="M 1518.5,234.5 L 1536.9,212.6" style="fill:none;fill-rule:evenodd;stroke:#000000;stroke-width:2.0px;stroke-linecap:butt;stroke-linejoin:miter;stroke-opacity:1"/>
<path class="bond-21 atom-21 atom-22" d="M 1542.8,213.7 L 1531.0,181.1" style="fill:none;fill-rule:evenodd;stroke:#000000;stroke-width:2.0px;stroke-linecap:butt;stroke-linejoin:miter;stroke-opacity:1"/>
<path class="bond-22 atom-22 atom-23" d="M 1531.0,181.1 L 1497.0,175.0" style="fill:none;fill-rule:evenodd;stroke:#000000;stroke-width:2.0px;stroke-linecap:butt;stroke-linejoin:miter;stroke-opacity:1"/>
<path class="bond-22 atom-22 atom-23" d="M 1527.2,185.7 L 1499.0,180.7" style="fill:none;fill-rule:evenodd;stroke:#000000;stroke-width:2.0px;stroke-linecap:butt;stroke-linejoin:miter;stroke-opacity:1"/>
<path class="bond-23 atom-23 atom-1" d="M 1497.0,175.0 L 1494.3,161.2" style="fill:none;fill-rule:evenodd;stroke:#000000;stroke-width:2.0px;stroke-linecap:butt;stroke-linejoin:miter;stroke-opacity:1"/>
<path class="bond-23 atom-23 atom-1" d="M 1494.3,161.2 L 1491.5,147.4" style="fill:none;fill-rule:evenodd;stroke:#CCCC00;stroke-width:2.0px;stroke-linecap:butt;stroke-linejoin:miter;stroke-opacity:1"/>
<path class="bond-24 atom-16 atom-6" d="M 1367.5,159.2 L 1376.5,169.4" style="fill:none;fill-rule:evenodd;stroke:#0000FF;stroke-width:2.0px;stroke-linecap:butt;stroke-linejoin:miter;stroke-opacity:1"/>
<path class="bond-24 atom-16 atom-6" d="M 1376.5,169.4 L 1385.5,179.7" style="fill:none;fill-rule:evenodd;stroke:#000000;stroke-width:2.0px;stroke-linecap:butt;stroke-linejoin:miter;stroke-opacity:1"/>
<path class="bond-25 atom-23 atom-18" d="M 1497.0,175.0 L 1474.7,201.5" style="fill:none;fill-rule:evenodd;stroke:#000000;stroke-width:2.0px;stroke-linecap:butt;stroke-linejoin:miter;stroke-opacity:1"/>
<path class="bond-26 atom-15 atom-10" d="M 1328.7,160.4 L 1317.6,193.2" style="fill:none;fill-rule:evenodd;stroke:#000000;stroke-width:2.0px;stroke-linecap:butt;stroke-linejoin:miter;stroke-opacity:1"/>
<path d="M 1460.2,125.6 L 1459.5,125.3 L 1458.0,126.0" style="fill:none;stroke:#000000;stroke-width:2.0px;stroke-linecap:butt;stroke-linejoin:miter;stroke-opacity:1;"/>
<path d="M 1429.6,138.7 L 1428.0,139.4 L 1427.8,140.1" style="fill:none;stroke:#000000;stroke-width:2.0px;stroke-linecap:butt;stroke-linejoin:miter;stroke-opacity:1;"/>
<path d="M 1374.9,210.8 L 1374.4,212.4 L 1372.7,212.7" style="fill:none;stroke:#000000;stroke-width:2.0px;stroke-linecap:butt;stroke-linejoin:miter;stroke-opacity:1;"/>
<path d="M 1285.4,199.6 L 1283.7,200.0 L 1283.3,199.4" style="fill:none;stroke:#000000;stroke-width:2.0px;stroke-linecap:butt;stroke-linejoin:miter;stroke-opacity:1;"/>
<path d="M 1271.8,141.9 L 1272.0,141.2 L 1273.7,140.9" style="fill:none;stroke:#000000;stroke-width:2.0px;stroke-linecap:butt;stroke-linejoin:miter;stroke-opacity:1;"/>
<path d="M 1304.2,134.8 L 1305.9,134.5 L 1307.1,135.8" style="fill:none;stroke:#000000;stroke-width:2.0px;stroke-linecap:butt;stroke-linejoin:miter;stroke-opacity:1;"/>
<path d="M 1439.8,200.0 L 1440.2,200.5 L 1441.9,200.6" style="fill:none;stroke:#000000;stroke-width:2.0px;stroke-linecap:butt;stroke-linejoin:miter;stroke-opacity:1;"/>
<path d="M 1485.9,232.4 L 1486.5,234.0 L 1488.2,234.3" style="fill:none;stroke:#000000;stroke-width:2.0px;stroke-linecap:butt;stroke-linejoin:miter;stroke-opacity:1;"/>
<path d="M 1518.8,239.8 L 1520.5,240.1 L 1521.6,238.8" style="fill:none;stroke:#000000;stroke-width:2.0px;stroke-linecap:butt;stroke-linejoin:miter;stroke-opacity:1;"/>
<path d="M 1541.7,215.0 L 1542.8,213.7 L 1542.2,212.0" style="fill:none;stroke:#000000;stroke-width:2.0px;stroke-linecap:butt;stroke-linejoin:miter;stroke-opacity:1;"/>
<path d="M 1531.6,182.8 L 1531.0,181.1 L 1529.3,180.8" style="fill:none;stroke:#000000;stroke-width:2.0px;stroke-linecap:butt;stroke-linejoin:miter;stroke-opacity:1;"/>
<path class="atom-0" d="M 1494.4 107.7 Q 1494.4 105.3, 1495.5 104.0 Q 1496.7 102.7, 1498.9 102.7 Q 1501.0 102.7, 1502.2 104.0 Q 1503.4 105.3, 1503.4 107.7 Q 1503.4 110.1, 1502.2 111.4 Q 1501.0 112.8, 1498.9 112.8 Q 1496.7 112.8, 1495.5 111.4 Q 1494.4 110.1, 1494.4 107.7 M 1498.9 111.7 Q 1500.4 111.7, 1501.2 110.7 Q 1502.0 109.7, 1502.0 107.7 Q 1502.0 105.8, 1501.2 104.8 Q 1500.4 103.8, 1498.9 103.8 Q 1497.4 103.8, 1496.6 104.8 Q 1495.8 105.8, 1495.8 107.7 Q 1495.8 109.7, 1496.6 110.7 Q 1497.4 111.7, 1498.9 111.7 " fill="#FF0000"/>
<path class="atom-1" d="M 1487.5 144.5 Q 1487.6 144.5, 1488.1 144.7 Q 1488.5 144.9, 1489.0 145.1 Q 1489.5 145.2, 1490.0 145.2 Q 1490.9 145.2, 1491.5 144.7 Q 1492.0 144.3, 1492.0 143.5 Q 1492.0 142.9, 1491.7 142.6 Q 1491.5 142.3, 1491.1 142.1 Q 1490.7 141.9, 1490.0 141.7 Q 1489.1 141.4, 1488.6 141.2 Q 1488.1 140.9, 1487.7 140.4 Q 1487.3 139.9, 1487.3 139.0 Q 1487.3 137.8, 1488.2 137.0 Q 1489.0 136.3, 1490.7 136.3 Q 1491.8 136.3, 1493.1 136.8 L 1492.8 137.9 Q 1491.6 137.4, 1490.7 137.4 Q 1489.7 137.4, 1489.2 137.8 Q 1488.7 138.2, 1488.7 138.8 Q 1488.7 139.4, 1489.0 139.7 Q 1489.2 140.0, 1489.6 140.2 Q 1490.0 140.4, 1490.7 140.6 Q 1491.6 140.9, 1492.1 141.1 Q 1492.6 141.4, 1493.0 142.0 Q 1493.4 142.5, 1493.4 143.5 Q 1493.4 144.8, 1492.5 145.6 Q 1491.6 146.3, 1490.1 146.3 Q 1489.2 146.3, 1488.5 146.1 Q 1487.9 145.9, 1487.1 145.6 L 1487.5 144.5 " fill="#CCCC00"/>
<path class="atom-2" d="M 1520.3 142.1 Q 1520.3 139.8, 1521.5 138.5 Q 1522.6 137.1, 1524.8 137.1 Q 1527.0 137.1, 1528.1 138.5 Q 1529.3 139.8, 1529.3 142.1 Q 1529.3 144.5, 1528.1 145.9 Q 1527.0 147.2, 1524.8 147.2 Q 1522.7 147.2, 1521.5 145.9 Q 1520.3 144.5, 1520.3 142.1 M 1524.8 146.1 Q 1526.3 146.1, 1527.1 145.1 Q 1527.9 144.1, 1527.9 142.1 Q 1527.9 140.2, 1527.1 139.2 Q 1526.3 138.3, 1524.8 138.3 Q 1523.3 138.3, 1522.5 139.2 Q 1521.7 140.2, 1521.7 142.1 Q 1521.7 144.1, 1522.5 145.1 Q 1523.3 146.1, 1524.8 146.1 " fill="#FF0000"/>
<path class="atom-5" d="M 1417.2 168.0 L 1420.4 173.2 Q 1420.7 173.7, 1421.2 174.6 Q 1421.7 175.6, 1421.8 175.6 L 1421.8 168.0 L 1423.1 168.0 L 1423.1 177.8 L 1421.7 177.8 L 1418.3 172.1 Q 1417.9 171.5, 1417.5 170.7 Q 1417.0 169.9, 1416.9 169.7 L 1416.9 177.8 L 1415.6 177.8 L 1415.6 168.0 L 1417.2 168.0 " fill="#0000FF"/>
<path class="atom-9" d="M 1325.6 252.3 Q 1325.6 249.8, 1326.7 248.5 Q 1327.9 247.3, 1330.0 247.3 Q 1332.0 247.3, 1333.1 248.7 L 1332.2 249.4 Q 1331.4 248.4, 1330.0 248.4 Q 1328.6 248.4, 1327.8 249.4 Q 1327.0 250.4, 1327.0 252.3 Q 1327.0 254.2, 1327.8 255.2 Q 1328.6 256.2, 1330.2 256.2 Q 1331.3 256.2, 1332.5 255.5 L 1332.9 256.6 Q 1332.4 256.9, 1331.6 257.1 Q 1330.8 257.3, 1330.0 257.3 Q 1327.9 257.3, 1326.7 256.0 Q 1325.6 254.7, 1325.6 252.3 " fill="#00CC00"/>
<path class="atom-9" d="M 1334.1 246.7 L 1335.4 246.7 L 1335.4 257.2 L 1334.1 257.2 L 1334.1 246.7 " fill="#00CC00"/>
<path class="atom-12" d="M 1258.8 169.1 L 1262.0 174.3 Q 1262.3 174.8, 1262.8 175.7 Q 1263.3 176.6, 1263.3 176.7 L 1263.3 169.1 L 1264.6 169.1 L 1264.6 178.9 L 1263.3 178.9 L 1259.9 173.2 Q 1259.5 172.5, 1259.0 171.8 Q 1258.6 171.0, 1258.5 170.8 L 1258.5 178.9 L 1257.2 178.9 L 1257.2 169.1 L 1258.8 169.1 " fill="#0000FF"/>
<path class="atom-16" d="M 1360.5 148.8 L 1363.7 154.0 Q 1364.0 154.5, 1364.5 155.4 Q 1365.0 156.3, 1365.1 156.4 L 1365.1 148.8 L 1366.4 148.8 L 1366.4 158.6 L 1365.0 158.6 L 1361.6 152.9 Q 1361.2 152.2, 1360.7 151.5 Q 1360.3 150.7, 1360.2 150.5 L 1360.2 158.6 L 1358.9 158.6 L 1358.9 148.8 L 1360.5 148.8 " fill="#0000FF"/>
<path class="legend" d="M 1376.7 385.7 Q 1376.7 383.7, 1377.7 382.6 Q 1378.7 381.5, 1380.6 381.5 Q 1382.4 381.5, 1383.2 382.6 Q 1384.0 383.6, 1384.0 385.7 L 1384.0 385.9 L 1378.2 385.9 Q 1378.3 387.3, 1378.9 388.0 Q 1379.5 388.8, 1380.7 388.8 Q 1381.3 388.8, 1381.9 388.6 Q 1382.5 388.5, 1383.2 388.2 L 1383.7 389.2 Q 1382.8 389.6, 1382.1 389.8 Q 1381.4 390.0, 1380.6 390.0 Q 1378.7 390.0, 1377.7 388.8 Q 1376.7 387.7, 1376.7 385.7 M 1380.6 382.7 Q 1379.6 382.7, 1379.0 383.2 Q 1378.5 383.7, 1378.3 384.8 L 1382.4 384.8 Q 1382.3 383.7, 1381.8 383.2 Q 1381.4 382.7, 1380.6 382.7 " fill="#000000"/>
<path class="legend" d="M 1385.2 377.7 L 1386.7 377.7 L 1386.7 389.8 L 1385.2 389.8 L 1385.2 377.7 " fill="#000000"/>
<path class="legend" d="M 1389.3 388.6 L 1391.8 388.6 L 1391.8 380.1 L 1389.1 380.9 L 1388.7 380.0 L 1392.2 378.4 L 1393.3 378.6 L 1393.3 388.6 L 1395.6 388.6 L 1395.6 389.8 L 1389.3 389.8 L 1389.3 388.6 " fill="#000000"/>
<path class="legend" d="M 1400.7 378.4 Q 1402.7 378.4, 1403.7 379.8 Q 1404.7 381.1, 1404.7 383.8 Q 1404.7 386.8, 1403.5 388.4 Q 1402.2 390.0, 1399.8 390.0 Q 1399.1 390.0, 1398.5 389.8 Q 1397.9 389.6, 1397.3 389.3 L 1397.9 388.2 Q 1398.8 388.7, 1399.8 388.7 Q 1401.4 388.7, 1402.2 387.7 Q 1403.0 386.6, 1403.1 384.5 Q 1402.5 385.0, 1401.8 385.3 Q 1401.1 385.6, 1400.3 385.6 Q 1399.3 385.6, 1398.5 385.2 Q 1397.7 384.7, 1397.3 383.9 Q 1396.9 383.2, 1396.9 382.2 Q 1396.9 381.1, 1397.4 380.2 Q 1397.9 379.3, 1398.7 378.9 Q 1399.6 378.4, 1400.7 378.4 M 1398.5 382.1 Q 1398.5 383.2, 1399.0 383.7 Q 1399.6 384.3, 1400.6 384.3 Q 1401.3 384.3, 1401.9 384.0 Q 1402.6 383.7, 1403.1 383.3 Q 1403.1 381.4, 1402.5 380.5 Q 1401.9 379.7, 1400.7 379.7 Q 1400.1 379.7, 1399.5 380.0 Q 1399.1 380.3, 1398.8 380.9 Q 1398.5 381.5, 1398.5 382.1 " fill="#000000"/>
<path class="legend" d="M 1411.9 383.9 Q 1413.0 384.2, 1413.5 384.9 Q 1414.1 385.6, 1414.1 386.7 Q 1414.1 387.7, 1413.6 388.4 Q 1413.1 389.2, 1412.2 389.6 Q 1411.4 390.0, 1410.2 390.0 Q 1409.0 390.0, 1408.1 389.6 Q 1407.2 389.2, 1406.5 388.3 L 1407.4 387.4 Q 1408.1 388.1, 1408.7 388.4 Q 1409.3 388.7, 1410.2 388.7 Q 1411.2 388.7, 1411.9 388.2 Q 1412.5 387.6, 1412.5 386.7 Q 1412.5 385.6, 1411.8 385.1 Q 1411.2 384.5, 1409.8 384.5 L 1409.0 384.5 L 1409.0 383.4 L 1409.7 383.4 Q 1410.9 383.4, 1411.6 382.8 Q 1412.2 382.3, 1412.2 381.3 Q 1412.2 380.5, 1411.7 380.1 Q 1411.2 379.7, 1410.2 379.7 Q 1409.3 379.7, 1408.7 380.0 Q 1408.1 380.3, 1407.7 381.2 L 1406.6 380.6 Q 1407.0 379.6, 1407.9 379.0 Q 1408.9 378.4, 1410.2 378.4 Q 1411.9 378.4, 1412.9 379.2 Q 1413.8 380.0, 1413.8 381.3 Q 1413.8 382.2, 1413.3 382.8 Q 1412.8 383.5, 1411.9 383.9 " fill="#000000"/>
<path class="legend" d="M 1415.7 380.7 Q 1416.1 379.6, 1417.1 379.0 Q 1418.1 378.4, 1419.5 378.4 Q 1421.2 378.4, 1422.1 379.3 Q 1423.1 380.2, 1423.1 381.9 Q 1423.1 383.6, 1421.9 385.1 Q 1420.6 386.7, 1418.1 388.6 L 1423.3 388.6 L 1423.3 389.8 L 1415.7 389.8 L 1415.7 388.8 Q 1417.8 387.3, 1419.0 386.1 Q 1420.3 385.0, 1420.9 384.0 Q 1421.5 383.0, 1421.5 382.0 Q 1421.5 380.9, 1421.0 380.3 Q 1420.4 379.7, 1419.5 379.7 Q 1418.6 379.7, 1418.0 380.0 Q 1417.3 380.4, 1416.9 381.2 L 1415.7 380.7 " fill="#000000"/>
<path class="bond-0 atom-0 atom-1" d="M 1659.8,214.4 L 1666.3,180.5" style="fill:none;fill-rule:evenodd;stroke:#000000;stroke-width:2.0px;stroke-linecap:butt;stroke-linejoin:miter;stroke-opacity:1"/>
<path class="bond-1 atom-1 atom-2" d="M 1666.3,180.5 L 1672.8,146.5" style="fill:none;fill-rule:evenodd;stroke:#000000;stroke-width:2.0px;stroke-linecap:butt;stroke-linejoin:miter;stroke-opacity:1"/>
<path class="bond-2 atom-1 atom-3" d="M 1666.3,180.5 L 1652.1,177.7" style="fill:none;fill-rule:evenodd;stroke:#000000;stroke-width:2.0px;stroke-linecap:butt;stroke-linejoin:miter;stroke-opacity:1"/>
<path class="bond-2 atom-1 atom-3" d="M 1652.1,177.7 L 1638.0,175.0" style="fill:none;fill-rule:evenodd;stroke:#FF0000;stroke-width:2.0px;stroke-linecap:butt;stroke-linejoin:miter;stroke-opacity:1"/>
<path class="bond-3 atom-1 atom-4" d="M 1666.3,180.5 L 1700.3,187.0" style="fill:none;fill-rule:evenodd;stroke:#000000;stroke-width:2.0px;stroke-linecap:butt;stroke-linejoin:miter;stroke-opacity:1"/>
<path class="bond-4 atom-4 atom-5" d="M 1700.3,187.0 L 1711.6,219.6" style="fill:none;fill-rule:evenodd;stroke:#000000;stroke-width:2.0px;stroke-linecap:butt;stroke-linejoin:miter;stroke-opacity:1"/>
<path class="bond-4 atom-4 atom-5" d="M 1706.1,188.1 L 1715.5,215.1" style="fill:none;fill-rule:evenodd;stroke:#000000;stroke-width:2.0px;stroke-linecap:butt;stroke-linejoin:miter;stroke-opacity:1"/>
<path class="bond-5 atom-5 atom-6" d="M 1711.6,219.6 L 1745.5,226.2" style="fill:none;fill-rule:evenodd;stroke:#000000;stroke-width:2.0px;stroke-linecap:butt;stroke-linejoin:miter;stroke-opacity:1"/>
<path class="bond-6 atom-6 atom-7" d="M 1745.5,226.2 L 1768.2,200.0" style="fill:none;fill-rule:evenodd;stroke:#000000;stroke-width:2.0px;stroke-linecap:butt;stroke-linejoin:miter;stroke-opacity:1"/>
<path class="bond-6 atom-6 atom-7" d="M 1743.6,220.5 L 1762.3,198.9" style="fill:none;fill-rule:evenodd;stroke:#000000;stroke-width:2.0px;stroke-linecap:butt;stroke-linejoin:miter;stroke-opacity:1"/>
<path class="bond-7 atom-7 atom-8" d="M 1768.2,200.0 L 1782.7,202.8" style="fill:none;fill-rule:evenodd;stroke:#000000;stroke-width:2.0px;stroke-linecap:butt;stroke-linejoin:miter;stroke-opacity:1"/>
<path class="bond-7 atom-7 atom-8" d="M 1782.7,202.8 L 1797.3,205.6" style="fill:none;fill-rule:evenodd;stroke:#0000FF;stroke-width:2.0px;stroke-linecap:butt;stroke-linejoin:miter;stroke-opacity:1"/>
<path class="bond-8 atom-8 atom-9" d="M 1807.0,200.9 L 1815.8,190.7" style="fill:none;fill-rule:evenodd;stroke:#0000FF;stroke-width:2.0px;stroke-linecap:butt;stroke-linejoin:miter;stroke-opacity:1"/>
<path class="bond-8 atom-8 atom-9" d="M 1815.8,190.7 L 1824.7,180.4" style="fill:none;fill-rule:evenodd;stroke:#000000;stroke-width:2.0px;stroke-linecap:butt;stroke-linejoin:miter;stroke-opacity:1"/>
<path class="bond-8 atom-8 atom-9" d="M 1803.0,197.5 L 1810.9,188.4" style="fill:none;fill-rule:evenodd;stroke:#0000FF;stroke-width:2.0px;stroke-linecap:butt;stroke-linejoin:miter;stroke-opacity:1"/>
<path class="bond-8 atom-8 atom-9" d="M 1810.9,188.4 L 1818.9,179.3" style="fill:none;fill-rule:evenodd;stroke:#000000;stroke-width:2.0px;stroke-linecap:butt;stroke-linejoin:miter;stroke-opacity:1"/>
<path class="bond-9 atom-9 atom-10" d="M 1824.7,180.4 L 1839.3,183.2" style="fill:none;fill-rule:evenodd;stroke:#000000;stroke-width:2.0px;stroke-linecap:butt;stroke-linejoin:miter;stroke-opacity:1"/>
<path class="bond-9 atom-9 atom-10" d="M 1839.3,183.2 L 1853.8,186.0" style="fill:none;fill-rule:evenodd;stroke:#0000FF;stroke-width:2.0px;stroke-linecap:butt;stroke-linejoin:miter;stroke-opacity:1"/>
<path class="bond-10 atom-10 atom-11" d="M 1860.3,193.0 L 1863.9,206.6" style="fill:none;fill-rule:evenodd;stroke:#0000FF;stroke-width:2.0px;stroke-linecap:butt;stroke-linejoin:miter;stroke-opacity:1"/>
<path class="bond-10 atom-10 atom-11" d="M 1863.9,206.6 L 1867.5,220.3" style="fill:none;fill-rule:evenodd;stroke:#000000;stroke-width:2.0px;stroke-linecap:butt;stroke-linejoin:miter;stroke-opacity:1"/>
<path class="bond-11 atom-11 atom-12" d="M 1867.5,220.3 L 1899.2,234.2" style="fill:none;fill-rule:evenodd;stroke:#000000;stroke-width:2.0px;stroke-linecap:butt;stroke-linejoin:miter;stroke-opacity:1"/>
<path class="bond-12 atom-12 atom-13" d="M 1899.2,234.2 L 1912.4,227.3" style="fill:none;fill-rule:evenodd;stroke:#000000;stroke-width:2.0px;stroke-linecap:butt;stroke-linejoin:miter;stroke-opacity:1"/>
<path class="bond-12 atom-12 atom-13" d="M 1912.4,227.3 L 1925.5,220.4" style="fill:none;fill-rule:evenodd;stroke:#CCCC00;stroke-width:2.0px;stroke-linecap:butt;stroke-linejoin:miter;stroke-opacity:1"/>
<path class="bond-13 atom-13 atom-14" d="M 1929.0,225.1 L 1931.8,235.6" style="fill:none;fill-rule:evenodd;stroke:#CCCC00;stroke-width:2.0px;stroke-linecap:butt;stroke-linejoin:miter;stroke-opacity:1"/>
<path class="bond-13 atom-13 atom-14" d="M 1931.8,235.6 L 1934.5,246.2" style="fill:none;fill-rule:evenodd;stroke:#FF0000;stroke-width:2.0px;stroke-linecap:butt;stroke-linejoin:miter;stroke-opacity:1"/>
<path class="bond-13 atom-13 atom-14" d="M 1934.0,223.8 L 1936.8,234.3" style="fill:none;fill-rule:evenodd;stroke:#CCCC00;stroke-width:2.0px;stroke-linecap:butt;stroke-linejoin:miter;stroke-opacity:1"/>
<path class="bond-13 atom-13 atom-14" d="M 1936.8,234.3 L 1939.6,244.8" style="fill:none;fill-rule:evenodd;stroke:#FF0000;stroke-width:2.0px;stroke-linecap:butt;stroke-linejoin:miter;stroke-opacity:1"/>
<path class="bond-14 atom-13 atom-15" d="M 1934.2,220.6 L 1946.5,220.2" style="fill:none;fill-rule:evenodd;stroke:#CCCC00;stroke-width:2.0px;stroke-linecap:butt;stroke-linejoin:miter;stroke-opacity:1"/>
<path class="bond-14 atom-13 atom-15" d="M 1946.5,220.2 L 1958.8,219.8" style="fill:none;fill-rule:evenodd;stroke:#FF0000;stroke-width:2.0px;stroke-linecap:butt;stroke-linejoin:miter;stroke-opacity:1"/>
<path class="bond-14 atom-13 atom-15" d="M 1934.0,215.4 L 1946.3,215.0" style="fill:none;fill-rule:evenodd;stroke:#CCCC00;stroke-width:2.0px;stroke-linecap:butt;stroke-linejoin:miter;stroke-opacity:1"/>
<path class="bond-14 atom-13 atom-15" d="M 1946.3,215.0 L 1958.6,214.6" style="fill:none;fill-rule:evenodd;stroke:#FF0000;stroke-width:2.0px;stroke-linecap:butt;stroke-linejoin:miter;stroke-opacity:1"/>
<path class="bond-15 atom-13 atom-16" d="M 1931.0,212.2 L 1933.6,198.2" style="fill:none;fill-rule:evenodd;stroke:#CCCC00;stroke-width:2.0px;stroke-linecap:butt;stroke-linejoin:miter;stroke-opacity:1"/>
<path class="bond-15 atom-13 atom-16" d="M 1933.6,198.2 L 1936.3,184.2" style="fill:none;fill-rule:evenodd;stroke:#000000;stroke-width:2.0px;stroke-linecap:butt;stroke-linejoin:miter;stroke-opacity:1"/>
<path class="bond-16 atom-16 atom-17" d="M 1936.3,184.2 L 1970.3,177.9" style="fill:none;fill-rule:evenodd;stroke:#000000;stroke-width:2.0px;stroke-linecap:butt;stroke-linejoin:miter;stroke-opacity:1"/>
<path class="bond-16 atom-16 atom-17" d="M 1938.3,178.6 L 1966.4,173.3" style="fill:none;fill-rule:evenodd;stroke:#000000;stroke-width:2.0px;stroke-linecap:butt;stroke-linejoin:miter;stroke-opacity:1"/>
<path class="bond-17 atom-17 atom-18" d="M 1970.3,177.9 L 1981.8,145.3" style="fill:none;fill-rule:evenodd;stroke:#000000;stroke-width:2.0px;stroke-linecap:butt;stroke-linejoin:miter;stroke-opacity:1"/>
<path class="bond-18 atom-18 atom-19" d="M 1981.8,145.3 L 1959.3,119.0" style="fill:none;fill-rule:evenodd;stroke:#000000;stroke-width:2.0px;stroke-linecap:butt;stroke-linejoin:miter;stroke-opacity:1"/>
<path class="bond-18 atom-18 atom-19" d="M 1975.9,146.4 L 1957.3,124.7" style="fill:none;fill-rule:evenodd;stroke:#000000;stroke-width:2.0px;stroke-linecap:butt;stroke-linejoin:miter;stroke-opacity:1"/>
<path class="bond-19 atom-19 atom-20" d="M 1959.3,119.0 L 1925.4,125.4" style="fill:none;fill-rule:evenodd;stroke:#000000;stroke-width:2.0px;stroke-linecap:butt;stroke-linejoin:miter;stroke-opacity:1"/>
<path class="bond-20 atom-20 atom-21" d="M 1925.4,125.4 L 1913.8,158.0" style="fill:none;fill-rule:evenodd;stroke:#000000;stroke-width:2.0px;stroke-linecap:butt;stroke-linejoin:miter;stroke-opacity:1"/>
<path class="bond-20 atom-20 atom-21" d="M 1929.2,129.9 L 1919.7,156.9" style="fill:none;fill-rule:evenodd;stroke:#000000;stroke-width:2.0px;stroke-linecap:butt;stroke-linejoin:miter;stroke-opacity:1"/>
<path class="bond-21 atom-21 atom-22" d="M 1913.8,158.0 L 1879.3,159.2" style="fill:none;fill-rule:evenodd;stroke:#000000;stroke-width:2.0px;stroke-linecap:butt;stroke-linejoin:miter;stroke-opacity:1"/>
<path class="bond-22 atom-9 atom-23" d="M 1824.7,180.4 L 1813.4,147.7" style="fill:none;fill-rule:evenodd;stroke:#000000;stroke-width:2.0px;stroke-linecap:butt;stroke-linejoin:miter;stroke-opacity:1"/>
<path class="bond-23 atom-23 atom-24" d="M 1813.4,147.7 L 1779.4,141.2" style="fill:none;fill-rule:evenodd;stroke:#000000;stroke-width:2.0px;stroke-linecap:butt;stroke-linejoin:miter;stroke-opacity:1"/>
<path class="bond-23 atom-23 atom-24" d="M 1809.5,152.3 L 1781.4,146.9" style="fill:none;fill-rule:evenodd;stroke:#000000;stroke-width:2.0px;stroke-linecap:butt;stroke-linejoin:miter;stroke-opacity:1"/>
<path class="bond-24 atom-24 atom-25" d="M 1779.4,141.2 L 1774.9,128.1" style="fill:none;fill-rule:evenodd;stroke:#000000;stroke-width:2.0px;stroke-linecap:butt;stroke-linejoin:miter;stroke-opacity:1"/>
<path class="bond-24 atom-24 atom-25" d="M 1774.9,128.1 L 1770.4,115.1" style="fill:none;fill-rule:evenodd;stroke:#00CC00;stroke-width:2.0px;stroke-linecap:butt;stroke-linejoin:miter;stroke-opacity:1"/>
<path class="bond-25 atom-24 atom-26" d="M 1779.4,141.2 L 1756.8,167.4" style="fill:none;fill-rule:evenodd;stroke:#000000;stroke-width:2.0px;stroke-linecap:butt;stroke-linejoin:miter;stroke-opacity:1"/>
<path class="bond-26 atom-26 atom-27" d="M 1756.8,167.4 L 1722.9,160.8" style="fill:none;fill-rule:evenodd;stroke:#000000;stroke-width:2.0px;stroke-linecap:butt;stroke-linejoin:miter;stroke-opacity:1"/>
<path class="bond-26 atom-26 atom-27" d="M 1752.9,171.9 L 1724.8,166.5" style="fill:none;fill-rule:evenodd;stroke:#000000;stroke-width:2.0px;stroke-linecap:butt;stroke-linejoin:miter;stroke-opacity:1"/>
<path class="bond-27 atom-27 atom-4" d="M 1722.9,160.8 L 1700.3,187.0" style="fill:none;fill-rule:evenodd;stroke:#000000;stroke-width:2.0px;stroke-linecap:butt;stroke-linejoin:miter;stroke-opacity:1"/>
<path class="bond-28 atom-26 atom-7" d="M 1756.8,167.4 L 1768.2,200.0" style="fill:none;fill-rule:evenodd;stroke:#000000;stroke-width:2.0px;stroke-linecap:butt;stroke-linejoin:miter;stroke-opacity:1"/>
<path class="bond-29 atom-22 atom-10" d="M 1879.3,159.2 L 1871.2,170.0" style="fill:none;fill-rule:evenodd;stroke:#000000;stroke-width:2.0px;stroke-linecap:butt;stroke-linejoin:miter;stroke-opacity:1"/>
<path class="bond-29 atom-22 atom-10" d="M 1871.2,170.0 L 1863.2,180.9" style="fill:none;fill-rule:evenodd;stroke:#0000FF;stroke-width:2.0px;stroke-linecap:butt;stroke-linejoin:miter;stroke-opacity:1"/>
<path class="bond-30 atom-21 atom-16" d="M 1913.8,158.0 L 1936.3,184.2" style="fill:none;fill-rule:evenodd;stroke:#000000;stroke-width:2.0px;stroke-linecap:butt;stroke-linejoin:miter;stroke-opacity:1"/>
<path d="M 1711.0,218.0 L 1711.6,219.6 L 1713.3,220.0" style="fill:none;stroke:#000000;stroke-width:2.0px;stroke-linecap:butt;stroke-linejoin:miter;stroke-opacity:1;"/>
<path d="M 1743.8,225.8 L 1745.5,226.2 L 1746.7,224.9" style="fill:none;stroke:#000000;stroke-width:2.0px;stroke-linecap:butt;stroke-linejoin:miter;stroke-opacity:1;"/>
<path d="M 1867.4,219.7 L 1867.5,220.3 L 1869.1,221.0" style="fill:none;stroke:#000000;stroke-width:2.0px;stroke-linecap:butt;stroke-linejoin:miter;stroke-opacity:1;"/>
<path d="M 1897.6,233.6 L 1899.2,234.2 L 1899.9,233.9" style="fill:none;stroke:#000000;stroke-width:2.0px;stroke-linecap:butt;stroke-linejoin:miter;stroke-opacity:1;"/>
<path d="M 1968.6,178.2 L 1970.3,177.9 L 1970.9,176.3" style="fill:none;stroke:#000000;stroke-width:2.0px;stroke-linecap:butt;stroke-linejoin:miter;stroke-opacity:1;"/>
<path d="M 1981.2,146.9 L 1981.8,145.3 L 1980.7,144.0" style="fill:none;stroke:#000000;stroke-width:2.0px;stroke-linecap:butt;stroke-linejoin:miter;stroke-opacity:1;"/>
<path d="M 1960.5,120.3 L 1959.3,119.0 L 1957.6,119.3" style="fill:none;stroke:#000000;stroke-width:2.0px;stroke-linecap:butt;stroke-linejoin:miter;stroke-opacity:1;"/>
<path d="M 1927.0,125.0 L 1925.4,125.4 L 1924.8,127.0" style="fill:none;stroke:#000000;stroke-width:2.0px;stroke-linecap:butt;stroke-linejoin:miter;stroke-opacity:1;"/>
<path d="M 1881.0,159.1 L 1879.3,159.2 L 1878.9,159.7" style="fill:none;stroke:#000000;stroke-width:2.0px;stroke-linecap:butt;stroke-linejoin:miter;stroke-opacity:1;"/>
<path d="M 1814.0,149.4 L 1813.4,147.7 L 1811.7,147.4" style="fill:none;stroke:#000000;stroke-width:2.0px;stroke-linecap:butt;stroke-linejoin:miter;stroke-opacity:1;"/>
<path d="M 1724.6,161.2 L 1722.9,160.8 L 1721.7,162.1" style="fill:none;stroke:#000000;stroke-width:2.0px;stroke-linecap:butt;stroke-linejoin:miter;stroke-opacity:1;"/>
<path class="atom-3" d="M 1618.2 169.1 L 1619.5 169.1 L 1619.5 173.3 L 1624.5 173.3 L 1624.5 169.1 L 1625.8 169.1 L 1625.8 178.9 L 1624.5 178.9 L 1624.5 174.4 L 1619.5 174.4 L 1619.5 178.9 L 1618.2 178.9 L 1618.2 169.1 " fill="#FF0000"/>
<path class="atom-3" d="M 1627.9 174.0 Q 1627.9 171.6, 1629.0 170.3 Q 1630.2 169.0, 1632.3 169.0 Q 1634.5 169.0, 1635.7 170.3 Q 1636.8 171.6, 1636.8 174.0 Q 1636.8 176.3, 1635.7 177.7 Q 1634.5 179.0, 1632.3 179.0 Q 1630.2 179.0, 1629.0 177.7 Q 1627.9 176.4, 1627.9 174.0 M 1632.3 177.9 Q 1633.8 177.9, 1634.6 176.9 Q 1635.5 175.9, 1635.5 174.0 Q 1635.5 172.0, 1634.6 171.1 Q 1633.8 170.1, 1632.3 170.1 Q 1630.9 170.1, 1630.0 171.1 Q 1629.2 172.0, 1629.2 174.0 Q 1629.2 175.9, 1630.0 176.9 Q 1630.9 177.9, 1632.3 177.9 " fill="#FF0000"/>
<path class="atom-8" d="M 1799.9 201.6 L 1803.2 206.8 Q 1803.5 207.3, 1804.0 208.3 Q 1804.5 209.2, 1804.5 209.3 L 1804.5 201.6 L 1805.8 201.6 L 1805.8 211.4 L 1804.5 211.4 L 1801.0 205.8 Q 1800.6 205.1, 1800.2 204.3 Q 1799.8 203.6, 1799.7 203.3 L 1799.7 211.4 L 1798.4 211.4 L 1798.4 201.6 L 1799.9 201.6 " fill="#0000FF"/>
<path class="atom-10" d="M 1856.5 182.0 L 1859.7 187.2 Q 1860.0 187.7, 1860.6 188.6 Q 1861.1 189.6, 1861.1 189.6 L 1861.1 182.0 L 1862.4 182.0 L 1862.4 191.8 L 1861.1 191.8 L 1857.6 186.1 Q 1857.2 185.5, 1856.8 184.7 Q 1856.4 184.0, 1856.2 183.7 L 1856.2 191.8 L 1855.0 191.8 L 1855.0 182.0 L 1856.5 182.0 " fill="#0000FF"/>
<path class="atom-13" d="M 1927.0 221.5 Q 1927.1 221.6, 1927.6 221.8 Q 1928.1 222.0, 1928.6 222.1 Q 1929.1 222.2, 1929.6 222.2 Q 1930.5 222.2, 1931.0 221.8 Q 1931.6 221.3, 1931.6 220.5 Q 1931.6 220.0, 1931.3 219.6 Q 1931.0 219.3, 1930.6 219.1 Q 1930.2 219.0, 1929.5 218.7 Q 1928.6 218.5, 1928.1 218.2 Q 1927.6 218.0, 1927.2 217.5 Q 1926.9 216.9, 1926.9 216.0 Q 1926.9 214.8, 1927.7 214.1 Q 1928.5 213.3, 1930.2 213.3 Q 1931.3 213.3, 1932.6 213.8 L 1932.3 214.9 Q 1931.1 214.4, 1930.2 214.4 Q 1929.3 214.4, 1928.8 214.8 Q 1928.2 215.2, 1928.3 215.9 Q 1928.3 216.4, 1928.5 216.7 Q 1928.8 217.0, 1929.2 217.2 Q 1929.6 217.4, 1930.2 217.6 Q 1931.1 217.9, 1931.7 218.2 Q 1932.2 218.4, 1932.6 219.0 Q 1932.9 219.6, 1932.9 220.5 Q 1932.9 221.9, 1932.0 222.6 Q 1931.1 223.3, 1929.6 223.3 Q 1928.8 223.3, 1928.1 223.1 Q 1927.4 222.9, 1926.7 222.6 L 1927.0 221.5 " fill="#CCCC00"/>
<path class="atom-14" d="M 1934.2 251.6 Q 1934.2 249.3, 1935.3 248.0 Q 1936.5 246.6, 1938.7 246.6 Q 1940.8 246.6, 1942.0 248.0 Q 1943.2 249.3, 1943.2 251.6 Q 1943.2 254.0, 1942.0 255.4 Q 1940.8 256.7, 1938.7 256.7 Q 1936.5 256.7, 1935.3 255.4 Q 1934.2 254.0, 1934.2 251.6 M 1938.7 255.6 Q 1940.2 255.6, 1941.0 254.6 Q 1941.8 253.6, 1941.8 251.6 Q 1941.8 249.7, 1941.0 248.7 Q 1940.2 247.8, 1938.7 247.8 Q 1937.2 247.8, 1936.4 248.7 Q 1935.5 249.7, 1935.5 251.6 Q 1935.5 253.6, 1936.4 254.6 Q 1937.2 255.6, 1938.7 255.6 " fill="#FF0000"/>
<path class="atom-15" d="M 1959.9 217.0 Q 1959.9 214.7, 1961.0 213.3 Q 1962.2 212.0, 1964.4 212.0 Q 1966.5 212.0, 1967.7 213.3 Q 1968.8 214.7, 1968.8 217.0 Q 1968.8 219.4, 1967.7 220.7 Q 1966.5 222.1, 1964.4 222.1 Q 1962.2 222.1, 1961.0 220.7 Q 1959.9 219.4, 1959.9 217.0 M 1964.4 221.0 Q 1965.8 221.0, 1966.7 220.0 Q 1967.5 219.0, 1967.5 217.0 Q 1967.5 215.1, 1966.7 214.1 Q 1965.8 213.1, 1964.4 213.1 Q 1962.9 213.1, 1962.0 214.1 Q 1961.2 215.1, 1961.2 217.0 Q 1961.2 219.0, 1962.0 220.0 Q 1962.9 221.0, 1964.4 221.0 " fill="#FF0000"/>
<path class="atom-25" d="M 1764.3 108.9 Q 1764.3 106.5, 1765.5 105.2 Q 1766.6 103.9, 1768.8 103.9 Q 1770.8 103.9, 1771.9 105.3 L 1771.0 106.1 Q 1770.2 105.0, 1768.8 105.0 Q 1767.3 105.0, 1766.5 106.0 Q 1765.8 107.0, 1765.8 108.9 Q 1765.8 110.8, 1766.6 111.8 Q 1767.4 112.8, 1768.9 112.8 Q 1770.0 112.8, 1771.3 112.2 L 1771.7 113.2 Q 1771.2 113.5, 1770.4 113.7 Q 1769.6 113.9, 1768.8 113.9 Q 1766.6 113.9, 1765.5 112.6 Q 1764.3 111.3, 1764.3 108.9 " fill="#00CC00"/>
<path class="atom-25" d="M 1772.9 103.3 L 1774.2 103.3 L 1774.2 113.8 L 1772.9 113.8 L 1772.9 103.3 " fill="#00CC00"/>
<path class="legend" d="M 1776.8 385.7 Q 1776.8 383.7, 1777.8 382.6 Q 1778.8 381.5, 1780.6 381.5 Q 1782.4 381.5, 1783.2 382.6 Q 1784.0 383.6, 1784.0 385.7 L 1784.0 385.9 L 1778.3 385.9 Q 1778.3 387.3, 1779.0 388.0 Q 1779.6 388.8, 1780.7 388.8 Q 1781.4 388.8, 1782.0 388.6 Q 1782.6 388.5, 1783.3 388.2 L 1783.7 389.2 Q 1782.9 389.6, 1782.2 389.8 Q 1781.4 390.0, 1780.7 390.0 Q 1778.8 390.0, 1777.8 388.8 Q 1776.8 387.7, 1776.8 385.7 M 1780.6 382.7 Q 1779.7 382.7, 1779.1 383.2 Q 1778.5 383.7, 1778.4 384.8 L 1782.5 384.8 Q 1782.3 383.7, 1781.9 383.2 Q 1781.4 382.7, 1780.6 382.7 " fill="#000000"/>
<path class="legend" d="M 1785.3 377.7 L 1786.8 377.7 L 1786.8 389.8 L 1785.3 389.8 L 1785.3 377.7 " fill="#000000"/>
<path class="legend" d="M 1789.4 388.6 L 1791.9 388.6 L 1791.9 380.1 L 1789.2 380.9 L 1788.8 380.0 L 1792.3 378.4 L 1793.4 378.6 L 1793.4 388.6 L 1795.6 388.6 L 1795.6 389.8 L 1789.4 389.8 L 1789.4 388.6 " fill="#000000"/>
<path class="legend" d="M 1800.7 378.4 Q 1802.8 378.4, 1803.8 379.8 Q 1804.8 381.1, 1804.8 383.8 Q 1804.8 386.8, 1803.5 388.4 Q 1802.3 390.0, 1799.9 390.0 Q 1799.2 390.0, 1798.5 389.8 Q 1798.0 389.6, 1797.4 389.3 L 1798.0 388.2 Q 1798.8 388.7, 1799.8 388.7 Q 1801.4 388.7, 1802.3 387.7 Q 1803.1 386.6, 1803.2 384.5 Q 1802.6 385.0, 1801.9 385.3 Q 1801.1 385.6, 1800.4 385.6 Q 1799.4 385.6, 1798.6 385.2 Q 1797.8 384.7, 1797.4 383.9 Q 1796.9 383.2, 1796.9 382.2 Q 1796.9 381.1, 1797.4 380.2 Q 1797.9 379.3, 1798.8 378.9 Q 1799.6 378.4, 1800.7 378.4 M 1798.5 382.1 Q 1798.5 383.2, 1799.1 383.7 Q 1799.6 384.3, 1800.6 384.3 Q 1801.3 384.3, 1802.0 384.0 Q 1802.7 383.7, 1803.2 383.3 Q 1803.1 381.4, 1802.5 380.5 Q 1801.9 379.7, 1800.7 379.7 Q 1800.1 379.7, 1799.6 380.0 Q 1799.1 380.3, 1798.8 380.9 Q 1798.5 381.5, 1798.5 382.1 " fill="#000000"/>
<path class="legend" d="M 1812.0 383.9 Q 1813.1 384.2, 1813.6 384.9 Q 1814.1 385.6, 1814.1 386.7 Q 1814.1 387.7, 1813.7 388.4 Q 1813.2 389.2, 1812.3 389.6 Q 1811.4 390.0, 1810.3 390.0 Q 1809.0 390.0, 1808.1 389.6 Q 1807.2 389.2, 1806.5 388.3 L 1807.4 387.4 Q 1808.1 388.1, 1808.7 388.4 Q 1809.3 388.7, 1810.3 388.7 Q 1811.3 388.7, 1811.9 388.2 Q 1812.5 387.6, 1812.5 386.7 Q 1812.5 385.6, 1811.9 385.1 Q 1811.2 384.5, 1809.8 384.5 L 1809.0 384.5 L 1809.0 383.4 L 1809.7 383.4 Q 1811.0 383.4, 1811.6 382.8 Q 1812.3 382.3, 1812.3 381.3 Q 1812.3 380.5, 1811.7 380.1 Q 1811.2 379.7, 1810.3 379.7 Q 1809.3 379.7, 1808.7 380.0 Q 1808.2 380.3, 1807.7 381.2 L 1806.6 380.6 Q 1807.0 379.6, 1808.0 379.0 Q 1808.9 378.4, 1810.3 378.4 Q 1811.9 378.4, 1812.9 379.2 Q 1813.9 380.0, 1813.9 381.3 Q 1813.9 382.2, 1813.4 382.8 Q 1812.9 383.5, 1812.0 383.9 " fill="#000000"/>
<path class="legend" d="M 1821.7 379.8 L 1815.7 379.8 L 1815.7 378.5 L 1823.2 378.5 L 1823.2 379.6 L 1818.7 389.8 L 1817.1 389.8 L 1821.7 379.8 " fill="#000000"/>
</svg>