<svg xmlns="http://www.w3.org/2000/svg" xmlns:rdkit="http://www.rdkit.org/xml" xmlns:xlink="http://www.w3.org/1999/xlink" version="1.1" baseProfile="full" xml:space="preserve" width="2000px" height="400px" viewBox="0 0 2000 400">
<!-- END OF HEADER -->
<rect style="opacity:1.0;fill:#FFFFFF;stroke:none" width="2000.0" height="400.0" x="0.0" y="0.0"> </rect>
<path class="bond-0 atom-0 atom-1" d="M 136.5,313.5 L 149.1,280.1" style="fill:none;fill-rule:evenodd;stroke:#000000;stroke-width:2.0px;stroke-linecap:butt;stroke-linejoin:miter;stroke-opacity:1"/>
<path class="bond-1 atom-1 atom-2" d="M 149.1,280.1 L 126.5,252.6" style="fill:none;fill-rule:evenodd;stroke:#000000;stroke-width:2.0px;stroke-linecap:butt;stroke-linejoin:miter;stroke-opacity:1"/>
<path class="bond-1 atom-1 atom-2" d="M 151.3,274.4 L 132.6,251.6" style="fill:none;fill-rule:evenodd;stroke:#000000;stroke-width:2.0px;stroke-linecap:butt;stroke-linejoin:miter;stroke-opacity:1"/>
<path class="bond-2 atom-2 atom-3" d="M 126.5,252.6 L 139.1,219.2" style="fill:none;fill-rule:evenodd;stroke:#000000;stroke-width:2.0px;stroke-linecap:butt;stroke-linejoin:miter;stroke-opacity:1"/>
<path class="bond-3 atom-3 atom-4" d="M 139.1,219.2 L 130.4,208.5" style="fill:none;fill-rule:evenodd;stroke:#000000;stroke-width:2.0px;stroke-linecap:butt;stroke-linejoin:miter;stroke-opacity:1"/>
<path class="bond-3 atom-3 atom-4" d="M 130.4,208.5 L 121.6,197.7" style="fill:none;fill-rule:evenodd;stroke:#0000FF;stroke-width:2.0px;stroke-linecap:butt;stroke-linejoin:miter;stroke-opacity:1"/>
<path class="bond-4 atom-4 atom-5" d="M 111.6,191.9 L 96.3,192.8" style="fill:none;fill-rule:evenodd;stroke:#0000FF;stroke-width:2.0px;stroke-linecap:butt;stroke-linejoin:miter;stroke-opacity:1"/>
<path class="bond-4 atom-4 atom-5" d="M 96.3,192.8 L 81.0,193.7" style="fill:none;fill-rule:evenodd;stroke:#000000;stroke-width:2.0px;stroke-linecap:butt;stroke-linejoin:miter;stroke-opacity:1"/>
<path class="bond-5 atom-5 atom-6" d="M 81.0,193.7 L 68.0,160.5" style="fill:none;fill-rule:evenodd;stroke:#000000;stroke-width:2.0px;stroke-linecap:butt;stroke-linejoin:miter;stroke-opacity:1"/>
<path class="bond-5 atom-5 atom-6" d="M 84.6,188.1 L 74.4,162.1" style="fill:none;fill-rule:evenodd;stroke:#000000;stroke-width:2.0px;stroke-linecap:butt;stroke-linejoin:miter;stroke-opacity:1"/>
<path class="bond-6 atom-6 atom-7" d="M 68.0,160.5 L 95.6,137.9" style="fill:none;fill-rule:evenodd;stroke:#000000;stroke-width:2.0px;stroke-linecap:butt;stroke-linejoin:miter;stroke-opacity:1"/>
<path class="bond-7 atom-7 atom-8" d="M 95.6,137.9 L 93.6,102.3" style="fill:none;fill-rule:evenodd;stroke:#000000;stroke-width:2.0px;stroke-linecap:butt;stroke-linejoin:miter;stroke-opacity:1"/>
<path class="bond-8 atom-8 atom-9" d="M 93.6,102.3 L 81.1,94.3" style="fill:none;fill-rule:evenodd;stroke:#000000;stroke-width:2.0px;stroke-linecap:butt;stroke-linejoin:miter;stroke-opacity:1"/>
<path class="bond-8 atom-8 atom-9" d="M 81.1,94.3 L 68.6,86.3" style="fill:none;fill-rule:evenodd;stroke:#0000FF;stroke-width:2.0px;stroke-linecap:butt;stroke-linejoin:miter;stroke-opacity:1"/>
<path class="bond-8 atom-8 atom-9" d="M 93.2,95.7 L 82.3,88.7" style="fill:none;fill-rule:evenodd;stroke:#000000;stroke-width:2.0px;stroke-linecap:butt;stroke-linejoin:miter;stroke-opacity:1"/>
<path class="bond-8 atom-8 atom-9" d="M 82.3,88.7 L 71.5,81.8" style="fill:none;fill-rule:evenodd;stroke:#0000FF;stroke-width:2.0px;stroke-linecap:butt;stroke-linejoin:miter;stroke-opacity:1"/>
<path class="bond-9 atom-9 atom-10" d="M 65.2,76.8 L 68.9,62.7" style="fill:none;fill-rule:evenodd;stroke:#0000FF;stroke-width:2.0px;stroke-linecap:butt;stroke-linejoin:miter;stroke-opacity:1"/>
<path class="bond-9 atom-9 atom-10" d="M 68.9,62.7 L 72.6,48.6" style="fill:none;fill-rule:evenodd;stroke:#000000;stroke-width:2.0px;stroke-linecap:butt;stroke-linejoin:miter;stroke-opacity:1"/>
<path class="bond-10 atom-10 atom-11" d="M 72.6,48.6 L 108.2,46.5" style="fill:none;fill-rule:evenodd;stroke:#000000;stroke-width:2.0px;stroke-linecap:butt;stroke-linejoin:miter;stroke-opacity:1"/>
<path class="bond-10 atom-10 atom-11" d="M 76.8,53.7 L 104.7,52.1" style="fill:none;fill-rule:evenodd;stroke:#000000;stroke-width:2.0px;stroke-linecap:butt;stroke-linejoin:miter;stroke-opacity:1"/>
<path class="bond-11 atom-11 atom-12" d="M 108.2,46.5 L 113.5,60.0" style="fill:none;fill-rule:evenodd;stroke:#000000;stroke-width:2.0px;stroke-linecap:butt;stroke-linejoin:miter;stroke-opacity:1"/>
<path class="bond-11 atom-11 atom-12" d="M 113.5,60.0 L 118.8,73.5" style="fill:none;fill-rule:evenodd;stroke:#CCCC00;stroke-width:2.0px;stroke-linecap:butt;stroke-linejoin:miter;stroke-opacity:1"/>
<path class="bond-12 atom-7 atom-13" d="M 95.6,137.9 L 108.1,145.9" style="fill:none;fill-rule:evenodd;stroke:#000000;stroke-width:2.0px;stroke-linecap:butt;stroke-linejoin:miter;stroke-opacity:1"/>
<path class="bond-12 atom-7 atom-13" d="M 108.1,145.9 L 120.6,153.9" style="fill:none;fill-rule:evenodd;stroke:#0000FF;stroke-width:2.0px;stroke-linecap:butt;stroke-linejoin:miter;stroke-opacity:1"/>
<path class="bond-12 atom-7 atom-13" d="M 96.0,144.5 L 106.9,151.5" style="fill:none;fill-rule:evenodd;stroke:#000000;stroke-width:2.0px;stroke-linecap:butt;stroke-linejoin:miter;stroke-opacity:1"/>
<path class="bond-12 atom-7 atom-13" d="M 106.9,151.5 L 117.7,158.4" style="fill:none;fill-rule:evenodd;stroke:#0000FF;stroke-width:2.0px;stroke-linecap:butt;stroke-linejoin:miter;stroke-opacity:1"/>
<path class="bond-13 atom-3 atom-14" d="M 139.1,219.2 L 174.3,213.5" style="fill:none;fill-rule:evenodd;stroke:#000000;stroke-width:2.0px;stroke-linecap:butt;stroke-linejoin:miter;stroke-opacity:1"/>
<path class="bond-13 atom-3 atom-14" d="M 143.0,224.0 L 172.1,219.2" style="fill:none;fill-rule:evenodd;stroke:#000000;stroke-width:2.0px;stroke-linecap:butt;stroke-linejoin:miter;stroke-opacity:1"/>
<path class="bond-14 atom-14 atom-15" d="M 174.3,213.5 L 186.9,180.1" style="fill:none;fill-rule:evenodd;stroke:#000000;stroke-width:2.0px;stroke-linecap:butt;stroke-linejoin:miter;stroke-opacity:1"/>
<path class="bond-15 atom-15 atom-16" d="M 186.9,180.1 L 222.1,174.4" style="fill:none;fill-rule:evenodd;stroke:#000000;stroke-width:2.0px;stroke-linecap:butt;stroke-linejoin:miter;stroke-opacity:1"/>
<path class="bond-16 atom-16 atom-17" d="M 222.1,174.4 L 227.2,160.9" style="fill:none;fill-rule:evenodd;stroke:#000000;stroke-width:2.0px;stroke-linecap:butt;stroke-linejoin:miter;stroke-opacity:1"/>
<path class="bond-16 atom-16 atom-17" d="M 227.2,160.9 L 232.3,147.5" style="fill:none;fill-rule:evenodd;stroke:#FF0000;stroke-width:2.0px;stroke-linecap:butt;stroke-linejoin:miter;stroke-opacity:1"/>
<path class="bond-17 atom-17 atom-18" d="M 240.5,140.1 L 252.4,138.1" style="fill:none;fill-rule:evenodd;stroke:#FF0000;stroke-width:2.0px;stroke-linecap:butt;stroke-linejoin:miter;stroke-opacity:1"/>
<path class="bond-17 atom-17 atom-18" d="M 252.4,138.1 L 264.3,136.2" style="fill:none;fill-rule:evenodd;stroke:#000000;stroke-width:2.0px;stroke-linecap:butt;stroke-linejoin:miter;stroke-opacity:1"/>
<path class="bond-18 atom-18 atom-19" d="M 268.9,129.1 L 264.1,100.1" style="fill:none;fill-rule:evenodd;stroke:#000000;stroke-width:2.0px;stroke-linecap:butt;stroke-linejoin:miter;stroke-opacity:1"/>
<path class="bond-19 atom-18 atom-20" d="M 270.9,141.8 L 275.6,170.5" style="fill:none;fill-rule:evenodd;stroke:#000000;stroke-width:2.0px;stroke-linecap:butt;stroke-linejoin:miter;stroke-opacity:1"/>
<path class="bond-20 atom-18 atom-21" d="M 275.5,134.4 L 305.1,129.5" style="fill:none;fill-rule:evenodd;stroke:#000000;stroke-width:2.0px;stroke-linecap:butt;stroke-linejoin:miter;stroke-opacity:1"/>
<path class="bond-21 atom-21 atom-22" d="M 305.1,129.5 L 310.8,164.7" style="fill:none;fill-rule:evenodd;stroke:#000000;stroke-width:2.0px;stroke-linecap:butt;stroke-linejoin:miter;stroke-opacity:1"/>
<path class="bond-22 atom-21 atom-23" d="M 305.1,129.5 L 299.3,94.3" style="fill:none;fill-rule:evenodd;stroke:#000000;stroke-width:2.0px;stroke-linecap:butt;stroke-linejoin:miter;stroke-opacity:1"/>
<path class="bond-23 atom-21 atom-24" d="M 305.1,129.5 L 340.2,123.8" style="fill:none;fill-rule:evenodd;stroke:#000000;stroke-width:2.0px;stroke-linecap:butt;stroke-linejoin:miter;stroke-opacity:1"/>
<path class="bond-24 atom-14 atom-25" d="M 174.3,213.5 L 196.9,241.0" style="fill:none;fill-rule:evenodd;stroke:#000000;stroke-width:2.0px;stroke-linecap:butt;stroke-linejoin:miter;stroke-opacity:1"/>
<path class="bond-25 atom-25 atom-26" d="M 196.9,241.0 L 211.9,238.6" style="fill:none;fill-rule:evenodd;stroke:#000000;stroke-width:2.0px;stroke-linecap:butt;stroke-linejoin:miter;stroke-opacity:1"/>
<path class="bond-25 atom-25 atom-26" d="M 211.9,238.6 L 227.0,236.1" style="fill:none;fill-rule:evenodd;stroke:#00CC00;stroke-width:2.0px;stroke-linecap:butt;stroke-linejoin:miter;stroke-opacity:1"/>
<path class="bond-26 atom-25 atom-27" d="M 196.9,241.0 L 191.8,254.6" style="fill:none;fill-rule:evenodd;stroke:#000000;stroke-width:2.0px;stroke-linecap:butt;stroke-linejoin:miter;stroke-opacity:1"/>
<path class="bond-26 atom-25 atom-27" d="M 191.8,254.6 L 186.6,268.2" style="fill:none;fill-rule:evenodd;stroke:#0000FF;stroke-width:2.0px;stroke-linecap:butt;stroke-linejoin:miter;stroke-opacity:1"/>
<path class="bond-26 atom-25 atom-27" d="M 190.8,242.0 L 186.2,254.2" style="fill:none;fill-rule:evenodd;stroke:#000000;stroke-width:2.0px;stroke-linecap:butt;stroke-linejoin:miter;stroke-opacity:1"/>
<path class="bond-26 atom-25 atom-27" d="M 186.2,254.2 L 181.6,266.3" style="fill:none;fill-rule:evenodd;stroke:#0000FF;stroke-width:2.0px;stroke-linecap:butt;stroke-linejoin:miter;stroke-opacity:1"/>
<path class="bond-27 atom-27 atom-1" d="M 179.3,275.2 L 164.2,277.7" style="fill:none;fill-rule:evenodd;stroke:#0000FF;stroke-width:2.0px;stroke-linecap:butt;stroke-linejoin:miter;stroke-opacity:1"/>
<path class="bond-27 atom-27 atom-1" d="M 164.2,277.7 L 149.1,280.1" style="fill:none;fill-rule:evenodd;stroke:#000000;stroke-width:2.0px;stroke-linecap:butt;stroke-linejoin:miter;stroke-opacity:1"/>
<path class="bond-28 atom-13 atom-4" d="M 124.0,163.4 L 118.2,185.4" style="fill:none;fill-rule:evenodd;stroke:#0000FF;stroke-width:2.0px;stroke-linecap:butt;stroke-linejoin:miter;stroke-opacity:1"/>
<path class="bond-29 atom-12 atom-8" d="M 116.8,83.3 L 105.2,92.8" style="fill:none;fill-rule:evenodd;stroke:#CCCC00;stroke-width:2.0px;stroke-linecap:butt;stroke-linejoin:miter;stroke-opacity:1"/>
<path class="bond-29 atom-12 atom-8" d="M 105.2,92.8 L 93.6,102.3" style="fill:none;fill-rule:evenodd;stroke:#000000;stroke-width:2.0px;stroke-linecap:butt;stroke-linejoin:miter;stroke-opacity:1"/>
<path d="M 127.7,253.9 L 126.5,252.6 L 127.2,250.9" style="fill:none;stroke:#000000;stroke-width:2.0px;stroke-linecap:butt;stroke-linejoin:miter;stroke-opacity:1;"/>
<path d="M 81.7,193.6 L 81.0,193.7 L 80.3,192.0" style="fill:none;stroke:#000000;stroke-width:2.0px;stroke-linecap:butt;stroke-linejoin:miter;stroke-opacity:1;"/>
<path d="M 68.7,162.1 L 68.0,160.5 L 69.4,159.3" style="fill:none;stroke:#000000;stroke-width:2.0px;stroke-linecap:butt;stroke-linejoin:miter;stroke-opacity:1;"/>
<path d="M 72.5,49.3 L 72.6,48.6 L 74.4,48.5" style="fill:none;stroke:#000000;stroke-width:2.0px;stroke-linecap:butt;stroke-linejoin:miter;stroke-opacity:1;"/>
<path d="M 106.4,46.6 L 108.2,46.5 L 108.5,47.2" style="fill:none;stroke:#000000;stroke-width:2.0px;stroke-linecap:butt;stroke-linejoin:miter;stroke-opacity:1;"/>
<path d="M 186.3,181.8 L 186.9,180.1 L 188.7,179.8" style="fill:none;stroke:#000000;stroke-width:2.0px;stroke-linecap:butt;stroke-linejoin:miter;stroke-opacity:1;"/>
<path d="M 220.3,174.7 L 222.1,174.4 L 222.4,173.7" style="fill:none;stroke:#000000;stroke-width:2.0px;stroke-linecap:butt;stroke-linejoin:miter;stroke-opacity:1;"/>
<path class="atom-4" d="M 114.3 186.6 L 117.6 191.9 Q 118.0 192.5, 118.5 193.4 Q 119.0 194.4, 119.1 194.4 L 119.1 186.6 L 120.4 186.6 L 120.4 196.7 L 119.0 196.7 L 115.5 190.8 Q 115.0 190.1, 114.6 189.4 Q 114.2 188.6, 114.0 188.3 L 114.0 196.7 L 112.7 196.7 L 112.7 186.6 L 114.3 186.6 " fill="#0000FF"/>
<path class="atom-9" d="M 61.4 78.0 L 64.7 83.3 Q 65.0 83.9, 65.5 84.8 Q 66.0 85.8, 66.1 85.8 L 66.1 78.0 L 67.4 78.0 L 67.4 88.1 L 66.0 88.1 L 62.5 82.2 Q 62.1 81.6, 61.6 80.8 Q 61.2 80.0, 61.1 79.7 L 61.1 88.1 L 59.8 88.1 L 59.8 78.0 L 61.4 78.0 " fill="#0000FF"/>
<path class="atom-12" d="M 118.3 83.2 Q 118.4 83.2, 118.9 83.4 Q 119.4 83.6, 119.9 83.8 Q 120.4 83.9, 120.9 83.9 Q 121.9 83.9, 122.4 83.4 Q 123.0 83.0, 123.0 82.1 Q 123.0 81.6, 122.7 81.2 Q 122.4 80.9, 122.0 80.7 Q 121.6 80.5, 120.9 80.3 Q 120.0 80.0, 119.4 79.8 Q 118.9 79.5, 118.5 79.0 Q 118.1 78.4, 118.1 77.5 Q 118.1 76.3, 119.0 75.5 Q 119.9 74.7, 121.6 74.7 Q 122.8 74.7, 124.1 75.3 L 123.8 76.3 Q 122.5 75.8, 121.6 75.8 Q 120.6 75.8, 120.1 76.3 Q 119.6 76.7, 119.6 77.4 Q 119.6 77.9, 119.8 78.2 Q 120.1 78.6, 120.5 78.7 Q 120.9 78.9, 121.6 79.1 Q 122.5 79.4, 123.1 79.7 Q 123.6 80.0, 124.0 80.6 Q 124.4 81.2, 124.4 82.1 Q 124.4 83.5, 123.5 84.3 Q 122.5 85.0, 121.0 85.0 Q 120.1 85.0, 119.4 84.8 Q 118.7 84.6, 117.9 84.3 L 118.3 83.2 " fill="#CCCC00"/>
<path class="atom-13" d="M 123.4 152.1 L 126.7 157.4 Q 127.0 158.0, 127.5 158.9 Q 128.1 159.9, 128.1 159.9 L 128.1 152.1 L 129.4 152.1 L 129.4 162.2 L 128.1 162.2 L 124.5 156.4 Q 124.1 155.7, 123.7 154.9 Q 123.2 154.1, 123.1 153.9 L 123.1 162.2 L 121.8 162.2 L 121.8 152.1 L 123.4 152.1 " fill="#0000FF"/>
<path class="atom-17" d="M 230.1 141.1 Q 230.1 138.6, 231.3 137.3 Q 232.5 135.9, 234.7 135.9 Q 236.9 135.9, 238.1 137.3 Q 239.3 138.6, 239.3 141.1 Q 239.3 143.5, 238.1 144.9 Q 236.9 146.3, 234.7 146.3 Q 232.5 146.3, 231.3 144.9 Q 230.1 143.5, 230.1 141.1 M 234.7 145.1 Q 236.2 145.1, 237.1 144.1 Q 237.9 143.1, 237.9 141.1 Q 237.9 139.1, 237.1 138.1 Q 236.2 137.1, 234.7 137.1 Q 233.2 137.1, 232.3 138.1 Q 231.5 139.1, 231.5 141.1 Q 231.5 143.1, 232.3 144.1 Q 233.2 145.1, 234.7 145.1 " fill="#FF0000"/>
<path class="atom-18" d="M 265.8 138.8 Q 266.0 138.8, 266.4 139.0 Q 266.9 139.2, 267.4 139.3 Q 267.9 139.4, 268.5 139.4 Q 269.4 139.4, 270.0 139.0 Q 270.5 138.5, 270.5 137.7 Q 270.5 137.1, 270.2 136.8 Q 270.0 136.5, 269.5 136.3 Q 269.1 136.1, 268.4 135.9 Q 267.5 135.6, 267.0 135.3 Q 266.4 135.1, 266.0 134.5 Q 265.7 134.0, 265.7 133.1 Q 265.7 131.8, 266.5 131.0 Q 267.4 130.3, 269.1 130.3 Q 270.3 130.3, 271.6 130.8 L 271.3 131.9 Q 270.1 131.4, 269.2 131.4 Q 268.2 131.4, 267.6 131.8 Q 267.1 132.2, 267.1 132.9 Q 267.1 133.5, 267.4 133.8 Q 267.7 134.1, 268.1 134.3 Q 268.5 134.5, 269.2 134.7 Q 270.1 135.0, 270.6 135.3 Q 271.1 135.6, 271.5 136.1 Q 271.9 136.7, 271.9 137.7 Q 271.9 139.1, 271.0 139.8 Q 270.1 140.6, 268.5 140.6 Q 267.6 140.6, 266.9 140.4 Q 266.3 140.2, 265.5 139.9 L 265.8 138.8 " fill="#000000"/>
<path class="atom-18" d="M 273.0 130.2 L 274.3 130.2 L 274.3 131.5 L 273.0 131.5 L 273.0 130.2 M 273.0 133.0 L 274.3 133.0 L 274.3 140.3 L 273.0 140.3 L 273.0 133.0 " fill="#000000"/>
<path class="atom-26" d="M 228.2 235.6 Q 228.2 233.1, 229.3 231.8 Q 230.5 230.5, 232.8 230.5 Q 234.8 230.5, 236.0 232.0 L 235.0 232.7 Q 234.2 231.7, 232.8 231.7 Q 231.2 231.7, 230.4 232.7 Q 229.6 233.7, 229.6 235.6 Q 229.6 237.6, 230.5 238.7 Q 231.3 239.7, 232.9 239.7 Q 234.0 239.7, 235.3 239.0 L 235.7 240.1 Q 235.2 240.4, 234.4 240.6 Q 233.6 240.8, 232.7 240.8 Q 230.5 240.8, 229.3 239.5 Q 228.2 238.2, 228.2 235.6 " fill="#00CC00"/>
<path class="atom-26" d="M 237.0 229.9 L 238.3 229.9 L 238.3 240.7 L 237.0 240.7 L 237.0 229.9 " fill="#00CC00"/>
<path class="atom-27" d="M 182.0 269.3 L 185.4 274.7 Q 185.7 275.2, 186.2 276.2 Q 186.7 277.1, 186.8 277.2 L 186.8 269.3 L 188.1 269.3 L 188.1 279.4 L 186.7 279.4 L 183.2 273.6 Q 182.8 272.9, 182.3 272.1 Q 181.9 271.3, 181.8 271.1 L 181.8 279.4 L 180.4 279.4 L 180.4 269.3 L 182.0 269.3 " fill="#0000FF"/>
<path class="legend" d="M 175.9 385.7 Q 175.9 383.7, 176.9 382.6 Q 177.9 381.5, 179.8 381.5 Q 181.6 381.5, 182.4 382.6 Q 183.2 383.6, 183.2 385.7 L 183.2 385.9 L 177.5 385.9 Q 177.5 387.3, 178.1 388.0 Q 178.7 388.8, 179.9 388.8 Q 180.5 388.8, 181.1 388.6 Q 181.7 388.5, 182.5 388.2 L 182.9 389.2 Q 182.1 389.6, 181.3 389.8 Q 180.6 390.0, 179.8 390.0 Q 178.0 390.0, 176.9 388.8 Q 175.9 387.7, 175.9 385.7 M 179.8 382.7 Q 178.8 382.7, 178.3 383.2 Q 177.7 383.7, 177.5 384.8 L 181.6 384.8 Q 181.5 383.7, 181.1 383.2 Q 180.6 382.7, 179.8 382.7 " fill="#000000"/>
<path class="legend" d="M 184.5 377.7 L 185.9 377.7 L 185.9 389.8 L 184.5 389.8 L 184.5 377.7 " fill="#000000"/>
<path class="legend" d="M 188.0 380.7 Q 188.4 379.6, 189.4 379.0 Q 190.4 378.4, 191.8 378.4 Q 193.5 378.4, 194.5 379.3 Q 195.4 380.2, 195.4 381.9 Q 195.4 383.6, 194.2 385.1 Q 192.9 386.7, 190.4 388.6 L 195.6 388.6 L 195.6 389.8 L 188.0 389.8 L 188.0 388.8 Q 190.1 387.3, 191.3 386.1 Q 192.6 385.0, 193.2 384.0 Q 193.8 383.0, 193.8 382.0 Q 193.8 380.9, 193.3 380.3 Q 192.7 379.7, 191.8 379.7 Q 190.9 379.7, 190.3 380.0 Q 189.7 380.4, 189.2 381.2 L 188.0 380.7 " fill="#000000"/>
<path class="legend" d="M 202.7 383.9 Q 203.8 384.2, 204.3 384.9 Q 204.9 385.6, 204.9 386.7 Q 204.9 387.7, 204.4 388.4 Q 203.9 389.2, 203.0 389.6 Q 202.1 390.0, 201.0 390.0 Q 199.8 390.0, 198.9 389.6 Q 198.0 389.2, 197.2 388.3 L 198.2 387.4 Q 198.9 388.1, 199.5 388.4 Q 200.0 388.7, 201.0 388.7 Q 202.0 388.7, 202.6 388.2 Q 203.3 387.6, 203.3 386.7 Q 203.3 385.6, 202.6 385.1 Q 202.0 384.5, 200.6 384.5 L 199.8 384.5 L 199.8 383.4 L 200.5 383.4 Q 201.7 383.4, 202.4 382.8 Q 203.0 382.3, 203.0 381.3 Q 203.0 380.5, 202.5 380.1 Q 201.9 379.7, 201.0 379.7 Q 200.1 379.7, 199.5 380.0 Q 198.9 380.3, 198.4 381.2 L 197.3 380.6 Q 197.7 379.6, 198.7 379.0 Q 199.7 378.4, 201.0 378.4 Q 202.7 378.4, 203.6 379.2 Q 204.6 380.0, 204.6 381.3 Q 204.6 382.2, 204.1 382.8 Q 203.6 383.5, 202.7 383.9 " fill="#000000"/>
<path class="legend" d="M 210.3 378.4 Q 212.3 378.4, 213.3 379.8 Q 214.3 381.1, 214.3 383.8 Q 214.3 386.8, 213.1 388.4 Q 211.8 390.0, 209.4 390.0 Q 208.7 390.0, 208.1 389.8 Q 207.5 389.6, 206.9 389.3 L 207.5 388.2 Q 208.4 388.7, 209.4 388.7 Q 211.0 388.7, 211.8 387.7 Q 212.6 386.6, 212.7 384.5 Q 212.1 385.0, 211.4 385.3 Q 210.7 385.6, 209.9 385.6 Q 208.9 385.6, 208.1 385.2 Q 207.3 384.7, 206.9 383.9 Q 206.5 383.2, 206.5 382.2 Q 206.5 381.1, 206.9 380.2 Q 207.4 379.3, 208.3 378.9 Q 209.2 378.4, 210.3 378.4 M 208.1 382.1 Q 208.1 383.2, 208.6 383.7 Q 209.2 384.3, 210.2 384.3 Q 210.9 384.3, 211.5 384.0 Q 212.2 383.7, 212.7 383.3 Q 212.6 381.4, 212.1 380.5 Q 211.5 379.7, 210.3 379.7 Q 209.7 379.7, 209.1 380.0 Q 208.6 380.3, 208.4 380.9 Q 208.1 381.5, 208.1 382.1 " fill="#000000"/>
<path class="legend" d="M 221.9 383.8 Q 222.9 384.3, 223.5 385.0 Q 224.1 385.6, 224.1 386.7 Q 224.1 387.7, 223.6 388.4 Q 223.1 389.2, 222.2 389.6 Q 221.3 390.0, 220.1 390.0 Q 218.3 390.0, 217.2 389.1 Q 216.1 388.3, 216.1 386.7 Q 216.1 385.8, 216.6 385.1 Q 217.0 384.4, 218.0 383.9 Q 217.3 383.5, 216.9 382.9 Q 216.5 382.2, 216.5 381.3 Q 216.5 380.0, 217.5 379.2 Q 218.4 378.4, 220.1 378.4 Q 221.7 378.4, 222.7 379.2 Q 223.7 380.0, 223.7 381.3 Q 223.7 382.1, 223.2 382.7 Q 222.7 383.3, 221.9 383.8 M 220.1 379.6 Q 219.1 379.6, 218.6 380.0 Q 218.1 380.5, 218.1 381.3 Q 218.1 381.9, 218.4 382.3 Q 218.8 382.7, 219.3 382.9 Q 219.8 383.1, 220.8 383.4 Q 221.5 383.0, 221.8 382.4 Q 222.1 381.9, 222.1 381.3 Q 222.1 380.5, 221.5 380.0 Q 221.0 379.6, 220.1 379.6 M 220.1 388.8 Q 221.2 388.8, 221.8 388.2 Q 222.5 387.7, 222.5 386.7 Q 222.5 386.1, 222.1 385.7 Q 221.8 385.3, 221.3 385.1 Q 220.8 384.9, 219.9 384.6 L 219.2 384.4 Q 218.4 384.8, 218.0 385.4 Q 217.7 386.0, 217.7 386.7 Q 217.7 387.7, 218.3 388.2 Q 219.0 388.8, 220.1 388.8 " fill="#000000"/>
<path class="bond-0 atom-0 atom-1" d="M 583.1,313.6 L 588.8,278.4" style="fill:none;fill-rule:evenodd;stroke:#000000;stroke-width:2.0px;stroke-linecap:butt;stroke-linejoin:miter;stroke-opacity:1"/>
<path class="bond-1 atom-1 atom-2" d="M 588.8,278.4 L 561.1,255.9" style="fill:none;fill-rule:evenodd;stroke:#000000;stroke-width:2.0px;stroke-linecap:butt;stroke-linejoin:miter;stroke-opacity:1"/>
<path class="bond-1 atom-1 atom-2" d="M 589.8,272.3 L 566.9,253.7" style="fill:none;fill-rule:evenodd;stroke:#000000;stroke-width:2.0px;stroke-linecap:butt;stroke-linejoin:miter;stroke-opacity:1"/>
<path class="bond-2 atom-2 atom-3" d="M 561.1,255.9 L 566.8,220.7" style="fill:none;fill-rule:evenodd;stroke:#000000;stroke-width:2.0px;stroke-linecap:butt;stroke-linejoin:miter;stroke-opacity:1"/>
<path class="bond-3 atom-3 atom-4" d="M 566.8,220.7 L 555.5,211.5" style="fill:none;fill-rule:evenodd;stroke:#000000;stroke-width:2.0px;stroke-linecap:butt;stroke-linejoin:miter;stroke-opacity:1"/>
<path class="bond-3 atom-3 atom-4" d="M 555.5,211.5 L 544.2,202.3" style="fill:none;fill-rule:evenodd;stroke:#0000FF;stroke-width:2.0px;stroke-linecap:butt;stroke-linejoin:miter;stroke-opacity:1"/>
<path class="bond-4 atom-4 atom-5" d="M 534.2,199.5 L 519.4,203.4" style="fill:none;fill-rule:evenodd;stroke:#0000FF;stroke-width:2.0px;stroke-linecap:butt;stroke-linejoin:miter;stroke-opacity:1"/>
<path class="bond-4 atom-4 atom-5" d="M 519.4,203.4 L 504.7,207.3" style="fill:none;fill-rule:evenodd;stroke:#000000;stroke-width:2.0px;stroke-linecap:butt;stroke-linejoin:miter;stroke-opacity:1"/>
<path class="bond-5 atom-5 atom-6" d="M 504.7,207.3 L 485.4,177.4" style="fill:none;fill-rule:evenodd;stroke:#000000;stroke-width:2.0px;stroke-linecap:butt;stroke-linejoin:miter;stroke-opacity:1"/>
<path class="bond-5 atom-5 atom-6" d="M 507.1,201.2 L 492.0,177.8" style="fill:none;fill-rule:evenodd;stroke:#000000;stroke-width:2.0px;stroke-linecap:butt;stroke-linejoin:miter;stroke-opacity:1"/>
<path class="bond-6 atom-6 atom-7" d="M 485.4,177.4 L 507.9,149.8" style="fill:none;fill-rule:evenodd;stroke:#000000;stroke-width:2.0px;stroke-linecap:butt;stroke-linejoin:miter;stroke-opacity:1"/>
<path class="bond-7 atom-7 atom-8" d="M 507.9,149.8 L 498.8,115.3" style="fill:none;fill-rule:evenodd;stroke:#000000;stroke-width:2.0px;stroke-linecap:butt;stroke-linejoin:miter;stroke-opacity:1"/>
<path class="bond-8 atom-8 atom-9" d="M 498.8,115.3 L 524.1,90.2" style="fill:none;fill-rule:evenodd;stroke:#000000;stroke-width:2.0px;stroke-linecap:butt;stroke-linejoin:miter;stroke-opacity:1"/>
<path class="bond-8 atom-8 atom-9" d="M 497.2,109.3 L 518.1,88.5" style="fill:none;fill-rule:evenodd;stroke:#000000;stroke-width:2.0px;stroke-linecap:butt;stroke-linejoin:miter;stroke-opacity:1"/>
<path class="bond-9 atom-9 atom-10" d="M 524.1,90.2 L 514.9,55.7" style="fill:none;fill-rule:evenodd;stroke:#000000;stroke-width:2.0px;stroke-linecap:butt;stroke-linejoin:miter;stroke-opacity:1"/>
<path class="bond-10 atom-10 atom-11" d="M 514.9,55.7 L 480.5,46.4" style="fill:none;fill-rule:evenodd;stroke:#000000;stroke-width:2.0px;stroke-linecap:butt;stroke-linejoin:miter;stroke-opacity:1"/>
<path class="bond-10 atom-10 atom-11" d="M 510.6,60.1 L 482.1,52.3" style="fill:none;fill-rule:evenodd;stroke:#000000;stroke-width:2.0px;stroke-linecap:butt;stroke-linejoin:miter;stroke-opacity:1"/>
<path class="bond-11 atom-11 atom-12" d="M 480.5,46.4 L 455.3,71.5" style="fill:none;fill-rule:evenodd;stroke:#000000;stroke-width:2.0px;stroke-linecap:butt;stroke-linejoin:miter;stroke-opacity:1"/>
<path class="bond-12 atom-12 atom-13" d="M 455.3,71.5 L 459.0,85.6" style="fill:none;fill-rule:evenodd;stroke:#000000;stroke-width:2.0px;stroke-linecap:butt;stroke-linejoin:miter;stroke-opacity:1"/>
<path class="bond-12 atom-12 atom-13" d="M 459.0,85.6 L 462.7,99.7" style="fill:none;fill-rule:evenodd;stroke:#0000FF;stroke-width:2.0px;stroke-linecap:butt;stroke-linejoin:miter;stroke-opacity:1"/>
<path class="bond-12 atom-12 atom-13" d="M 461.2,73.1 L 464.6,85.8" style="fill:none;fill-rule:evenodd;stroke:#000000;stroke-width:2.0px;stroke-linecap:butt;stroke-linejoin:miter;stroke-opacity:1"/>
<path class="bond-12 atom-12 atom-13" d="M 464.6,85.8 L 467.9,98.4" style="fill:none;fill-rule:evenodd;stroke:#0000FF;stroke-width:2.0px;stroke-linecap:butt;stroke-linejoin:miter;stroke-opacity:1"/>
<path class="bond-13 atom-7 atom-14" d="M 507.9,149.8 L 522.0,155.2" style="fill:none;fill-rule:evenodd;stroke:#000000;stroke-width:2.0px;stroke-linecap:butt;stroke-linejoin:miter;stroke-opacity:1"/>
<path class="bond-13 atom-7 atom-14" d="M 522.0,155.2 L 536.1,160.7" style="fill:none;fill-rule:evenodd;stroke:#0000FF;stroke-width:2.0px;stroke-linecap:butt;stroke-linejoin:miter;stroke-opacity:1"/>
<path class="bond-13 atom-7 atom-14" d="M 509.6,156.1 L 521.9,160.9" style="fill:none;fill-rule:evenodd;stroke:#000000;stroke-width:2.0px;stroke-linecap:butt;stroke-linejoin:miter;stroke-opacity:1"/>
<path class="bond-13 atom-7 atom-14" d="M 521.9,160.9 L 534.2,165.7" style="fill:none;fill-rule:evenodd;stroke:#0000FF;stroke-width:2.0px;stroke-linecap:butt;stroke-linejoin:miter;stroke-opacity:1"/>
<path class="bond-14 atom-3 atom-15" d="M 566.8,220.7 L 600.1,208.1" style="fill:none;fill-rule:evenodd;stroke:#000000;stroke-width:2.0px;stroke-linecap:butt;stroke-linejoin:miter;stroke-opacity:1"/>
<path class="bond-14 atom-3 atom-15" d="M 571.6,224.6 L 599.1,214.1" style="fill:none;fill-rule:evenodd;stroke:#000000;stroke-width:2.0px;stroke-linecap:butt;stroke-linejoin:miter;stroke-opacity:1"/>
<path class="bond-15 atom-15 atom-16" d="M 600.1,208.1 L 605.8,172.9" style="fill:none;fill-rule:evenodd;stroke:#000000;stroke-width:2.0px;stroke-linecap:butt;stroke-linejoin:miter;stroke-opacity:1"/>
<path class="bond-16 atom-16 atom-17" d="M 605.8,172.9 L 639.1,160.2" style="fill:none;fill-rule:evenodd;stroke:#000000;stroke-width:2.0px;stroke-linecap:butt;stroke-linejoin:miter;stroke-opacity:1"/>
<path class="bond-17 atom-17 atom-18" d="M 639.1,160.2 L 641.4,145.8" style="fill:none;fill-rule:evenodd;stroke:#000000;stroke-width:2.0px;stroke-linecap:butt;stroke-linejoin:miter;stroke-opacity:1"/>
<path class="bond-17 atom-17 atom-18" d="M 641.4,145.8 L 643.8,131.4" style="fill:none;fill-rule:evenodd;stroke:#FF0000;stroke-width:2.0px;stroke-linecap:butt;stroke-linejoin:miter;stroke-opacity:1"/>
<path class="bond-18 atom-18 atom-19" d="M 650.6,122.8 L 661.6,118.6" style="fill:none;fill-rule:evenodd;stroke:#FF0000;stroke-width:2.0px;stroke-linecap:butt;stroke-linejoin:miter;stroke-opacity:1"/>
<path class="bond-18 atom-18 atom-19" d="M 661.6,118.6 L 672.5,114.4" style="fill:none;fill-rule:evenodd;stroke:#000000;stroke-width:2.0px;stroke-linecap:butt;stroke-linejoin:miter;stroke-opacity:1"/>
<path class="bond-19 atom-19 atom-20" d="M 675.8,106.1 L 665.4,79.0" style="fill:none;fill-rule:evenodd;stroke:#000000;stroke-width:2.0px;stroke-linecap:butt;stroke-linejoin:miter;stroke-opacity:1"/>
<path class="bond-20 atom-19 atom-21" d="M 680.6,118.8 L 690.8,145.6" style="fill:none;fill-rule:evenodd;stroke:#000000;stroke-width:2.0px;stroke-linecap:butt;stroke-linejoin:miter;stroke-opacity:1"/>
<path class="bond-21 atom-19 atom-22" d="M 683.7,110.2 L 711.4,99.6" style="fill:none;fill-rule:evenodd;stroke:#000000;stroke-width:2.0px;stroke-linecap:butt;stroke-linejoin:miter;stroke-opacity:1"/>
<path class="bond-22 atom-22 atom-23" d="M 711.4,99.6 L 724.1,133.0" style="fill:none;fill-rule:evenodd;stroke:#000000;stroke-width:2.0px;stroke-linecap:butt;stroke-linejoin:miter;stroke-opacity:1"/>
<path class="bond-23 atom-22 atom-24" d="M 711.4,99.6 L 698.8,66.3" style="fill:none;fill-rule:evenodd;stroke:#000000;stroke-width:2.0px;stroke-linecap:butt;stroke-linejoin:miter;stroke-opacity:1"/>
<path class="bond-24 atom-22 atom-25" d="M 711.4,99.6 L 744.7,87.0" style="fill:none;fill-rule:evenodd;stroke:#000000;stroke-width:2.0px;stroke-linecap:butt;stroke-linejoin:miter;stroke-opacity:1"/>
<path class="bond-25 atom-15 atom-26" d="M 600.1,208.1 L 627.8,230.6" style="fill:none;fill-rule:evenodd;stroke:#000000;stroke-width:2.0px;stroke-linecap:butt;stroke-linejoin:miter;stroke-opacity:1"/>
<path class="bond-26 atom-26 atom-27" d="M 627.8,230.6 L 641.9,225.2" style="fill:none;fill-rule:evenodd;stroke:#000000;stroke-width:2.0px;stroke-linecap:butt;stroke-linejoin:miter;stroke-opacity:1"/>
<path class="bond-26 atom-26 atom-27" d="M 641.9,225.2 L 656.0,219.8" style="fill:none;fill-rule:evenodd;stroke:#00CC00;stroke-width:2.0px;stroke-linecap:butt;stroke-linejoin:miter;stroke-opacity:1"/>
<path class="bond-27 atom-26 atom-28" d="M 627.8,230.6 L 625.4,245.0" style="fill:none;fill-rule:evenodd;stroke:#000000;stroke-width:2.0px;stroke-linecap:butt;stroke-linejoin:miter;stroke-opacity:1"/>
<path class="bond-27 atom-26 atom-28" d="M 625.4,245.0 L 623.1,259.5" style="fill:none;fill-rule:evenodd;stroke:#0000FF;stroke-width:2.0px;stroke-linecap:butt;stroke-linejoin:miter;stroke-opacity:1"/>
<path class="bond-27 atom-26 atom-28" d="M 622.0,232.8 L 619.9,245.7" style="fill:none;fill-rule:evenodd;stroke:#000000;stroke-width:2.0px;stroke-linecap:butt;stroke-linejoin:miter;stroke-opacity:1"/>
<path class="bond-27 atom-26 atom-28" d="M 619.9,245.7 L 617.8,258.7" style="fill:none;fill-rule:evenodd;stroke:#0000FF;stroke-width:2.0px;stroke-linecap:butt;stroke-linejoin:miter;stroke-opacity:1"/>
<path class="bond-28 atom-28 atom-1" d="M 617.1,267.7 L 602.9,273.0" style="fill:none;fill-rule:evenodd;stroke:#0000FF;stroke-width:2.0px;stroke-linecap:butt;stroke-linejoin:miter;stroke-opacity:1"/>
<path class="bond-28 atom-28 atom-1" d="M 602.9,273.0 L 588.8,278.4" style="fill:none;fill-rule:evenodd;stroke:#000000;stroke-width:2.0px;stroke-linecap:butt;stroke-linejoin:miter;stroke-opacity:1"/>
<path class="bond-29 atom-14 atom-4" d="M 540.8,168.8 L 539.5,192.0" style="fill:none;fill-rule:evenodd;stroke:#0000FF;stroke-width:2.0px;stroke-linecap:butt;stroke-linejoin:miter;stroke-opacity:1"/>
<path class="bond-30 atom-13 atom-8" d="M 469.4,107.3 L 484.1,111.3" style="fill:none;fill-rule:evenodd;stroke:#0000FF;stroke-width:2.0px;stroke-linecap:butt;stroke-linejoin:miter;stroke-opacity:1"/>
<path class="bond-30 atom-13 atom-8" d="M 484.1,111.3 L 498.8,115.3" style="fill:none;fill-rule:evenodd;stroke:#000000;stroke-width:2.0px;stroke-linecap:butt;stroke-linejoin:miter;stroke-opacity:1"/>
<path d="M 562.5,257.0 L 561.1,255.9 L 561.4,254.2" style="fill:none;stroke:#000000;stroke-width:2.0px;stroke-linecap:butt;stroke-linejoin:miter;stroke-opacity:1;"/>
<path d="M 505.5,207.1 L 504.7,207.3 L 503.8,205.8" style="fill:none;stroke:#000000;stroke-width:2.0px;stroke-linecap:butt;stroke-linejoin:miter;stroke-opacity:1;"/>
<path d="M 486.4,178.9 L 485.4,177.4 L 486.5,176.0" style="fill:none;stroke:#000000;stroke-width:2.0px;stroke-linecap:butt;stroke-linejoin:miter;stroke-opacity:1;"/>
<path d="M 522.8,91.4 L 524.1,90.2 L 523.6,88.4" style="fill:none;stroke:#000000;stroke-width:2.0px;stroke-linecap:butt;stroke-linejoin:miter;stroke-opacity:1;"/>
<path d="M 515.4,57.4 L 514.9,55.7 L 513.2,55.2" style="fill:none;stroke:#000000;stroke-width:2.0px;stroke-linecap:butt;stroke-linejoin:miter;stroke-opacity:1;"/>
<path d="M 482.3,46.8 L 480.5,46.4 L 479.3,47.6" style="fill:none;stroke:#000000;stroke-width:2.0px;stroke-linecap:butt;stroke-linejoin:miter;stroke-opacity:1;"/>
<path d="M 456.5,70.3 L 455.3,71.5 L 455.4,72.2" style="fill:none;stroke:#000000;stroke-width:2.0px;stroke-linecap:butt;stroke-linejoin:miter;stroke-opacity:1;"/>
<path d="M 605.5,174.6 L 605.8,172.9 L 607.5,172.2" style="fill:none;stroke:#000000;stroke-width:2.0px;stroke-linecap:butt;stroke-linejoin:miter;stroke-opacity:1;"/>
<path d="M 637.5,160.8 L 639.1,160.2 L 639.2,159.5" style="fill:none;stroke:#000000;stroke-width:2.0px;stroke-linecap:butt;stroke-linejoin:miter;stroke-opacity:1;"/>
<path class="atom-4" d="M 536.9 193.2 L 540.3 198.5 Q 540.6 199.0, 541.1 200.0 Q 541.6 201.0, 541.7 201.0 L 541.7 193.2 L 543.0 193.2 L 543.0 203.3 L 541.6 203.3 L 538.1 197.4 Q 537.7 196.7, 537.2 195.9 Q 536.8 195.2, 536.7 194.9 L 536.7 203.3 L 535.4 203.3 L 535.4 193.2 L 536.9 193.2 " fill="#0000FF"/>
<path class="atom-13" d="M 462.1 100.9 L 465.5 106.3 Q 465.8 106.8, 466.3 107.8 Q 466.8 108.7, 466.9 108.8 L 466.9 100.9 L 468.2 100.9 L 468.2 111.0 L 466.8 111.0 L 463.3 105.2 Q 462.9 104.5, 462.4 103.7 Q 462.0 102.9, 461.9 102.7 L 461.9 111.0 L 460.6 111.0 L 460.6 100.9 L 462.1 100.9 " fill="#0000FF"/>
<path class="atom-14" d="M 538.9 157.6 L 542.2 162.9 Q 542.6 163.5, 543.1 164.4 Q 543.6 165.4, 543.6 165.4 L 543.6 157.6 L 545.0 157.6 L 545.0 167.7 L 543.6 167.7 L 540.0 161.8 Q 539.6 161.1, 539.2 160.4 Q 538.8 159.6, 538.6 159.3 L 538.6 167.7 L 537.3 167.7 L 537.3 157.6 L 538.9 157.6 " fill="#0000FF"/>
<path class="atom-18" d="M 640.2 125.0 Q 640.2 122.6, 641.4 121.2 Q 642.6 119.9, 644.8 119.9 Q 647.0 119.9, 648.2 121.2 Q 649.4 122.6, 649.4 125.0 Q 649.4 127.5, 648.2 128.9 Q 647.0 130.3, 644.8 130.3 Q 642.6 130.3, 641.4 128.9 Q 640.2 127.5, 640.2 125.0 M 644.8 129.1 Q 646.3 129.1, 647.2 128.1 Q 648.0 127.0, 648.0 125.0 Q 648.0 123.0, 647.2 122.0 Q 646.3 121.0, 644.8 121.0 Q 643.3 121.0, 642.4 122.0 Q 641.6 123.0, 641.6 125.0 Q 641.6 127.1, 642.4 128.1 Q 643.3 129.1, 644.8 129.1 " fill="#FF0000"/>
<path class="atom-19" d="M 674.1 115.8 Q 674.2 115.8, 674.7 116.0 Q 675.1 116.2, 675.6 116.4 Q 676.2 116.5, 676.7 116.5 Q 677.6 116.5, 678.2 116.0 Q 678.8 115.6, 678.8 114.7 Q 678.8 114.2, 678.5 113.8 Q 678.2 113.5, 677.8 113.3 Q 677.3 113.1, 676.6 112.9 Q 675.7 112.6, 675.2 112.4 Q 674.7 112.1, 674.3 111.6 Q 673.9 111.0, 673.9 110.1 Q 673.9 108.9, 674.8 108.1 Q 675.6 107.3, 677.3 107.3 Q 678.5 107.3, 679.8 107.9 L 679.5 109.0 Q 678.3 108.5, 677.4 108.5 Q 676.4 108.5, 675.9 108.9 Q 675.3 109.3, 675.3 110.0 Q 675.3 110.5, 675.6 110.8 Q 675.9 111.2, 676.3 111.3 Q 676.7 111.5, 677.4 111.7 Q 678.3 112.0, 678.8 112.3 Q 679.4 112.6, 679.8 113.2 Q 680.2 113.8, 680.2 114.7 Q 680.2 116.1, 679.2 116.9 Q 678.3 117.6, 676.7 117.6 Q 675.8 117.6, 675.2 117.4 Q 674.5 117.3, 673.7 116.9 L 674.1 115.8 " fill="#000000"/>
<path class="atom-19" d="M 681.2 107.3 L 682.5 107.3 L 682.5 108.5 L 681.2 108.5 L 681.2 107.3 M 681.2 110.0 L 682.5 110.0 L 682.5 117.4 L 681.2 117.4 L 681.2 110.0 " fill="#000000"/>
<path class="atom-27" d="M 657.2 218.2 Q 657.2 215.7, 658.4 214.4 Q 659.5 213.1, 661.8 213.1 Q 663.9 213.1, 665.0 214.6 L 664.0 215.3 Q 663.2 214.3, 661.8 214.3 Q 660.3 214.3, 659.4 215.3 Q 658.6 216.3, 658.6 218.2 Q 658.6 220.2, 659.5 221.3 Q 660.3 222.3, 661.9 222.3 Q 663.0 222.3, 664.3 221.6 L 664.7 222.7 Q 664.2 223.0, 663.4 223.2 Q 662.6 223.4, 661.7 223.4 Q 659.5 223.4, 658.4 222.1 Q 657.2 220.7, 657.2 218.2 " fill="#00CC00"/>
<path class="atom-27" d="M 666.0 212.5 L 667.3 212.5 L 667.3 223.3 L 666.0 223.3 L 666.0 212.5 " fill="#00CC00"/>
<path class="atom-28" d="M 619.9 260.7 L 623.2 266.1 Q 623.5 266.6, 624.0 267.5 Q 624.5 268.5, 624.6 268.5 L 624.6 260.7 L 625.9 260.7 L 625.9 270.8 L 624.5 270.8 L 621.0 265.0 Q 620.6 264.3, 620.1 263.5 Q 619.7 262.7, 619.6 262.5 L 619.6 270.8 L 618.3 270.8 L 618.3 260.7 L 619.9 260.7 " fill="#0000FF"/>
<path class="legend" d="M 576.0 385.7 Q 576.0 383.7, 577.0 382.6 Q 578.0 381.5, 579.9 381.5 Q 581.7 381.5, 582.5 382.6 Q 583.3 383.6, 583.3 385.7 L 583.3 385.9 L 577.5 385.9 Q 577.6 387.3, 578.2 388.0 Q 578.8 388.8, 580.0 388.8 Q 580.6 388.8, 581.2 388.6 Q 581.8 388.5, 582.5 388.2 L 583.0 389.2 Q 582.1 389.6, 581.4 389.8 Q 580.7 390.0, 579.9 390.0 Q 578.0 390.0, 577.0 388.8 Q 576.0 387.7, 576.0 385.7 M 579.9 382.7 Q 578.9 382.7, 578.3 383.2 Q 577.8 383.7, 577.6 384.8 L 581.7 384.8 Q 581.6 383.7, 581.1 383.2 Q 580.7 382.7, 579.9 382.7 " fill="#000000"/>
<path class="legend" d="M 584.6 377.7 L 586.0 377.7 L 586.0 389.8 L 584.6 389.8 L 584.6 377.7 " fill="#000000"/>
<path class="legend" d="M 588.1 380.7 Q 588.5 379.6, 589.5 379.0 Q 590.5 378.4, 591.9 378.4 Q 593.6 378.4, 594.5 379.3 Q 595.5 380.2, 595.5 381.9 Q 595.5 383.6, 594.3 385.1 Q 593.0 386.7, 590.5 388.6 L 595.7 388.6 L 595.7 389.8 L 588.1 389.8 L 588.1 388.8 Q 590.2 387.3, 591.4 386.1 Q 592.7 385.0, 593.3 384.0 Q 593.9 383.0, 593.9 382.0 Q 593.9 380.9, 593.4 380.3 Q 592.8 379.7, 591.9 379.7 Q 591.0 379.7, 590.3 380.0 Q 589.7 380.4, 589.3 381.2 L 588.1 380.7 " fill="#000000"/>
<path class="legend" d="M 602.8 383.9 Q 603.9 384.2, 604.4 384.9 Q 604.9 385.6, 604.9 386.7 Q 604.9 387.7, 604.5 388.4 Q 604.0 389.2, 603.1 389.6 Q 602.2 390.0, 601.1 390.0 Q 599.8 390.0, 598.9 389.6 Q 598.0 389.2, 597.3 388.3 L 598.2 387.4 Q 598.9 388.1, 599.5 388.4 Q 600.1 388.7, 601.1 388.7 Q 602.1 388.7, 602.7 388.2 Q 603.3 387.6, 603.3 386.7 Q 603.3 385.6, 602.7 385.1 Q 602.0 384.5, 600.6 384.5 L 599.8 384.5 L 599.8 383.4 L 600.5 383.4 Q 601.8 383.4, 602.4 382.8 Q 603.1 382.3, 603.1 381.3 Q 603.1 380.5, 602.5 380.1 Q 602.0 379.7, 601.1 379.7 Q 600.1 379.7, 599.5 380.0 Q 599.0 380.3, 598.5 381.2 L 597.4 380.6 Q 597.8 379.6, 598.8 379.0 Q 599.7 378.4, 601.1 378.4 Q 602.7 378.4, 603.7 379.2 Q 604.7 380.0, 604.7 381.3 Q 604.7 382.2, 604.2 382.8 Q 603.7 383.5, 602.8 383.9 " fill="#000000"/>
<path class="legend" d="M 610.3 378.4 Q 612.4 378.4, 613.4 379.8 Q 614.4 381.1, 614.4 383.8 Q 614.4 386.8, 613.1 388.4 Q 611.9 390.0, 609.5 390.0 Q 608.8 390.0, 608.2 389.8 Q 607.6 389.6, 607.0 389.3 L 607.6 388.2 Q 608.4 388.7, 609.4 388.7 Q 611.0 388.7, 611.9 387.7 Q 612.7 386.6, 612.8 384.5 Q 612.2 385.0, 611.5 385.3 Q 610.7 385.6, 610.0 385.6 Q 609.0 385.6, 608.2 385.2 Q 607.4 384.7, 607.0 383.9 Q 606.5 383.2, 606.5 382.2 Q 606.5 381.1, 607.0 380.2 Q 607.5 379.3, 608.4 378.9 Q 609.2 378.4, 610.3 378.4 M 608.1 382.1 Q 608.1 383.2, 608.7 383.7 Q 609.3 384.3, 610.2 384.3 Q 610.9 384.3, 611.6 384.0 Q 612.3 383.7, 612.8 383.3 Q 612.7 381.4, 612.1 380.5 Q 611.5 379.7, 610.3 379.7 Q 609.7 379.7, 609.2 380.0 Q 608.7 380.3, 608.4 380.9 Q 608.1 381.5, 608.1 382.1 " fill="#000000"/>
<path class="legend" d="M 620.0 378.4 Q 622.0 378.4, 623.0 379.8 Q 624.0 381.1, 624.0 383.8 Q 624.0 386.8, 622.7 388.4 Q 621.5 390.0, 619.1 390.0 Q 618.4 390.0, 617.8 389.8 Q 617.2 389.6, 616.6 389.3 L 617.2 388.2 Q 618.0 388.7, 619.1 388.7 Q 620.7 388.7, 621.5 387.7 Q 622.3 386.6, 622.4 384.5 Q 621.8 385.0, 621.1 385.3 Q 620.4 385.6, 619.6 385.6 Q 618.6 385.6, 617.8 385.2 Q 617.0 384.7, 616.6 383.9 Q 616.1 383.2, 616.1 382.2 Q 616.1 381.1, 616.6 380.2 Q 617.1 379.3, 618.0 378.9 Q 618.8 378.4, 620.0 378.4 M 617.7 382.1 Q 617.7 383.2, 618.3 383.7 Q 618.9 384.3, 619.9 384.3 Q 620.5 384.3, 621.2 384.0 Q 621.9 383.7, 622.4 383.3 Q 622.3 381.4, 621.7 380.5 Q 621.1 379.7, 619.9 379.7 Q 619.3 379.7, 618.8 380.0 Q 618.3 380.3, 618.0 380.9 Q 617.7 381.5, 617.7 382.1 " fill="#000000"/>
<path class="bond-0 atom-0 atom-1" d="M 934.6,313.5 L 947.2,280.1" style="fill:none;fill-rule:evenodd;stroke:#000000;stroke-width:2.0px;stroke-linecap:butt;stroke-linejoin:miter;stroke-opacity:1"/>
<path class="bond-1 atom-1 atom-2" d="M 947.2,280.1 L 924.6,252.6" style="fill:none;fill-rule:evenodd;stroke:#000000;stroke-width:2.0px;stroke-linecap:butt;stroke-linejoin:miter;stroke-opacity:1"/>
<path class="bond-1 atom-1 atom-2" d="M 949.4,274.4 L 930.7,251.6" style="fill:none;fill-rule:evenodd;stroke:#000000;stroke-width:2.0px;stroke-linecap:butt;stroke-linejoin:miter;stroke-opacity:1"/>
<path class="bond-2 atom-2 atom-3" d="M 924.6,252.6 L 937.2,219.2" style="fill:none;fill-rule:evenodd;stroke:#000000;stroke-width:2.0px;stroke-linecap:butt;stroke-linejoin:miter;stroke-opacity:1"/>
<path class="bond-3 atom-3 atom-4" d="M 937.2,219.2 L 928.4,208.5" style="fill:none;fill-rule:evenodd;stroke:#000000;stroke-width:2.0px;stroke-linecap:butt;stroke-linejoin:miter;stroke-opacity:1"/>
<path class="bond-3 atom-3 atom-4" d="M 928.4,208.5 L 919.7,197.7" style="fill:none;fill-rule:evenodd;stroke:#0000FF;stroke-width:2.0px;stroke-linecap:butt;stroke-linejoin:miter;stroke-opacity:1"/>
<path class="bond-4 atom-4 atom-5" d="M 909.6,191.9 L 894.4,192.8" style="fill:none;fill-rule:evenodd;stroke:#0000FF;stroke-width:2.0px;stroke-linecap:butt;stroke-linejoin:miter;stroke-opacity:1"/>
<path class="bond-4 atom-4 atom-5" d="M 894.4,192.8 L 879.1,193.7" style="fill:none;fill-rule:evenodd;stroke:#000000;stroke-width:2.0px;stroke-linecap:butt;stroke-linejoin:miter;stroke-opacity:1"/>
<path class="bond-5 atom-5 atom-6" d="M 879.1,193.7 L 866.1,160.5" style="fill:none;fill-rule:evenodd;stroke:#000000;stroke-width:2.0px;stroke-linecap:butt;stroke-linejoin:miter;stroke-opacity:1"/>
<path class="bond-5 atom-5 atom-6" d="M 882.6,188.1 L 872.5,162.1" style="fill:none;fill-rule:evenodd;stroke:#000000;stroke-width:2.0px;stroke-linecap:butt;stroke-linejoin:miter;stroke-opacity:1"/>
<path class="bond-6 atom-6 atom-7" d="M 866.1,160.5 L 893.7,137.9" style="fill:none;fill-rule:evenodd;stroke:#000000;stroke-width:2.0px;stroke-linecap:butt;stroke-linejoin:miter;stroke-opacity:1"/>
<path class="bond-7 atom-7 atom-8" d="M 893.7,137.9 L 892.9,123.2" style="fill:none;fill-rule:evenodd;stroke:#000000;stroke-width:2.0px;stroke-linecap:butt;stroke-linejoin:miter;stroke-opacity:1"/>
<path class="bond-7 atom-7 atom-8" d="M 892.9,123.2 L 892.0,108.5" style="fill:none;fill-rule:evenodd;stroke:#0000FF;stroke-width:2.0px;stroke-linecap:butt;stroke-linejoin:miter;stroke-opacity:1"/>
<path class="bond-8 atom-8 atom-9" d="M 886.7,99.1 L 874.2,91.1" style="fill:none;fill-rule:evenodd;stroke:#0000FF;stroke-width:2.0px;stroke-linecap:butt;stroke-linejoin:miter;stroke-opacity:1"/>
<path class="bond-8 atom-8 atom-9" d="M 874.2,91.1 L 861.7,83.0" style="fill:none;fill-rule:evenodd;stroke:#000000;stroke-width:2.0px;stroke-linecap:butt;stroke-linejoin:miter;stroke-opacity:1"/>
<path class="bond-9 atom-9 atom-10" d="M 861.7,83.0 L 870.7,48.6" style="fill:none;fill-rule:evenodd;stroke:#000000;stroke-width:2.0px;stroke-linecap:butt;stroke-linejoin:miter;stroke-opacity:1"/>
<path class="bond-9 atom-9 atom-10" d="M 867.8,80.6 L 874.9,53.7" style="fill:none;fill-rule:evenodd;stroke:#000000;stroke-width:2.0px;stroke-linecap:butt;stroke-linejoin:miter;stroke-opacity:1"/>
<path class="bond-10 atom-10 atom-11" d="M 870.7,48.6 L 906.3,46.5" style="fill:none;fill-rule:evenodd;stroke:#000000;stroke-width:2.0px;stroke-linecap:butt;stroke-linejoin:miter;stroke-opacity:1"/>
<path class="bond-11 atom-11 atom-12" d="M 906.3,46.5 L 911.6,60.0" style="fill:none;fill-rule:evenodd;stroke:#000000;stroke-width:2.0px;stroke-linecap:butt;stroke-linejoin:miter;stroke-opacity:1"/>
<path class="bond-11 atom-11 atom-12" d="M 911.6,60.0 L 916.8,73.5" style="fill:none;fill-rule:evenodd;stroke:#0000FF;stroke-width:2.0px;stroke-linecap:butt;stroke-linejoin:miter;stroke-opacity:1"/>
<path class="bond-11 atom-11 atom-12" d="M 902.7,52.1 L 907.3,63.8" style="fill:none;fill-rule:evenodd;stroke:#000000;stroke-width:2.0px;stroke-linecap:butt;stroke-linejoin:miter;stroke-opacity:1"/>
<path class="bond-11 atom-11 atom-12" d="M 907.3,63.8 L 911.8,75.4" style="fill:none;fill-rule:evenodd;stroke:#0000FF;stroke-width:2.0px;stroke-linecap:butt;stroke-linejoin:miter;stroke-opacity:1"/>
<path class="bond-12 atom-7 atom-13" d="M 893.7,137.9 L 906.2,145.9" style="fill:none;fill-rule:evenodd;stroke:#000000;stroke-width:2.0px;stroke-linecap:butt;stroke-linejoin:miter;stroke-opacity:1"/>
<path class="bond-12 atom-7 atom-13" d="M 906.2,145.9 L 918.7,153.9" style="fill:none;fill-rule:evenodd;stroke:#0000FF;stroke-width:2.0px;stroke-linecap:butt;stroke-linejoin:miter;stroke-opacity:1"/>
<path class="bond-12 atom-7 atom-13" d="M 894.1,144.5 L 904.9,151.5" style="fill:none;fill-rule:evenodd;stroke:#000000;stroke-width:2.0px;stroke-linecap:butt;stroke-linejoin:miter;stroke-opacity:1"/>
<path class="bond-12 atom-7 atom-13" d="M 904.9,151.5 L 915.8,158.4" style="fill:none;fill-rule:evenodd;stroke:#0000FF;stroke-width:2.0px;stroke-linecap:butt;stroke-linejoin:miter;stroke-opacity:1"/>
<path class="bond-13 atom-3 atom-14" d="M 937.2,219.2 L 972.4,213.5" style="fill:none;fill-rule:evenodd;stroke:#000000;stroke-width:2.0px;stroke-linecap:butt;stroke-linejoin:miter;stroke-opacity:1"/>
<path class="bond-13 atom-3 atom-14" d="M 941.1,224.0 L 970.2,219.2" style="fill:none;fill-rule:evenodd;stroke:#000000;stroke-width:2.0px;stroke-linecap:butt;stroke-linejoin:miter;stroke-opacity:1"/>
<path class="bond-14 atom-14 atom-15" d="M 972.4,213.5 L 985.0,180.1" style="fill:none;fill-rule:evenodd;stroke:#000000;stroke-width:2.0px;stroke-linecap:butt;stroke-linejoin:miter;stroke-opacity:1"/>
<path class="bond-15 atom-15 atom-16" d="M 985.0,180.1 L 1020.2,174.4" style="fill:none;fill-rule:evenodd;stroke:#000000;stroke-width:2.0px;stroke-linecap:butt;stroke-linejoin:miter;stroke-opacity:1"/>
<path class="bond-16 atom-16 atom-17" d="M 1020.2,174.4 L 1025.3,160.9" style="fill:none;fill-rule:evenodd;stroke:#000000;stroke-width:2.0px;stroke-linecap:butt;stroke-linejoin:miter;stroke-opacity:1"/>
<path class="bond-16 atom-16 atom-17" d="M 1025.3,160.9 L 1030.4,147.5" style="fill:none;fill-rule:evenodd;stroke:#FF0000;stroke-width:2.0px;stroke-linecap:butt;stroke-linejoin:miter;stroke-opacity:1"/>
<path class="bond-17 atom-17 atom-18" d="M 1038.6,140.1 L 1050.5,138.1" style="fill:none;fill-rule:evenodd;stroke:#FF0000;stroke-width:2.0px;stroke-linecap:butt;stroke-linejoin:miter;stroke-opacity:1"/>
<path class="bond-17 atom-17 atom-18" d="M 1050.5,138.1 L 1062.4,136.2" style="fill:none;fill-rule:evenodd;stroke:#000000;stroke-width:2.0px;stroke-linecap:butt;stroke-linejoin:miter;stroke-opacity:1"/>
<path class="bond-18 atom-18 atom-19" d="M 1067.0,129.1 L 1062.2,100.1" style="fill:none;fill-rule:evenodd;stroke:#000000;stroke-width:2.0px;stroke-linecap:butt;stroke-linejoin:miter;stroke-opacity:1"/>
<path class="bond-19 atom-18 atom-20" d="M 1069.0,141.8 L 1073.7,170.5" style="fill:none;fill-rule:evenodd;stroke:#000000;stroke-width:2.0px;stroke-linecap:butt;stroke-linejoin:miter;stroke-opacity:1"/>
<path class="bond-20 atom-18 atom-21" d="M 1073.6,134.4 L 1103.1,129.5" style="fill:none;fill-rule:evenodd;stroke:#000000;stroke-width:2.0px;stroke-linecap:butt;stroke-linejoin:miter;stroke-opacity:1"/>
<path class="bond-21 atom-21 atom-22" d="M 1103.1,129.5 L 1108.9,164.7" style="fill:none;fill-rule:evenodd;stroke:#000000;stroke-width:2.0px;stroke-linecap:butt;stroke-linejoin:miter;stroke-opacity:1"/>
<path class="bond-22 atom-21 atom-23" d="M 1103.1,129.5 L 1097.4,94.3" style="fill:none;fill-rule:evenodd;stroke:#000000;stroke-width:2.0px;stroke-linecap:butt;stroke-linejoin:miter;stroke-opacity:1"/>
<path class="bond-23 atom-21 atom-24" d="M 1103.1,129.5 L 1138.3,123.8" style="fill:none;fill-rule:evenodd;stroke:#000000;stroke-width:2.0px;stroke-linecap:butt;stroke-linejoin:miter;stroke-opacity:1"/>
<path class="bond-24 atom-14 atom-25" d="M 972.4,213.5 L 995.0,241.0" style="fill:none;fill-rule:evenodd;stroke:#000000;stroke-width:2.0px;stroke-linecap:butt;stroke-linejoin:miter;stroke-opacity:1"/>
<path class="bond-25 atom-25 atom-26" d="M 995.0,241.0 L 1010.0,238.6" style="fill:none;fill-rule:evenodd;stroke:#000000;stroke-width:2.0px;stroke-linecap:butt;stroke-linejoin:miter;stroke-opacity:1"/>
<path class="bond-25 atom-25 atom-26" d="M 1010.0,238.6 L 1025.1,236.1" style="fill:none;fill-rule:evenodd;stroke:#00CC00;stroke-width:2.0px;stroke-linecap:butt;stroke-linejoin:miter;stroke-opacity:1"/>
<path class="bond-26 atom-25 atom-27" d="M 995.0,241.0 L 989.8,254.6" style="fill:none;fill-rule:evenodd;stroke:#000000;stroke-width:2.0px;stroke-linecap:butt;stroke-linejoin:miter;stroke-opacity:1"/>
<path class="bond-26 atom-25 atom-27" d="M 989.8,254.6 L 984.7,268.2" style="fill:none;fill-rule:evenodd;stroke:#0000FF;stroke-width:2.0px;stroke-linecap:butt;stroke-linejoin:miter;stroke-opacity:1"/>
<path class="bond-26 atom-25 atom-27" d="M 988.9,242.0 L 984.3,254.2" style="fill:none;fill-rule:evenodd;stroke:#000000;stroke-width:2.0px;stroke-linecap:butt;stroke-linejoin:miter;stroke-opacity:1"/>
<path class="bond-26 atom-25 atom-27" d="M 984.3,254.2 L 979.7,266.3" style="fill:none;fill-rule:evenodd;stroke:#0000FF;stroke-width:2.0px;stroke-linecap:butt;stroke-linejoin:miter;stroke-opacity:1"/>
<path class="bond-27 atom-27 atom-1" d="M 977.4,275.2 L 962.3,277.7" style="fill:none;fill-rule:evenodd;stroke:#0000FF;stroke-width:2.0px;stroke-linecap:butt;stroke-linejoin:miter;stroke-opacity:1"/>
<path class="bond-27 atom-27 atom-1" d="M 962.3,277.7 L 947.2,280.1" style="fill:none;fill-rule:evenodd;stroke:#000000;stroke-width:2.0px;stroke-linecap:butt;stroke-linejoin:miter;stroke-opacity:1"/>
<path class="bond-28 atom-13 atom-4" d="M 922.1,163.4 L 916.3,185.4" style="fill:none;fill-rule:evenodd;stroke:#0000FF;stroke-width:2.0px;stroke-linecap:butt;stroke-linejoin:miter;stroke-opacity:1"/>
<path class="bond-29 atom-12 atom-8" d="M 914.3,83.8 L 896.7,98.2" style="fill:none;fill-rule:evenodd;stroke:#0000FF;stroke-width:2.0px;stroke-linecap:butt;stroke-linejoin:miter;stroke-opacity:1"/>
<path d="M 925.7,253.9 L 924.6,252.6 L 925.2,250.9" style="fill:none;stroke:#000000;stroke-width:2.0px;stroke-linecap:butt;stroke-linejoin:miter;stroke-opacity:1;"/>
<path d="M 879.8,193.6 L 879.1,193.7 L 878.4,192.0" style="fill:none;stroke:#000000;stroke-width:2.0px;stroke-linecap:butt;stroke-linejoin:miter;stroke-opacity:1;"/>
<path d="M 866.8,162.1 L 866.1,160.5 L 867.5,159.3" style="fill:none;stroke:#000000;stroke-width:2.0px;stroke-linecap:butt;stroke-linejoin:miter;stroke-opacity:1;"/>
<path d="M 862.3,83.4 L 861.7,83.0 L 862.1,81.3" style="fill:none;stroke:#000000;stroke-width:2.0px;stroke-linecap:butt;stroke-linejoin:miter;stroke-opacity:1;"/>
<path d="M 870.3,50.3 L 870.7,48.6 L 872.5,48.5" style="fill:none;stroke:#000000;stroke-width:2.0px;stroke-linecap:butt;stroke-linejoin:miter;stroke-opacity:1;"/>
<path d="M 904.5,46.6 L 906.3,46.5 L 906.6,47.2" style="fill:none;stroke:#000000;stroke-width:2.0px;stroke-linecap:butt;stroke-linejoin:miter;stroke-opacity:1;"/>
<path d="M 984.4,181.8 L 985.0,180.1 L 986.8,179.8" style="fill:none;stroke:#000000;stroke-width:2.0px;stroke-linecap:butt;stroke-linejoin:miter;stroke-opacity:1;"/>
<path d="M 1018.4,174.7 L 1020.2,174.4 L 1020.4,173.7" style="fill:none;stroke:#000000;stroke-width:2.0px;stroke-linecap:butt;stroke-linejoin:miter;stroke-opacity:1;"/>
<path class="atom-4" d="M 912.4 186.6 L 915.7 191.9 Q 916.1 192.5, 916.6 193.4 Q 917.1 194.4, 917.1 194.4 L 917.1 186.6 L 918.5 186.6 L 918.5 196.7 L 917.1 196.7 L 913.5 190.8 Q 913.1 190.1, 912.7 189.4 Q 912.3 188.6, 912.1 188.3 L 912.1 196.7 L 910.8 196.7 L 910.8 186.6 L 912.4 186.6 " fill="#0000FF"/>
<path class="atom-8" d="M 889.4 97.3 L 892.7 102.6 Q 893.1 103.1, 893.6 104.1 Q 894.1 105.0, 894.2 105.1 L 894.2 97.3 L 895.5 97.3 L 895.5 107.3 L 894.1 107.3 L 890.6 101.5 Q 890.1 100.8, 889.7 100.0 Q 889.3 99.2, 889.2 99.0 L 889.2 107.3 L 887.8 107.3 L 887.8 97.3 L 889.4 97.3 " fill="#0000FF"/>
<path class="atom-12" d="M 917.0 74.7 L 920.3 80.0 Q 920.7 80.6, 921.2 81.5 Q 921.7 82.5, 921.7 82.5 L 921.7 74.7 L 923.1 74.7 L 923.1 84.8 L 921.7 84.8 L 918.2 78.9 Q 917.7 78.2, 917.3 77.5 Q 916.9 76.7, 916.7 76.4 L 916.7 84.8 L 915.4 84.8 L 915.4 74.7 L 917.0 74.7 " fill="#0000FF"/>
<path class="atom-13" d="M 921.5 152.1 L 924.8 157.4 Q 925.1 158.0, 925.6 158.9 Q 926.2 159.9, 926.2 159.9 L 926.2 152.1 L 927.5 152.1 L 927.5 162.2 L 926.1 162.2 L 922.6 156.4 Q 922.2 155.7, 921.7 154.9 Q 921.3 154.1, 921.2 153.9 L 921.2 162.2 L 919.9 162.2 L 919.9 152.1 L 921.5 152.1 " fill="#0000FF"/>
<path class="atom-17" d="M 1028.2 141.1 Q 1028.2 138.6, 1029.4 137.3 Q 1030.6 135.9, 1032.8 135.9 Q 1035.0 135.9, 1036.2 137.3 Q 1037.4 138.6, 1037.4 141.1 Q 1037.4 143.5, 1036.2 144.9 Q 1035.0 146.3, 1032.8 146.3 Q 1030.6 146.3, 1029.4 144.9 Q 1028.2 143.5, 1028.2 141.1 M 1032.8 145.1 Q 1034.3 145.1, 1035.2 144.1 Q 1036.0 143.1, 1036.0 141.1 Q 1036.0 139.1, 1035.2 138.1 Q 1034.3 137.1, 1032.8 137.1 Q 1031.3 137.1, 1030.4 138.1 Q 1029.6 139.1, 1029.6 141.1 Q 1029.6 143.1, 1030.4 144.1 Q 1031.3 145.1, 1032.8 145.1 " fill="#FF0000"/>
<path class="atom-18" d="M 1063.9 138.8 Q 1064.0 138.8, 1064.5 139.0 Q 1065.0 139.2, 1065.5 139.3 Q 1066.0 139.4, 1066.5 139.4 Q 1067.5 139.4, 1068.1 139.0 Q 1068.6 138.5, 1068.6 137.7 Q 1068.6 137.1, 1068.3 136.8 Q 1068.1 136.5, 1067.6 136.3 Q 1067.2 136.1, 1066.5 135.9 Q 1065.6 135.6, 1065.0 135.3 Q 1064.5 135.1, 1064.1 134.5 Q 1063.8 134.0, 1063.8 133.1 Q 1063.8 131.8, 1064.6 131.0 Q 1065.5 130.3, 1067.2 130.3 Q 1068.4 130.3, 1069.7 130.8 L 1069.4 131.9 Q 1068.2 131.4, 1067.2 131.4 Q 1066.3 131.4, 1065.7 131.8 Q 1065.2 132.2, 1065.2 132.9 Q 1065.2 133.5, 1065.5 133.8 Q 1065.7 134.1, 1066.1 134.3 Q 1066.6 134.5, 1067.2 134.7 Q 1068.2 135.0, 1068.7 135.3 Q 1069.2 135.6, 1069.6 136.1 Q 1070.0 136.7, 1070.0 137.7 Q 1070.0 139.1, 1069.1 139.8 Q 1068.2 140.6, 1066.6 140.6 Q 1065.7 140.6, 1065.0 140.4 Q 1064.3 140.2, 1063.5 139.9 L 1063.9 138.8 " fill="#000000"/>
<path class="atom-18" d="M 1071.1 130.2 L 1072.4 130.2 L 1072.4 131.5 L 1071.1 131.5 L 1071.1 130.2 M 1071.1 133.0 L 1072.4 133.0 L 1072.4 140.3 L 1071.1 140.3 L 1071.1 133.0 " fill="#000000"/>
<path class="atom-26" d="M 1026.3 235.6 Q 1026.3 233.1, 1027.4 231.8 Q 1028.6 230.5, 1030.8 230.5 Q 1032.9 230.5, 1034.0 232.0 L 1033.1 232.7 Q 1032.3 231.7, 1030.8 231.7 Q 1029.3 231.7, 1028.5 232.7 Q 1027.7 233.7, 1027.7 235.6 Q 1027.7 237.6, 1028.5 238.7 Q 1029.4 239.7, 1031.0 239.7 Q 1032.1 239.7, 1033.4 239.0 L 1033.8 240.1 Q 1033.3 240.4, 1032.5 240.6 Q 1031.7 240.8, 1030.8 240.8 Q 1028.6 240.8, 1027.4 239.5 Q 1026.3 238.2, 1026.3 235.6 " fill="#00CC00"/>
<path class="atom-26" d="M 1035.1 229.9 L 1036.4 229.9 L 1036.4 240.7 L 1035.1 240.7 L 1035.1 229.9 " fill="#00CC00"/>
<path class="atom-27" d="M 980.1 269.3 L 983.4 274.7 Q 983.8 275.2, 984.3 276.2 Q 984.8 277.1, 984.9 277.2 L 984.9 269.3 L 986.2 269.3 L 986.2 279.4 L 984.8 279.4 L 981.3 273.6 Q 980.8 272.9, 980.4 272.1 Q 980.0 271.3, 979.8 271.1 L 979.8 279.4 L 978.5 279.4 L 978.5 269.3 L 980.1 269.3 " fill="#0000FF"/>
<path class="legend" d="M 975.0 385.7 Q 975.0 383.7, 976.0 382.6 Q 977.1 381.5, 978.9 381.5 Q 980.7 381.5, 981.5 382.6 Q 982.3 383.7, 982.3 385.7 L 982.3 386.0 L 976.6 386.0 Q 976.6 387.3, 977.2 388.1 Q 977.9 388.8, 979.0 388.8 Q 979.7 388.8, 980.3 388.7 Q 980.8 388.5, 981.6 388.2 L 982.0 389.2 Q 981.2 389.6, 980.4 389.8 Q 979.7 390.0, 978.9 390.0 Q 977.1 390.0, 976.1 388.9 Q 975.0 387.8, 975.0 385.7 M 978.9 382.7 Q 978.0 382.7, 977.4 383.2 Q 976.8 383.8, 976.6 384.8 L 980.7 384.8 Q 980.6 383.7, 980.2 383.2 Q 979.7 382.7, 978.9 382.7 " fill="#000000"/>
<path class="legend" d="M 983.6 377.7 L 985.1 377.7 L 985.1 389.9 L 983.6 389.9 L 983.6 377.7 " fill="#000000"/>
<path class="legend" d="M 987.2 380.7 Q 987.6 379.6, 988.6 379.0 Q 989.6 378.4, 991.0 378.4 Q 992.7 378.4, 993.6 379.3 Q 994.6 380.3, 994.6 381.9 Q 994.6 383.6, 993.4 385.2 Q 992.1 386.7, 989.6 388.6 L 994.8 388.6 L 994.8 389.9 L 987.2 389.9 L 987.2 388.8 Q 989.3 387.3, 990.5 386.2 Q 991.8 385.1, 992.4 384.0 Q 993.0 383.0, 993.0 382.0 Q 993.0 380.9, 992.5 380.3 Q 991.9 379.7, 991.0 379.7 Q 990.1 379.7, 989.5 380.1 Q 988.8 380.4, 988.4 381.2 L 987.2 380.7 " fill="#000000"/>
<path class="legend" d="M 1003.8 386.0 L 1005.2 386.0 L 1005.2 387.3 L 1003.8 387.3 L 1003.8 389.9 L 1002.3 389.9 L 1002.3 387.3 L 996.5 387.3 L 996.5 386.3 L 1001.4 378.5 L 1003.8 378.5 L 1003.8 386.0 M 998.3 386.0 L 1002.3 386.0 L 1002.3 379.6 L 998.3 386.0 " fill="#000000"/>
<path class="legend" d="M 1010.8 390.0 Q 1008.7 390.0, 1007.7 388.5 Q 1006.6 386.9, 1006.6 384.2 Q 1006.6 381.5, 1007.7 379.9 Q 1008.7 378.4, 1010.8 378.4 Q 1012.9 378.4, 1013.9 379.9 Q 1014.9 381.5, 1014.9 384.2 Q 1014.9 386.9, 1013.9 388.5 Q 1012.9 390.0, 1010.8 390.0 M 1010.8 388.7 Q 1012.0 388.7, 1012.7 387.6 Q 1013.3 386.4, 1013.3 384.2 Q 1013.3 382.0, 1012.7 380.8 Q 1012.0 379.7, 1010.8 379.7 Q 1009.6 379.7, 1008.9 380.8 Q 1008.2 382.0, 1008.2 384.2 Q 1008.2 386.4, 1008.9 387.6 Q 1009.6 388.7, 1010.8 388.7 " fill="#000000"/>
<path class="legend" d="M 1020.8 390.0 Q 1018.7 390.0, 1017.7 388.5 Q 1016.7 386.9, 1016.7 384.2 Q 1016.7 381.5, 1017.7 379.9 Q 1018.7 378.4, 1020.8 378.4 Q 1022.9 378.4, 1023.9 379.9 Q 1025.0 381.5, 1025.0 384.2 Q 1025.0 386.9, 1023.9 388.5 Q 1022.9 390.0, 1020.8 390.0 M 1020.8 388.7 Q 1022.0 388.7, 1022.7 387.6 Q 1023.4 386.4, 1023.4 384.2 Q 1023.4 382.0, 1022.7 380.8 Q 1022.0 379.7, 1020.8 379.7 Q 1019.6 379.7, 1018.9 380.8 Q 1018.3 382.0, 1018.3 384.2 Q 1018.3 386.4, 1018.9 387.6 Q 1019.6 388.7, 1020.8 388.7 " fill="#000000"/>
<path class="bond-0 atom-0 atom-1" d="M 1218.2,189.3 L 1232.1,194.1" style="fill:none;fill-rule:evenodd;stroke:#000000;stroke-width:2.0px;stroke-linecap:butt;stroke-linejoin:miter;stroke-opacity:1"/>
<path class="bond-0 atom-0 atom-1" d="M 1232.1,194.1 L 1246.1,198.9" style="fill:none;fill-rule:evenodd;stroke:#FF0000;stroke-width:2.0px;stroke-linecap:butt;stroke-linejoin:miter;stroke-opacity:1"/>
<path class="bond-1 atom-1 atom-2" d="M 1257.7,195.9 L 1268.2,186.7" style="fill:none;fill-rule:evenodd;stroke:#FF0000;stroke-width:2.0px;stroke-linecap:butt;stroke-linejoin:miter;stroke-opacity:1"/>
<path class="bond-1 atom-1 atom-2" d="M 1268.2,186.7 L 1278.8,177.6" style="fill:none;fill-rule:evenodd;stroke:#000000;stroke-width:2.0px;stroke-linecap:butt;stroke-linejoin:miter;stroke-opacity:1"/>
<path class="bond-2 atom-2 atom-3" d="M 1278.8,177.6 L 1272.0,142.6" style="fill:none;fill-rule:evenodd;stroke:#000000;stroke-width:2.0px;stroke-linecap:butt;stroke-linejoin:miter;stroke-opacity:1"/>
<path class="bond-2 atom-2 atom-3" d="M 1283.4,173.5 L 1277.8,144.6" style="fill:none;fill-rule:evenodd;stroke:#000000;stroke-width:2.0px;stroke-linecap:butt;stroke-linejoin:miter;stroke-opacity:1"/>
<path class="bond-3 atom-3 atom-4" d="M 1272.0,142.6 L 1298.9,119.2" style="fill:none;fill-rule:evenodd;stroke:#000000;stroke-width:2.0px;stroke-linecap:butt;stroke-linejoin:miter;stroke-opacity:1"/>
<path class="bond-4 atom-4 atom-5" d="M 1298.9,119.2 L 1332.6,130.8" style="fill:none;fill-rule:evenodd;stroke:#000000;stroke-width:2.0px;stroke-linecap:butt;stroke-linejoin:miter;stroke-opacity:1"/>
<path class="bond-4 atom-4 atom-5" d="M 1300.1,125.2 L 1327.9,134.8" style="fill:none;fill-rule:evenodd;stroke:#000000;stroke-width:2.0px;stroke-linecap:butt;stroke-linejoin:miter;stroke-opacity:1"/>
<path class="bond-5 atom-5 atom-6" d="M 1332.6,130.8 L 1359.5,107.4" style="fill:none;fill-rule:evenodd;stroke:#000000;stroke-width:2.0px;stroke-linecap:butt;stroke-linejoin:miter;stroke-opacity:1"/>
<path class="bond-6 atom-6 atom-7" d="M 1359.5,107.4 L 1373.8,112.4" style="fill:none;fill-rule:evenodd;stroke:#000000;stroke-width:2.0px;stroke-linecap:butt;stroke-linejoin:miter;stroke-opacity:1"/>
<path class="bond-6 atom-6 atom-7" d="M 1373.8,112.4 L 1388.2,117.3" style="fill:none;fill-rule:evenodd;stroke:#0000FF;stroke-width:2.0px;stroke-linecap:butt;stroke-linejoin:miter;stroke-opacity:1"/>
<path class="bond-7 atom-7 atom-8" d="M 1398.2,114.7 L 1409.2,105.2" style="fill:none;fill-rule:evenodd;stroke:#0000FF;stroke-width:2.0px;stroke-linecap:butt;stroke-linejoin:miter;stroke-opacity:1"/>
<path class="bond-7 atom-7 atom-8" d="M 1409.2,105.2 L 1420.1,95.6" style="fill:none;fill-rule:evenodd;stroke:#000000;stroke-width:2.0px;stroke-linecap:butt;stroke-linejoin:miter;stroke-opacity:1"/>
<path class="bond-8 atom-8 atom-9" d="M 1420.1,95.6 L 1453.8,107.2" style="fill:none;fill-rule:evenodd;stroke:#000000;stroke-width:2.0px;stroke-linecap:butt;stroke-linejoin:miter;stroke-opacity:1"/>
<path class="bond-9 atom-9 atom-10" d="M 1453.8,107.2 L 1460.6,142.2" style="fill:none;fill-rule:evenodd;stroke:#000000;stroke-width:2.0px;stroke-linecap:butt;stroke-linejoin:miter;stroke-opacity:1"/>
<path class="bond-9 atom-9 atom-10" d="M 1459.6,109.3 L 1465.3,138.2" style="fill:none;fill-rule:evenodd;stroke:#000000;stroke-width:2.0px;stroke-linecap:butt;stroke-linejoin:miter;stroke-opacity:1"/>
<path class="bond-10 atom-10 atom-11" d="M 1460.6,142.2 L 1494.3,153.8" style="fill:none;fill-rule:evenodd;stroke:#000000;stroke-width:2.0px;stroke-linecap:butt;stroke-linejoin:miter;stroke-opacity:1"/>
<path class="bond-11 atom-11 atom-12" d="M 1494.3,153.8 L 1521.2,130.5" style="fill:none;fill-rule:evenodd;stroke:#000000;stroke-width:2.0px;stroke-linecap:butt;stroke-linejoin:miter;stroke-opacity:1"/>
<path class="bond-11 atom-11 atom-12" d="M 1493.1,147.8 L 1515.4,128.5" style="fill:none;fill-rule:evenodd;stroke:#000000;stroke-width:2.0px;stroke-linecap:butt;stroke-linejoin:miter;stroke-opacity:1"/>
<path class="bond-12 atom-12 atom-13" d="M 1521.2,130.5 L 1535.2,135.3" style="fill:none;fill-rule:evenodd;stroke:#000000;stroke-width:2.0px;stroke-linecap:butt;stroke-linejoin:miter;stroke-opacity:1"/>
<path class="bond-12 atom-12 atom-13" d="M 1535.2,135.3 L 1549.1,140.1" style="fill:none;fill-rule:evenodd;stroke:#FF0000;stroke-width:2.0px;stroke-linecap:butt;stroke-linejoin:miter;stroke-opacity:1"/>
<path class="bond-13 atom-13 atom-14" d="M 1560.7,137.0 L 1571.3,127.9" style="fill:none;fill-rule:evenodd;stroke:#FF0000;stroke-width:2.0px;stroke-linecap:butt;stroke-linejoin:miter;stroke-opacity:1"/>
<path class="bond-13 atom-13 atom-14" d="M 1571.3,127.9 L 1581.8,118.7" style="fill:none;fill-rule:evenodd;stroke:#000000;stroke-width:2.0px;stroke-linecap:butt;stroke-linejoin:miter;stroke-opacity:1"/>
<path class="bond-14 atom-12 atom-15" d="M 1521.2,130.5 L 1514.4,95.5" style="fill:none;fill-rule:evenodd;stroke:#000000;stroke-width:2.0px;stroke-linecap:butt;stroke-linejoin:miter;stroke-opacity:1"/>
<path class="bond-15 atom-15 atom-16" d="M 1514.4,95.5 L 1480.7,83.9" style="fill:none;fill-rule:evenodd;stroke:#000000;stroke-width:2.0px;stroke-linecap:butt;stroke-linejoin:miter;stroke-opacity:1"/>
<path class="bond-15 atom-15 atom-16" d="M 1509.8,99.5 L 1481.9,89.9" style="fill:none;fill-rule:evenodd;stroke:#000000;stroke-width:2.0px;stroke-linecap:butt;stroke-linejoin:miter;stroke-opacity:1"/>
<path class="bond-16 atom-7 atom-17" d="M 1394.4,125.2 L 1397.2,139.6" style="fill:none;fill-rule:evenodd;stroke:#0000FF;stroke-width:2.0px;stroke-linecap:butt;stroke-linejoin:miter;stroke-opacity:1"/>
<path class="bond-16 atom-7 atom-17" d="M 1397.2,139.6 L 1400.0,154.0" style="fill:none;fill-rule:evenodd;stroke:#000000;stroke-width:2.0px;stroke-linecap:butt;stroke-linejoin:miter;stroke-opacity:1"/>
<path class="bond-17 atom-17 atom-18" d="M 1400.0,154.0 L 1389.1,163.5" style="fill:none;fill-rule:evenodd;stroke:#000000;stroke-width:2.0px;stroke-linecap:butt;stroke-linejoin:miter;stroke-opacity:1"/>
<path class="bond-17 atom-17 atom-18" d="M 1389.1,163.5 L 1378.1,173.0" style="fill:none;fill-rule:evenodd;stroke:#0000FF;stroke-width:2.0px;stroke-linecap:butt;stroke-linejoin:miter;stroke-opacity:1"/>
<path class="bond-17 atom-17 atom-18" d="M 1401.2,160.1 L 1391.4,168.6" style="fill:none;fill-rule:evenodd;stroke:#000000;stroke-width:2.0px;stroke-linecap:butt;stroke-linejoin:miter;stroke-opacity:1"/>
<path class="bond-17 atom-17 atom-18" d="M 1391.4,168.6 L 1381.6,177.1" style="fill:none;fill-rule:evenodd;stroke:#0000FF;stroke-width:2.0px;stroke-linecap:butt;stroke-linejoin:miter;stroke-opacity:1"/>
<path class="bond-18 atom-18 atom-19" d="M 1374.3,183.6 L 1377.1,198.0" style="fill:none;fill-rule:evenodd;stroke:#0000FF;stroke-width:2.0px;stroke-linecap:butt;stroke-linejoin:miter;stroke-opacity:1"/>
<path class="bond-18 atom-18 atom-19" d="M 1377.1,198.0 L 1379.9,212.4" style="fill:none;fill-rule:evenodd;stroke:#000000;stroke-width:2.0px;stroke-linecap:butt;stroke-linejoin:miter;stroke-opacity:1"/>
<path class="bond-19 atom-19 atom-20" d="M 1379.9,212.4 L 1353.0,235.8" style="fill:none;fill-rule:evenodd;stroke:#000000;stroke-width:2.0px;stroke-linecap:butt;stroke-linejoin:miter;stroke-opacity:1"/>
<path class="bond-20 atom-19 atom-21" d="M 1379.9,212.4 L 1394.2,217.3" style="fill:none;fill-rule:evenodd;stroke:#000000;stroke-width:2.0px;stroke-linecap:butt;stroke-linejoin:miter;stroke-opacity:1"/>
<path class="bond-20 atom-19 atom-21" d="M 1394.2,217.3 L 1408.6,222.3" style="fill:none;fill-rule:evenodd;stroke:#0000FF;stroke-width:2.0px;stroke-linecap:butt;stroke-linejoin:miter;stroke-opacity:1"/>
<path class="bond-20 atom-19 atom-21" d="M 1384.6,208.3 L 1397.4,212.8" style="fill:none;fill-rule:evenodd;stroke:#000000;stroke-width:2.0px;stroke-linecap:butt;stroke-linejoin:miter;stroke-opacity:1"/>
<path class="bond-20 atom-19 atom-21" d="M 1397.4,212.8 L 1410.3,217.2" style="fill:none;fill-rule:evenodd;stroke:#0000FF;stroke-width:2.0px;stroke-linecap:butt;stroke-linejoin:miter;stroke-opacity:1"/>
<path class="bond-21 atom-21 atom-22" d="M 1418.6,219.6 L 1429.6,210.1" style="fill:none;fill-rule:evenodd;stroke:#0000FF;stroke-width:2.0px;stroke-linecap:butt;stroke-linejoin:miter;stroke-opacity:1"/>
<path class="bond-21 atom-21 atom-22" d="M 1429.6,210.1 L 1440.5,200.6" style="fill:none;fill-rule:evenodd;stroke:#000000;stroke-width:2.0px;stroke-linecap:butt;stroke-linejoin:miter;stroke-opacity:1"/>
<path class="bond-22 atom-22 atom-23" d="M 1440.5,200.6 L 1474.2,212.2" style="fill:none;fill-rule:evenodd;stroke:#000000;stroke-width:2.0px;stroke-linecap:butt;stroke-linejoin:miter;stroke-opacity:1"/>
<path class="bond-23 atom-23 atom-24" d="M 1474.2,212.2 L 1501.1,188.8" style="fill:none;fill-rule:evenodd;stroke:#000000;stroke-width:2.0px;stroke-linecap:butt;stroke-linejoin:miter;stroke-opacity:1"/>
<path class="bond-23 atom-23 atom-24" d="M 1480.0,214.2 L 1502.3,194.9" style="fill:none;fill-rule:evenodd;stroke:#000000;stroke-width:2.0px;stroke-linecap:butt;stroke-linejoin:miter;stroke-opacity:1"/>
<path class="bond-24 atom-24 atom-25" d="M 1501.1,188.8 L 1534.8,200.4" style="fill:none;fill-rule:evenodd;stroke:#000000;stroke-width:2.0px;stroke-linecap:butt;stroke-linejoin:miter;stroke-opacity:1"/>
<path class="bond-25 atom-25 atom-26" d="M 1534.8,200.4 L 1537.6,214.8" style="fill:none;fill-rule:evenodd;stroke:#000000;stroke-width:2.0px;stroke-linecap:butt;stroke-linejoin:miter;stroke-opacity:1"/>
<path class="bond-25 atom-25 atom-26" d="M 1537.6,214.8 L 1540.4,229.2" style="fill:none;fill-rule:evenodd;stroke:#0000FF;stroke-width:2.0px;stroke-linecap:butt;stroke-linejoin:miter;stroke-opacity:1"/>
<path class="bond-25 atom-25 atom-26" d="M 1530.1,204.5 L 1532.6,217.4" style="fill:none;fill-rule:evenodd;stroke:#000000;stroke-width:2.0px;stroke-linecap:butt;stroke-linejoin:miter;stroke-opacity:1"/>
<path class="bond-25 atom-25 atom-26" d="M 1532.6,217.4 L 1535.1,230.2" style="fill:none;fill-rule:evenodd;stroke:#0000FF;stroke-width:2.0px;stroke-linecap:butt;stroke-linejoin:miter;stroke-opacity:1"/>
<path class="bond-26 atom-26 atom-27" d="M 1536.6,239.8 L 1525.7,249.3" style="fill:none;fill-rule:evenodd;stroke:#0000FF;stroke-width:2.0px;stroke-linecap:butt;stroke-linejoin:miter;stroke-opacity:1"/>
<path class="bond-26 atom-26 atom-27" d="M 1525.7,249.3 L 1514.7,258.8" style="fill:none;fill-rule:evenodd;stroke:#000000;stroke-width:2.0px;stroke-linecap:butt;stroke-linejoin:miter;stroke-opacity:1"/>
<path class="bond-27 atom-27 atom-28" d="M 1514.7,258.8 L 1481.0,247.2" style="fill:none;fill-rule:evenodd;stroke:#000000;stroke-width:2.0px;stroke-linecap:butt;stroke-linejoin:miter;stroke-opacity:1"/>
<path class="bond-27 atom-27 atom-28" d="M 1513.5,252.8 L 1485.7,243.2" style="fill:none;fill-rule:evenodd;stroke:#000000;stroke-width:2.0px;stroke-linecap:butt;stroke-linejoin:miter;stroke-opacity:1"/>
<path class="bond-28 atom-28 atom-29" d="M 1481.0,247.2 L 1468.5,258.1" style="fill:none;fill-rule:evenodd;stroke:#000000;stroke-width:2.0px;stroke-linecap:butt;stroke-linejoin:miter;stroke-opacity:1"/>
<path class="bond-28 atom-28 atom-29" d="M 1468.5,258.1 L 1455.9,269.0" style="fill:none;fill-rule:evenodd;stroke:#00CC00;stroke-width:2.0px;stroke-linecap:butt;stroke-linejoin:miter;stroke-opacity:1"/>
<path class="bond-29 atom-22 atom-30" d="M 1440.5,200.6 L 1437.7,186.2" style="fill:none;fill-rule:evenodd;stroke:#000000;stroke-width:2.0px;stroke-linecap:butt;stroke-linejoin:miter;stroke-opacity:1"/>
<path class="bond-29 atom-22 atom-30" d="M 1437.7,186.2 L 1434.9,171.8" style="fill:none;fill-rule:evenodd;stroke:#0000FF;stroke-width:2.0px;stroke-linecap:butt;stroke-linejoin:miter;stroke-opacity:1"/>
<path class="bond-29 atom-22 atom-30" d="M 1434.7,198.6 L 1432.2,185.7" style="fill:none;fill-rule:evenodd;stroke:#000000;stroke-width:2.0px;stroke-linecap:butt;stroke-linejoin:miter;stroke-opacity:1"/>
<path class="bond-29 atom-22 atom-30" d="M 1432.2,185.7 L 1429.7,172.9" style="fill:none;fill-rule:evenodd;stroke:#0000FF;stroke-width:2.0px;stroke-linecap:butt;stroke-linejoin:miter;stroke-opacity:1"/>
<path class="bond-30 atom-5 atom-31" d="M 1332.6,130.8 L 1339.4,165.8" style="fill:none;fill-rule:evenodd;stroke:#000000;stroke-width:2.0px;stroke-linecap:butt;stroke-linejoin:miter;stroke-opacity:1"/>
<path class="bond-31 atom-31 atom-32" d="M 1339.4,165.8 L 1312.5,189.2" style="fill:none;fill-rule:evenodd;stroke:#000000;stroke-width:2.0px;stroke-linecap:butt;stroke-linejoin:miter;stroke-opacity:1"/>
<path class="bond-31 atom-31 atom-32" d="M 1333.6,163.8 L 1311.3,183.1" style="fill:none;fill-rule:evenodd;stroke:#000000;stroke-width:2.0px;stroke-linecap:butt;stroke-linejoin:miter;stroke-opacity:1"/>
<path class="bond-32 atom-32 atom-2" d="M 1312.5,189.2 L 1278.8,177.6" style="fill:none;fill-rule:evenodd;stroke:#000000;stroke-width:2.0px;stroke-linecap:butt;stroke-linejoin:miter;stroke-opacity:1"/>
<path class="bond-33 atom-16 atom-9" d="M 1480.7,83.9 L 1453.8,107.2" style="fill:none;fill-rule:evenodd;stroke:#000000;stroke-width:2.0px;stroke-linecap:butt;stroke-linejoin:miter;stroke-opacity:1"/>
<path class="bond-34 atom-30 atom-17" d="M 1428.7,163.9 L 1414.3,159.0" style="fill:none;fill-rule:evenodd;stroke:#0000FF;stroke-width:2.0px;stroke-linecap:butt;stroke-linejoin:miter;stroke-opacity:1"/>
<path class="bond-34 atom-30 atom-17" d="M 1414.3,159.0 L 1400.0,154.0" style="fill:none;fill-rule:evenodd;stroke:#000000;stroke-width:2.0px;stroke-linecap:butt;stroke-linejoin:miter;stroke-opacity:1"/>
<path class="bond-35 atom-28 atom-23" d="M 1481.0,247.2 L 1474.2,212.2" style="fill:none;fill-rule:evenodd;stroke:#000000;stroke-width:2.0px;stroke-linecap:butt;stroke-linejoin:miter;stroke-opacity:1"/>
<path d="M 1272.3,144.3 L 1272.0,142.6 L 1273.3,141.4" style="fill:none;stroke:#000000;stroke-width:2.0px;stroke-linecap:butt;stroke-linejoin:miter;stroke-opacity:1;"/>
<path d="M 1297.5,120.4 L 1298.9,119.2 L 1300.6,119.8" style="fill:none;stroke:#000000;stroke-width:2.0px;stroke-linecap:butt;stroke-linejoin:miter;stroke-opacity:1;"/>
<path d="M 1358.2,108.6 L 1359.5,107.4 L 1360.2,107.7" style="fill:none;stroke:#000000;stroke-width:2.0px;stroke-linecap:butt;stroke-linejoin:miter;stroke-opacity:1;"/>
<path d="M 1419.6,96.1 L 1420.1,95.6 L 1421.8,96.2" style="fill:none;stroke:#000000;stroke-width:2.0px;stroke-linecap:butt;stroke-linejoin:miter;stroke-opacity:1;"/>
<path d="M 1460.3,140.5 L 1460.6,142.2 L 1462.3,142.8" style="fill:none;stroke:#000000;stroke-width:2.0px;stroke-linecap:butt;stroke-linejoin:miter;stroke-opacity:1;"/>
<path d="M 1492.6,153.3 L 1494.3,153.8 L 1495.7,152.7" style="fill:none;stroke:#000000;stroke-width:2.0px;stroke-linecap:butt;stroke-linejoin:miter;stroke-opacity:1;"/>
<path d="M 1514.8,97.2 L 1514.4,95.5 L 1512.7,94.9" style="fill:none;stroke:#000000;stroke-width:2.0px;stroke-linecap:butt;stroke-linejoin:miter;stroke-opacity:1;"/>
<path d="M 1482.4,84.4 L 1480.7,83.9 L 1479.4,85.0" style="fill:none;stroke:#000000;stroke-width:2.0px;stroke-linecap:butt;stroke-linejoin:miter;stroke-opacity:1;"/>
<path d="M 1499.8,190.0 L 1501.1,188.8 L 1502.8,189.4" style="fill:none;stroke:#000000;stroke-width:2.0px;stroke-linecap:butt;stroke-linejoin:miter;stroke-opacity:1;"/>
<path d="M 1533.1,199.9 L 1534.8,200.4 L 1534.9,201.2" style="fill:none;stroke:#000000;stroke-width:2.0px;stroke-linecap:butt;stroke-linejoin:miter;stroke-opacity:1;"/>
<path d="M 1515.2,258.3 L 1514.7,258.8 L 1513.0,258.2" style="fill:none;stroke:#000000;stroke-width:2.0px;stroke-linecap:butt;stroke-linejoin:miter;stroke-opacity:1;"/>
<path d="M 1339.1,164.0 L 1339.4,165.8 L 1338.0,167.0" style="fill:none;stroke:#000000;stroke-width:2.0px;stroke-linecap:butt;stroke-linejoin:miter;stroke-opacity:1;"/>
<path d="M 1313.8,188.0 L 1312.5,189.2 L 1310.8,188.6" style="fill:none;stroke:#000000;stroke-width:2.0px;stroke-linecap:butt;stroke-linejoin:miter;stroke-opacity:1;"/>
<path class="atom-1" d="M 1247.2 201.0 Q 1247.2 198.5, 1248.4 197.2 Q 1249.6 195.8, 1251.9 195.8 Q 1254.1 195.8, 1255.3 197.2 Q 1256.5 198.5, 1256.5 201.0 Q 1256.5 203.4, 1255.3 204.8 Q 1254.1 206.2, 1251.9 206.2 Q 1249.7 206.2, 1248.4 204.8 Q 1247.2 203.4, 1247.2 201.0 M 1251.9 205.1 Q 1253.4 205.1, 1254.3 204.0 Q 1255.1 203.0, 1255.1 201.0 Q 1255.1 199.0, 1254.3 198.0 Q 1253.4 197.0, 1251.9 197.0 Q 1250.3 197.0, 1249.5 198.0 Q 1248.7 199.0, 1248.7 201.0 Q 1248.7 203.0, 1249.5 204.0 Q 1250.3 205.1, 1251.9 205.1 " fill="#FF0000"/>
<path class="atom-7" d="M 1391.0 114.0 L 1394.3 119.3 Q 1394.6 119.8, 1395.1 120.8 Q 1395.7 121.8, 1395.7 121.8 L 1395.7 114.0 L 1397.0 114.0 L 1397.0 124.1 L 1395.6 124.1 L 1392.1 118.2 Q 1391.7 117.5, 1391.2 116.8 Q 1390.8 116.0, 1390.7 115.7 L 1390.7 124.1 L 1389.4 124.1 L 1389.4 114.0 L 1391.0 114.0 " fill="#0000FF"/>
<path class="atom-13" d="M 1550.3 142.1 Q 1550.3 139.7, 1551.5 138.3 Q 1552.7 137.0, 1554.9 137.0 Q 1557.2 137.0, 1558.4 138.3 Q 1559.5 139.7, 1559.5 142.1 Q 1559.5 144.6, 1558.3 146.0 Q 1557.1 147.3, 1554.9 147.3 Q 1552.7 147.3, 1551.5 146.0 Q 1550.3 144.6, 1550.3 142.1 M 1554.9 146.2 Q 1556.5 146.2, 1557.3 145.2 Q 1558.1 144.1, 1558.1 142.1 Q 1558.1 140.1, 1557.3 139.1 Q 1556.5 138.1, 1554.9 138.1 Q 1553.4 138.1, 1552.5 139.1 Q 1551.7 140.1, 1551.7 142.1 Q 1551.7 144.1, 1552.5 145.2 Q 1553.4 146.2, 1554.9 146.2 " fill="#FF0000"/>
<path class="atom-18" d="M 1370.9 172.3 L 1374.2 177.7 Q 1374.5 178.2, 1375.0 179.2 Q 1375.6 180.1, 1375.6 180.2 L 1375.6 172.3 L 1376.9 172.3 L 1376.9 182.4 L 1375.5 182.4 L 1372.0 176.6 Q 1371.6 175.9, 1371.1 175.1 Q 1370.7 174.3, 1370.6 174.1 L 1370.6 182.4 L 1369.3 182.4 L 1369.3 172.3 L 1370.9 172.3 " fill="#0000FF"/>
<path class="atom-21" d="M 1411.4 218.9 L 1414.7 224.3 Q 1415.0 224.8, 1415.5 225.8 Q 1416.1 226.7, 1416.1 226.8 L 1416.1 218.9 L 1417.4 218.9 L 1417.4 229.0 L 1416.0 229.0 L 1412.5 223.2 Q 1412.1 222.5, 1411.6 221.7 Q 1411.2 220.9, 1411.1 220.7 L 1411.1 229.0 L 1409.8 229.0 L 1409.8 218.9 L 1411.4 218.9 " fill="#0000FF"/>
<path class="atom-26" d="M 1539.4 230.4 L 1542.7 235.7 Q 1543.0 236.3, 1543.5 237.2 Q 1544.1 238.2, 1544.1 238.2 L 1544.1 230.4 L 1545.4 230.4 L 1545.4 240.5 L 1544.1 240.5 L 1540.5 234.6 Q 1540.1 234.0, 1539.6 233.2 Q 1539.2 232.4, 1539.1 232.1 L 1539.1 240.5 L 1537.8 240.5 L 1537.8 230.4 L 1539.4 230.4 " fill="#0000FF"/>
<path class="atom-29" d="M 1444.6 270.9 Q 1444.6 268.4, 1445.8 267.1 Q 1447.0 265.8, 1449.2 265.8 Q 1451.3 265.8, 1452.4 267.3 L 1451.5 268.0 Q 1450.7 267.0, 1449.2 267.0 Q 1447.7 267.0, 1446.9 268.0 Q 1446.1 269.0, 1446.1 270.9 Q 1446.1 272.9, 1446.9 274.0 Q 1447.8 275.0, 1449.4 275.0 Q 1450.5 275.0, 1451.8 274.3 L 1452.2 275.4 Q 1451.7 275.7, 1450.9 275.9 Q 1450.1 276.1, 1449.2 276.1 Q 1447.0 276.1, 1445.8 274.8 Q 1444.6 273.5, 1444.6 270.9 " fill="#00CC00"/>
<path class="atom-29" d="M 1453.4 265.2 L 1454.8 265.2 L 1454.8 276.0 L 1453.4 276.0 L 1453.4 265.2 " fill="#00CC00"/>
<path class="atom-30" d="M 1431.5 160.6 L 1434.8 165.9 Q 1435.1 166.4, 1435.6 167.4 Q 1436.2 168.4, 1436.2 168.4 L 1436.2 160.6 L 1437.5 160.6 L 1437.5 170.7 L 1436.1 170.7 L 1432.6 164.8 Q 1432.2 164.1, 1431.7 163.4 Q 1431.3 162.6, 1431.2 162.3 L 1431.2 170.7 L 1429.9 170.7 L 1429.9 160.6 L 1431.5 160.6 " fill="#0000FF"/>
<path class="legend" d="M 1375.7 385.7 Q 1375.7 383.7, 1376.7 382.6 Q 1377.7 381.5, 1379.5 381.5 Q 1381.3 381.5, 1382.1 382.6 Q 1382.9 383.7, 1382.9 385.7 L 1382.9 386.0 L 1377.2 386.0 Q 1377.2 387.3, 1377.9 388.1 Q 1378.5 388.8, 1379.7 388.8 Q 1380.3 388.8, 1380.9 388.7 Q 1381.5 388.5, 1382.2 388.2 L 1382.6 389.2 Q 1381.8 389.6, 1381.1 389.8 Q 1380.3 390.0, 1379.6 390.0 Q 1377.7 390.0, 1376.7 388.9 Q 1375.7 387.8, 1375.7 385.7 M 1379.5 382.7 Q 1378.6 382.7, 1378.0 383.2 Q 1377.4 383.8, 1377.3 384.8 L 1381.4 384.8 Q 1381.3 383.7, 1380.8 383.2 Q 1380.4 382.7, 1379.5 382.7 " fill="#000000"/>
<path class="legend" d="M 1384.2 377.7 L 1385.7 377.7 L 1385.7 389.9 L 1384.2 389.9 L 1384.2 377.7 " fill="#000000"/>
<path class="legend" d="M 1387.8 380.7 Q 1388.2 379.6, 1389.2 379.0 Q 1390.2 378.4, 1391.6 378.4 Q 1393.3 378.4, 1394.2 379.3 Q 1395.2 380.3, 1395.2 381.9 Q 1395.2 383.6, 1393.9 385.2 Q 1392.7 386.7, 1390.2 388.6 L 1395.4 388.6 L 1395.4 389.9 L 1387.8 389.9 L 1387.8 388.8 Q 1389.9 387.3, 1391.1 386.2 Q 1392.4 385.1, 1393.0 384.0 Q 1393.6 383.0, 1393.6 382.0 Q 1393.6 380.9, 1393.0 380.3 Q 1392.5 379.7, 1391.6 379.7 Q 1390.6 379.7, 1390.0 380.1 Q 1389.4 380.4, 1389.0 381.2 L 1387.8 380.7 " fill="#000000"/>
<path class="legend" d="M 1400.8 378.4 Q 1402.8 378.4, 1403.8 379.8 Q 1404.9 381.2, 1404.9 383.9 Q 1404.9 386.9, 1403.6 388.4 Q 1402.4 390.0, 1399.9 390.0 Q 1399.2 390.0, 1398.6 389.8 Q 1398.0 389.7, 1397.5 389.3 L 1398.1 388.3 Q 1398.9 388.7, 1399.9 388.7 Q 1401.5 388.7, 1402.3 387.7 Q 1403.2 386.7, 1403.3 384.5 Q 1402.7 385.1, 1401.9 385.3 Q 1401.2 385.6, 1400.4 385.6 Q 1399.4 385.6, 1398.7 385.2 Q 1397.9 384.8, 1397.4 384.0 Q 1397.0 383.2, 1397.0 382.2 Q 1397.0 381.1, 1397.5 380.2 Q 1398.0 379.4, 1398.9 378.9 Q 1399.7 378.4, 1400.8 378.4 M 1398.6 382.2 Q 1398.6 383.2, 1399.2 383.8 Q 1399.7 384.3, 1400.7 384.3 Q 1401.4 384.3, 1402.1 384.1 Q 1402.8 383.8, 1403.3 383.3 Q 1403.2 381.4, 1402.6 380.6 Q 1402.0 379.7, 1400.8 379.7 Q 1400.2 379.7, 1399.7 380.0 Q 1399.2 380.4, 1398.9 380.9 Q 1398.6 381.5, 1398.6 382.2 " fill="#000000"/>
<path class="legend" d="M 1411.1 382.8 Q 1412.1 382.8, 1412.8 383.2 Q 1413.6 383.7, 1414.1 384.4 Q 1414.5 385.2, 1414.5 386.2 Q 1414.5 387.3, 1414.0 388.2 Q 1413.5 389.0, 1412.6 389.5 Q 1411.8 390.0, 1410.7 390.0 Q 1408.7 390.0, 1407.6 388.6 Q 1406.6 387.3, 1406.6 384.5 Q 1406.6 381.5, 1407.9 380.0 Q 1409.1 378.4, 1411.6 378.4 Q 1412.3 378.4, 1412.9 378.6 Q 1413.5 378.7, 1414.0 379.1 L 1413.4 380.1 Q 1412.6 379.7, 1411.6 379.7 Q 1410.0 379.7, 1409.2 380.7 Q 1408.3 381.8, 1408.2 383.9 Q 1408.8 383.4, 1409.5 383.1 Q 1410.3 382.8, 1411.1 382.8 M 1410.7 388.7 Q 1411.3 388.7, 1411.8 388.4 Q 1412.3 388.0, 1412.6 387.5 Q 1412.9 386.9, 1412.9 386.2 Q 1412.9 385.2, 1412.3 384.7 Q 1411.8 384.1, 1410.8 384.1 Q 1410.1 384.1, 1409.4 384.4 Q 1408.7 384.6, 1408.2 385.1 Q 1408.3 387.0, 1408.9 387.8 Q 1409.5 388.7, 1410.7 388.7 " fill="#000000"/>
<path class="legend" d="M 1420.2 390.0 Q 1418.1 390.0, 1417.1 388.5 Q 1416.0 386.9, 1416.0 384.2 Q 1416.0 381.5, 1417.1 379.9 Q 1418.1 378.4, 1420.2 378.4 Q 1422.3 378.4, 1423.3 379.9 Q 1424.3 381.5, 1424.3 384.2 Q 1424.3 386.9, 1423.3 388.5 Q 1422.3 390.0, 1420.2 390.0 M 1420.2 388.7 Q 1421.4 388.7, 1422.1 387.6 Q 1422.7 386.4, 1422.7 384.2 Q 1422.7 382.0, 1422.1 380.8 Q 1421.4 379.7, 1420.2 379.7 Q 1419.0 379.7, 1418.3 380.8 Q 1417.6 382.0, 1417.6 384.2 Q 1417.6 386.4, 1418.3 387.6 Q 1419.0 388.7, 1420.2 388.7 " fill="#000000"/>
</svg>